<svg xmlns="http://www.w3.org/2000/svg" width="445" height="452.131" viewBox="0 0 445 452.131"><g transform="translate(-0.062 0)"><path d="M380.648,261.063a98.321,98.321,0,0,0-34.18-6.086c-1.473,0-2.941.039-4.406.1V52.251a26.03,26.03,0,0,0-26-26H287.027V6a6,6,0,0,0-12,0v20.25H211.742V6a6,6,0,0,0-12,0v20.25H136.46V6a6,6,0,0,0-12,0v20.25H61.175V6a6,6,0,0,0-12,0v20.25H26.062a26.03,26.03,0,0,0-26,26v340a26.028,26.028,0,0,0,26,26H272.1A98.587,98.587,0,1,0,380.648,261.063ZM26.062,406.251a14.014,14.014,0,0,1-14-14v-340a14.017,14.017,0,0,1,14-14H49.175V49.11a26,26,0,1,0,12,0V38.251h63.285V49.11a26,26,0,1,0,12,0V38.251h63.285V49.11a26,26,0,1,0,12,0V38.251h63.285V49.11a26,26,0,1,0,12,0V38.251h29.031a14.014,14.014,0,0,1,14,14V256.368a98.562,98.562,0,0,0-81.82,88.664c-.242,2.82-.363,5.691-.363,8.539a97.681,97.681,0,0,0,15.285,52.68ZM55.175,60.4a14,14,0,1,1-14,14,14,14,0,0,1,14-14Zm75.285,0a14,14,0,1,1-14,14A14,14,0,0,1,130.461,60.4Zm75.281,0a14,14,0,1,1-14,14A14,14,0,0,1,205.742,60.4Zm75.285,0a14,14,0,1,1-14,14A14,14,0,0,1,281.027,60.4Zm65.441,379.758a86.489,86.489,0,0,1-86.59-86.59c0-2.5.105-5.035.32-7.512a86.6,86.6,0,1,1,86.27,94.1Zm0,0" fill="#eb305f"/><path d="M376.211,323.828a6,6,0,0,0-8.484,0l-21.258,21.254-21.254-21.254a6,6,0,1,0-8.484,8.484l21.254,21.254L316.731,374.82a6,6,0,0,0,8.484,8.484l21.254-21.254L367.727,383.3a6,6,0,0,0,8.484-8.484l-21.258-21.254,21.258-21.254A6,6,0,0,0,376.211,323.828Zm0,0" fill="#eb305f"/><path d="M233.445,336.25H61.062a6,6,0,0,0,0,12H233.445a6,6,0,0,0,0-12Zm0,0" fill="#eb305f"/><path d="M61.063,238.32h220a6,6,0,0,0,0-12h-220a6,6,0,0,0,0,12Zm0,0" fill="#eb305f"/><path d="M61.063,183.355h220a6,6,0,0,0,0-12h-220a6,6,0,0,0,0,12Zm0,0" fill="#eb305f"/><path d="M61.063,293.281h195a6,6,0,0,0,0-12h-195a6,6,0,0,0,0,12Zm0,0" fill="#eb305f"/></g></svg>