<svg xmlns="http://www.w3.org/2000/svg" width="512.002" height="511.999" viewBox="0 0 512.002 511.999"><g transform="translate(0 -0.001)"><path d="M401.069,290.135A110.944,110.944,0,0,0,307.716,341.2l-31.424-17.138a22.554,22.554,0,0,1-11.759-19.806V276.029c5.717-7.484,22.076-30.814,29.892-61.764a33.918,33.918,0,0,0,12.774-26.53V153.6a34.031,34.031,0,0,0-8.533-22.4V85.813c.478-4.693,2.355-32.64-17.852-55.689C263.287,10.13,234.846,0,196.267,0s-67.021,10.129-84.54,30.123C91.512,53.173,93.389,81.119,93.867,85.813V131.2a34.031,34.031,0,0,0-8.533,22.4v34.133a33.946,33.946,0,0,0,12.774,26.53c7.817,30.95,24.183,54.281,29.892,61.764v28.228a22.565,22.565,0,0,1-11.75,19.806L40.116,365.586A76.952,76.952,0,0,0,0,433.17v36.164a8.536,8.536,0,0,0,8.533,8.533H321.1a110.909,110.909,0,1,0,79.971-187.732ZM17.067,460.8V433.17a59.881,59.881,0,0,1,31.224-52.6l76.134-41.532a39.6,39.6,0,0,0,20.642-34.782V273.068a8.565,8.565,0,0,0-1.98-5.47c-.213-.247-21.171-25.737-29.1-60.3a8.539,8.539,0,0,0-3.686-5.257,17.025,17.025,0,0,1-7.9-14.31V153.6a16.822,16.822,0,0,1,5.726-12.587,8.513,8.513,0,0,0,2.807-6.332V85.335a8.248,8.248,0,0,0-.077-1.118c-.026-.239-2.927-23.876,13.7-42.837,14.148-16.137,38.272-24.311,71.714-24.311,33.323,0,57.4,8.124,71.569,24.141,16.606,18.782,13.867,42.8,13.841,43.008a8.227,8.227,0,0,0-.077,1.118v49.348a8.522,8.522,0,0,0,2.816,6.332,16.842,16.842,0,0,1,5.717,12.587v34.133a17.015,17.015,0,0,1-7.893,14.31,8.5,8.5,0,0,0-3.686,5.257c-7.936,34.56-28.894,60.049-29.107,60.3a8.615,8.615,0,0,0-1.98,5.47v31.189a39.61,39.61,0,0,0,20.651,34.782l31.5,17.185A110.769,110.769,0,0,0,307.628,460.8H17.067Zm384,34.134a93.637,93.637,0,0,1-69.229-30.548A8.565,8.565,0,0,0,330.6,463a93.822,93.822,0,1,1,70.47,31.935Z" fill="#eb305f"/><path d="M149.058,27.7,81.986,94.769,51.7,64.484a9.2,9.2,0,0,0-13,13l36.787,36.787a9.192,9.192,0,0,0,13,0L162.062,40.7a9.2,9.2,0,0,0-13-13Z" transform="translate(302.179 330.557)" fill="#eb305f"/></g></svg>