<svg xmlns="http://www.w3.org/2000/svg" width="772" height="772" viewBox="0 0 772 772"><path d="M312.384,0H46.044A46.091,46.091,0,0,0,0,46.044v266.34a46.091,46.091,0,0,0,46.044,46.044h266.34a46.091,46.091,0,0,0,46.044-46.044V46.044A46.091,46.091,0,0,0,312.384,0Zm18.473,312.384a18.492,18.492,0,0,1-18.473,18.473H46.044a18.492,18.492,0,0,1-18.473-18.473V46.044A18.492,18.492,0,0,1,46.044,27.571h266.34a18.492,18.492,0,0,1,18.473,18.473Z" fill="#515c6f"/><path d="M342.384,0H76.044A46.091,46.091,0,0,0,30,46.044v266.34a46.091,46.091,0,0,0,46.044,46.044h266.34a46.091,46.091,0,0,0,46.044-46.044V46.044A46.091,46.091,0,0,0,342.384,0Zm18.473,312.384a18.492,18.492,0,0,1-18.473,18.473H76.044a18.492,18.492,0,0,1-18.473-18.473V46.044A18.492,18.492,0,0,1,76.044,27.571h266.34a18.492,18.492,0,0,1,18.473,18.473Z" transform="translate(383.571)" fill="#515c6f"/><path d="M312.384,30H46.044A46.091,46.091,0,0,0,0,76.044v266.34a46.091,46.091,0,0,0,46.044,46.044h266.34a46.091,46.091,0,0,0,46.044-46.044V76.044A46.091,46.091,0,0,0,312.384,30Zm18.473,312.384a18.492,18.492,0,0,1-18.473,18.473H46.044a18.492,18.492,0,0,1-18.473-18.473V76.044A18.492,18.492,0,0,1,46.044,57.571h266.34a18.492,18.492,0,0,1,18.473,18.473Z" transform="translate(0 383.571)" fill="#515c6f"/><path d="M374.643,195.429H223V43.786a13.786,13.786,0,0,0-27.571,0V195.429H43.786a13.786,13.786,0,0,0,0,27.571H195.429V374.643a13.786,13.786,0,0,0,27.571,0V223H374.643a13.786,13.786,0,0,0,0-27.571Z" transform="translate(383.571 383.571)" fill="#515c6f"/></svg>