<svg xmlns="http://www.w3.org/2000/svg" width="468.001" height="446" viewBox="0 0 468.001 446"><g transform="translate(0 -0.5)"><path d="M441.137,47.5H350V8.75a8.237,8.237,0,0,0-14.059-5.574L319.989,19.543,304.063,3.176a8.028,8.028,0,0,0-11.5,0L276.68,19.535,260.813,3.055a7.731,7.731,0,0,0-11.484,0L233.453,19.473,217.582,3.148a8.009,8.009,0,0,0-11.484.023L190.231,19.531,174.36,3.18a8,8,0,0,0-11.484,0L147.02,19.527,131.172,3.184a8.348,8.348,0,0,0-8.961-1.848A8.2,8.2,0,0,0,117,8.75V47.5H26.864A27.215,27.215,0,0,0,0,74.512v277.93C0,367.106,12.2,379.5,26.864,379.5H162.122l-14.172,51h-28.8a8,8,0,0,0,0,16H347.841a8,8,0,0,0,0-16h-28.8l-14.168-51H441.138C455.8,379.5,468,367.106,468,352.442V74.512A27.215,27.215,0,0,0,441.138,47.5ZM133,28.5l8.059,8.332A8.48,8.48,0,0,0,146.91,39.5h.055a8.318,8.318,0,0,0,5.77-2.668l15.871-16.473L184.48,36.652a8.018,8.018,0,0,0,11.488-.043L211.84,20.246,227.711,36.6a8,8,0,0,0,11.48,0l15.875-16.355,15.863,16.59a7.513,7.513,0,0,0,11.48,0L298.3,20.351l15.9,16.3a7.98,7.98,0,0,0,5.738,2.4,8.512,8.512,0,0,0,5.953-2.441L334,28.465V257.5H133ZM26.863,63.5H117v194H85.426a8,8,0,0,0,0,16H381.574a8,8,0,0,0,0-16H350V63.5h91.137A11.2,11.2,0,0,1,452,74.512V301.5H16V74.512A11.2,11.2,0,0,1,26.863,63.5Zm275.586,367h-137.9l14.172-51H288.278Zm138.688-67H26.864A11.244,11.244,0,0,1,16,352.441V317.5H452v34.941A11.244,11.244,0,0,1,441.137,363.5Zm0,0" fill="#eb305f"/><path d="M197,202.5h73a8,8,0,0,0,0-16H197.012a8,8,0,0,0,0,16Zm0,0" fill="#eb305f"/><path d="M304.754,219.5H162.246a8,8,0,0,0,0,16H304.754a8,8,0,0,0,0-16Zm0,0" fill="#eb305f"/><path d="M234,142.977A13.393,13.393,0,0,1,220.625,129.6a8,8,0,0,0-16,0A29.423,29.423,0,0,0,224,157.219V163.5a8,8,0,0,0,16,0v-5.145a29.376,29.376,0,0,0-6-58.133,13.377,13.377,0,1,1,13.375-13.375,8,8,0,1,0,16,0A29.421,29.421,0,0,0,240,58.09V54.5a8,8,0,1,0-16,0v4.727a29.376,29.376,0,0,0,10,57,13.375,13.375,0,0,1,0,26.75Zm0,0" fill="#eb305f"/></g></svg>