<svg xmlns="http://www.w3.org/2000/svg" width="480" height="464" viewBox="0 0 480 464"><path d="M344,192A136,136,0,1,0,480,328,136,136,0,0,0,344,192Zm0,256A120,120,0,1,1,464,328,120,120,0,0,1,344,448Zm0,0" fill="#eb305f"/><path d="M352,305.473V256H336v49.473A23.977,23.977,0,0,0,321.473,320H288v16h33.473A23.944,23.944,0,1,0,352,305.473ZM344,336a8,8,0,1,1,8-8A8,8,0,0,1,344,336Zm0,0" fill="#eb305f"/><path d="M240,320h16v16H240Zm0,0" fill="#eb305f"/><path d="M336,416h16v16H336Zm0,0" fill="#eb305f"/><path d="M432,320h16v16H432Zm0,0" fill="#eb305f"/><path d="M336,224h16v16H336Zm0,0" fill="#eb305f"/><path d="M16,344V112H384v72h16V72a40.047,40.047,0,0,0-40-40H304V24a24,24,0,0,0-48,0v8H144V24a24,24,0,0,0-48,0v8H40A40.047,40.047,0,0,0,0,72V344a40.047,40.047,0,0,0,40,40H200V368H40A24,24,0,0,1,16,344ZM272,24a8,8,0,0,1,16,0V56a8,8,0,0,1-16,0ZM112,24a8,8,0,0,1,16,0V56a8,8,0,0,1-16,0ZM40,48H96v8a24,24,0,0,0,48,0V48H256v8a24,24,0,0,0,48,0V48h56a24,24,0,0,1,24,24V96H16V72A24,24,0,0,1,40,48Zm0,0" fill="#eb305f"/><path d="M112,176a16,16,0,0,0-16-16H64a16,16,0,0,0-16,16v32a16,16,0,0,0,16,16H96a16,16,0,0,0,16-16ZM64,208V176H96v32Zm0,0" fill="#eb305f"/><path d="M192,176a16,16,0,0,0-16-16H144a16,16,0,0,0-16,16v32a16,16,0,0,0,16,16h32a16,16,0,0,0,16-16Zm-48,32V176h32v32Zm0,0" fill="#eb305f"/><path d="M272,200V176a16,16,0,0,0-16-16H224a16,16,0,0,0-16,16v32a16,16,0,0,0,16,16h16V208H224V176h32v24Zm0,0" fill="#eb305f"/><path d="M96,256H64a16,16,0,0,0-16,16v32a16,16,0,0,0,16,16H96a16,16,0,0,0,16-16V272A16,16,0,0,0,96,256ZM64,304V272H96v32Zm0,0" fill="#eb305f"/><path d="M176,256H144a16,16,0,0,0-16,16v32a16,16,0,0,0,16,16h32a16,16,0,0,0,16-16V272A16,16,0,0,0,176,256Zm-32,48V272h32v32Zm0,0" fill="#eb305f"/><path d="M352,184v-8a16,16,0,0,0-16-16H304a16,16,0,0,0-16,16v8h16v-8h32v8Zm0,0" fill="#eb305f"/></svg>