<svg xmlns="http://www.w3.org/2000/svg" width="968.002" height="864.804" viewBox="0 0 968.002 864.804"><g transform="translate(0.001)"><path d="M77.951,684.885H351.33V839.1H291.491a12.85,12.85,0,1,0,0,25.7H687.779a12.85,12.85,0,0,0,0-25.7h-71.1V684.885H890.058A78.035,78.035,0,0,0,968,606.942v-529A78.035,78.035,0,0,0,890.058,0H77.95A78.031,78.031,0,0,0,0,77.942v529A78.037,78.037,0,0,0,77.95,684.885ZM590.981,839.1H377.039V684.885H590.981ZM25.7,77.943A52.3,52.3,0,0,1,77.952,25.7H890.069A52.306,52.306,0,0,1,942.3,77.943V540.737a12.886,12.886,0,0,0-4.952-.987H30.653a12.886,12.886,0,0,0-4.952.987Zm0,486.519a12.741,12.741,0,0,0,4.952,1h906.7a12.741,12.741,0,0,0,4.952-1v42.481a52.3,52.3,0,0,1-52.243,52.243H77.952A52.3,52.3,0,0,1,25.7,606.943Zm0,0" transform="translate(0 0)" fill="#515c6f"/><path d="M52.269,314.907H313.878a154.119,154.119,0,0,0,271.748,0H847.235A22.293,22.293,0,0,0,869.5,292.638V191.556a22.305,22.305,0,0,0-22.269-22.278H585.626a154.119,154.119,0,0,0-271.748,0H52.269A22.305,22.305,0,0,0,30,191.556V292.638a22.293,22.293,0,0,0,22.269,22.269ZM596.56,194.978H843.805v94.23H596.56A153.991,153.991,0,0,0,596.56,194.978ZM449.752,113.6a128.5,128.5,0,1,1-128.5,128.5,128.5,128.5,0,0,1,128.5-128.5ZM55.7,194.978H302.943a153.991,153.991,0,0,0,0,94.23H55.7Zm0,0" transform="translate(34.249 100.344)" fill="#515c6f"/><path d="M132.2,148.637a24.118,24.118,0,1,0,24.126,24.118A24.121,24.121,0,0,0,132.2,148.637Zm0,25.7a1.581,1.581,0,1,1,1.581-1.581A1.578,1.578,0,0,1,132.2,174.336Zm0,0" transform="translate(123.392 169.683)" fill="#515c6f"/><path d="M345.513,196.873a24.118,24.118,0,1,0-24.126-24.118A24.115,24.115,0,0,0,345.513,196.873Zm0-25.7a1.581,1.581,0,1,1-1.581,1.581A1.578,1.578,0,0,1,345.513,171.173Zm0,0" transform="translate(366.894 169.683)" fill="#515c6f"/><path d="M78.88,148.637A24.118,24.118,0,1,0,103,172.755,24.121,24.121,0,0,0,78.88,148.637Zm0,25.7a1.581,1.581,0,1,1,1.581-1.581A1.585,1.585,0,0,1,78.88,174.336Zm0,0" transform="translate(62.516 169.683)" fill="#515c6f"/><path d="M398.833,196.873a24.118,24.118,0,1,0-24.118-24.118A24.121,24.121,0,0,0,398.833,196.873Zm0-25.7a1.581,1.581,0,1,1-1.581,1.581A1.585,1.585,0,0,1,398.833,171.173Zm0,0" transform="translate(427.774 169.683)" fill="#515c6f"/><path d="M206.1,234.018a12.86,12.86,0,0,0,18.17,0L253.1,205.173l28.836,28.845a12.852,12.852,0,0,0,18.17-18.178L271.275,187l28.836-28.836A12.849,12.849,0,1,0,281.941,140L253.1,168.833,224.269,140a12.849,12.849,0,1,0-18.17,18.17L234.935,187,206.1,215.839A12.855,12.855,0,0,0,206.1,234.018Zm0,0" transform="translate(230.897 155.436)" fill="#515c6f"/></g></svg>