<svg xmlns="http://www.w3.org/2000/svg" width="512" height="511.977" viewBox="0 0 512 511.977"><g transform="translate(0 -0.011)"><path d="M498.409,175.706,336.283,13.582a46.583,46.583,0,0,0-65.73,0L13.571,270.563a46.578,46.578,0,0,0,0,65.728l19.992,19.992.005.005.006.006,134.36,134.36h-18.6a10.666,10.666,0,0,0,0,21.332H208.6l154.053,0a10.666,10.666,0,0,0,0-21.332l-113.464,0,249.22-249.22A46.531,46.531,0,0,0,498.409,175.706ZM483.325,226.35,226.341,483.334a24.962,24.962,0,0,1-17.742,7.32h-.081a24.952,24.952,0,0,1-17.736-7.32L56.195,348.746l246.795-246.8A10.666,10.666,0,1,0,287.9,86.866L41.11,333.663,28.654,321.207a25.25,25.25,0,0,1,0-35.56L285.637,28.665a25.252,25.252,0,0,1,35.562,0l57.7,57.7-246.8,246.8a10.666,10.666,0,0,0,15.084,15.084l246.8-246.8,89.339,89.336A25.177,25.177,0,0,1,483.325,226.35Z" fill="#eb305f"/><path d="M262.8,308.064a10.669,10.669,0,0,0-15.085,0L163.782,392a10.666,10.666,0,1,0,15.084,15.085L262.8,323.149A10.667,10.667,0,0,0,262.8,308.064Z" fill="#eb305f"/><path d="M228.375,387.741,193.95,422.166a10.666,10.666,0,1,0,15.084,15.085l34.425-34.425a10.666,10.666,0,1,0-15.084-15.085Z" fill="#eb305f"/><path d="M260.054,356.065l-4.525,4.524a10.666,10.666,0,1,0,15.082,15.085l4.525-4.524a10.666,10.666,0,1,0-15.082-15.085Z" fill="#eb305f"/><path d="M407.073,163.793a10.666,10.666,0,0,0-15.084,0l-45.255,45.254a10.666,10.666,0,0,0,0,15.084L376.9,254.3a10.666,10.666,0,0,0,15.084,0l45.253-45.252a10.667,10.667,0,0,0,0-15.084Zm-22.628,67.88L369.36,216.589l30.17-30.169,15.084,15.085Z" fill="#eb305f"/><path d="M320.339,80.186a10.628,10.628,0,0,0,7.543-3.126l4.525-4.527A10.666,10.666,0,1,0,317.32,57.452L312.8,61.979a10.666,10.666,0,0,0,7.544,18.207Z" fill="#eb305f"/><path d="M107.215,358.057l-4.525,4.525a10.666,10.666,0,0,0,15.084,15.085l4.525-4.525a10.666,10.666,0,1,0-15.084-15.085Z" fill="#eb305f"/></g></svg>