<svg xmlns="http://www.w3.org/2000/svg" width="454.047" height="406.201" viewBox="0 0 454.047 406.201"><g transform="translate(0 -19.6)"><g transform="translate(0 19.6)"><path d="M390.578,19.6H63.469C32.808,19.6,0,36.3,0,83.069V302.378c0,46.771,32.808,63.469,63.469,63.469h121.08v40.425H164.433a9.764,9.764,0,0,0,0,19.529h128.89a9.764,9.764,0,0,0,0-19.529H269.5V365.847h121.08c46.771,0,63.469-32.808,63.469-63.469V83.069C454.047,36.3,421.237,19.6,390.578,19.6ZM249.97,406.272H204.077V365.847H249.97v40.425ZM434.518,302.378c0,13.182-4.3,43.94-43.94,43.94H63.469c-13.182,0-43.94-4.3-43.94-43.94V288.415H434.518Zm0-33.394H19.529V83.459c0-39.644,30.758-43.94,43.94-43.94H390.575c13.182,0,43.94,4.3,43.94,43.94Z" transform="translate(0 -19.6)" fill="#eb305f"/></g><g transform="translate(67.235 63.729)"><g transform="translate(0 0)"><path d="M373.168,57.713A9.764,9.764,0,0,0,359.5,59.654l-.009.013h.489l-72.844,97.645-34.177-44.429a9.719,9.719,0,0,0-15.036-.489l-55.658,63.274L141.445,105.95a9.727,9.727,0,0,0-16.7-.1L57.373,214.725a9.764,9.764,0,1,0,16.6,9.764l58.587-95.5,39.058,67.278a9.764,9.764,0,0,0,15.72,1.562l56.833-63.566,34.859,45.308a11.327,11.327,0,0,0,7.812,3.809,9.764,9.764,0,0,0,7.713-3.906L375.108,71.383a9.764,9.764,0,0,0-1.94-13.671Z" transform="translate(-55.086 -55.755)" fill="#eb305f"/></g></g></g></svg>