<svg xmlns="http://www.w3.org/2000/svg" width="479.482" height="480.007" viewBox="0 0 479.482 480.007"><g transform="translate(0 0)"><path d="M19.766,282.77a224.981,224.981,0,0,1-3.754-30.633,8.012,8.012,0,1,0-16,.863,241.129,241.129,0,0,0,4,32.8,8,8,0,0,0,7.84,6.48,8.358,8.358,0,0,0,1.527-.145,8.008,8.008,0,0,0,6.387-9.367Zm0,0" fill="#515c6f"/><path d="M55.492,367.52a8,8,0,0,0-13.16,9.113,239.882,239.882,0,0,0,20.656,25.809,8,8,0,0,0,11.785-10.824,224.683,224.683,0,0,1-19.281-24.1Zm0,0" fill="#515c6f"/><path d="M7.836,228.559a4.71,4.71,0,0,0,.664,0,8,8,0,0,0,8-7.344A221.689,221.689,0,0,1,21.156,190.7a8.014,8.014,0,0,0-15.641-3.5A239.929,239.929,0,0,0,.484,219.93a7.994,7.994,0,0,0,7.352,8.629Zm0,0" fill="#515c6f"/><path d="M122.285,430.824A223.729,223.729,0,0,1,97.18,412.847a8,8,0,1,0-10.191,12.336,242.781,242.781,0,0,0,26.887,19.258,8,8,0,1,0,8.41-13.6Zm0,0" fill="#515c6f"/><path d="M19.637,165.824a8,8,0,0,0,10.3-4.672A218.335,218.335,0,0,1,39.164,140a8,8,0,0,0-14.312-7.152,240.579,240.579,0,0,0-9.895,22.672,8,8,0,0,0,4.68,10.3Zm0,0" fill="#515c6f"/><path d="M27.684,312.586a8,8,0,0,0-15.145,5.184A242,242,0,0,0,25.41,348.242a8,8,0,0,0,14.273-7.227,223.593,223.593,0,0,1-12-28.43Zm0,0" fill="#515c6f"/><path d="M178.684,455.6a222.73,222.73,0,0,1-29.055-10.4,8,8,0,0,0-6.4,14.656,241.428,241.428,0,0,0,31.152,11.2,8.218,8.218,0,0,0,2.176.3,8,8,0,0,0,2.168-15.7Zm0,0" fill="#515c6f"/><path d="M45.586,307.266a8,8,0,1,0,14.8-6.09A178.668,178.668,0,0,1,51.148,272a8.006,8.006,0,0,0-15.633,3.465,195.941,195.941,0,0,0,10.07,31.8Zm0,0" fill="#515c6f"/><path d="M47.035,186.656a8.005,8.005,0,0,0,10.031-5.23,192.2,192.2,0,0,1,11.465-28.457,8,8,0,1,0-14.3-7.2A208.463,208.463,0,0,0,41.8,176.6a8,8,0,0,0,5.23,10.055Zm0,0" fill="#515c6f"/><path d="M47.684,241.641v-1.535a206.416,206.416,0,0,1,2.4-28.738,8,8,0,1,0-15.812-2.4,222.149,222.149,0,0,0-2.586,30.918v2.129a7.837,7.837,0,0,0,8,7.816,8.158,8.158,0,0,0,8-8.191Zm0,0" fill="#515c6f"/><path d="M136.355,396.68a222.03,222.03,0,0,1-23.711-19.742,8,8,0,0,0-11.066,11.551,236.219,236.219,0,0,0,25.434,21.184,8,8,0,1,0,9.344-12.992Zm0,0" fill="#515c6f"/><path d="M190.883,424.383a182.965,182.965,0,0,1-28.312-11.629A8,8,0,1,0,155.293,427a199.694,199.694,0,0,0,30.8,12.648,8,8,0,1,0,4.8-15.266Zm0,0" fill="#515c6f"/><path d="M90.539,365.344a8,8,0,0,0,1.273-11.238,227.509,227.509,0,0,1-17.6-25.4,8,8,0,1,0-13.727,8.184,244.417,244.417,0,0,0,18.824,27.2,8,8,0,0,0,11.246,1.262Zm0,0" fill="#515c6f"/><path d="M239.684,0A239.029,239.029,0,0,0,110.157,37.887L77.563,2.578A8,8,0,0,0,63.755,6.945l-16,120a8,8,0,0,0,9.051,8.977l112-16a8,8,0,0,0,4.734-13.344L143.411,73.945A192,192,0,1,1,239.684,432h-.1a156.036,156.036,0,0,1-18.9-1.152,8,8,0,0,0-1.918,15.887,172.943,172.943,0,0,0,20.8,1.266h.121A208,208,0,1,0,126.6,65.536a8,8,0,0,0-1.508,12.129l26.4,28.578L65.013,118.61,77.364,25.953l25.6,27.793a8,8,0,0,0,10.4,1.184A224,224,0,1,1,239.685,464a226.816,226.816,0,0,1-30.793-2.094,8,8,0,0,0-2.184,15.848A240,240,0,1,0,239.685,0Zm0,0" fill="#515c6f"/><path d="M239.684,88a8,8,0,0,0-8,8V240a8,8,0,0,0,2.344,5.656l80,80a8,8,0,0,0,11.312-11.312l-77.656-77.656V96a8,8,0,0,0-8-8Zm0,0" fill="#515c6f"/></g></svg>