<svg xmlns="http://www.w3.org/2000/svg" width="648.536" height="637.782" viewBox="0 0 648.536 637.782"><g transform="translate(0 -5.246)"><g transform="translate(0 5.246)"><path d="M190.011,443.8c26.709,37.658,53.375,71.339,71.048,93.032,2.573,3.157,4.983,6.085,7.318,8.906H215.045a10.809,10.809,0,1,0,0,21.617H387.987a10.809,10.809,0,1,0,0-21.617H334.656c2.334-2.821,4.745-5.751,7.329-8.906,17.661-21.618,44.317-55.374,71.036-93.032a949.7,949.7,0,0,0,71.4-115.083C506.5,285.377,517.7,249.394,517.7,221.767A216.031,216.031,0,0,0,454.387,68.7a10.809,10.809,0,1,0-15.3,15.272,194.5,194.5,0,0,1,56.985,137.793c0,24.191-10.4,56.876-30.913,97.14a928.23,928.23,0,0,1-69.782,112.414c-26.352,37.172-52.694,70.474-70.15,91.876-5.8,7.112-11.025,13.4-15.479,18.721a10.949,10.949,0,0,1-16.472,0c-4.454-5.318-9.674-11.609-15.479-18.721-17.456-21.39-43.8-54.694-70.15-91.876A928.236,928.236,0,0,1,137.87,318.906c-20.537-40.264-30.913-72.949-30.913-97.14A194.616,194.616,0,0,1,377.29,42.218a10.813,10.813,0,0,0,8.441-19.91c-110.072-46.426-236.939,5.145-283.4,115.2A215.386,215.386,0,0,0,85.34,221.765c0,27.627,11.2,63.611,33.271,107.009A949.039,949.039,0,0,0,190.011,443.8Z" transform="translate(22.758 -5.246)" fill="#515c6f"/><path d="M278.762,103.7a10.809,10.809,0,0,0,0-21.617,108.09,108.09,0,1,0,76.43,31.659,10.809,10.809,0,1,0-15.284,15.284A86.471,86.471,0,1,1,278.762,103.7Z" transform="translate(45.51 15.246)" fill="#515c6f"/><path d="M644.467,499.564l-66.475-118.9a33.6,33.6,0,0,0-29.411-16.981H471.545a10.809,10.809,0,1,0,0,21.617h77.035a11.988,11.988,0,0,1,10.56,5.9l66.454,118.9a9.727,9.727,0,0,1-.1,9.988,11.89,11.89,0,0,1-10.463,5.729H33.512a11.89,11.89,0,0,1-10.453-5.729,9.73,9.73,0,0,1-.1-9.988L89.416,391.2a11.975,11.975,0,0,1,10.549-5.9H177a10.809,10.809,0,1,0,0-21.617H99.966a33.614,33.614,0,0,0-29.432,16.981L4.068,499.564A31.348,31.348,0,0,0,4.4,531.03a33.293,33.293,0,0,0,29.108,16.409H615.035a33.291,33.291,0,0,0,29.1-16.409A31.345,31.345,0,0,0,644.467,499.564Z" transform="translate(0 90.341)" fill="#515c6f"/><path d="M436.342,406.351H393.107a10.872,10.872,0,0,0-6,1.816l-32.427,21.618a10.811,10.811,0,0,0,12,17.987l29.671-19.8h39.993a10.81,10.81,0,0,0,0-21.62Z" transform="translate(93.301 101.72)" fill="#515c6f"/><path d="M366.937,468.36a10.808,10.808,0,0,0,10.809,10.809h86.472a10.809,10.809,0,0,0,0-21.617H377.746A10.808,10.808,0,0,0,366.937,468.36Z" transform="translate(97.853 115.373)" fill="#515c6f"/><path d="M171.808,449.587a10.809,10.809,0,0,0,6.01-19.8l-32.427-21.618a10.875,10.875,0,0,0-6.01-1.816H96.146a10.809,10.809,0,1,0,0,21.617h39.993l29.7,19.8A10.788,10.788,0,0,0,171.808,449.587Z" transform="translate(22.757 101.719)" fill="#515c6f"/><path d="M70.546,457.551a10.809,10.809,0,1,0,0,21.617h86.472a10.809,10.809,0,1,0,0-21.617Z" transform="translate(15.93 115.373)" fill="#515c6f"/></g></g></svg>