<svg xmlns="http://www.w3.org/2000/svg" width="1414.934" height="1005.902" viewBox="0 0 1414.934 1005.902"><g transform="translate(0 -4.482)"><g transform="translate(246.446 489.452)"><path d="M304.174,307.05a22.6,22.6,0,0,1-15.6-6.205L26.041,54.559A22.8,22.8,0,1,1,57.295,21.344L319.823,267.63a22.812,22.812,0,0,1-15.65,39.42Z" transform="translate(594.988 -15.111)" fill="#eb305f"/><path d="M28.237,307a22.812,22.812,0,0,1-15.65-39.42L275.207,21.293A22.8,22.8,0,1,1,306.46,54.509L43.841,300.794A22.594,22.594,0,0,1,28.237,307Z" transform="translate(-5.402 -15.061)" fill="#eb305f"/></g><path d="M1300.87,1010.384H114.063A114.193,114.193,0,0,1,0,896.321V118.545A114.193,114.193,0,0,1,114.063,4.482H1300.87a114.193,114.193,0,0,1,114.063,114.063V896.321A114.193,114.193,0,0,1,1300.87,1010.384ZM114.063,50.107a68.522,68.522,0,0,0-68.438,68.438V896.321a68.522,68.522,0,0,0,68.438,68.438H1300.87a68.521,68.521,0,0,0,68.438-68.438V118.545a68.522,68.522,0,0,0-68.438-68.438Z" transform="translate(0 0)" fill="#eb305f"/><path d="M678.085,586.51c-30.341,0-60.682-10.083-83.768-30.2L8.487,45.256a22.815,22.815,0,1,1,29.976-34.4l585.83,511c29.155,25.413,78.43,25.413,107.539,0l585.1-510.183a22.83,22.83,0,0,1,30.021,34.4L761.853,556.26C738.721,576.427,708.426,586.51,678.085,586.51Z" transform="translate(29.382 35.557)" fill="#eb305f"/></g></svg>