<svg xmlns="http://www.w3.org/2000/svg" width="598.284" height="598.287" viewBox="0 0 598.284 598.287"><g transform="translate(0)"><path d="M480.852,598.286c-24.893,0-54.957-6.238-88.02-18.715-72.484-27.327-151.348-81.339-222.061-152.052C100.038,356.786,46.027,277.9,18.679,205.418c-24.852-65.9-24.913-120-.141-144.747,3.562-3.562,7.184-7.385,10.927-11.329C52.064,25.576,77.6-1.168,111.448.039c23.323.966,45.921,15.455,69.063,44.251,68.379,85.041,37.55,115.347,1.871,150.482l-6.3,6.238c-5.836,5.836-16.863,32.861,85.725,135.45,33.485,33.485,62.04,58,84.86,72.826,14.368,9.337,40.066,23.464,50.61,12.919l6.339-6.4c35.1-35.6,65.4-66.327,150.382,1.992,28.8,23.142,43.265,45.72,44.231,69.083,1.388,33.827-25.557,59.424-49.342,82-3.924,3.743-7.747,7.365-11.309,10.907C525.284,592.108,505.624,598.286,480.852,598.286ZM109.033,20.123c-24.047,0-45.76,22.86-64.978,43.084-3.864,4.065-7.607,8.009-11.289,11.692-18.453,18.433-16.582,66.87,4.749,123.437,26.362,69.868,78.743,146.216,147.5,214.978,68.741,68.721,145.049,121.1,214.937,147.444,56.567,21.371,105,23.182,123.416,4.769,3.683-3.683,7.627-7.425,11.692-11.269,20.667-19.64,44.11-41.9,43.084-66.588-.7-16.964-13.06-35.216-36.725-54.232-70.814-56.949-90.615-36.846-123.457-3.542l-6.439,6.5c-15.7,15.716-41.192,12.235-75.8-10.263-24.007-15.616-53.669-41.011-88.12-75.483-85.142-85.122-112.369-137.221-85.725-163.925l6.419-6.339c33.385-32.841,53.528-52.663-3.441-123.517-19.057-23.645-37.289-36-54.253-36.725C110.08,20.123,109.556,20.123,109.033,20.123Z" transform="translate(0 0)" fill="#515c6f"/></g></svg>