<svg xmlns="http://www.w3.org/2000/svg" width="474.549" height="475.885" viewBox="0 0 474.549 475.885"><g transform="translate(-0.441)"><path d="M473.738,328.543A23.656,23.656,0,0,0,450.922,312h-10.48V56a8,8,0,0,0-8-8h-112V8a8,8,0,0,0-8-8h-304a8,8,0,0,0-8,8V424a8,8,0,0,0,8,8h264.32l-4,12.336A24,24,0,0,0,305.706,471.2l41.934-30.543a8.06,8.06,0,0,1,9.512,0l42.012,30.559A24.013,24.013,0,0,0,436.1,444.344l-16.062-49.488a7.915,7.915,0,0,1,2.934-8.863l42.09-30.559a23.711,23.711,0,0,0,8.672-26.891ZM424.441,64V312h-25.52a7.941,7.941,0,0,1-2.473-.406,8.15,8.15,0,0,1-5.117-5.105L375.25,257.039a24,24,0,0,0-45.6,0L320.441,285.3V208h64a8,8,0,0,0,0-16h-64V160h64a8,8,0,0,0,0-16h-64V112h64a8,8,0,1,0,0-16h-64V64Zm-408,352V16h288V312h-50.48a24,24,0,0,0-14.145,43.434l42.074,30.551a7.927,7.927,0,0,1,2.945,8.9L277.968,416Zm439.2-73.5-42.078,30.559a23.869,23.869,0,0,0-8.738,26.777l16.082,49.441a8,8,0,0,1-12.32,8.973l-42.039-30.582a24.2,24.2,0,0,0-28.266,0l-41.992,30.559a8,8,0,0,1-12.328-8.965l16.074-49.418a23.883,23.883,0,0,0-8.746-26.816L249.242,342.5A8,8,0,0,1,253.96,328h52a22.367,22.367,0,0,0,9.648-2.1l.152-.086.145-.047c.113-.051.191-.145.3-.2a23.754,23.754,0,0,0,12.559-14.133L344.851,262a8,8,0,0,1,15.2,0l16.086,49.473A24.006,24.006,0,0,0,398.921,328h52a8,8,0,0,1,4.727,14.5Zm0,0" fill="#515c6f"/><path d="M72.441,80h176a8,8,0,0,0,0-16h-176a8,8,0,0,0,0,16Zm0,0" fill="#515c6f"/><path d="M72.441,144h176a8,8,0,0,0,0-16h-176a8,8,0,0,0,0,16Zm0,0" fill="#515c6f"/><path d="M72.441,208h176a8,8,0,0,0,0-16h-176a8,8,0,0,0,0,16Zm0,0" fill="#515c6f"/><path d="M256.441,264a8,8,0,0,0-8-8h-176a8,8,0,0,0,0,16h176A8,8,0,0,0,256.441,264Zm0,0" fill="#515c6f"/></g></svg>