<svg xmlns="http://www.w3.org/2000/svg" width="406.306" height="406.307" viewBox="0 0 406.306 406.307"><g transform="translate(238.072 150.778)"><path d="M307.936,190a7.936,7.936,0,1,0,7.936,7.936A7.936,7.936,0,0,0,307.936,190Z" transform="translate(-300 -190)" fill="#eb305f"/></g><path d="M397.008,352.122,291.082,246.2A158.831,158.831,0,1,0,246.2,291.084l29.279,29.279.013.013,76.634,76.634a31.74,31.74,0,0,0,44.888-44.886Zm-154.54-77.763h0a142.987,142.987,0,1,1,31.891-31.891A142.987,142.987,0,0,1,242.468,274.359Zm16.649,7.2a159.253,159.253,0,0,0,22.439-22.439l22.514,22.514a192.616,192.616,0,0,1-22.439,22.439ZM385.786,385.786a15.859,15.859,0,0,1-22.441,0L292.88,315.321a208.53,208.53,0,0,0,22.439-22.441l70.468,70.468a15.857,15.857,0,0,1,0,22.437Z" fill="#eb305f"/><g transform="translate(31.743 31.743)"><path d="M166.971,40A126.971,126.971,0,1,0,293.943,166.971,126.971,126.971,0,0,0,166.971,40Zm0,238.072a111.1,111.1,0,1,1,111.1-111.1,111.1,111.1,0,0,1-111.1,111.1Z" transform="translate(-40 -40)" fill="#eb305f"/></g><g transform="translate(150.778 63.486)"><path d="M286.874,141.163A95.37,95.37,0,0,0,197.936,80a7.936,7.936,0,1,0,0,15.872,79.9,79.9,0,0,1,74.114,50.977,7.936,7.936,0,1,0,14.816-5.694Z" transform="translate(-190 -80)" fill="#eb305f"/></g></svg>