<svg xmlns="http://www.w3.org/2000/svg" width="551.805" height="331.083" viewBox="0 0 551.805 331.083"><g transform="translate(0 -12)"><path d="M386.263,12H165.541C74.264,12,0,86.264,0,177.541S74.264,343.083,165.541,343.083H386.263c91.278,0,165.541-74.264,165.541-165.541S477.541,12,386.263,12Zm0,312.689H165.541c-81.134,0-147.148-66.014-147.148-147.148S84.408,30.393,165.541,30.393H386.263c81.134,0,147.148,66.014,147.148,147.148S467.4,324.689,386.263,324.689Z" fill="#eb305f"/><path d="M124.558,17A119.558,119.558,0,1,0,244.115,136.558,119.7,119.7,0,0,0,124.558,17Zm0,220.722A101.164,101.164,0,1,1,225.722,136.558,101.284,101.284,0,0,1,124.558,237.722Z" transform="translate(40.984 40.984)" fill="#eb305f"/><path d="M149.058,27.7,81.986,94.769,51.7,64.484a9.2,9.2,0,0,0-13,13l36.787,36.787a9.192,9.192,0,0,0,13,0L162.062,40.7a9.2,9.2,0,0,0-13-13Z" transform="translate(295.081 106.556)" fill="#eb305f"/></g></svg>