<svg xmlns="http://www.w3.org/2000/svg" width="396.807" height="396.817" viewBox="0 0 396.807 396.817"><path d="M338.68,164.938H281.015a11.625,11.625,0,1,0,0,23.251H338.68a34.915,34.915,0,0,1,34.876,34.866V338.672a34.915,34.915,0,0,1-34.876,34.876H207.259a34.915,34.915,0,0,1-34.876-34.876V211.17a12.939,12.939,0,0,1,12.924-12.924H211.5a36.213,36.213,0,0,0,36.174-36.174V58.127A58.192,58.192,0,0,0,189.558,0H58.127A58.192,58.192,0,0,0,0,58.127V181.8a58.192,58.192,0,0,0,58.127,58.134h91.006V338.69a58.192,58.192,0,0,0,58.127,58.127H338.68a58.192,58.192,0,0,0,58.127-58.127V223.055a58.194,58.194,0,0,0-58.127-58.127ZM149.122,216.672h-91A34.915,34.915,0,0,1,23.251,181.8V58.127A34.915,34.915,0,0,1,58.127,23.251H189.558a34.915,34.915,0,0,1,34.866,34.876V162.072A12.939,12.939,0,0,1,211.5,175H185.307a36.213,36.213,0,0,0-36.174,36.174Zm0,0" fill="#eb305f"/><path d="M280.32,400.379a67.846,67.846,0,0,0,67.773-67.773V329.1h10.6v59.651a11.625,11.625,0,0,0,23.251,0V329.1h4.6a11.625,11.625,0,1,0,0-23.251h-4.6V276.265a11.625,11.625,0,0,0-23.251,0v29.587H303.017a11.625,11.625,0,0,0,0,23.251h21.812v3.508a44.569,44.569,0,0,1-44.52,44.518,11.625,11.625,0,0,0,0,23.251Zm0,0" transform="translate(-60.459 -59.541)" fill="#eb305f"/><path d="M192.209,162.407l-35.362-83.3a11.625,11.625,0,0,0-21.4,0l-35.362,83.3a11.626,11.626,0,0,0,21.4,9.088l6.868-16.18h35.6l6.863,16.17a11.626,11.626,0,0,0,21.4-9.088Zm-53.988-30.334,7.925-18.675,7.928,18.675Zm0,0" transform="translate(-22.308 -16.204)" fill="#eb305f"/></svg>