<svg xmlns="http://www.w3.org/2000/svg" width="479.998" height="400" viewBox="0 0 479.998 400"><g transform="translate(0 -39.999)"><path d="M478.767,235.735A280.59,280.59,0,0,0,248,104.255V40H232v64.256A280.59,280.59,0,0,0,1.231,235.735a8,8,0,0,0,0,8.528A280.59,280.59,0,0,0,232,375.743V440h16V375.743a280.59,280.59,0,0,0,230.768-131.48A8,8,0,0,0,478.767,235.735ZM17.511,240a264.8,264.8,0,0,1,137.84-106.264A135.721,135.721,0,0,0,104.407,232H40v16h64.408a135.721,135.721,0,0,0,50.944,98.264A264.8,264.8,0,0,1,17.511,240ZM232,312v47.592A120,120,0,0,1,120.407,248H168V232H120.407A120,120,0,0,1,232,120.407V168h16V120.407A120,120,0,0,1,359.591,232H312v16h47.592A120,120,0,0,1,248,359.591V312Zm230.488-72a264.8,264.8,0,0,1-137.84,106.264A135.721,135.721,0,0,0,375.591,248H440V232H375.591a135.719,135.719,0,0,0-50.944-98.264A264.8,264.8,0,0,1,462.487,240Z" fill="#eb305f"/><path d="M240,184a56,56,0,1,0,56,56A56,56,0,0,0,240,184Zm0,96a40,40,0,1,1,40-40A40,40,0,0,1,240,280Z" fill="#eb305f"/><path d="M48,40a8,8,0,0,0-8,8v64H56V56h56V40Z" fill="#eb305f"/><path d="M432,40H368V56h56v56h16V48A8,8,0,0,0,432,40Z" fill="#eb305f"/><path d="M424,368v56H368v16h64a8,8,0,0,0,8-8V368Z" fill="#eb305f"/><path d="M56,424V368H40v64a8,8,0,0,0,8,8h64V424Z" fill="#eb305f"/></g></svg>