<svg xmlns="http://www.w3.org/2000/svg" xmlns:xlink="http://www.w3.org/1999/xlink" width="1013" height="373.861" viewBox="0 0 1013 373.861"><defs><clipPath id="a"><path d="M344.3,252.38H207.646L206.4,114.3H343.056Z" transform="translate(-206.4 -114.3)"/></clipPath></defs><g transform="translate(-2.208 -94.855)"><g transform="translate(60.029 167.177)"><path d="M35,135.5l3.559,3.025,3.559-3.025-3.559,7.829Z" transform="translate(-35 -135.5)" fill="#00a2ff"/></g><g transform="translate(184.23 222.16)"><path d="M104.8,166.4l3.025,3.559-3.025,3.559,7.829-3.559Z" transform="translate(-104.8 -166.4)" fill="#00a2ff"/></g><g transform="translate(369.819 221.449)"><path d="M209.1,166l3.025,3.559L209.1,173.3l7.829-3.737Z" transform="translate(-209.1 -166)" fill="#00a2ff"/></g><g transform="translate(293.839 402.767)"><path d="M174.229,267.9l-3.025,3.737,3.025,3.559-7.829-3.559Z" transform="translate(-166.4 -267.9)" fill="#00a2ff"/></g><g transform="translate(551.672 221.449)"><path d="M311.3,166l3.025,3.737L311.3,173.3l7.829-3.559Z" transform="translate(-311.3 -166)" fill="#00a2ff"/></g><g transform="translate(733.88 221.449)"><path d="M413.7,166l3.025,3.737L413.7,173.3l7.829-3.559Z" transform="translate(-413.7 -166)" fill="#00a2ff"/></g><g transform="translate(894.38 221.449)"><path d="M503.9,166l3.025,3.559L503.9,173.3l7.829-3.737Z" transform="translate(-503.9 -166)" fill="#00a2ff"/></g><g transform="translate(238.501 275.542)"><path d="M135.3,204.229l3.737-3.025,3.559,3.025-3.559-7.829Z" transform="translate(-135.3 -196.4)" fill="#00a2ff"/></g><path d="M60.276,138.813H31.806a6.379,6.379,0,0,1-6.406-6.406v-1.6a6.379,6.379,0,0,1,6.406-6.406h28.47a6.379,6.379,0,0,1,6.406,6.406v1.6A6.494,6.494,0,0,1,60.276,138.813Z" transform="translate(17.547 23.026)" fill="#00a2ff"/><path d="M160.7,241.113H132.406A6.379,6.379,0,0,1,126,234.707v-1.6a6.379,6.379,0,0,1,6.406-6.406H160.7a6.379,6.379,0,0,1,6.406,6.406v1.6A6.379,6.379,0,0,1,160.7,241.113Z" transform="translate(95.952 102.757)" fill="#00a2ff"/><line x2="0.712" y2="66.549" transform="translate(62.876 107.924)" fill="none" stroke="#00a2ff" stroke-linecap="round" stroke-miterlimit="10" stroke-width="0.5"/><line x2="0.178" y2="45.018" transform="translate(428.005 276.609)" fill="none" stroke="#00a2ff" stroke-linecap="round" stroke-miterlimit="10" stroke-width="0.5"/><line x2="0.178" y2="45.018" transform="translate(613.95 276.609)" fill="none" stroke="#00a2ff" stroke-linecap="round" stroke-miterlimit="10" stroke-width="0.5"/><line y2="45.018" transform="translate(794.201 276.609)" fill="none" stroke="#00a2ff" stroke-linecap="round" stroke-miterlimit="10" stroke-width="0.5"/><line x2="0.178" y2="64.058" transform="translate(955.413 107.39)" fill="none" stroke="#00a2ff" stroke-linecap="round" stroke-miterlimit="10" stroke-width="0.5"/><line x2="0.534" y2="48.933" transform="translate(497.4 225.719)" fill="none" stroke="#00a2ff" stroke-linecap="round" stroke-miterlimit="10" stroke-width="0.5"/><line x2="0.356" y2="26.335" transform="translate(498.112 287.641)" fill="none" stroke="#00a2ff" stroke-linecap="round" stroke-miterlimit="10" stroke-width="0.5"/><line x2="0.178" y2="13.879" transform="translate(546.867 392.091)" fill="none" stroke="#00a2ff" stroke-linecap="round" stroke-miterlimit="10" stroke-width="0.5"/><line x2="411.393" transform="translate(293.839 406.504)" fill="none" stroke="#00a2ff" stroke-linecap="round" stroke-miterlimit="10" stroke-width="0.5"/><line y2="75.09" transform="translate(242.237 276.609)" fill="none" stroke="#00a2ff" stroke-linecap="round" stroke-miterlimit="10" stroke-width="0.5"/><path d="M142.113,168.634c-25.089-.712-51.424-.712-76.513,0" transform="translate(48.878 57.085)" fill="none" stroke="#00a2ff" stroke-linecap="round" stroke-miterlimit="10" stroke-width="0.5"/><path d="M249.653,168.147c-27.758-.178-56.05-.178-83.453.356" transform="translate(127.284 57.039)" fill="none" stroke="#00a2ff" stroke-linecap="round" stroke-miterlimit="10" stroke-width="0.5"/><path d="M644.08,101.9c-201.248.178-404.809.178-607.48.534" transform="translate(26.276 5.49)" fill="none" stroke="rgba(0,106,186,0.98)" stroke-linecap="round" stroke-miterlimit="10" stroke-width="0.5"/><path d="M567.739,102.078c-22.242,0-45.018,0-67.439-.178" transform="translate(387.674 5.49)" fill="none" stroke="#00a2ff" stroke-linecap="round" stroke-miterlimit="10" stroke-width="0.5"/><path d="M350.572,168.1c-26.691,0-53.381,0-80.072.178" transform="translate(208.573 57.085)" fill="none" stroke="#00a2ff" stroke-linecap="round" stroke-miterlimit="10" stroke-width="0.5"/><path d="M453.072,168.158c-26.869-.178-53.381-.178-80.072,0" transform="translate(288.459 57.027)" fill="none" stroke="#00a2ff" stroke-linecap="round" stroke-miterlimit="10" stroke-width="0.5"/><path d="M534.575,168.634c-19.751-.356-39.5-.356-59.075-.534" transform="translate(368.346 57.085)" fill="none" stroke="#00a2ff" stroke-linecap="round" stroke-miterlimit="10" stroke-width="0.5"/><g transform="translate(2.886 164.986)"><circle cx="51.068" cy="51.068" r="51.068" transform="translate(9.456 9.487)" fill="none"/><g transform="translate(8.812 8.775)"><path d="M59.55,139.2a51.552,51.552,0,1,1-24.733,6.228A52.587,52.587,0,0,1,59.55,139.2Zm0,101.781a51.013,51.013,0,0,0,23.844-6.05A50.1,50.1,0,0,0,59.372,140.8a51.013,51.013,0,0,0-23.844,6.05A50.153,50.153,0,0,0,59.55,240.981Z" transform="translate(-7.838 -139.2)" fill="rgba(164,164,164,0.98)"/></g><circle cx="44.662" cy="44.662" r="44.662" transform="matrix(0.879, -0.477, 0.477, 0.879, 0, 42.59)" fill="none" stroke="#707070" stroke-miterlimit="10" stroke-width="1"/></g><circle cx="51.068" cy="51.068" r="51.068" transform="translate(376.936 174.473)" fill="none"/><g transform="translate(376.413 173.761)"><path d="M264.4,139.2a51.676,51.676,0,1,1-24.555,6.228A51.7,51.7,0,0,1,264.4,139.2Zm0,101.781a51.013,51.013,0,0,0,23.844-6.05A50.1,50.1,0,0,0,264.219,140.8a51.553,51.553,0,0,0-22.517,5.363c-.123.056-.729.366-1.327.687A50.1,50.1,0,0,0,264.4,240.981Z" transform="translate(-212.806 -139.2)" fill="rgba(164,164,164,0.98)"/></g><circle cx="44.662" cy="44.662" r="44.662" transform="matrix(0.879, -0.477, 0.477, 0.879, 367.486, 207.597)" fill="none" stroke="#707070" stroke-miterlimit="10" stroke-width="1"/><g transform="translate(549.864 164.975)"><circle cx="51.068" cy="51.068" r="51.068" transform="translate(9.459 9.498)" fill="none"/><g transform="translate(8.757 8.787)"><path d="M366.8,139.2a51.676,51.676,0,1,1-24.555,6.228A51.7,51.7,0,0,1,366.8,139.2Zm.178,101.781a51.013,51.013,0,0,0,23.844-6.05A50.1,50.1,0,0,0,366.8,140.8a51.013,51.013,0,0,0-23.844,6.05,50.1,50.1,0,0,0,24.022,94.129Z" transform="translate(-315.206 -139.2)" fill="rgba(164,164,164,0.98)"/></g><circle cx="44.662" cy="44.662" r="44.662" transform="matrix(0.879, -0.477, 0.477, 0.879, 0, 42.59)" fill="none" stroke="#707070" stroke-miterlimit="10" stroke-width="1"/></g><g transform="translate(732.086 165.027)"><circle cx="51.068" cy="51.068" r="51.068" transform="translate(9.445 9.446)" fill="none"/><g transform="translate(8.922 8.734)"><path d="M469.3,139.2a51.676,51.676,0,1,1-24.555,6.228A51.7,51.7,0,0,1,469.3,139.2Zm0,101.781a51.013,51.013,0,0,0,23.844-6.05A50.1,50.1,0,0,0,469.119,140.8a51.013,51.013,0,0,0-23.844,6.05A50.1,50.1,0,0,0,469.3,240.981Z" transform="translate(-417.706 -139.2)" fill="rgba(164,164,164,0.98)"/></g><circle cx="44.662" cy="44.662" r="44.662" transform="matrix(0.879, -0.477, 0.477, 0.879, 0, 42.59)" fill="none" stroke="#707070" stroke-miterlimit="10" stroke-width="1"/></g><circle cx="47.687" cy="47.687" r="47.687" transform="translate(15.9 177.854)" fill="rgba(0,106,186,0.98)"/><g transform="translate(26.399 241.022)"><path d="M37.256,179.7h0Z" transform="translate(0.111 -174.896)" fill="#84dbff"/><path d="M90.122,191.413a47.688,47.688,0,0,1-74.022,0C22.328,183.05,31.759,178.957,39.588,177c-.534,4.982,1.957,11.566,1.957,11.388,2.669-6.05,11.388-6.584,11.388-6.584s8.719.534,11.388,6.584c0,.178,2.669-6.406,1.957-11.388C74.464,178.957,84.072,183.05,90.122,191.413Z" transform="translate(-16.1 -177)" fill="#84dbff"/></g><path d="M52.43,175.647h0c0,.89-.356,5.694-10.5,9.431H41.4c-10.142-3.737-10.5-8.541-10.5-9.431h0a8.059,8.059,0,0,1,.534-2.847c2.847,3.737,6.406,6.228,10.32,6.228s7.3-2.491,10.32-6.228A13.83,13.83,0,0,1,52.43,175.647Z" transform="translate(21.833 60.748)" fill="#fff"/><g transform="translate(50.013 236.395)"><path d="M47.676,174.4s.534,5.338-10.676,9.609c0,0,8.719.534,11.388,6.584C48.388,190.592,53.37,177.6,47.676,174.4Z" transform="translate(-23.425 -174.4)" fill="#54c0eb"/><path d="M32.092,174.4c-5.694,3.2-.712,16.192-.534,16.014,2.669-6.05,11.388-6.584,11.388-6.584C31.558,179.738,32.092,174.4,32.092,174.4Z" transform="translate(-29.371 -174.4)" fill="#54c0eb"/></g><g transform="translate(43.748 198.168)"><path d="M59.351,172.1a21.221,21.221,0,0,1-6.05,12.278,17.719,17.719,0,0,1-1.957,1.779L50.1,182.425H37.287l-1.246,3.737c-2.313-1.779-7.473-6.762-7.473-11.566-2.135-26.869,18.506-21.175,18.506-21.175C60.775,152.353,60.419,164.631,59.351,172.1Z" transform="translate(-23.853 -152.916)" fill="#fff"/><path d="M49.037,169.518A8.226,8.226,0,0,1,45.3,172.9c.534-1.246.89-2.491,1.424-3.737h0c.356-1.068.534-2.313.89-3.381h0c.356-1.068.534-2.313.89-3.381.356,0,.534.178.89.356C50.638,163.824,50.638,166.848,49.037,169.518Z" transform="translate(-10.691 -145.525)" fill="#fff"/><path d="M30.921,172.82a6.818,6.818,0,0,1-3.737-3.381c-1.779-2.847-1.779-5.872,0-6.762.178,0,.178-.178.356-.178a44.977,44.977,0,0,0,2.135,6.584A23.009,23.009,0,0,0,30.921,172.82Z" transform="translate(-25.85 -145.447)" fill="#fff"/></g><path d="M54.148,151.81c.534-6.94-10.32-6.406-10.32-6.406C27.279,147.717,25.5,163.2,25.5,163.2l2.313-2.669c-3.559,7.651,1.779,21,2.313,22.064,2.847,9.253,8.9,17.616,16.014,17.616s13.345-8.541,16.014-17.616h0c.356-1.068.534-2.313.89-3.381h0c1.424-6.05,3.2-12.1,3.2-12.1C70.162,145.4,54.148,151.81,54.148,151.81Zm7.473,26.157a21.221,21.221,0,0,1-6.05,12.278c-.712.712-1.424,1.246-1.957,1.779l-1.246-3.737H39.557l-1.246,3.737a23.789,23.789,0,0,1-6.05-7.118,14.388,14.388,0,0,1-1.424-4.448c-2.135-26.869,18.506-21.175,18.506-21.175C63.045,158.216,62.689,170.493,61.621,177.967Z" transform="translate(17.625 39.389)" fill="#324a5e"/><g transform="translate(43.125 184.784)"><path d="M54.148,151.81c.534-6.94-10.32-6.406-10.32-6.406C27.279,147.717,25.5,163.2,25.5,163.2l2.313-2.669c-3.559,7.651,1.779,21,2.313,22.064,2.847,9.253,8.9,17.616,16.014,17.616s13.345-8.541,16.014-17.616h0c.356-1.068.534-2.313.89-3.381h0c1.424-6.05,3.2-12.1,3.2-12.1C70.162,145.4,54.148,151.81,54.148,151.81Zm7.473,26.157a21.221,21.221,0,0,1-6.05,12.278c-.712.712-1.424,1.246-1.957,1.779l-1.246-3.737H39.557l-1.246,3.737a23.789,23.789,0,0,1-6.05-7.118,14.388,14.388,0,0,1-1.424-4.448c-2.135-26.869,18.506-21.175,18.506-21.175C63.045,158.216,62.689,170.493,61.621,177.967Z" transform="translate(-25.5 -145.395)" fill="#324a5e"/></g><path d="M54.148,151.81c.534-6.94-10.32-6.406-10.32-6.406C27.279,147.717,25.5,163.2,25.5,163.2l2.313-2.669c-3.559,7.651,1.779,21,2.313,22.064,2.847,9.253,8.9,17.616,16.014,17.616s13.345-8.541,16.014-17.616h0c.356-1.068.534-2.313.89-3.381h0c1.424-6.05,3.2-12.1,3.2-12.1C70.162,145.4,54.148,151.81,54.148,151.81Zm7.473,26.157a21.221,21.221,0,0,1-6.05,12.278c-.712.712-1.424,1.246-1.957,1.779l-1.246-3.737H39.557l-1.246,3.737c-2.313-1.779-7.473-6.762-7.473-11.566-2.135-26.869,18.506-21.175,18.506-21.175C63.045,158.216,62.689,170.493,61.621,177.967Z" transform="translate(17.625 39.389)" fill="#324a5e"/><path d="M34,170.9a6.912,6.912,0,0,0,10.32,0Z" transform="translate(24.25 59.268)" fill="#fff"/><circle cx="47.331" cy="47.331" r="47.331" transform="translate(563.771 178.566)" fill="rgba(0,106,186,0.98)"/><g transform="translate(181.637 342.218)"><circle cx="51.068" cy="51.068" r="51.068" transform="translate(9.532 9.482)" fill="none"/><circle cx="44.662" cy="44.662" r="44.662" transform="matrix(0.879, -0.477, 0.477, 0.879, 0, 42.59)" fill="none" stroke="#707070" stroke-miterlimit="10" stroke-width="1"/><g transform="translate(9.009 8.948)"><path d="M160,238.9a51.676,51.676,0,1,1-24.555,6.228A51.7,51.7,0,0,1,160,238.9Zm0,101.781a51.014,51.014,0,0,0,23.844-6.05A50.1,50.1,0,0,0,159.819,240.5a51.013,51.013,0,0,0-23.844,6.05A50.1,50.1,0,0,0,160,340.681Z" transform="translate(-108.406 -238.9)" fill="rgba(164,164,164,0.98)"/></g></g><circle cx="47.331" cy="47.331" r="47.331" transform="translate(194.906 354.724)" fill="rgba(0,106,186,0.98)"/><path d="M137.812,278.9h0Z" transform="translate(104.604 143.441)" fill="#e6e9ee"/><path d="M192.157,288.912a47.078,47.078,0,0,1-76.157,0c6.762-7.117,15.836-11.032,23.488-12.812-.712,5.516,2.135,12.812,2.313,12.456,2.847-6.584,12.456-7.117,12.456-7.117s9.609.534,12.456,7.117c0,.178,2.847-7.117,2.313-12.456C176.321,277.879,185.4,281.616,192.157,288.912Z" transform="translate(88.159 141.258)" fill="#e6e9ee"/><path d="M154.366,275.694h0c0,.89-.534,6.05-11.566,10.32h-.534c-10.854-4.093-11.566-9.253-11.566-10.32h0A12.84,12.84,0,0,1,132.124,270c3.025,3.381,6.584,5.516,10.5,5.516,3.737,0,7.473-2.135,10.5-5.516A15.58,15.58,0,0,1,154.366,275.694Z" transform="translate(99.616 136.504)" fill="#fff"/><g transform="translate(235.654 422.518)"><path d="M133.7,302.629a41.639,41.639,0,0,0,6.762.534,43.3,43.3,0,0,0,6.762-.534L144.554,282.7h-8.185Z" transform="translate(-133.7 -276.116)" fill="#ff7058"/><path d="M146.689,280.6l-2.313,4.8h-8.363l-2.313-4.8a20.509,20.509,0,0,1,6.406-1.6A21.036,21.036,0,0,1,146.689,280.6Z" transform="translate(-133.7 -279)" fill="#f1543f"/></g><g transform="translate(227.227 412.02)"><path d="M149.144,273.1s.534,6.05-11.744,10.5c0,0,9.609.534,12.456,7.118C149.856,291.072,155.55,276.481,149.144,273.1Z" transform="translate(-122.389 -273.1)" fill="#cccaca"/><path d="M132.053,273.1c-6.406,3.559-.89,17.972-.712,17.616,2.847-6.584,12.456-7.118,12.456-7.118C131.519,278.972,132.053,273.1,132.053,273.1Z" transform="translate(-128.964 -273.1)" fill="#cccaca"/></g><path d="M153.164,271.424c-3.2,3.381-6.94,5.516-11.032,5.516S134.3,274.8,131.1,271.424a12.257,12.257,0,0,1,.534-1.424c3.025,3.381,6.584,5.516,10.5,5.516s7.473-2.135,10.5-5.516A3.4,3.4,0,0,1,153.164,271.424Z" transform="translate(99.927 136.504)" fill="#f4f3f2"/><path d="M167.195,274.22c-1.6,2.669-3.915,4.093-5.694,3.915-3.559,6.584-8.719,11.566-14.591,11.566s-11.032-4.982-14.591-11.566c-1.779.178-4.093-1.246-5.694-3.915-1.779-3.025-1.957-6.406-.178-7.473a4.188,4.188,0,0,1,1.424-.356,21.58,21.58,0,0,0,2.847,4.982c-1.779-9.431,5.338-10.5,4.093-19.573,0,0,4.448,9.787,17.082,2.847l-.89,1.779c17.616-3.915,11.744,16.726,11.566,17.26a27.69,27.69,0,0,0,4.093-7.3,1.359,1.359,0,0,1,.89.356C169.152,267.814,168.974,271.2,167.195,274.22Z" transform="translate(95.328 122.319)" fill="#fff"/><path d="M156.917,248.239c1.424-.178,3.737,1.068,3.737,1.068-6.406-7.3-16.726-2.669-16.726-2.669,3.559-3.025,6.584-2.669,6.584-2.669-14.769-2.313-17.438,6.584-17.438,6.584a4.392,4.392,0,0,1-.534-3.2c-1.068,1.779,0,5.338,0,5.338-1.068-2.669-4.626-2.135-4.626-2.135,3.2.534,3.737,2.491,3.737,2.491-7.829,2.847-6.406,11.032-6.406,11.032l1.779-2.313c-2.313,8.9,3.559,15.659,3.559,15.659-1.779-9.431,5.338-10.5,4.093-19.573,0,0,4.448,9.787,17.082,2.847l-.89,1.779c17.794-4.093,11.566,17.438,11.566,17.438a23.558,23.558,0,0,0,5.338-16.37l.712,3.025C170.441,253.4,156.917,248.239,156.917,248.239Z" transform="translate(95.285 115.916)" fill="#324a5e"/><circle cx="46.086" cy="46.086" r="46.086" transform="translate(382.63 179.989)" fill="rgba(0,106,186,0.98)"/><g transform="translate(365.015 129.455)"><path d="M239.586,153.4h8.541a.383.383,0,0,1,.356.356h0a.383.383,0,0,1-.356.356h-8.541a.383.383,0,0,1-.356-.356h0c-.178-.178,0-.356.356-.356" transform="translate(-180.867 -83.826)" fill="#fff" fill-rule="evenodd"/><path d="M262.657,171.534h0a2.865,2.865,0,0,1-.534,4.093l-22.954,18.684a2.918,2.918,0,0,1-3.559-4.626L258.565,171a2.728,2.728,0,0,1,4.093.534" transform="translate(-184.543 -70.644)" fill="#ffd7b7" fill-rule="evenodd"/><path d="M227.5,202.938l15.481,4.8,3.915-12.278,12.812-14.947L236.575,173.4Z" transform="translate(-189.955 -68.239)" fill="#ffd7b7" fill-rule="evenodd"/><path d="M261.957,176.677h0a2.865,2.865,0,0,1-.534,4.093l-22.954,18.683a2.918,2.918,0,1,1-3.559-4.626l22.954-18.684a3.054,3.054,0,0,1,4.093.534" transform="translate(-185.088 -66.534)" fill="#ffd7b7" fill-rule="evenodd"/><path d="M264.068,165.111h0a2.865,2.865,0,0,1-.534,4.093l-22.064,17.972a2.918,2.918,0,0,1-3.559-4.626l22.064-17.972a2.884,2.884,0,0,1,4.093.534" transform="translate(-182.75 -75.608)" fill="#ffd7b7" fill-rule="evenodd"/><path d="M239.594,152.6h16.37a5.733,5.733,0,0,1,5.694,5.694v43.595a5.733,5.733,0,0,1-5.694,5.694h-16.37a5.733,5.733,0,0,1-5.694-5.694V158.294a5.855,5.855,0,0,1,5.694-5.694" transform="translate(-184.967 -84.45)" fill="#0f394c" fill-rule="evenodd"/><path d="M236.012,155.2H257.72a.765.765,0,0,1,.712.712V200.04a.765.765,0,0,1-.712.712H236.012a.765.765,0,0,1-.712-.712V155.912a.652.652,0,0,1,.712-.712" transform="translate(-183.876 -82.423)" fill="#ccced1" fill-rule="evenodd"/><path d="M254.974,175.834h0a2.865,2.865,0,0,1-.534,4.093l-4.271,3.381a2.918,2.918,0,0,1-3.559-4.626l4.271-3.381a2.744,2.744,0,0,1,4.093.534" transform="translate(-175.969 -67.292)" fill="#ffd7b7" fill-rule="evenodd"/><path d="M255.64,170.434h0a2.865,2.865,0,0,1-.534,4.093l-3.737,2.847a2.918,2.918,0,0,1-3.559-4.626l3.737-2.847a2.744,2.744,0,0,1,4.093.534" transform="translate(-175.034 -71.501)" fill="#ffd7b7" fill-rule="evenodd"/><path d="M245.142,199.3l2.135-6.406L227.348,187.2v.178c-1.779,5.16-1.068,3.915,7.3,8.9a8.389,8.389,0,0,0,2.669,1.068Z" transform="translate(-190.693 -57.483)" fill="#0f394c" fill-rule="evenodd"/><path d="M247.965,171.812l1.068-.712a3.793,3.793,0,0,1,2.847,3.559l-.89.712c-2.847,2.135-5.16-1.957-3.025-3.559" transform="translate(-174.655 -70.031)" fill="#fff2e8" fill-rule="evenodd"/><path d="M246.8,177.512l1.068-.712a3.793,3.793,0,0,1,2.847,3.559l-.89.712c-2.847,1.957-5.338-1.957-3.025-3.559" transform="translate(-175.624 -65.589)" fill="#fff2e8" fill-rule="evenodd"/><path d="M227.5,188.7l1.423-3.2,17.972,6.584-1.068,1.957Z" transform="translate(-189.955 -58.808)" fill="#fff" fill-rule="evenodd"/><circle cx="1.068" cy="1.068" r="1.068" transform="translate(49.289 137.546)" fill="#fff"/><rect width="19.573" height="15.481" transform="translate(52.848 81.674)" fill="#f0f1f2" opacity="0.57"/><path d="M246.462,182.368a1.148,1.148,0,0,1-1.068,1.068h-4.626a1.148,1.148,0,0,1-1.068-1.068h0a1.148,1.148,0,0,1,1.068-1.068h4.626q1.068.267,1.068,1.068Z" transform="translate(-180.447 -62.082)" fill="#fff" fill-rule="evenodd"/><text transform="translate(57.248 86.398)" fill="#f7032c" font-size="3" font-family="SegoeUI, Segoe UI"><tspan x="0" y="0">BOOK </tspan><tspan x="0" y="3">ONLINE</tspan></text><g transform="translate(39.45 89.147)"><path d="M231.47,198.742l3.2-6.762,2.135,1.423,9.787-19.929c2.135-3.737,0-7.473-2.135-9.075L232,185.4c-1.068,1.779-4.626,15.836-3.025,16.9" transform="translate(-228.571 -164.4)" fill="#ffd7b7" fill-rule="evenodd"/><path d="M239.3,164.934c-.178-.178-.534-.356-.712-.534l-2.491,4.271c1.6.356,2.669-2.135,3.2-3.737" transform="translate(-222.703 -164.4)" fill="#fff2e8" fill-rule="evenodd"/></g><path d="M257.62,155.2H235.912a.765.765,0,0,0-.712.712v.712l22.6,43.951c.178-.178.356-.356.356-.534V155.912C258.332,155.556,258.154,155.2,257.62,155.2Z" transform="translate(-183.954 -82.423)" fill="#ccced1" fill-rule="evenodd"/><g transform="translate(57.652 99.645)"><path d="M244.316,170.3a5.516,5.516,0,1,0,5.516,5.516A5.663,5.663,0,0,0,244.316,170.3Zm0,10.5a4.982,4.982,0,1,1,4.982-4.982A5.092,5.092,0,0,1,244.316,180.8Z" transform="translate(-238.8 -170.3)" fill="#f6f6f6"/><circle cx="3.737" cy="3.737" r="3.737" transform="translate(1.779 1.779)" fill="#f6f6f6"/></g><g clip-path="url(#a)"><g transform="translate(61.994 104.158)"><path d="M250.9,194.647l4.982,12.812H271.9L266.025,191.8Z" transform="translate(-233.712 -158.056)" fill="#ffd7b7" fill-rule="evenodd"/><path d="M269.582,195.6l3.2,8.719v.178H253.212l-.712-2.135Z" transform="translate(-232.465 -155.094)" fill="#0f394c" fill-rule="evenodd"/><path d="M243.2,186.566l7.473,10.854c.89,1.423,3.737,3.2,5.16,2.313a3.11,3.11,0,0,0,.534-4.448l-5.694-7.3c-3.381-4.271-6.05-2.491-7.473-1.424" transform="translate(-239.713 -163.142)" fill="#deb99b" fill-rule="evenodd"/><path d="M247.04,174.729l6.05,14.057c.534-2.491,4.271-3.025,5.694-.534.178-2.669,3.737-3.381,5.338-1.423.534-2.491,4.271-2.669,5.338,0l5.16,11.922c-.712,2.135-4.093,4.093-6.228,5.338-6.05,3.381-4.982,2.847-8.541,4.448-2.669,1.246-1.6-.178-3.559,1.246L241.7,177.4c-2.135-4.448,3.737-6.228,5.338-2.669" transform="translate(-241.24 -172.836)" fill="#ffd7b7" fill-rule="evenodd"/><path d="M260.789,185.026s-.89-2.313-1.779-4.448c0,.178-.178.178-.178.356l-.534-.534c1.068,2.135,2.491,4.626,2.491,4.626M247.8,182.713c0-.178.178-.356.178-.534.89,2.313,2.491,6.406,2.491,6.406s-1.957-3.915-2.669-5.872h0m4.982-1.246a1.776,1.776,0,0,1,.712.89v-.534c1.068,2.313,2.135,5.16,2.135,5.16s-1.779-3.381-2.847-5.516" transform="translate(-236.128 -166.941)" fill="#deb99b" fill-rule="evenodd"/></g><path d="M245.914,174.609l.534,1.246a3.4,3.4,0,0,1-4.093,1.957l-.534-1.068c-1.424-3.381,3.025-4.8,4.093-2.135" transform="translate(-179.01 -68.38)" fill="#fff2e8" fill-rule="evenodd"/></g></g><g transform="translate(592.775 218.779)"><path d="M353.083,164.5A18.681,18.681,0,0,0,334.4,183.183a26.69,26.69,0,0,0,2.847,11.21,56.785,56.785,0,0,0,6.228,10.676,98.132,98.132,0,0,0,9.075,11.21.86.86,0,0,0,1.246,0,101.368,101.368,0,0,0,9.075-11.21,68.5,68.5,0,0,0,6.228-10.676,27.333,27.333,0,0,0,2.847-11.21C371.589,172.863,363.226,164.5,353.083,164.5Z" transform="translate(-334.4 -164.5)" fill="#18566b"/><path d="M346.678,204.1a68.51,68.51,0,0,1-6.228-10.676,27.333,27.333,0,0,1-2.847-11.21A18.671,18.671,0,0,1,350.237,164.6,18.769,18.769,0,0,0,334.4,183.106a26.69,26.69,0,0,0,2.847,11.21,56.785,56.785,0,0,0,6.228,10.676,98.132,98.132,0,0,0,9.075,11.21.86.86,0,0,0,1.246,0s.534-.534,1.424-1.6A77.715,77.715,0,0,1,346.678,204.1Z" transform="translate(-334.4 -164.422)" fill="#0f394c"/><path d="M350.979,167.3a13.879,13.879,0,1,0,13.879,13.879A13.9,13.9,0,0,0,350.979,167.3Z" transform="translate(-332.296 -162.318)" fill="#7fcaf4"/><path d="M340.21,179.21l2.491-1.957a.334.334,0,0,1,.534,0l2.669,2.669a.334.334,0,0,0,.534,0l8.363-8.363c.178-.178.534-.178.534,0l1.957,2.491a.334.334,0,0,1,0,.534l-10.854,9.965a.334.334,0,0,1-.534,0l-5.872-5.16C339.854,179.566,340.032,179.21,340.21,179.21Z" transform="translate(-330.068 -159.103)" fill="#fff"/></g><g transform="translate(745.268 178.566)"><path d="M467.432,236.563A47.332,47.332,0,1,0,420.1,189.232,47.425,47.425,0,0,0,467.432,236.563Z" transform="translate(-420.1 -141.9)" fill="rgba(0,106,186,0.98)"/><path d="M446.226,162.2h8.9l.712,7.473,1.246,1.068,2.669,1.779-9.075,21.531L441.6,172.52l2.669-1.779,1.246-1.068.712-7.473Z" transform="translate(-403.343 -126.079)" fill="#f0b97d"/><path d="M456.339,167.3l-12.989,4.093a5.172,5.172,0,0,0-1.957,2.491c-3.915,4.093-16.192,17.616-16.192,21,0,4.093,10.5,13.879,10.5,13.879h4.982v3.559h45.552V208.76h4.982s10.5-9.787,10.5-13.879c0-3.381-12.278-16.9-16.192-21a4.207,4.207,0,0,0-1.957-2.491L470.752,167.3l-1.068,3.2-6.228-.356-6.05.356-1.067-3.2Zm-15.659,23.666h0l1.6,6.406-.356,6.762-1.246-1.6-4.626-6.584,4.626-4.982Zm45.552,11.744h0l-1.246,1.424-.356-7.829,1.6-5.16,4.626,5.16Z" transform="translate(-416.125 -122.104)" fill="#18566b"/><path d="M443.379,167.3l-1.779.534,9.075,22.064,9.075-22.064-1.779-.534-4.626,2.847h-5.516l-4.448-2.847Z" transform="translate(-403.343 -122.104)" fill="#f1f1f1"/><path d="M444.181,167.3l-2.847.89-.534,7.118s.178.534.534.534l2.491.89a.246.246,0,0,1,0,.356l-2.135,1.423,7.473,14.057h4.271l7.473-14.057-2.135-1.423a.246.246,0,0,1,0-.356l2.491-.89c.356,0,.534-.534.534-.534l-.534-7.118-2.669-.89-7.3,21.353L444.181,167.3Z" transform="translate(-403.967 -122.104)" fill="#20d0c2"/><path d="M462.21,157.285c0,.712.178,1.424.178,1.957,2.313-.356,1.246,6.584-.178,7.473-.178,0-.356-.178-.534-.178-.534,2.669-4.448,9.431-6.94,12.456-.712.89-4.982.712-5.694,0-2.669-2.847-6.584-9.787-6.94-12.456-.178.178-.534.356-.534.178-1.423-.89-2.491-8.007-.178-7.473,0-.712.178-1.424.178-1.957.178-5.516,5.16-8.185,10.32-8.185s10.142,2.847,10.32,8.185Z" transform="translate(-404.558 -136.288)" fill="#fed198"/><path d="M458.783,151.461a4.094,4.094,0,0,1,3.737,3.559,32.737,32.737,0,0,1,.178,5.516,2.358,2.358,0,0,0-1.779,1.957c-.178,1.6,0,1.6,0,1.6l-.534-.178-.356-2.847c-2.313-1.423,0-3.737-2.313-4.27-6.406,4.626-12.1,3.737-14.591,1.6,0,0,.534,2.313.178,3.025a3.113,3.113,0,0,0-.178,2.135h-.534s.178-3.381-1.246-3.2c-5.16-8.185,10.676-18.328,17.438-8.9Z" transform="translate(-404.334 -137.404)" fill="#666"/><g transform="translate(40.036 42.527)"><path d="M444.735,165.8a28.042,28.042,0,0,1-2.135,2.669l1.957,6.762,5.338-3.915c-2.847-1.424-4.626-3.2-5.16-5.516Z" transform="translate(-442.6 -165.8)" fill="#fff"/><path d="M451.86,165.8A28.031,28.031,0,0,0,454,168.469l-1.957,6.762-5.338-3.915c3.025-1.424,4.8-3.2,5.16-5.516Z" transform="translate(-439.404 -165.8)" fill="#fff"/></g><path d="M436.116,188.5c3.025,0,5.516,1.6,5.516,3.381,0,1.957-2.491,3.381-5.516,3.381s-5.516-1.6-5.516-3.381C430.6,189.924,433.091,188.5,436.116,188.5Zm0,.89h0c-2.313,0-4.271,1.068-4.271,2.491s1.957,2.491,4.271,2.491,4.27-1.068,4.27-2.491S438.429,189.39,436.116,189.39Z" transform="translate(-411.917 -105.581)" fill="#ecf0f1"/><path d="M435.571,193.982c2.313,0,4.27-1.068,4.27-2.491S437.884,189,435.571,189s-4.271,1.068-4.271,2.491C431.3,192.737,433.257,193.982,435.571,193.982Z" transform="translate(-411.371 -105.191)" fill="#377bb9"/><path d="M433.635,192.993v2.669a.568.568,0,0,1-.534.534h-1.068a.568.568,0,0,1-.534-.534v-5.338a1.531,1.531,0,0,1,1.423-1.424h8.9a1.531,1.531,0,0,1,1.423,1.424v5.338a.568.568,0,0,1-.534.534h-1.068a.568.568,0,0,1-.534-.534v-2.669h-.89v2.669a.568.568,0,0,1-.534.534h-1.068a.568.568,0,0,1-.534-.534v-2.669h-.89v2.669a.568.568,0,0,1-.534.534h-1.068a.568.568,0,0,1-.534-.534v-2.669Z" transform="translate(-411.215 -105.269)" fill="#fbb429"/><path d="M462.216,188.5c-3.025,0-5.516,1.6-5.516,3.381,0,1.957,2.491,3.381,5.516,3.381s5.516-1.6,5.516-3.381C467.554,189.924,465.241,188.5,462.216,188.5Zm0,.89h0c2.313,0,4.271,1.068,4.271,2.491s-1.957,2.491-4.271,2.491-4.27-1.068-4.27-2.491S459.725,189.39,462.216,189.39Z" transform="translate(-391.575 -105.581)" fill="#ecf0f1"/><path d="M461.671,193.982c2.313,0,4.271-1.068,4.271-2.491S463.984,189,461.671,189s-4.27,1.068-4.27,2.491C457.4,192.737,459.179,193.982,461.671,193.982Z" transform="translate(-391.029 -105.191)" fill="#333"/><path d="M464.909,192.993v2.669a.568.568,0,0,0,.534.534h1.068a.568.568,0,0,0,.534-.534v-5.338a1.531,1.531,0,0,0-1.424-1.424h-8.9a1.531,1.531,0,0,0-1.424,1.424v5.338a.568.568,0,0,0,.534.534H456.9a.568.568,0,0,0,.534-.534v-2.669h.89v2.669a.568.568,0,0,0,.534.534h1.068a.568.568,0,0,0,.534-.534v-2.669h.89v2.669a.568.568,0,0,0,.534.534h1.068a.568.568,0,0,0,.534-.534v-2.669Z" transform="translate(-392.666 -105.269)" fill="#fbb429"/><path d="M434.247,173.6H483a2.811,2.811,0,0,1,2.847,2.847v27.047A2.811,2.811,0,0,1,483,206.341H434.247a2.811,2.811,0,0,1-2.847-2.847V176.447A2.926,2.926,0,0,1,434.247,173.6Z" transform="translate(-411.293 -117.194)" fill="#fff"/><path d="M432.468,192.8h52.314a1.148,1.148,0,0,1,1.068,1.068V196a1.148,1.148,0,0,1-1.068,1.068H432.468A1.148,1.148,0,0,1,431.4,196v-2.135A1.026,1.026,0,0,1,432.468,192.8Z" transform="translate(-411.293 -102.23)" fill="#c8cacc"/><g transform="translate(28.114 68.684)"><path d="M435.9,191.6h4.626v3.2H435.9Zm33.808,0h4.626v3.2h-4.626Z" transform="translate(-435.9 -171.849)" fill="#ecf0f1"/><path d="M443.878,180.5H454.2a.174.174,0,0,1,.178.178v2.313a.174.174,0,0,1-.178.178h-10.32a.174.174,0,0,1-.178-.178v-2.313Z" transform="translate(-429.821 -180.5)" fill="#ecf0f1"/></g></g><g transform="translate(893.424 161.458)"><circle cx="51.068" cy="51.068" r="51.068" transform="translate(9.497 9.456)" fill="none"/><g transform="translate(8.973 8.744)"><path d="M560,137.2a51.676,51.676,0,1,1-24.556,6.228A51.7,51.7,0,0,1,560,137.2Zm0,101.958a51.014,51.014,0,0,0,23.844-6.05,50.1,50.1,0,0,0-24.022-94.129,51.013,51.013,0,0,0-23.844,6.05A50.1,50.1,0,0,0,560,239.158Z" transform="translate(-508.406 -137.2)" fill="rgba(164,164,164,0.98)"/></g><circle cx="44.662" cy="44.662" r="44.662" transform="matrix(0.879, -0.477, 0.477, 0.879, 0, 42.59)" fill="none" stroke="#707070" stroke-miterlimit="10" stroke-width="1"/></g><path d="M558.132,234.663A47.332,47.332,0,1,0,510.8,187.332,47.425,47.425,0,0,0,558.132,234.663Z" transform="translate(395.858 35.185)" fill="rgba(0,106,186,0.98)"/><g transform="translate(181.71 164.973)"><circle cx="51.068" cy="51.068" r="51.068" transform="translate(9.459 9.5)" fill="none"/><g transform="translate(8.936 8.788)"><path d="M160,139.2a51.676,51.676,0,1,1-24.555,6.228A51.7,51.7,0,0,1,160,139.2Zm0,101.781a51.013,51.013,0,0,0,23.844-6.05A50.1,50.1,0,0,0,159.819,140.8a51.013,51.013,0,0,0-23.844,6.05A50.1,50.1,0,0,0,160,240.981Z" transform="translate(-108.406 -139.2)" fill="rgba(164,164,164,0.98)"/></g><circle cx="44.662" cy="44.662" r="44.662" transform="matrix(0.879, -0.477, 0.477, 0.879, 0, 42.59)" fill="none" stroke="#707070" stroke-miterlimit="10" stroke-width="1"/></g><circle cx="47.687" cy="47.687" r="47.687" transform="translate(194.55 177.32)" fill="#c2cbce"/><g transform="translate(223.198 208.103)"><path d="M139,158.5h17.616l-13.345,9.431Z" transform="translate(-117.114 -158.5)" fill="#dbe165"/><path d="M136,172.065h17.616l-7.473-9.965Z" transform="translate(-119.452 -155.694)" fill="#d45926"/><path d="M126.7,171.419l11.922-8.719,4.8,8.719Z" transform="translate(-126.7 -155.227)" fill="#6dad38"/><path d="M141.516,158.5,136,174.87l11.388-8.363Z" transform="translate(-119.452 -158.5)" fill="#cfb600"/><path d="M132.6,167.041l11.566-8.541-5.516,16.37Z" transform="translate(-122.102 -158.5)" fill="#d36728"/></g><g transform="translate(215.013 231.591)"><path d="M130.285,180.419H129.04l-.89-2.491h-3.915l-.89,2.491H122.1l3.559-8.719h1.068Zm-2.491-3.381-1.424-3.737c0-.178-.178-.356-.178-.534h0c0,.178-.178.356-.178.534l-1.424,3.737Z" transform="translate(-122.1 -171.7)" fill="#535359"/><path d="M128.568,178.338h0v3.737H127.5v-8.9h1.068v1.068h0A2.323,2.323,0,0,1,130.7,173a2.549,2.549,0,0,1,1.957.89,2.836,2.836,0,0,1,.712,2.135,3.765,3.765,0,0,1-.712,2.491,2.947,2.947,0,0,1-2.135.89A2.233,2.233,0,0,1,128.568,178.338Zm0-2.491v.89a1.779,1.779,0,0,0,3.2,1.068,3.2,3.2,0,0,0,.534-1.957,2.175,2.175,0,0,0-.534-1.6,1.751,1.751,0,0,0-1.424-.534,2.021,2.021,0,0,0-1.424.534A5.2,5.2,0,0,0,128.568,175.847Z" transform="translate(-117.891 -170.687)" fill="#535359"/><path d="M133.068,178.338h0v3.737H132v-8.9h1.068v1.068h0A2.323,2.323,0,0,1,135.2,173a2.753,2.753,0,0,1,2.669,3.025,3.765,3.765,0,0,1-.712,2.491,2.947,2.947,0,0,1-2.135.89A2.044,2.044,0,0,1,133.068,178.338Zm-.178-2.491v.89a1.779,1.779,0,0,0,3.2,1.068,3.2,3.2,0,0,0,.534-1.957,2.175,2.175,0,0,0-.534-1.6,1.615,1.615,0,0,0-1.246-.534,2.02,2.02,0,0,0-1.424.534A2.87,2.87,0,0,0,132.89,175.847Z" transform="translate(-114.384 -170.687)" fill="#535359"/><path d="M136.4,180.519V171.8h2.491c3.2,0,4.626,1.424,4.626,4.271a4.036,4.036,0,0,1-1.246,3.2,4.588,4.588,0,0,1-3.559,1.246Zm1.068-7.651v6.762h1.246a3.683,3.683,0,0,0,2.669-.89,2.89,2.89,0,0,0,.89-2.491c0-2.135-1.246-3.381-3.559-3.381Z" transform="translate(-110.955 -171.622)" fill="#535359"/><path d="M146.938,179.584h-1.068v-1.068h0a2.188,2.188,0,0,1-1.957,1.246c-1.6,0-2.313-.89-2.313-2.847V173h1.068v3.737q0,2.135,1.6,2.135a1.615,1.615,0,0,0,1.246-.534,2.021,2.021,0,0,0,.534-1.423v-3.737h1.068v6.406Z" transform="translate(-106.902 -170.687)" fill="#535359"/><path d="M146.768,178.316h0v3.737H145.7v-9.075h1.068v1.068h0a2.414,2.414,0,0,1,2.313-1.246,2.549,2.549,0,0,1,1.957.89A3.019,3.019,0,0,1,151.75,176a3.857,3.857,0,0,1-.89,2.491,2.947,2.947,0,0,1-2.135.89A2.044,2.044,0,0,1,146.768,178.316Zm0-2.491v.89a1.615,1.615,0,0,0,.534,1.246,2.021,2.021,0,0,0,1.424.534,1.444,1.444,0,0,0,1.423-.712,3.2,3.2,0,0,0,.534-1.957,2.175,2.175,0,0,0-.534-1.6,1.751,1.751,0,0,0-1.423-.534,2.021,2.021,0,0,0-1.424.534A2.87,2.87,0,0,0,146.768,175.825Z" transform="translate(-103.707 -170.843)" fill="#535359"/><path d="M155.338,176.715h-4.271a2.175,2.175,0,0,0,.534,1.6,2.021,2.021,0,0,0,1.424.534,2.965,2.965,0,0,0,1.957-.712v.89a3.8,3.8,0,0,1-2.135.534,2.947,2.947,0,0,1-2.135-.89,3.479,3.479,0,0,1-.712-2.491,3.857,3.857,0,0,1,.89-2.491,2.6,2.6,0,0,1,3.915,0,3.962,3.962,0,0,1,.712,2.313v.712Zm-.89-.89a3.352,3.352,0,0,0-.356-1.423,1.538,1.538,0,0,0-1.068-.534,1.615,1.615,0,0,0-1.246.534,1.751,1.751,0,0,0-.534,1.423Z" transform="translate(-100.355 -170.843)" fill="#535359"/></g><line x2="2.313" y2="180.963" transform="translate(702.919 225.541)" fill="none" stroke="#00a2ff" stroke-linecap="round" stroke-miterlimit="10" stroke-width="0.5"/><line x2="1.779" y2="140.393" transform="translate(544.732 225.541)" fill="none" stroke="#00a2ff" stroke-linecap="round" stroke-miterlimit="10" stroke-width="0.5"/><line x2="1.068" y2="77.047" transform="translate(519.643 148.138)" fill="none" stroke="#00a2ff" stroke-linecap="round" stroke-miterlimit="10" stroke-width="0.5"/><line y1="0.712" x2="47.154" transform="translate(498.468 313.976)" fill="none" stroke="#00a2ff" stroke-linecap="round" stroke-miterlimit="10" stroke-width="0.5"/><line y1="1.779" x2="137.902" transform="translate(453.984 147.248)" fill="none" stroke="#00a2ff" stroke-linecap="round" stroke-miterlimit="10" stroke-width="0.5"/><line x2="0.712" y2="58.186" transform="translate(331.562 225.719)" fill="none" stroke="#00a2ff" stroke-linecap="round" stroke-miterlimit="10" stroke-width="0.5"/><g transform="translate(939.398 220.559)"><circle cx="1.424" cy="1.424" r="1.424" transform="translate(9.253 33.63)" fill="#f8ec7d"/><g transform="translate(0 5.338)"><path d="M540.8,181.6a8.934,8.934,0,1,1-.178,12.634A8.87,8.87,0,0,1,540.8,181.6Z" transform="translate(-522.297 -160.249)" fill="#6fe3ff"/><path d="M547.706,189.853a9.561,9.561,0,0,0-2.669,5.338H529.2V168.5h21.53v19.4A6.866,6.866,0,0,0,547.706,189.853Z" transform="translate(-529.2 -168.5)" fill="#ccced1"/><path d="M545.117,185.405l2.135-2.135a.5.5,0,1,0-.712-.712l-2.135,2.135-2.135-2.135a.5.5,0,1,0-.712.712l2.135,2.135-2.135,2.135a.5.5,0,0,0,.712.712h0l2.135-2.135,2.135,2.135a.5.5,0,0,0,.712-.712Z" transform="translate(-519.672 -157.647)" fill="#2561a1"/></g><g transform="translate(0)"><path d="M550.73,169.059v1.779H529.2v-1.779a3.569,3.569,0,0,1,3.559-3.559h14.235A3.611,3.611,0,0,1,550.73,169.059Z" transform="translate(-529.2 -165.5)" fill="#18566b"/><path d="M546.638,189.906H532.759a3.569,3.569,0,0,1-3.559-3.559V183.5h15.837A8.538,8.538,0,0,0,546.638,189.906Zm-5.338-3.381a1.4,1.4,0,0,0-1.423-1.424,1.424,1.424,0,0,0,0,2.847A1.4,1.4,0,0,0,541.3,186.525Z" transform="translate(-529.2 -151.471)" fill="#18566b"/><path d="M534.059,172.768h-3.025a.534.534,0,0,1,0-1.068h3.025a.534.534,0,0,1,0,1.068Z" transform="translate(-528.187 -160.668)" fill="#e48e66"/><path d="M536.091,172.768h-1.957a.534.534,0,0,1,0-1.068h1.957a.534.534,0,0,1,0,1.068Z" transform="translate(-525.771 -160.668)" fill="#e48e66"/><path d="M542.094,172.768h-5.16a.534.534,0,0,1,0-1.068h5.16a.534.534,0,0,1,0,1.068Z" transform="translate(-523.589 -160.668)" fill="#e48e66"/><path d="M536.194,175.668h-5.16a.534.534,0,0,1,0-1.068h5.16a.472.472,0,0,1,.534.534A.568.568,0,0,1,536.194,175.668Z" transform="translate(-528.187 -158.408)" fill="#e48e66"/><path d="M538.359,175.668h-3.025a.534.534,0,0,1,0-1.068h3.025a.472.472,0,0,1,.534.534.568.568,0,0,1-.534.534Z" transform="translate(-524.836 -158.408)" fill="#e48e66"/><path d="M540.691,175.668h-1.957a.534.534,0,0,1,0-1.068h1.957a.472.472,0,0,1,.534.534A.568.568,0,0,1,540.691,175.668Z" transform="translate(-522.186 -158.408)" fill="#e48e66"/><path d="M532.279,178.468h-1.246a.534.534,0,0,1,0-1.068h1.246a.472.472,0,0,1,.534.534c.178.178-.178.534-.534.534Z" transform="translate(-528.187 -156.225)" fill="#e48e66"/><path d="M536.159,178.468h-3.025a.534.534,0,0,1,0-1.068h3.025a.472.472,0,0,1,.534.534A.568.568,0,0,1,536.159,178.468Z" transform="translate(-526.55 -156.225)" fill="#e48e66"/><path d="M542.406,178.468h-5.872a.534.534,0,0,1,0-1.068h5.872a.472.472,0,0,1,.534.534A.568.568,0,0,1,542.406,178.468Z" transform="translate(-523.9 -156.225)" fill="#e48e66"/><path d="M532.279,181.268h-1.246a.534.534,0,0,1,0-1.068h1.246a.472.472,0,0,1,.534.534c.178.178-.178.534-.534.534Z" transform="translate(-528.187 -154.043)" fill="#e48e66"/><path d="M540.429,181.268h-7.3a.534.534,0,0,1,0-1.068h7.3a.472.472,0,0,1,.534.534A.568.568,0,0,1,540.429,181.268Z" transform="translate(-526.55 -154.043)" fill="#e48e66"/><path d="M540.457,181.268h-1.423a.534.534,0,0,1,0-1.068h1.423a.472.472,0,0,1,.534.534.568.568,0,0,1-.534.534Z" transform="translate(-521.952 -154.043)" fill="#e48e66"/></g></g><text transform="translate(215.007 465.716)" font-size="10" font-family="Roboto-Medium, Roboto" font-weight="500"><tspan x="0" y="0">Host Login</tspan></text><text transform="translate(38.359 291.354)" font-size="10" font-family="Roboto-Medium, Roboto" font-weight="500"><tspan x="0" y="0">User Login</tspan></text><text transform="translate(293.348 296.448)" font-size="10" font-family="Roboto-Medium, Roboto" font-weight="500"><tspan x="0" y="0">Host listing place</tspan></text><g transform="translate(344.088 133.331)"><text transform="translate(14.235 10)" font-size="10" font-family="Roboto-Medium, Roboto" font-weight="500"><tspan x="0" y="0">Waiting for Host</tspan></text><text transform="translate(0 22.812)" font-size="10" font-family="Roboto-Medium, Roboto" font-weight="500"><tspan x="0" y="0">approval post booking</tspan></text></g><circle cx="2.669" cy="2.669" r="2.669" transform="translate(329.605 281.236)" fill="#fcfcfc" stroke="#00a2ff" stroke-linecap="round" stroke-miterlimit="10" stroke-width="0.5"/><circle cx="2.669" cy="2.669" r="2.669" transform="translate(425.513 318.959)" fill="#fcfcfc" stroke="#00a2ff" stroke-linecap="round" stroke-miterlimit="10" stroke-width="0.5"/><circle cx="2.669" cy="2.669" r="2.669" transform="translate(611.459 318.959)" fill="#fcfcfc" stroke="#00a2ff" stroke-linecap="round" stroke-miterlimit="10" stroke-width="0.5"/><circle cx="2.669" cy="2.669" r="2.669" transform="translate(791.532 318.959)" fill="#fcfcfc" stroke="#00a2ff" stroke-linecap="round" stroke-miterlimit="10" stroke-width="0.5"/><circle cx="2.669" cy="2.669" r="2.669" transform="translate(702.563 403.835)" fill="#fcfcfc" stroke="#00a2ff" stroke-linecap="round" stroke-miterlimit="10" stroke-width="0.5"/><circle cx="2.669" cy="2.669" r="2.669" transform="translate(453.806 146.359)" fill="#fcfcfc" stroke="#00a2ff" stroke-linecap="round" stroke-miterlimit="10" stroke-width="0.5"/><circle cx="2.669" cy="2.669" r="2.669" transform="translate(589.216 144.579)" fill="#fcfcfc" stroke="#00a2ff" stroke-linecap="round" stroke-miterlimit="10" stroke-width="0.5"/><g transform="translate(599.611 133.331)"><text transform="translate(0 10)" font-size="10" font-family="Roboto-Medium, Roboto" font-weight="500"><tspan x="0" y="0">Immediate</tspan></text><text transform="translate(4.982 22.812)" font-size="10" font-family="Roboto-Medium, Roboto" font-weight="500"><tspan x="0" y="0" xml:space="preserve"> booking</tspan></text></g><text transform="translate(461.69 283.157)" font-size="10" font-family="Roboto-Medium, Roboto" font-weight="500"><tspan x="0" y="0">Host approval</tspan></text><g transform="translate(480.344 364.614)"><text transform="translate(10.142 10)" font-size="10" font-family="Roboto-Medium, Roboto" font-weight="500"><tspan x="0" y="0">Payment via credit card,</tspan></text><text transform="translate(0 22.812)" font-size="10" font-family="Roboto-Medium, Roboto" font-weight="500"><tspan x="0" y="0">Digital payment app or more</tspan></text></g><text transform="translate(396.835 334.059)" font-size="10" font-family="Roboto-Medium, Roboto" font-weight="500"><tspan x="0" y="0">User Booking</tspan></text><text transform="translate(578.269 334.059)" font-size="10" font-family="Roboto-Medium, Roboto" font-weight="500"><tspan x="0" y="0">Review &amp; Rating</tspan></text><text transform="translate(588.177 199.631)" fill="#fff" font-size="10" font-family="Roboto-Medium, Roboto" font-weight="500"><tspan x="0" y="0">checkin &amp;</tspan><tspan x="0" y="12" xml:space="preserve"> checkout</tspan></text><text transform="translate(782.468 335.987)" font-size="10" font-family="Roboto-Medium, Roboto" font-weight="500"><tspan x="0" y="0">Admin</tspan></text><g transform="translate(651.091 410.902)"><text transform="translate(0 10)" font-size="10" font-family="Roboto-Medium, Roboto" font-weight="500"><tspan x="0" y="0">Deduction commision &amp;</tspan></text><text transform="translate(1.246 22.812)" font-size="10" font-family="Roboto-Medium, Roboto" font-weight="500"><tspan x="0" y="0" xml:space="preserve"> money transfer to host</tspan></text></g><g transform="translate(931.084 186.306)"><text transform="translate(1.957 10)" fill="#fff" font-size="10" font-family="Roboto-Medium, Roboto" font-weight="500"><tspan x="0" y="0">Booking </tspan></text><text transform="translate(0 22.812)" fill="#fff" font-size="10" font-family="Roboto-Medium, Roboto" font-weight="500"><tspan x="0" y="0">cancelled</tspan></text></g><g transform="translate(675.244 94.855)"><text transform="translate(0 10)" font-size="10" font-family="Roboto-Medium, Roboto" font-weight="500"><tspan x="0" y="0">Booking amount transfered to User/Host by </tspan></text><text transform="translate(9.075 22.812)" font-size="10" font-family="Roboto-Medium, Roboto" font-weight="500"><tspan x="0" y="0">admin as per the cancellation policy</tspan></text></g><text transform="translate(49.751 157.532)" fill="#fff" font-size="8" font-family="Roboto-Medium, Roboto" font-weight="500"><tspan x="0" y="0">GUEST</tspan></text><text transform="translate(230.575 339.155)" fill="#fff" font-size="8" font-family="Roboto-Medium, Roboto" font-weight="500"><tspan x="0" y="0">HOST</tspan></text><g transform="translate(543.308 399.031)"><path d="M313.9,265.8l-3.737,3.025L306.6,265.8l3.559,7.829Z" transform="translate(-306.6 -265.8)" fill="#00a2ff"/></g><g transform="translate(494.02 225.185)"><path d="M278.9,175.929l3.737-3.025,3.559,3.025-3.559-7.829Z" transform="translate(-278.9 -168.1)" fill="#00a2ff"/></g></g></svg>