<svg xmlns="http://www.w3.org/2000/svg" xmlns:xlink="http://www.w3.org/1999/xlink" width="1160" height="724" viewBox="0 0 1160 724">
  <defs>
    <clipPath id="clip-administration">
      <rect width="1160" height="724"/>
    </clipPath>
  </defs>
  <g id="administration" clip-path="url(#clip-administration)">
    <g id="administration-2" data-name="administration" transform="translate(73.727 9.8)">
      <rect id="Rectangle_1" data-name="Rectangle 1" width="71.036" height="113.839" transform="translate(186.209 515.977)" fill="#b2ec3f"/>
      <rect id="Rectangle_2" data-name="Rectangle 2" width="71.036" height="113.839" transform="translate(751.611 511.423)" fill="#b2ec3f"/>
      <g id="Group_7" data-name="Group 7" transform="translate(70.7 12.2)">
        <g id="Group_2" data-name="Group 2">
          <g id="Group_1" data-name="Group 1">
            <path id="Path_1" data-name="Path 1" d="M928.9,666.7H914.325V379.521a12.75,12.75,0,0,0-25.5,0V612.209H832.513V515.825a12.827,12.827,0,0,0-12.75-12.75H751.611a12.827,12.827,0,0,0-12.75,12.75v96.384H682.548V364.95H697.12a12.827,12.827,0,0,0,12.75-12.75V310.459H888.825V435.834c0,6.982,5.768.607,12.75.607a12.827,12.827,0,0,0,12.75-12.75V310.459H928.9a12.75,12.75,0,1,0,0-25.5H741.441L518.923,154.12V119.664h82.723a12.827,12.827,0,0,0,12.75-12.75v-68.3a12.827,12.827,0,0,0-12.75-12.75H518.923l1.518-.911a12.75,12.75,0,0,0-25.5,0l-1.518,129.018L270.905,284.959H83.45a12.75,12.75,0,1,0,0,25.5H98.021V614.486a12.75,12.75,0,0,0,25.5,0V310.459H302.477V352.2a12.827,12.827,0,0,0,12.75,12.75H329.8V612.209H273.486V515.825a12.827,12.827,0,0,0-12.75-12.75H192.584a12.827,12.827,0,0,0-12.75,12.75v96.384H123.521V597.638a12.75,12.75,0,0,0-25.5,0V666.7H83.45a12.75,12.75,0,1,0,0,25.5H928.9a12.75,12.75,0,1,0,0-25.5ZM518.923,51.361H588.9V94.013H518.923ZM764.361,528.575h42.652v83.634H764.361ZM506.173,176.129l184.875,108.83H321.3ZM327.977,339.45V310.459H684.218V339.45Zm329.071,25.5V612.209H628.057V364.95ZM602.557,528.575v83.634H546.245V528.575Zm-56.312-25.5V460.423h56.313v42.652Zm0-68.152V364.95h56.313v69.973Zm-25.5-69.973V612.209H491.754V364.95ZM409.789,503.075V460.423H466.1v42.652Zm56.313,25.5v83.634H409.789V528.575Zm-56.312-93.652V364.95H466.1v69.973Zm-25.5-69.973V612.209H355.3V364.95ZM205.334,528.575h42.652v83.634H205.334ZM302.477,666.7H123.521V637.709H302.477Zm381.893,0H327.977V637.709H684.218l.152,28.991Zm204.455,0H709.87V637.709H888.825V666.7Z" transform="translate(-70.7 -12.2)" fill="#793fec"/>
          </g>
        </g>
        <g id="Group_4" data-name="Group 4" transform="translate(86.821 334.536)">
          <g id="Group_3" data-name="Group 3">
            <path id="Path_2" data-name="Path 2" d="M174.8,232.6a46.932,46.932,0,0,0-46.9,46.9v47.661a12.827,12.827,0,0,0,12.75,12.75H208.8a12.827,12.827,0,0,0,12.75-12.75V279.5A46.61,46.61,0,0,0,174.8,232.6Zm21.4,81.813H153.552V279.5a21.4,21.4,0,1,1,42.8,0l-.152,34.911Z" transform="translate(-127.9 -232.6)" fill="#793fec"/>
          </g>
        </g>
        <g id="Group_6" data-name="Group 6" transform="translate(646 334.536)">
          <g id="Group_5" data-name="Group 5">
            <path id="Path_3" data-name="Path 3" d="M543.2,232.6a46.932,46.932,0,0,0-46.9,46.9v47.661a12.827,12.827,0,0,0,12.75,12.75H577.2a12.827,12.827,0,0,0,12.75-12.75V279.5A46.8,46.8,0,0,0,543.2,232.6Zm21.25,81.813H521.8V279.5a21.4,21.4,0,1,1,42.8,0l-.152,34.911Z" transform="translate(-496.3 -232.6)" fill="#793fec"/>
          </g>
        </g>
      </g>
    </g>
  </g>
</svg>
