<?xml version="1.0" encoding="utf-8"?>
<!-- Generator: Adobe Illustrator 21.0.0, SVG Export Plug-In . SVG Version: 6.00 Build 0)  -->
<svg version="1.1" id="Capa_1" xmlns="http://www.w3.org/2000/svg" xmlns:xlink="http://www.w3.org/1999/xlink" x="0px" y="0px"
	 viewBox="0 0 512 512" style="enable-background:new 0 0 512 512;" xml:space="preserve">
<style type="text/css">
	.st0{fill:#B2EC3F;}
	.st1{fill:#793FEC;}
	.st2{fill:none;stroke:#793FEC;stroke-width:15;stroke-miterlimit:10;}
</style>
<path class="st0" d="M254.5,93c0,0-49.5,51-31.5,84s-26,0-26,0l-37,6l13,53l19,21l-18,8c0,0-18,19-9,38s20,32,32,41s38,14,41,12
	s39,5.9,41,0.4s46-16.4,48-23.4s25-33,24-38s-8-24-8-24l-11-14c0,0,2-11,6-22s15.1-36,13-39c-2-3-4-18-4-18l-27-1l-25,4
	c0,0,1-5-1-17s-7-45-7-45L254.5,93z"/>
<g>
	<g>
		<g>
			<path class="st1" d="M354,261.7c-0.8-2.7-2.9-5-5.6-6c-0.6-0.2-5-1.8-12-2.8c29.8-31.7,19.9-68.7,17.6-75.9c-0.8-2.7-2.9-5-5.6-6
				c-1.3-0.5-23.6-8.3-48.9,0.5c1.4-5.9,2.3-12.3,2.3-19.4c0-45.4-34.4-65.3-41.3-68.9c-2.5-1.4-5.6-1.5-8.2-0.3
				c-1.7,0.8-41.8,20-41.8,69.1c0,7.1,0.8,13.6,2.3,19.5c-25.4-8.9-47.8-1-49.1-0.5c-2.7,1-4.8,3.2-5.6,6
				c-2.3,7.2-12.2,44.2,17.6,75.9c-7,1-11.5,2.6-12,2.8c-2.7,1-4.8,3.2-5.6,6c-2.4,7.4-12.6,45.8,19.5,77.9
				c18.6,18.6,39.2,23,54.6,23c5.7,0,10.7-0.6,14.6-1.3v59.6c0,5,4.1,9.1,9.1,9.1s9.1-4.1,9.1-9.1v-59.6c4,0.7,9,1.4,14.8,1.4
				c15.4,0,36.1-4.4,54.6-23C366.5,307.5,356.3,269.1,354,261.7z M246.8,332.9c-0.2,4.1-0.8,7.6-1.3,10.1
				c-9.7,2.2-34.1,4.7-55.1-16.3c-20.7-20.7-18.5-44.6-16.2-55.1c6.1-1.3,18.1-2.8,31.3,1.5c0.9,0.3,1.7,0.6,2.6,0.9
				c7,2.7,14.3,7,21.2,13.9c13.1,13.1,17,27.5,17.6,38.9v6.1H246.8z M246.8,248.2c-0.2,4.1-0.8,7.6-1.3,10.1
				c-6,1.3-17.7,2.8-30.6-1.2c-1.3-0.5-2.6-1-3.9-1.4c-6.8-2.7-13.8-7-20.5-13.7c-20.7-20.7-18.5-44.6-16.2-55.1
				c9.7-2.1,34.1-4.6,55,16.3c0.1,0.1,0.3,0.3,0.4,0.4c0.8,0.9,1.6,1.8,2.4,2.6c10.9,12.3,14.3,25.4,14.8,35.9L246.8,248.2
				L246.8,248.2z M256.1,202.5c-2.9-1.8-7-4.8-11.1-9.2c-0.4-0.5-0.9-0.9-1.3-1.4c-7.6-8.4-15-21.4-15-39.8
				c0-29.7,19-45.1,27.4-50.4c9,5.8,27.5,21.2,27.5,50.4c0,17.4-6.5,29.9-13.6,38.3c-1.5,1.5-2.9,3-4.2,4.5
				C262.1,198.4,258.6,200.9,256.1,202.5z M265.1,245.2c0-10.7,2.8-24.8,14.1-38.1c1.3-1.3,2.7-2.8,4-4.3
				c20.9-20.5,44.9-18,54.6-15.9c2.3,10.4,4.5,34.4-16.2,55.1c-6.7,6.7-13.7,11-20.5,13.7c-1.3,0.4-2.7,0.9-4,1.4
				c-13,4-24.6,2.6-30.6,1.2c-0.7-3-1.4-7.5-1.4-12.8C265.1,245.4,265.1,245.3,265.1,245.2z M321.6,326.7
				c-21,21-45.3,18.4-55.1,16.3c-2.1-9.7-4.7-34.1,16.3-55.1c6.7-6.7,13.7-11,20.5-13.7c1.3-0.4,2.6-0.9,3.9-1.4
				c12.9-4,24.6-2.6,30.6-1.2C340.1,282.1,342.3,306,321.6,326.7z"/>
		</g>
	</g>
</g>
<circle class="st2" cx="254.5" cy="257" r="226.5"/>
</svg>
