<?xml version="1.0" encoding="utf-8"?>
<!-- Generator: Adobe Illustrator 21.0.0, SVG Export Plug-In . SVG Version: 6.00 Build 0)  -->
<svg version="1.1" id="Capa_1" xmlns="http://www.w3.org/2000/svg" xmlns:xlink="http://www.w3.org/1999/xlink" x="0px" y="0px"
	 viewBox="0 0 480 480" style="enable-background:new 0 0 480 480;" xml:space="preserve">
<style type="text/css">
	.st0{fill:#B2EC3F;}
	.st1{fill:#793FEC;}
</style>
<rect x="281" y="389" class="st0" width="190" height="65"/>
<g>
	<g>
		<path class="st1" d="M400,240c4.4,0,8-3.6,8-8V120h64c4.4,0,8-3.6,8-8V80c0-0.3-0.1-0.6-0.2-0.9c-0.1-0.6-0.2-1.2-0.3-1.7
			c-0.1-0.4-0.3-0.8-0.5-1.2c-0.7-1.4-1.8-2.5-3.2-3.2c-0.4-0.2-0.8-0.4-1.3-0.6c-0.2-0.1-0.4-0.2-0.7-0.3l-304-72
			C169.2,0.1,168.6,0,168,0h-32c-0.9,0-1.9,0.2-2.8,0.6c-0.2,0.1-0.4,0.2-0.6,0.2s-0.4,0.1-0.5,0.2L4.1,73c-0.4,0.3-0.8,0.6-1.1,0.9
			c-0.3,0.2-0.5,0.4-0.8,0.6C1.5,75.2,1,76,0.6,76.9V77c-0.3,0.9-0.5,1.8-0.6,2.8C0.1,79.8,0,79.9,0,80v32c0,4.4,3.6,8,8,8h112
			v148.7l-29.7,29.7c-1.5,1.5-2.3,3.5-2.3,5.7v128H72v48h160v-48h-16V304c0-2.1-0.8-4.2-2.3-5.7L184,268.7V120h160v112
			c0,4.4,3.6,8,8,8h16v24c0,4.4,3.6,8,8,8c8.8,0,16,7.2,16,16s-7.2,16-16,16s-16-7.2-16-16v-8h-16v8c0,11.7,6.5,22.4,16.7,28l-60,60
			H280c-4.4,0-8,3.6-8,8v72c0,4.4,3.6,8,8,8h192c4.4,0,8-3.6,8-8v-72c0-4.4-3.6-8-8-8h-20.7l-60-60c15.5-8.4,21.3-27.7,12.9-43.2
			c-4.2-7.8-11.6-13.6-20.2-15.8v-17H400z M408,88h56v16h-56V88z M464,392v56H288v-56H464z M428.7,376H323.3l52.7-52.7L428.7,376z
			 M392,192h-32v-72h32V192z M392,104h-32V88h32V104z M144,16h16v56h-16V16z M136,88h32v12.7l-3.3,3.3H136V88z M168,123.3v57.4
			L139.3,152L168,123.3z M136,120h12.7L136,132.7V120z M136,171.3l28.7,28.7L136,228.7V171.3z M168,219.3V272v4.7L139.3,248
			L168,219.3z M136,272v-4.7l28.7,28.7L136,324.7V272z M168,315.3v57.4L139.3,344L168,315.3z M136,363.3l28.7,28.7L136,420.7V363.3z
			 M168,411.3V432h-20.7L168,411.3z M128,21.7V72H38.5L128,21.7z M16,104V88h104v16H16z M104,307.3l16-16V432h-16V307.3z M216,448
			v16H88v-16H216z M200,307.3V432h-16V291.3L200,307.3z M344,104H184V88h160V104z M176,72V18.1L403.5,72H400H176z M360,224v-16h32
			v16H360z"/>
	</g>
</g>
</svg>
