<?xml version="1.0" encoding="utf-8"?>
<!-- Generator: Adobe Illustrator 22.0.0, SVG Export Plug-In . SVG Version: 6.00 Build 0)  -->
<svg version="1.1" id="Layer_1" xmlns="http://www.w3.org/2000/svg" xmlns:xlink="http://www.w3.org/1999/xlink" x="0px" y="0px"
	 viewBox="0 0 512 512" style="enable-background:new 0 0 512 512;" xml:space="preserve">
<style type="text/css">
	.st0{fill:#793FEC;}
</style>
<g>
	<path class="st0" d="M70,172c19.8,0,38.2-23.8,47.4-37.9C131.6,112.2,140,89,140,72c0-38.6-31.4-70-70-70S0,33.4,0,72
		c0,17,8.4,40.2,22.6,62.1C31.8,148.2,50.2,172,70,172z M70,57c8.3,0,15,6.7,15,15s-6.7,15-15,15s-15-6.7-15-15S61.7,57,70,57z"/>
	<path class="st0" d="M437,360.5c-41.4,0-75,33.6-75,75s33.6,75,75,75s75-33.6,75-75S478.4,360.5,437,360.5z M437,450.5
		c-8.3,0-15-6.7-15-15s6.7-15,15-15s15,6.7,15,15S445.3,450.5,437,450.5z"/>
	<path d="M316,424H86.5c-31.9,0-58-26.5-56.4-58.4c1.5-29.3,25.8-52.6,55.4-52.6h341c46.6,0,84.7-37.5,85.5-84
		c0.8-48-38.7-87-86.7-87H164.4c-8.1,0-15,6.2-15.4,14.3c-0.4,8.6,6.5,15.7,15,15.7h261.5c31.9,0,58.1,26.5,56.4,58.4
		c-1.5,29.3-25.8,52.6-55.4,52.6H86.7c-48,0-87.5,39-86.7,87c0.8,46.4,38.9,84,85.5,84H316c8.3,0,15-6.7,15-15S324.3,424,316,424z"
		/>
</g>
</svg>
