<?xml version="1.0" encoding="utf-8"?>
<!-- Generator: Adobe Illustrator 21.0.0, SVG Export Plug-In . SVG Version: 6.00 Build 0)  -->
<svg version="1.1" id="Capa_1" xmlns="http://www.w3.org/2000/svg" xmlns:xlink="http://www.w3.org/1999/xlink" x="0px" y="0px"
	 viewBox="0 0 512 512" style="enable-background:new 0 0 512 512;" xml:space="preserve">
<style type="text/css">
	.st0{fill:#B2EC3F;}
	.st1{fill:#793FEC;}
</style>
<polygon class="st0" points="283.7,373.2 226.3,373.3 223.2,315.8 170.8,315 172,256 192.9,261.9 224.4,250.6 227.5,201.5 285,201 
	288.2,257.5 346.6,256 345.3,315.3 285.8,319.3 "/>
<g>
	<g>
		<g>
			<path class="st1" d="M345.7,240.8h-0.1h-42.9v-43c0.1-8.7-6.9-15.7-15.6-15.8H287h-62c-8.7,0-15.7,7-15.7,15.7v43h-42.9
				c-8.7-0.1-15.7,6.9-15.8,15.6c0,0.1,0,0.1,0,0.2v61.8c0,8.7,7,15.7,15.7,15.7h43v42.9c-0.1,8.7,6.9,15.7,15.6,15.8h0.1h61.8
				c8.7,0,15.7-7,15.7-15.7l0,0v-43h43c8.7,0.1,15.7-6.9,15.8-15.6v-0.1v-61.8C361.3,247.8,354.3,240.8,345.7,240.8z M340.3,313
				h-48.1c-5.8,0-10.5,4.7-10.5,10.5v48.1h-51.2v-48.1c0-5.8-4.7-10.5-10.5-10.5h-48.1v-51.1H220c5.8,0,10.5-4.7,10.5-10.5v-48.3
				h51.1v48.1c0,5.8,4.7,10.5,10.5,10.5h48.3V313H340.3z"/>
		</g>
	</g>
	<g>
		<g>
			<path class="st1" d="M439.3,103.2L439.3,103.2h-86.8V66.1c0.5-16.9-12.7-31.1-29.7-31.6c-0.9,0-1.7,0-2.6,0H191.7
				c-16.9-0.9-31.3,12.1-32.2,29c0,0.9-0.1,1.7,0,2.6V103H72.7C39.2,103,0,122.1,0,175.7v229.1c0,53.6,39.2,72.7,72.7,72.7h366.6
				c33.5,0,72.7-19.1,72.7-72.7V175.9C512,122.3,472.9,103.2,439.3,103.2z M180.6,66.1c0-3.1,0-11.3,11.3-11.3h128.4
				c11.3,0,11.3,8.1,11.3,11.3V103h-151L180.6,66.1L180.6,66.1z M490.9,404.8c0,46.6-36,51.6-51.6,51.6H72.7
				c-15.5,0-51.6-5.1-51.6-51.6V175.9c0-46.6,36-51.6,51.6-51.6h366.6c15.5,0,51.6,5.1,51.6,51.6V404.8L490.9,404.8z"/>
		</g>
	</g>
</g>
</svg>
