<?xml version="1.0" encoding="utf-8"?>
<!-- Generator: Adobe Illustrator 21.0.0, SVG Export Plug-In . SVG Version: 6.00 Build 0)  -->
<svg version="1.1" id="Layer_1" xmlns="http://www.w3.org/2000/svg" xmlns:xlink="http://www.w3.org/1999/xlink" x="0px" y="0px"
	 viewBox="0 0 512 512" style="enable-background:new 0 0 512 512;" xml:space="preserve">
<style type="text/css">
	.st0{fill:#B2EC3F;}
	.st1{opacity:0.25;fill:#793FEC;}
	.st2{fill:#793FEC;}
</style>
<path class="st0" d="M400,204l-89,47v93c0,0,22.6,72.3,59,93.1c36.4,20.8,49,8.9,49,8.9s67.2-35,74.1-74c6.9-39,11.9-92,11.9-92
	l3.9-32.5L400,204z"/>
<path class="st1" d="M1080.5,325.9h-433c-36,0-65.5-29.5-65.5-65.5v-205c0-36,29.5-65.5,65.5-65.5h433c36,0,65.5,29.5,65.5,65.5v205
	C1146,296.4,1116.5,325.9,1080.5,325.9z"/>
<g>
	<path class="st2" d="M225.8,105c-42.1,0-76.3,34.1-76.3,76.3c0,42.1,34.1,76.3,76.3,76.3c42.1,0,76.3-34.1,76.3-76.3
		C302,139.1,267.9,105,225.8,105z M225.8,244.9c-35.2,0-63.7-28.5-63.7-63.7s28.5-63.7,63.7-63.7c35.2,0,63.7,28.5,63.7,63.7
		C289.4,216.4,261,244.9,225.8,244.9z"/>
	<path class="st2" d="M321.3,259.2c-2,1.1-3.3,3.2-3.4,5.5v54.1c0.1,49.5,29.5,94.2,74.8,114l8.6,3.7c1.6,0.7,3.4,0.7,5.1,0
		l10.3-4.4c46.2-19.4,76.3-64.5,76.4-114.6v-52.7c-0.1-2.4-1.4-4.5-3.5-5.6l-82.3-43.8c-1.9-1-4.2-1-6.1,0L321.3,259.2z
		 M480.1,321.1H330.8c0-0.7-0.3-1.5-0.3-2.2v-18.8h150v17.5C480.5,318.7,480.1,319.9,480.1,321.1z M411.6,420.6l-7.7,3.3l-6-2.6
		c-35.8-15.7-60.9-48.9-66.1-87.7H479C473.3,372.4,447.7,405.4,411.6,420.6L411.6,420.6z M404.3,228.2l76.2,40.4v18.9h-150v-19
		L404.3,228.2z"/>
	<path class="st2" d="M508.9,247.5l-56.7-30.4V59.9c-0.1-3.5-3-6.4-6.6-6.4H6c-1.6,0-3.2,0.7-4.3,1.9c-1.1,1.2-1.7,2.8-1.7,4.5
		v242.7c0,1.6,0.6,3.1,1.7,4.3c1.1,1.1,2.7,1.7,4.3,1.6h293v10.4c0,57.2,33.8,109,86.2,131.9l16.2,7.1c0.8,0.3,1.6,0.5,2.5,0.5
		c0.8,0,1.7-0.2,2.5-0.5l17.7-7.7c53.4-22.5,88-74.7,88-132.6v-64.5C512.1,250.8,510.9,248.7,508.9,247.5z M12.6,295.9V66.1h427
		v144.3l-19.9-10.3v-62.9c0.1-3.4-2.6-6.2-6-6.3c-30.1-0.5-50.1-16.2-51.2-39.8c-0.1-3.4-2.9-6-6.2-6.1H96c-3.4,0-6.1,2.7-6.3,6.1
		c-1.1,23.3-22,39.3-52,39.8c-3.5,0.1-6.2,2.9-6.3,6.3v88.1c0,3.5,2.8,6.2,6.3,6.3c30.4,0.5,50.9,15.9,51.9,39.6
		c0.2,3.3,3,5.9,6.3,5.8h203v18.9L12.6,295.9z M299,253.2v11.2H101.7c-2.1-12-8.4-22.8-17.8-30.6c-10.2-8.4-24.2-13.3-39.9-14.5v-76
		c31.5-2.5,53.6-20.5,57.6-45.6h248.8c4,25.2,26.1,43.1,56.6,45.6v50.2l-0.2-0.2c-1.8-1-4.1-1-5.9,0l-99,54.4
		C300.1,248.8,298.9,250.9,299,253.2z M499.4,317.6c0.1,52.9-31.6,100.6-80.3,121.1l-15.3,6.6l-13.6-6
		c-47.8-20.9-78.7-68.2-78.6-120.4v-61.9l92.6-50.9l95.2,50.9V317.6z"/>
</g>
</svg>
