<?xml version="1.0" encoding="utf-8"?>
<!-- Generator: Adobe Illustrator 21.0.0, SVG Export Plug-In . SVG Version: 6.00 Build 0)  -->
<svg version="1.1" id="Layer_1" xmlns="http://www.w3.org/2000/svg" xmlns:xlink="http://www.w3.org/1999/xlink" x="0px" y="0px"
	 viewBox="0 0 512 512" style="enable-background:new 0 0 512 512;" xml:space="preserve">
<style type="text/css">
	.st0{fill:#B2EC3F;}
	.st1{fill:#793FEC;}
</style>
<ellipse class="st0" cx="181.8" cy="192.1" rx="73.5" ry="77.1"/>
<g>
	<path class="st1" d="M23.2,223.7h42.9c2.5,9.2,6.2,18,10.9,26.2l-30.4,30.4c-1.5,1.5-2.3,3.4-2.3,5.5s0.8,4,2.3,5.5l32.8,32.9
		c3,3,7.9,3,10.9,0l30.4-30.4c8.3,4.7,17.1,8.4,26.2,10.9v42.9c0,4.3,3.5,7.7,7.7,7.7h46.5c4.3,0,7.7-3.5,7.7-7.7v-42.9
		c9.2-2.5,18-6.2,26.2-10.9l30.4,30.4c3.1,2.9,7.9,2.9,10.9,0l32.8-32.9c1.5-1.5,2.3-3.4,2.3-5.5s-0.8-4-2.3-5.5L279,250
		c4.7-8.3,8.4-17.1,10.9-26.2h42.9c4.3,0,7.7-3.5,7.7-7.7v-46.5c0-4.3-3.5-7.7-7.7-7.7H290c-2.5-9.2-6.2-18-10.9-26.2l30.4-30.4
		c1.5-1.5,2.3-3.4,2.3-5.5s-0.8-4-2.3-5.5l-32.8-32.9c-3-3-7.9-3-10.9,0l-30.4,30.4c-8.3-4.7-17.1-8.4-26.2-10.9v-43
		c0-4.3-3.5-7.7-7.7-7.7H155c-4.3,0-7.7,3.5-7.7,7.7v43c-9.2,2.5-18,6.2-26.2,10.9L90.5,61.4c-3.1-2.9-7.9-2.9-10.9,0L46.7,94.2
		c-1.5,1.5-2.3,3.4-2.3,5.5s0.8,4,2.3,5.5l30.4,30.4c-4.7,8.3-8.4,17.1-10.9,26.2h-43c-4.3,0-7.7,3.5-7.7,7.7V216
		C15.5,220.3,18.9,223.7,23.2,223.7z M31,177.3h41.3c3.6,0,6.8-2.5,7.6-6.1c2.5-11.6,7.1-22.6,13.6-32.6c2-3.1,1.5-7.1-1-9.7
		L63.1,99.7L85,77.8l29.2,29.2c2.6,2.6,6.6,3,9.7,1c10-6.4,21-11,32.6-13.6c3.6-0.8,6.1-3.9,6.1-7.6V45.7h31V87
		c0,3.6,2.5,6.8,6.1,7.6c11.6,2.5,22.6,7.1,32.6,13.6c3.1,2,7.1,1.5,9.7-1L271.2,78L293,99.7l-29.2,29.2c-2.6,2.6-3,6.6-1,9.7
		c6.4,10,11,21,13.6,32.6c0.8,3.6,3.9,6.1,7.6,6.1h41.3v31H284c-3.6,0-6.8,2.5-7.6,6.1c-2.5,11.6-7.1,22.6-13.6,32.6
		c-2,3.1-1.5,7.1,1,9.7l29.2,29.2l-21.9,21.9l-29.2-29.2c-2.6-2.6-6.6-3-9.7-1c-10,6.4-21,11-32.6,13.6c-3.6,0.8-6.1,3.9-6.1,7.6
		v41.3h-31v-41.3c0-3.6-2.5-6.8-6.1-7.6c-11.6-2.5-22.6-7.1-32.6-13.6c-3.1-2-7.1-1.5-9.7,1L85,307.7l-21.9-21.9l29.2-29.2
		c2.6-2.6,3-6.6,1-9.7c-6.4-10-11-21-13.6-32.6c-0.8-3.6-3.9-6.1-7.6-6.1H31V177.3z"/>
	<path class="st1" d="M178.1,254.7c34.2,0,61.9-27.7,61.9-61.9s-27.7-61.9-61.9-61.9s-61.9,27.7-61.9,61.9
		C116.2,227,143.9,254.7,178.1,254.7z M178.1,146.3c25.7,0,46.5,20.8,46.5,46.5s-20.8,46.5-46.5,46.5s-46.5-20.8-46.5-46.5
		S152.4,146.3,178.1,146.3z"/>
	<path class="st1" d="M178.1,277.9c47,0,85.2-38.1,85.2-85.2c0-47-38.1-85.2-85.2-85.2s-85.2,38.1-85.2,85.2
		C93,239.8,131.1,277.9,178.1,277.9z M178.1,123.1c38.5,0,69.7,31.2,69.7,69.7s-31.2,69.7-69.7,69.7s-69.7-31.2-69.7-69.7
		C108.4,154.3,139.6,123.1,178.1,123.1z"/>
	<path class="st1" d="M456.8,386.3v-61.9c0-4.3-3.5-7.7-7.7-7.7h-15.5v-61.9c0-4.3-3.5-7.7-7.7-7.7h-69.7c-4.3,0-7.7,3.5-7.7,7.7
		v61.9h-38.7c-4.3,0-7.7,3.5-7.7,7.7v61.9H54.2c-21.4,0-38.7,17.3-38.7,38.7v15.5c0,21.4,17.3,38.7,38.7,38.7h402.6
		c21.4,0,38.7-17.3,38.7-38.7V425C495.5,403.7,478.1,386.3,456.8,386.3z M441.3,386.3h-54.2v-54.2h54.2V386.3z M363.9,262.5h54.2
		v54.2h-54.2V262.5z M317.4,332.1h54.2v54.2h-54.2V332.1z M480,440.5c0,12.8-10.4,23.2-23.2,23.2H54.2c-12.8,0-23.2-10.4-23.2-23.2
		V425c0-12.8,10.4-23.2,23.2-23.2h402.6c12.8,0,23.2,10.4,23.2,23.2L480,440.5L480,440.5z"/>
	<path class="st1" d="M255.5,409.5c-12.8,0-23.2,10.4-23.2,23.2c0,12.8,10.4,23.2,23.2,23.2c12.8,0,23.2-10.4,23.2-23.2
		S268.3,409.5,255.5,409.5z M255.5,440.5c-4.3,0-7.7-3.5-7.7-7.7c0-4.3,3.5-7.7,7.7-7.7c4.2,0,7.7,3.5,7.7,7.7
		S259.8,440.5,255.5,440.5z"/>
	<path class="st1" d="M178.1,409.5c-12.8,0-23.2,10.4-23.2,23.2c0,12.8,10.4,23.2,23.2,23.2s23.2-10.4,23.2-23.2
		S190.9,409.5,178.1,409.5z M178.1,440.5c-4.3,0-7.7-3.5-7.7-7.7c0-4.3,3.5-7.7,7.7-7.7c4.3,0,7.7,3.5,7.7,7.7
		S182.3,440.5,178.1,440.5z"/>
	<path class="st1" d="M332.9,409.5c-12.8,0-23.2,10.4-23.2,23.2c0,12.8,10.4,23.2,23.2,23.2c12.8,0,23.2-10.4,23.2-23.2
		S345.7,409.5,332.9,409.5z M332.9,440.5c-4.3,0-7.7-3.5-7.7-7.7c0-4.3,3.5-7.7,7.7-7.7c4.3,0,7.7,3.5,7.7,7.7
		S337.2,440.5,332.9,440.5z"/>
	<path class="st1" d="M100.6,409.5c-12.8,0-23.2,10.4-23.2,23.2c0,12.8,10.4,23.2,23.2,23.2s23.2-10.4,23.2-23.2
		C123.9,419.9,113.5,409.5,100.6,409.5z M100.6,440.5c-4.3,0-7.7-3.5-7.7-7.7c0-4.3,3.5-7.7,7.7-7.7c4.3,0,7.7,3.5,7.7,7.7
		C108.4,437,104.9,440.5,100.6,440.5z"/>
	<path class="st1" d="M410.3,409.5c-12.8,0-23.2,10.4-23.2,23.2c0,12.8,10.4,23.2,23.2,23.2s23.2-10.4,23.2-23.2
		S423.1,409.5,410.3,409.5z M410.3,440.5c-4.3,0-7.7-3.5-7.7-7.7c0-4.3,3.5-7.7,7.7-7.7s7.7,3.5,7.7,7.7
		C418.1,437,414.6,440.5,410.3,440.5z"/>
</g>
</svg>
