<?xml version="1.0" encoding="utf-8"?>
<!-- Generator: Adobe Illustrator 21.0.0, SVG Export Plug-In . SVG Version: 6.00 Build 0)  -->
<svg version="1.1" id="Layer_1" xmlns="http://www.w3.org/2000/svg" xmlns:xlink="http://www.w3.org/1999/xlink" x="0px" y="0px"
	 viewBox="0 0 512 512" style="enable-background:new 0 0 512 512;" xml:space="preserve">
<style type="text/css">
	.st0{fill:#B2EC3F;}
	.st1{fill:#793FEC;}
</style>
<path class="st0" d="M443.7,250L425,271l-6.9,61.8H407l-18-21.3l-12,12.8v29.9L356,379l-22,10c0,0-14,14-14,17s0,20.7,0,20.7l-8,8.5
	l-56,17.1L239,486v12h262V250H443.7z"/>
<title>011 - Mining</title>
<desc>Created with Sketch.</desc>
<g id="Page-1">
	<g id="_x30_11---Mining" transform="translate(-1.000000, -1.000000)">
		<path id="Shape" class="st1" d="M495.9,239.9h-38.7c-8.9,0-17.4,3.4-23.8,9.7l-7.9,7.6c-9.6-34.2-26.3-66-49-93.3l-18.1-18.1
			l12.1-12.1c10-10,10-26.2,0-36.2l-36.2-36.2c-4.8-4.8-11.3-7.6-18.1-7.5h-0.1c-6.8,0-13.3,2.7-18,7.6l-12.1,12.1l-18.6-18.5
			c-3.9-3.3-95.6-81.5-184-43.6c-3.1,1.3-5.1,4.4-5.2,7.8s1.9,6.5,5,7.9c43.8,21.7,83.9,50,119.2,83.8c1.7,1.6,2.6,3.8,2.6,6.2v49.6
			L8.6,363C3.7,367.7,1,374.3,1,381.1c0,6.8,2.7,13.3,7.5,18.1l24.1,24.2c10,9.9,26.1,9.9,36.2,0l23.5-23.5c0.1-0.1,0.2-0.1,0.2-0.2
			c0.1-0.1,0.1-0.2,0.2-0.2l29.5-29.5c0.1-0.1,0.2-0.1,0.2-0.2c0.1-0.1,0.1-0.2,0.2-0.2l38-38c0.1-0.1,0.2-0.1,0.2-0.2
			c0.1-0.1,0.1-0.2,0.2-0.2l104.5-104.5H315c2.3,0,4.5,0.9,6.2,2.6c21.5,22.5,40.9,47,57.7,73.2l-0.6,0.6
			c-6.6,6.4-10.3,15.3-10.3,24.5v18.1c0,4.1-1.5,8-4.1,11.1l-16.9,19.7h-4.6c-18.9,0-34.1,15.3-34.1,34.1v17.1h-23.5
			c-9.1,0-17.8,3.6-24.2,10l-19.1,19.1c-6.4,6.4-10,15.1-10,24.1v15c0,9.4,7.6,17.1,17.1,17.1h247.5c9.4,0,17.1-7.6,17.1-17.1V257
			C513,247.6,505.4,239.9,495.9,239.9z M310.3,73.4c1.6-1.6,3.7-2.5,6-2.5c2.3,0,4.5,0.9,6.1,2.6l36.2,36.2c1.6,1.6,2.5,3.8,2.5,6
			c0,2.3-0.9,4.4-2.5,6l-12.1,12l-48.3-48.3L310.3,73.4z M74.4,393.7l-17.6,17.6c-3.3,3.3-8.7,3.3-12.1,0l-24.1-24.2
			c-1.6-1.6-2.5-3.8-2.5-6s0.9-4.4,2.6-6l193-193.1l36.2,36.2l-95.1,95.1 M104.3,363.8l-17.8,17.8 M142.7,325.4l-26.3,26.3
			 M315,209.6h-49.6l-21.1-21.1l-22.2-22.1v-49.6c0-6.9-2.8-13.6-7.8-18.4c-31.6-30.3-67-56.4-105.3-77.6
			c73-16.3,146.4,46.2,146.8,46.5L280,91.5l60.3,60.3l0.1,0.1l23.7,23.6c0.7,0.8,63.2,74.3,46.8,147.2
			c-21.1-38.3-47.2-73.7-77.5-105.3C328.6,212.4,322,209.6,315,209.6z M495.9,495.9H248.5l0-15c0-4.5,1.8-8.8,5-12l19.1-19.1
			c3.2-3.2,7.6-5,12.1-5h52.1c6.8,0,13.3,2.7,18.1,7.5l11.3,11.3c3.3,3.2,8.7,3.2,12-0.1c3.3-3.3,3.3-8.6,0.1-12l-11.3-11.3
			c-8-8-18.9-12.5-30.2-12.5h-11.5v-17.1c0-9.4,7.6-17.1,17.1-17.1H385c4.7,0,8.5-3.8,8.5-8.5s-3.8-8.5-8.5-8.5h-15.6l7.4-8.6
			c5.3-6.2,8.2-14,8.2-22.2v-18.1c0-3.6,1.2-7.1,3.3-10c10.9,18.4,16.6,30.5,16.7,30.8c1.4,3.1,4.4,5,7.8,5h0.1c3.4,0,6.4-2,7.7-5.1
			c9.4-22.4,12.5-47,9-71.1l15.9-15.4c3.2-3.1,7.4-4.9,11.9-4.9h38.7V495.9z"/>
		<path id="Shape_1_" class="st1" d="M444.7,419.1c4.7,0,8.5-3.8,8.5-8.5v-17.1c0-4.7-3.8-8.5-8.5-8.5c-4.7,0-8.5,3.8-8.5,8.5v17.1
			C436.2,415.3,440,419.1,444.7,419.1z"/>
		<path id="Shape_2_" class="st1" d="M444.7,436.2c-4.7,0-8.5,3.8-8.5,8.5v17.1c0,4.7,3.8,8.5,8.5,8.5c4.7,0,8.5-3.8,8.5-8.5v-17.1
			C453.3,440,449.4,436.2,444.7,436.2z"/>
		<path id="Shape_3_" class="st1" d="M427.7,419.1h-17.1c-4.7,0-8.5,3.8-8.5,8.5s3.8,8.5,8.5,8.5h17.1c4.7,0,8.5-3.8,8.5-8.5
			S432.4,419.1,427.7,419.1z"/>
		<path id="Shape_4_" class="st1" d="M461.8,419.1c-4.7,0-8.5,3.8-8.5,8.5s3.8,8.5,8.5,8.5h17.1c4.7,0,8.5-3.8,8.5-8.5
			s-3.8-8.5-8.5-8.5H461.8z"/>
		<path id="Shape_5_" class="st1" d="M470.3,325.3c4.7,0,8.5-3.8,8.5-8.5v-8.5c0-4.7-3.8-8.5-8.5-8.5c-4.7,0-8.5,3.8-8.5,8.5v8.5
			C461.8,321.4,465.6,325.3,470.3,325.3z"/>
		<path id="Shape_6_" class="st1" d="M478.9,359.4v-8.5c0-4.7-3.8-8.5-8.5-8.5c-4.7,0-8.5,3.8-8.5,8.5v8.5c0,4.7,3.8,8.5,8.5,8.5
			C475,367.9,478.9,364.1,478.9,359.4z"/>
		<path id="Shape_7_" class="st1" d="M444.7,325.3c-4.7,0-8.5,3.8-8.5,8.5s3.8,8.5,8.5,8.5h8.5c4.7,0,8.5-3.8,8.5-8.5
			s-3.8-8.5-8.5-8.5H444.7z"/>
		<path id="Shape_8_" class="st1" d="M285.8,462.5c-3.2-1.3-6.8-0.6-9.3,1.8c-3.3,3.4-3.3,8.8,0,12.1c1.6,1.6,3.8,2.5,6.1,2.5
			c1.1,0,2.2-0.2,3.2-0.7c1-0.4,2-1,2.8-1.8c3.3-3.4,3.3-8.8,0-12.1C287.8,463.5,286.9,462.9,285.8,462.5z"/>
		<path id="Shape_9_" class="st1" d="M333.8,461.8h-17.1c-4.7,0-8.5,3.8-8.5,8.5c0,4.7,3.8,8.5,8.5,8.5h17.1c4.7,0,8.5-3.8,8.5-8.5
			C342.3,465.6,338.5,461.8,333.8,461.8z"/>
	</g>
</g>
</svg>
