<?xml version="1.0"?>
<svg xmlns="http://www.w3.org/2000/svg" xmlns:xlink="http://www.w3.org/1999/xlink" version="1.1" id="Layer_3" x="0px" y="0px" viewBox="0 0 64 64" style="enable-background:new 0 0 64 64;" xml:space="preserve" width="512px" height="512px" class=""><g><g>
	<path d="M20,29h6c0.446,0,0.839-0.296,0.961-0.725L28.754,22h6.491l1.793,6.275C37.161,28.704,37.554,29,38,29h6   c0.319,0,0.619-0.152,0.807-0.41c0.188-0.258,0.243-0.589,0.146-0.894l-7-22C37.821,5.282,37.436,5,37,5H27   c-0.436,0-0.821,0.282-0.953,0.697l-7,22c-0.097,0.304-0.042,0.636,0.146,0.894C19.381,28.848,19.681,29,20,29z M27.731,7h8.537   l6.364,20h-3.878l-1.793-6.275C36.839,20.296,36.446,20,36,20h-8c-0.446,0-0.839,0.296-0.961,0.725L25.246,27h-3.878L27.731,7z" data-original="#000000" class="active-path" data-old_color="#000000" fill="#463131"/>
	<path d="M29,18h6c0.336,0,0.65-0.169,0.835-0.45c0.185-0.28,0.217-0.635,0.084-0.944l-3-7C32.762,9.238,32.4,9,32,9   s-0.762,0.238-0.919,0.606l-3,7c-0.133,0.309-0.101,0.664,0.084,0.944C28.35,17.831,28.664,18,29,18z M32,12.539L33.483,16h-2.967   L32,12.539z" data-original="#000000" class="active-path" data-old_color="#000000" fill="#463131"/>
	<path d="M58,8h-5V5c0-2.206-1.794-4-4-4H15c-2.206,0-4,1.794-4,4v3H6c-2.757,0-5,2.243-5,5v31c0,2.757,2.243,5,5,5h17v8h-5   c-2.206,0-4,1.794-4,4v1c0,0.552,0.448,1,1,1h34c0.552,0,1-0.448,1-1v-1c0-2.206-1.794-4-4-4h-5v-8h17c2.757,0,5-2.243,5-5V13   C63,10.243,60.757,8,58,8z M13,5c0-1.103,0.897-2,2-2h34c1.103,0,2,0.897,2,2v24c0,1.103-0.897,2-2,2h-5   c-0.265,0-0.52,0.105-0.707,0.293L40,34.586l-3.293-3.293C36.52,31.105,36.265,31,36,31H15c-1.103,0-2-0.897-2-2V5z M6,10h5v19   c0,2.206,1.794,4,4,4h20.586l3.707,3.707C39.488,36.902,39.744,37,40,37s0.512-0.098,0.707-0.293L44.414,33H49c2.206,0,4-1.794,4-4   V10h5c1.654,0,3,1.346,3,3v26H3V13C3,11.346,4.346,10,6,10z M48,61H16c0-1.103,0.897-2,2-2h28C47.103,59,48,59.897,48,61z M39,57   H25v-8h14V57z M58,47H40H24H6c-1.654,0-3-1.346-3-3v-3h58v3C61,45.654,59.654,47,58,47z" data-original="#000000" class="active-path" data-old_color="#000000" fill="#463131"/>
	<rect x="28" y="43" width="8" height="2" data-original="#000000" class="active-path" data-old_color="#000000" fill="#463131"/>
	<rect x="55" y="43" width="2" height="2" data-original="#000000" class="active-path" data-old_color="#000000" fill="#463131"/>
	<rect x="51" y="43" width="2" height="2" data-original="#000000" class="active-path" data-old_color="#000000" fill="#463131"/>
	<rect x="7" y="43" width="2" height="2" data-original="#000000" class="active-path" data-old_color="#000000" fill="#463131"/>
	<rect x="11" y="43" width="2" height="2" data-original="#000000" class="active-path" data-old_color="#000000" fill="#463131"/>
</g></g> </svg>
