<?xml version="1.0"?>
<svg xmlns="http://www.w3.org/2000/svg" height="512px" viewBox="-112 0 496 496" width="512px" class=""><g><path d="m232 0h-192c-22.054688 0-40 17.945312-40 40v416c0 22.054688 17.945312 40 40 40h192c22.054688 0 40-17.945312 40-40v-416c0-22.054688-17.945312-40-40-40zm-11.3125 16-32 32h-105.375l-32-32zm-12.6875 464h-144v-8c0-4.40625 3.59375-8 8-8h128c4.40625 0 8 3.59375 8 8zm48-24c0 13.230469-10.769531 24-24 24h-8v-8c0-13.230469-10.769531-24-24-24h-128c-13.230469 0-24 10.769531-24 24v8h-8c-13.230469 0-24-10.769531-24-24v-416c0-9.902344 6.03125-18.414062 14.609375-22.078125l43.734375 43.734375c1.496094 1.503906 3.535156 2.34375 5.65625 2.34375h112c2.121094 0 4.160156-.839844 5.65625-2.34375l43.734375-43.734375c8.578125 3.664063 14.609375 12.175781 14.609375 22.078125zm0 0" data-original="#000000" class="active-path" data-old_color="#000000" fill="#463131"/><path d="m145.367188 120h-18.742188c-16.730469 0-32.457031 6.511719-44.289062 18.34375-11.832032 11.832031-18.335938 27.550781-18.335938 44.289062 0 23.535157 7.320312 46.03125 21.160156 65.0625l44.367188 61.007813c1.503906 2.074219 3.914062 3.296875 6.472656 3.296875s4.96875-1.222656 6.472656-3.296875l44.367188-61.007813c13.839844-19.03125 21.160156-41.527343 21.160156-65.0625 0-16.730468-6.511719-32.457031-18.34375-44.289062s-27.550781-18.34375-44.289062-18.34375zm28.535156 118.28125-37.902344 52.117188-37.902344-52.117188c-11.839844-16.28125-18.097656-35.519531-18.097656-55.648438 0-12.457031 4.847656-24.167968 13.65625-32.976562s20.511719-13.65625 32.976562-13.65625h18.742188c12.457031 0 24.167969 4.847656 32.976562 13.65625 8.800782 8.808594 13.648438 20.511719 13.648438 32.976562 0 20.128907-6.257812 39.367188-18.097656 55.648438zm0 0" data-original="#000000" class="active-path" data-old_color="#000000" fill="#463131"/><path d="m136 152c-22.054688 0-40 17.945312-40 40s17.945312 40 40 40 40-17.945312 40-40-17.945312-40-40-40zm0 64c-13.230469 0-24-10.769531-24-24s10.769531-24 24-24 24 10.769531 24 24-10.769531 24-24 24zm0 0" data-original="#000000" class="active-path" data-old_color="#000000" fill="#463131"/><path d="m200 328h-128c-4.414062 0-8 3.585938-8 8v32c0 4.414062 3.585938 8 8 8h128c4.414062 0 8-3.585938 8-8v-32c0-4.414062-3.585938-8-8-8zm-8 32h-112v-16h112zm0 0" data-original="#000000" class="active-path" data-old_color="#000000" fill="#463131"/></g> </svg>
