<?xml version="1.0" encoding="utf-8"?>
<!-- Generator: Adobe Illustrator 22.0.0, SVG Export Plug-In . SVG Version: 6.00 Build 0)  -->
<svg version="1.1" id="Layer_1" xmlns="http://www.w3.org/2000/svg" xmlns:xlink="http://www.w3.org/1999/xlink" x="0px" y="0px"
	 viewBox="0 0 570 512" style="enable-background:new 0 0 570 512;" xml:space="preserve">
<style type="text/css">
	.st0{fill:#0077FF;}
	.st1{fill:#020305;}
	.st2{fill:#793FEC;}
</style>
<path class="st0" d="M432,323.8l-32-64l-6.1,12.2H320v-32h54.1l25.9-51.8l32,64l6.1-12.2H512v32h-54.1L432,323.8z M496,512H336
	c-26.5,0-48-21.5-48-48V48c0-26.5,21.5-48,48-48h160c26.5,0,48,21.5,48,48v416C544,490.5,522.5,512,496,512z M336,32
	c-8.8,0-16,7.2-16,16v416c0,8.8,7.2,16,16,16h160c8.8,0,16-7.2,16-16V48c0-8.8-7.2-16-16-16H336z M304,416h224v32H304V416z M304,64
	h224v32H304V64z"/>
<path class="st1" d="M431,322.8l-32-64l-6.1,12.2H319v-32h54.1l25.9-51.8l32,64l6.1-12.2H511v32h-54.1L431,322.8z M495,511H335
	c-26.5,0-48-21.5-48-48V47c0-26.5,21.5-48,48-48h160c26.5,0,48,21.5,48,48v416C543,489.5,521.5,511,495,511z M335,31
	c-8.8,0-16,7.2-16,16v416c0,8.8,7.2,16,16,16h160c8.8,0,16-7.2,16-16V47c0-8.8-7.2-16-16-16H335z M303,415h224v32H303V415z M527,63
	v32H303V63"/>
<path class="st2" d="M141,320c-61.7,0-112-50.3-112-112h32c0,44.1,35.9,80,80,80V320L141,320z M141,320v-32c44.1,0,80-35.9,80-80h32
	C253,269.7,202.8,320,141,320z M141,256c-61.7,0-112-50.3-112-112h32c0,44.1,35.9,80,80,80V256L141,256z M141,256v-32
	c44.1,0,80-35.9,80-80h32C253,205.7,202.8,256,141,256z M29,48h32v160H29V48z M221,48h32v160h-32V48z M61,48H29C29,21.5,50.6,0,77,0
	v32C68.2,32,61,39.2,61,48z M253,48h-32c0-8.8-7.2-16-16-16V0C231.5,0,253,21.5,253,48z M125,304h32v160h-32V304z M173,512
	c-26.5,0-48-21.5-48-48h32c0,8.8,7.2,16,16,16V512L173,512z M173,480h80v32h-80V480z M77,0h16v32H77V0z M189,0h32v32h-32V0z"/>
</svg>
