<?xml version="1.0" encoding="utf-8"?>
<!-- Generator: Adobe Illustrator 21.0.0, SVG Export Plug-In . SVG Version: 6.00 Build 0)  -->
<svg version="1.1" id="Layer_1" xmlns="http://www.w3.org/2000/svg" xmlns:xlink="http://www.w3.org/1999/xlink" x="0px" y="0px"
	 viewBox="0 0 880 880" style="enable-background:new 0 0 880 880;" xml:space="preserve">
<style type="text/css">
	.st0{fill:#B2EC3F;}
	.st1{fill:#793FEC;}
</style>
<path class="st0" d="M826,513H382c-6.6,0-12-5.4-13-12l-33-98L348,292l22-56c0-6.6,5.4-12,12-12h444c6.6,0,12,5.4,12,12l28,70v110
	l-28,85C838,507.6,832.6,513,826,513z"/>
<g id="surface1">
	<path class="st1" d="M865.2,586.3h-55.8c-4.7-8-10.6-15.1-17.5-21.2v-37.4h44c6,0,11.4-3.7,13.6-9.2l2.1-5.1
		c37.9-94.4,37.9-199.8-0.1-294.1l-2-4.9c-2.2-5.6-7.6-9.2-13.6-9.2h-44v-29.5c0-8.1-6.6-14.7-14.7-14.7h-88
		c-8.1,0-14.7,6.6-14.7,14.7v29.3H528v-14.6c0-8.1-6.6-14.7-14.7-14.7c-8.1,0-14.7,6.6-14.7,14.7v14.7H440v-14.7
		c0-8.1-6.6-14.7-14.7-14.7c-8.1,0-14.7,6.6-14.7,14.7v14.7h-44c-6,0-11.5,3.7-13.7,9.3l-2.9,7.6c-37.3,94.6-36.6,200,2,294.2l1,2.4
		c2.2,5.5,7.6,9.1,13.5,9.1h44v58.7H308.1v-308c0-8.1-6.6-14.7-14.7-14.7H132.1c-4.8,0-9.3,2.3-12,6.3L17.4,416.7
		c-1.7,2.5-2.7,5.4-2.7,8.4v161.3C6.6,586.3,0,592.9,0,601v58.7c0,8.1,6.6,14.7,14.7,14.7h70.6c24.2,42,77.8,56.5,119.8,32.3
		c13.4-7.7,24.6-18.9,32.3-32.3h229.2c24.2,42,77.8,56.5,119.8,32.3c13.4-7.7,24.6-18.9,32.3-32.3h38.5
		c24.2,42,77.8,56.5,119.8,32.3c13.4-7.7,24.6-18.9,32.3-32.3h55.9c8.1,0,14.7-6.6,14.7-14.7V601
		C879.9,592.9,873.3,586.3,865.2,586.3z M703.9,190.5h58.7v14.7h-58.7V190.5z M440,293.2h58.7v29.3H440V293.2z M498.6,263.8H440
		v-29.3h58.7v29.3H498.6z M376.8,234.5h34v132c0,8.1,6.6,14.7,14.7,14.7s14.7-6.6,14.7-14.7v-14.7h58.7v14.7
		c0,8.1,6.6,14.7,14.7,14.7c8.1,0,14.7-6.6,14.7-14.7v-132h298c32.9,84.9,32.9,179.1,0,264H376.7
		C343.8,413.5,343.8,319.4,376.8,234.5z M440,527.7h322.6v19.6c-0.2,0-0.4-0.1-0.6-0.2c-3-1-6.1-1.7-9.2-2.4
		c-1.6-0.4-3.2-0.9-4.9-1.2c-8.9-1.5-18-1.6-27-0.3c-1.3,0.2-2.6,0.5-3.9,0.8c-2.7,0.5-5.4,1-8.1,1.8c-1.5,0.4-2.9,1-4.4,1.5
		c-2.4,0.8-4.8,1.7-7,2.7c-1.5,0.6-2.8,1.4-4.3,2.1c-2.2,1.1-4.4,2.3-6.5,3.6c-1.3,0.8-2.6,1.7-3.9,2.6c-2.1,1.4-4,3-6,4.5
		c-1.2,1-2.3,2-3.5,3c-1.9,1.7-3.7,3.6-5.4,5.5c-1,1.1-2,2.2-2.9,3.4c-1.7,2.1-3.2,4.2-4.7,6.4c-0.8,1.2-1.7,2.4-2.5,3.7
		c-0.3,0.5-0.7,1-1,1.5h-38.1c-0.3-0.5-0.6-0.9-1-1.5c-0.9-1.5-1.9-2.8-2.8-4.2c-1.4-2-2.7-3.9-4.3-5.8c-1.1-1.3-2.2-2.6-3.4-3.9
		c-1.6-1.7-3.2-3.4-4.9-5c-1.3-1.2-2.6-2.3-3.9-3.4c-1.8-1.5-3.6-2.9-5.5-4.2c-1.5-1-2.8-1.9-4.3-2.8c-2-1.2-4.1-2.4-6.2-3.4
		c-1.5-0.8-2.9-1.5-4.4-2.2c-2.2-1-4.5-1.8-6.9-2.6c-1.5-0.5-2.9-1.1-4.4-1.5c-2.6-0.7-5.3-1.3-8-1.8c-1.3-0.2-2.6-0.6-3.9-0.8
		c-8.2-1.2-16.5-1.2-24.7,0c-1.3,0.2-2.6,0.5-3.9,0.8c-2.7,0.5-5.4,1-8.1,1.8c-1.5,0.4-2.9,1-4.4,1.5c-2.4,0.8-4.8,1.7-7,2.7
		c-1.5,0.6-2.8,1.4-4.3,2.1c-2.2,1.1-4.4,2.3-6.5,3.6c-1.3,0.8-2.6,1.7-3.9,2.6c-2.1,1.4-4,3-6,4.5c-1.2,1-2.3,2-3.5,3
		c-1.9,1.7-3.7,3.6-5.4,5.5c-1,1.1-2,2.2-2.9,3.4c-1.7,2.1-3.2,4.2-4.7,6.4c-0.8,1.2-1.7,2.4-2.5,3.7c-0.3,0.5-0.7,1-1,1.5h-26
		V527.7z M44.1,429.8l95.6-136.6h139v293.3h-41c-0.3-0.5-0.6-0.9-1-1.5c-0.9-1.5-1.9-2.8-2.8-4.2c-1.4-2-2.7-3.9-4.3-5.8
		c-1.1-1.3-2.2-2.6-3.4-3.9c-1.6-1.7-3.2-3.4-4.9-5c-1.3-1.2-2.6-2.3-3.9-3.4c-1.8-1.5-3.6-2.9-5.5-4.2c-1.5-1-2.8-1.9-4.3-2.8
		c-2-1.2-4.1-2.4-6.2-3.4c-1.5-0.8-2.9-1.5-4.4-2.2c-2.2-1-4.5-1.8-6.9-2.6c-1.5-0.5-2.9-1.1-4.4-1.5c-2.6-0.7-5.3-1.3-8-1.8
		c-1.3-0.2-2.6-0.6-3.9-0.8c-8.2-1.2-16.5-1.2-24.7,0c-1.3,0.2-2.6,0.5-3.9,0.8c-2.7,0.5-5.4,1-8.1,1.8c-1.5,0.4-2.9,1-4.4,1.5
		c-2.4,0.8-4.8,1.7-7,2.7c-1.5,0.6-2.8,1.4-4.3,2.1c-2.2,1.1-4.4,2.3-6.5,3.6c-1.3,0.8-2.6,1.7-3.9,2.6c-2.1,1.4-4,3-6,4.5
		c-1.2,1-2.3,2-3.5,3c-1.9,1.7-3.7,3.6-5.4,5.5c-1,1.1-2,2.2-2.9,3.4c-1.7,2.1-3.2,4.2-4.7,6.4c-0.8,1.2-1.7,2.4-2.5,3.7
		c-0.3,0.5-0.7,1-1,1.5H44.1V429.8z M29.5,645v-29.3h45.2c-0.1,0.5,0,1-0.1,1.5c-1.4,8.7-1.4,17.6,0,26.2c0,0.5,0,1.1,0.1,1.6H29.5z
		 M161.5,689c-23.3-0.1-44.4-13.8-53.8-35.1c-13-29.7,0.6-64.4,30.3-77.4s64.4,0.6,77.4,30.3c13,29.7-0.6,64.3-30.2,77.2
		C177.6,687.3,169.6,689,161.5,689z M248.2,645c0.1-0.5,0-1,0.1-1.5c1.4-8.7,1.4-17.6,0-26.2c0-0.5,0-1.1-0.1-1.6h207.7
		c-0.1,0.5,0,1-0.1,1.5c-1.4,8.7-1.4,17.6,0,26.2c0.1,0.5,0,1.1,0.1,1.6H248.2z M542.6,689c-23.3-0.1-44.4-13.8-53.8-35.1
		c-13-29.7,0.5-64.3,30.1-77.3c7.5-3.3,15.5-5,23.7-4.9c5.7,0,11.4,0.8,16.9,2.5c0.3,0.1,0.7,0.3,1,0.4c2.3,0.7,4.6,1.6,6.9,2.6
		l0.4,0.2c2.4,1.1,4.7,2.4,7,3.9c0.5,0.3,0.9,0.7,1.4,1c1.8,1.3,3.6,2.6,5.3,4c0.8,0.7,1.5,1.6,2.3,2.3c1.2,1.2,2.5,2.4,3.6,3.7
		s2,2.7,2.9,4c0.7,1,1.5,1.8,2.1,2.8c1.1,1.9,2.2,3.9,3.1,5.9c0.3,0.6,0.7,1.1,0.9,1.8c1,2.6,1.9,5.3,2.5,8.1
		c0.3,1.2,0.8,2.3,1.1,3.4c6.7,31.6-13.6,62.7-45.2,69.3C550.8,688.6,546.7,689,542.6,689z M629.4,645c0.1-0.5,0-1,0.1-1.5
		c1.4-8.7,1.4-17.6,0-26.3c-0.1-0.5,0-1-0.1-1.5h17.1c-0.1,0.5,0,1-0.1,1.5c-1.4,8.7-1.4,17.6,0,26.2c0.1,0.5,0,1.1,0.1,1.6H629.4z
		 M733.3,689c-23.3-0.1-44.4-13.8-53.8-35.1c-13-29.7,0.5-64.3,30.1-77.3c7.5-3.3,15.5-5,23.7-4.9c12.7-0.1,25.1,4.1,35.2,11.9
		c8.1,6,14.5,14,18.6,23.2c1.2,3,2.2,6,2.9,9.1c0.2,0.8,0.6,1.6,0.8,2.5c6.7,31.6-13.5,62.7-45.1,69.4
		C741.6,688.6,737.4,689,733.3,689z M850.6,645H820c0.1-0.5,0-1,0.1-1.5c1.4-8.7,1.4-17.6,0-26.3c-0.1-0.5,0-1-0.1-1.5h30.5
		L850.6,645L850.6,645z"/>
	<path class="st1" d="M88.1,483.8h146.7c8.1,0,14.7-6.6,14.7-14.7v-132c0-8.1-6.6-14.7-14.7-14.7h-78.4c-4.8,0-9.3,2.3-12,6.2
		l-68.3,97c-1.7,2.5-2.7,5.4-2.7,8.4v34.9C73.5,477.2,80,483.8,88.1,483.8z M102.8,438.8l61.2-87h56.1v102.7H102.8V438.8z"/>
	<path class="st1" d="M190.8,630.3c0,16.2-13.1,29.3-29.3,29.3s-29.3-13.1-29.3-29.3c0-16.2,13.1-29.3,29.3-29.3
		S190.8,614.2,190.8,630.3z"/>
	<path class="st1" d="M571.9,630.3c0,16.2-13.1,29.3-29.3,29.3c-16.2,0-29.3-13.1-29.3-29.3c0-16.2,13.1-29.3,29.3-29.3
		C558.8,601,571.9,614.2,571.9,630.3z"/>
	<path class="st1" d="M762.6,630.3c0,16.2-13.1,29.3-29.3,29.3c-16.2,0-29.3-13.1-29.3-29.3c0-16.2,13.1-29.3,29.3-29.3
		C749.5,601,762.6,614.2,762.6,630.3z"/>
	<path class="st1" d="M234.8,527.7c8.1,0,14.7-6.6,14.7-14.7c0-8.1-6.6-14.7-14.7-14.7H88.1c-8.1,0-14.7,6.6-14.7,14.7
		c0,8.1,6.6,14.7,14.7,14.7H234.8z"/>
</g>
</svg>
