<?xml version="1.0" encoding="utf-8"?>
<!-- Generator: Adobe Illustrator 21.0.0, SVG Export Plug-In . SVG Version: 6.00 Build 0)  -->
<svg version="1.1" id="Layer_1" xmlns="http://www.w3.org/2000/svg" xmlns:xlink="http://www.w3.org/1999/xlink" x="0px" y="0px"
	 viewBox="0 0 512 512" style="enable-background:new 0 0 512 512;" xml:space="preserve">
<style type="text/css">
	.st0{fill:#B2EC3F;}
	.st1{fill:#793FEC;}
</style>
<path class="st0" d="M424.5,389H79c-13.8,0-25-11.2-25-25v-18h405v8.5C459,373.6,443.6,389,424.5,389z"/>
<g>
	<path class="st1" d="M466,87c0-22.6-18.4-41-41-41H87.3c-22.6,0-41,18.4-41,41L46,359.4c0,22.6,18.4,41,41,41h111.2
		c-1.9,9.4-10.2,16.4-20.1,16.4c-20.3,0-36.9,16.6-36.9,36.9v4.1c0,4.5,3.7,8.2,8.2,8.2h213.1c4.5,0,8.2-3.7,8.2-8.2v-4.1
		c0-20.4-16.5-36.9-36.9-36.9c-9.9,0-18.2-7.1-20.1-16.4h110.9c22.6,0,41-18.4,41-41L466,87z M62.7,87c0-13.6,11-24.6,24.6-24.6H425
		c13.6,0,24.6,11,24.6,24.6v247.7H62.7V87z M333.9,433.2c9.9,0,18.2,7.1,20.1,16.4H158c1.9-9.3,10.2-16.4,20.1-16.4h60.3
		c4.5,0,8.2-3.7,8.2-8.2s-3.7-8.2-8.2-8.2h-29.6c3.2-4.8,5.3-10.4,6-16.4h82.4C299.3,418.8,314.9,433.2,333.9,433.2z M449.3,359.4
		c0,13.6-11,24.6-24.6,24.6H87c-13.6,0-24.6-11-24.6-24.6v-8.2h386.9V359.4z"/>
	<path class="st1" d="M271.2,433.2c4.5,0,8.2-3.7,8.2-8.2s-3.7-8.2-8.2-8.2s-8.2,3.7-8.2,8.2S266.6,433.2,271.2,433.2z"/>
	<path class="st1" d="M170.7,236.3H87.1c-4.5,0-8.2,3.7-8.2,8.2v65.6c0,4.5,3.7,8.2,8.2,8.2h83.6c4.5,0,8.2-3.7,8.2-8.2v-65.6
		C178.9,240,175.3,236.3,170.7,236.3z M162.5,301.9H95.3v-49.2h67.2V301.9z"/>
	<path class="st1" d="M424.9,236.3h-83.6c-4.5,0-8.2,3.7-8.2,8.2v65.6c0,4.5,3.7,8.2,8.2,8.2h83.6c4.5,0,8.2-3.7,8.2-8.2v-65.6
		C433.1,240,429.4,236.3,424.9,236.3z M416.7,301.9h-67.2v-49.2h67.2V301.9z"/>
	<path class="st1" d="M315.3,281.9c0.9-1.3,1.4-2.9,1.4-4.6c0-2.5-1.3-5-3.3-6.6l-32.8-24.6c-3.6-2.7-8.8-2-11.5,1.6
		s-2,8.8,1.6,11.5l13.1,9.8h-47.5c-4.5,0-8.2,3.7-8.2,8.2s3.7,8.2,8.2,8.2h47.5l-13.1,9.8c-3.6,2.7-4.4,7.9-1.6,11.5
		c2.6,3.5,7.9,4.3,11.5,1.6l32.8-24.6C314.1,283.3,314.8,282.7,315.3,281.9z"/>
	<path class="st1" d="M203.5,269.1c-4.5,0-8.2,3.7-8.2,8.2s3.7,8.2,8.2,8.2s8.2-3.7,8.2-8.2S208.1,269.1,203.5,269.1z"/>
	<path class="st1" d="M152.3,191.2h26.1c6.4,0,13.6-1.7,17.9-6.9c4.2-5.2,5.8-11.9,5.8-18.4v-2.5c0-5.5-1-9.6-3.1-12.4
		c-2-2.8-5.1-4.9-9.1-6.4c6.7-2.9,10-9.1,10-18.5c0-14-7.8-21-23.5-21h-24.1c-3.4,0-8,1.5-8,5.7v74.9
		C144.3,189.6,149.2,191.2,152.3,191.2z M162.5,121.1h12.4c2.1,0,3.8,0.8,4.9,2.5c1.2,1.6,1.8,3.6,1.8,5.8s-0.6,4.1-1.8,5.7
		s-2.8,2.4-4.9,2.4h-12.4V121.1z M162.5,151.6h11.8c6.3,0,9.4,3.6,9.4,10.8v1.9c0,7.2-3.1,10.8-9.4,10.8h-11.8V151.6z"/>
	<path class="st1" d="M275.5,191.2c3.8,0,5.5-5,5.5-8.1s-1.8-7.9-5.6-7.9c-0.2,0-31,0-31,0v-1.1c0-2.9,2.5-5.2,4.5-6.9
		c6.1-5.2,13-9.2,19.2-14.2c7.2-5.8,12.9-14.6,12.9-24c0-0.3,0-0.7,0-1c-0.5-14.3-14.1-22.8-27.5-22.8c-7.1,0-13.3,2.1-18.6,6.2
		s-7.9,9.6-7.9,16.4c0,6.4,2.7,9.5,8.1,9.5c4.1,0,9.5-2.1,9.5-7c0-5.4,3.5-9.2,8.9-9.2c4.9,0,9.1,3.2,9.1,8.4
		c0,7.2-8.1,13.2-13.4,17l-10.8,8.1c-3.6,2.7-6.6,5.7-9.1,9.1s-3.8,6.8-3.8,10.2v11.5c0,3.7,4.9,5.7,8,5.7h42V191.2z"/>
	<path class="st1" d="M315.7,191.2h26.1c7.2,0,13-2,17.2-6.1c4.3-4,6.4-10.5,6.4-19.2v-2.5c0-5.5-1-9.6-3.1-12.4
		c-2-2.8-5.1-4.9-9.1-6.4c6.7-2.9,10-9.1,10-18.5c0-14-7.8-21-23.5-21h-24.1c-3.5,0-8,1.5-8,5.7v74.9
		C307.7,189.6,312.6,191.2,315.7,191.2z M326,121.1h12.4c4.4,0,6.7,4.3,6.7,8.2c0,3.9-2.4,8.1-6.7,8.1c-0.1,0-12.4,0-12.4,0V121.1z
		 M326,151.6h11.8c6.3,0,9.4,3.6,9.4,10.8v1.9c0,7.2-3.1,10.8-9.4,10.8H326V151.6z"/>
</g>
</svg>
