<?xml version="1.0" encoding="utf-8"?>
<!-- Generator: Adobe Illustrator 22.0.0, SVG Export Plug-In . SVG Version: 6.00 Build 0)  -->
<svg version="1.1" id="Capa_1" xmlns="http://www.w3.org/2000/svg" xmlns:xlink="http://www.w3.org/1999/xlink" x="0px" y="0px"
	 viewBox="0 0 437.8 437.8" style="enable-background:new 0 0 437.8 437.8;" xml:space="preserve">
<style type="text/css">
	.st0{fill:#793FEC;}
</style>
<g>
	<path d="M1.9,0v437.8h434V0H1.9z M25,414.8V23h387.9v47h-341v291l53.8,53.8H25z M412.8,414.8H158.3L95,351.4V93.1h316.8V353H199.6
		l-47.7-47.7V244c-7.8-3.4-15.4-7.3-23-10.9v81.7l61.2,61.2h222.8v38.8H412.8z"/>
	<path class="st0" d="M151.9,231.1v-69.5h207.4v137h-95.1l-17.8-17.8h48v-80.7h-80.6v80.7h0.7l-0.4,0.3l40.5,40.5h127.7v-183H128.9
		v81.5C136.7,223.6,144.2,227.5,151.9,231.1z"/>
</g>
</svg>
