<?xml version="1.0" encoding="utf-8"?>
<!-- Generator: Adobe Illustrator 21.0.0, SVG Export Plug-In . SVG Version: 6.00 Build 0)  -->
<svg version="1.1" id="Layer_1" xmlns="http://www.w3.org/2000/svg" xmlns:xlink="http://www.w3.org/1999/xlink" x="0px" y="0px"
	 viewBox="0 0 512 512" style="enable-background:new 0 0 512 512;" xml:space="preserve">
<style type="text/css">
	.st0{fill:#B2EC3F;}
	.st1{fill:#793FEC;}
</style>
<polygon class="st0" points="185,180 165,152 193,122 222,141 229,133 229,101 276,101 282,140.5 289.1,128.8 315,118 349,150 
	324,180 331,186 362,186 362,236 329,242 348,272 315,307 285,281 277,318 232,318 227,280 198,304 165,274 187,244 149,235 
	144,188 180,185 "/>
<g>
	<path class="st1" d="M468.3,32H41.7C18.1,32-1,51.1-1,74.7v273.1c0,23.6,19.1,42.6,42.7,42.7h59.7v73.3c0,9.4,7.6,17.1,17.1,17.1
		c4.5,0,8.9-1.8,12.1-5l85.3-85.3h252.5c23.6,0,42.6-19.1,42.7-42.7V74.7C511,51.1,491.9,32,468.3,32z M493.9,347.7
		c0,14.1-11.5,25.6-25.6,25.6h-256c-2.3,0-4.4,0.9-6,2.5l-87.8,87.8v-81.8c0-4.7-3.8-8.5-8.5-8.5H41.7c-14.1,0-25.6-11.5-25.6-25.6
		V74.7c0-14.1,11.5-25.6,25.6-25.6h426.7c14.1,0,25.6,11.5,25.6,25.6V347.7z"/>
	<path class="st1" d="M255,160c-28.3,0-51.2,22.9-51.2,51.2s22.9,51.2,51.2,51.2s51.2-22.9,51.2-51.2C306.2,182.9,283.3,160,255,160
		z M255,245.3c-18.9,0-34.1-15.3-34.1-34.1s15.3-34.1,34.1-34.1s34.1,15.3,34.1,34.1S273.9,245.3,255,245.3z"/>
	<path class="st1" d="M365.9,177.1h-28.5l20.2-20.2c3.3-3.3,3.3-8.7,0-12.1l-36.2-36.2c-3.3-3.3-8.7-3.3-12.1,0l-20.2,20.2v-28.5
		c0-4.7-3.8-8.5-8.5-8.5h-51.2c-4.7,0-8.5,3.8-8.5,8.5v28.5l-20.2-20.2c-3.3-3.3-8.7-3.3-12.1,0l-36.2,36.2c-3.3,3.3-3.3,8.7,0,12.1
		l20.2,20.2h-28.5c-4.7,0-8.5,3.8-8.5,8.5v51.2c0,4.7,3.8,8.5,8.5,8.5h28.5l-20.2,20.2c-3.3,3.3-3.3,8.7,0,12.1l36.2,36.2
		c3.3,3.3,8.7,3.3,12.1,0l20.2-20.2v28.5c0,4.7,3.8,8.5,8.5,8.5h51.2c4.7,0,8.5-3.8,8.5-8.5v-28.5l20.2,20.2c3.3,3.3,8.7,3.3,12.1,0
		l36.2-36.2c3.3-3.3,3.3-8.7,0-12.1l-20.2-20.2h28.5c4.7,0,8.5-3.8,8.5-8.5v-51.2C374.5,180.9,370.6,177.1,365.9,177.1z
		 M357.4,228.3h-30.1c-3.6,0-6.8,2.3-8,5.7c-0.8,2.3-1.7,4.5-2.8,6.6c-1.6,3.3-0.9,7.2,1.7,9.7l21.3,21.3l-24.1,24.1l-21.3-21.3
		c-2.5-2.6-6.4-3.3-9.7-1.7c-2.2,1-4.4,1.9-6.6,2.7c-3.4,1.2-5.7,4.4-5.7,8v30.1h-34.1v-30.1c0-3.6-2.3-6.8-5.7-8
		c-2.3-0.8-4.5-1.7-6.6-2.8c-3.3-1.5-7.2-0.9-9.7,1.7l-21.3,21.2l-24.1-24.1l21.3-21.3c2.6-2.5,3.3-6.4,1.7-9.7
		c-1-2.2-1.9-4.4-2.7-6.6c-1.2-3.4-4.5-5.7-8.1-5.7h-30.1v-34.1h30.1c3.6,0,6.8-2.3,8-5.7c0.8-2.3,1.7-4.5,2.8-6.6
		c1.6-3.3,0.9-7.2-1.7-9.7l-21.2-21.3l24.1-24.1l21.3,21.3c2.6,2.6,6.4,3.3,9.7,1.7c2.2-1,4.4-1.9,6.6-2.7c3.4-1.2,5.7-4.4,5.7-8.1
		v-30.1h34.1v30.1c0,3.6,2.3,6.8,5.7,8c2.3,0.8,4.5,1.7,6.6,2.8c3.3,1.6,7.2,0.9,9.7-1.7l21.3-21.2l24.1,24.1l-21.3,21.3
		c-2.6,2.5-3.3,6.4-1.7,9.7c1,2.2,1.9,4.4,2.7,6.6c1.2,3.4,4.4,5.7,8.1,5.7h30.1V228.3z"/>
</g>
</svg>
