<?xml version="1.0" encoding="utf-8"?>
<!-- Generator: Adobe Illustrator 21.0.0, SVG Export Plug-In . SVG Version: 6.00 Build 0)  -->
<svg version="1.1" id="Layer_1" xmlns="http://www.w3.org/2000/svg" xmlns:xlink="http://www.w3.org/1999/xlink" x="0px" y="0px"
	 viewBox="0 0 512 512" style="enable-background:new 0 0 512 512;" xml:space="preserve">
<style type="text/css">
	.st0{fill:#B2EC3F;}
	.st1{fill:#793FEC;}
</style>
<path class="st0" d="M262,28.9L29,167c0,0,35,1,55.5,5s74.5,31,78.5,34s82-14,114-9s63.7,9.4,63.7,9.4S347,194,399,181s84-13,84-13
	l12,1L262,28.9z"/>
<g>
	<g id="surface1">
		<path class="st1" d="M337.5,220.5c3.2,1.3,6.8,0.5,9.2-1.9c30.3-30.2,73.2-44.2,115.5-37.8l39.4,6.1c4.7,0.7,9-2.5,9.7-7.1
			c0.5-3.4-1-6.7-3.9-8.5L263.8,20V-0.9h-17.1V20L3.2,171.2c-4,2.5-5.2,7.8-2.7,11.8c1.8,2.9,5.2,4.5,8.5,3.9l39.4-6.1
			c42.3-6.4,85.2,7.6,115.5,37.8c2.4,2.4,6,3.2,9.2,1.9c18.1-7.3,37.2-12.1,56.6-14.4v254H204c-14.1,0-25.6,11.5-25.6,25.6
			c0,14.1,11.5,25.6,25.6,25.6h102.5c14.1,0,25.6-11.5,25.6-25.6c0-14.1-11.5-25.6-25.6-25.6h-25.6v-254
			C300.3,208.4,319.3,213.3,337.5,220.5z M324.7,198.1c-45.2-14.2-93.7-14.2-138.9,0l69.5-152.8L324.7,198.1z M343.5,198.4
			L274.7,46.9l188.2,116.8C420,157.7,376.6,170.3,343.5,198.4L343.5,198.4z M47.7,163.7L235.9,46.9L167,198.4
			C134,170.3,90.6,157.7,47.7,163.7z M315,485.8c0,4.7-3.8,8.5-8.5,8.5H204c-4.7,0-8.5-3.8-8.5-8.5c0-4.7,3.8-8.5,8.5-8.5h102.5
			C311.2,477.3,315,481.1,315,485.8z M263.8,460.2h-17.1V204.8c5.7-0.2,11.4-0.2,17.1,0V460.2z"/>
		<path class="st1" d="M161.4,408.9h-25.6v-68.3c0-4.7-3.8-8.5-8.5-8.5H41.8c-4.7,0-8.5,3.8-8.5,8.5v68.3H7.7
			c-4.7,0-8.5,3.8-8.5,8.5v51.2c0,4.7,3.8,8.5,8.5,8.5h8.5v25.6c0,4.7,3.8,8.5,8.5,8.5h119.5c4.7,0,8.5-3.8,8.5-8.5v-25.6h8.5
			c4.7,0,8.5-3.8,8.5-8.5v-51.2C169.9,412.8,166.1,408.9,161.4,408.9z M50.4,460.2v-8.5h68.3v8.5H50.4z M50.4,349.2h68.3v85.4H50.4
			V349.2z M16.2,426h17.1v34.2H16.2V426z M135.7,494.3H33.3v-17.1h102.5V494.3z M152.8,460.2h-17.1V426h17.1V460.2z"/>
		<path class="st1" d="M502.9,408.9h-25.6v-68.3c0-4.7-3.8-8.5-8.5-8.5h-85.4c-4.7,0-8.5,3.8-8.5,8.5v68.3h-25.6
			c-4.7,0-8.5,3.8-8.5,8.5v51.2c0,4.7,3.8,8.5,8.5,8.5h8.5v25.6c0,4.7,3.8,8.5,8.5,8.5h119.5c4.7,0,8.5-3.8,8.5-8.5v-25.6h8.5
			c4.7,0,8.5-3.8,8.5-8.5v-51.2C511.4,412.8,507.6,408.9,502.9,408.9z M391.9,460.2v-8.5h68.3v8.5H391.9z M391.9,349.2h68.3v85.4
			h-68.3V349.2z M357.7,426h17.1v34.2h-17.1V426z M477.3,494.3H374.8v-17.1h102.5V494.3z M494.3,460.2h-17.1V426h17.1V460.2z"/>
	</g>
</g>
</svg>
