<?xml version="1.0"?>
<svg xmlns="http://www.w3.org/2000/svg" height="512px" viewBox="0 -62 480 480" width="512px"><g><path d="m120 259.554688c-17.671875 0-32 14.328124-32 32 0 17.675781 14.328125 32 32 32s32-14.324219 32-32c0-17.671876-14.328125-32-32-32zm0 48c-8.835938 0-16-7.164063-16-16 0-8.835938 7.164062-16 16-16s16 7.164062 16 16c0 8.835937-7.164062 16-16 16zm0 0" data-original="#000000" fill="#000000"/><path d="m352 259.554688c-17.671875 0-32 14.328124-32 32 0 17.675781 14.328125 32 32 32s32-14.324219 32-32c0-17.671876-14.328125-32-32-32zm0 48c-8.835938 0-16-7.164063-16-16 0-8.835938 7.164062-16 16-16s16 7.164062 16 16c0 8.835937-7.164062 16-16 16zm0 0" data-original="#000000" fill="#000000"/><path d="m302.503906 134.90625c-1.5-2.101562-3.921875-3.347656-6.503906-3.351562h-136c-2.863281-.003907-5.511719 1.519531-6.945312 4l-32 56c-1.429688 2.480468-1.425782 5.53125.003906 8.007812 1.433594 2.476562 4.082031 4 6.941406 3.992188h208c2.996094 0 5.738281-1.675782 7.105469-4.339844 1.371093-2.664063 1.136719-5.871094-.601563-8.308594zm-137.863281 12.648438h67.359375v40h-90.207031zm83.359375 40v-40h43.878906l28.578125 40zm0 0" data-original="#000000" fill="#000000"/><path d="m176 219.554688h16v16h-16zm0 0" data-original="#000000" fill="#000000"/><path d="m192 235.554688h16v16h-16zm0 0" data-original="#000000" fill="#000000"/><path d="m208 219.554688h16v16h-16zm0 0" data-original="#000000" fill="#000000"/><path d="m224 235.554688h16v16h-16zm0 0" data-original="#000000" fill="#000000"/><path d="m240 219.554688h16v16h-16zm0 0" data-original="#000000" fill="#000000"/><path d="m256 235.554688h16v16h-16zm0 0" data-original="#000000" fill="#000000"/><path d="m272 219.554688h16v16h-16zm0 0" data-original="#000000" fill="#000000"/><path d="m474.6875 204.027344-109.734375-39.199219-46.554687-62.070313c-1.507813-2.015624-3.878907-3.203124-6.398438-3.203124h-64v-8c0-13.253907-10.746094-24-24-24s-24 10.746093-24 24v8h-64c-3.03125 0-5.804688 1.710937-7.160156 4.425781l-30.511719 61.039062-68.855469 22.953125c-25.375 8.449219-29.472656 16.230469-29.472656 31.582032v56c0 3.574218 2.371094 6.71875 5.808594 7.699218l50.503906 14.398438c3.253906 32.335937 30.226562 57.097656 62.71875 57.582031 32.496094.488281 60.195312-23.457031 64.417969-55.679687h105.101562c4.007813 31.992187 31.207031 55.996093 63.449219 55.996093s59.441406-24.003906 63.449219-55.996093h40.550781c2.675781 0 5.171875-1.335938 6.65625-3.558594l16-24c.875-1.316406 1.339844-2.859375 1.34375-4.441406v-56c-.003906-3.378907-2.128906-6.390626-5.3125-7.527344zm-10.6875 31.527344h-32v-29.789063l32 11.429687zm-248-144c0-4.417969 3.582031-8 8-8s8 3.582031 8 8v8h-16zm-181.472656 111.585937 13.472656-4.488281v20.902344h-32c0-8.0625 0-10.230469 18.527344-16.414063zm85.472656 136.414063c-26.507812 0-48-21.488282-48-48 0-26.507813 21.492188-48 48-48s48 21.492187 48 48c-.027344 26.5-21.5 47.976562-48 48zm232 0c-26.507812 0-48-21.488282-48-48 0-26.507813 21.492188-48 48-48s48 21.492187 48 48c-.027344 26.5-21.5 47.976562-48 48zm99.71875-56h-36.269531c-4.007813-31.992188-31.207031-55.992188-63.449219-55.992188s-59.441406 24-63.449219 55.992188h-105.101562c-3.9375-31.550782-30.464844-55.414063-62.253907-56.003907-31.789062-.585937-59.179687 22.277344-64.285156 53.660157l-40.910156-11.6875v-33.96875h40c4.417969 0 8-3.582032 8-8v-34.238282l42.527344-14.175781c2.015625-.667969 3.679687-2.105469 4.632812-4l29.785156-59.585937h167.054688l45.601562 60.800781c.9375 1.257812 2.230469 2.207031 3.710938 2.726562l58.6875 20.96875v43.503907c0 4.417968 3.582031 8 8 8h40v13.601562zm0 0" data-original="#000000" fill="#000000"/><path d="m194.34375 45.898438 11.3125 11.3125c4.699219-5.164063 11.359375-8.109376 18.34375-8.109376s13.644531 2.945313 18.34375 8.109376l11.3125-11.3125c-7.652344-8.253907-18.398438-12.945313-29.65625-12.945313s-22.003906 4.691406-29.65625 12.945313zm0 0" data-original="#000000" fill="#000000"/><path d="m277.414062 21.667969c-52.796874-48.503907-106.285156-.496094-106.828124 0l10.828124 11.777343c1.738282-1.601562 43.050782-38.699218 85.171876 0zm0 0" data-original="#000000" fill="#000000"/></g> </svg>
