<?xml version="1.0"?>
<svg xmlns="http://www.w3.org/2000/svg" xmlns:xlink="http://www.w3.org/1999/xlink" version="1.1" id="Layer_32" x="0px" y="0px" viewBox="0 0 64 64" style="enable-background:new 0 0 64 64;" xml:space="preserve" width="512px" height="512px" class=""><g><g>
	<path d="M24,39h16c0.552,0,1-0.447,1-1V12c0-0.553-0.448-1-1-1h-1V4c0-1.654-1.346-3-3-3s-3,1.346-3,3v7h-2V8c0-0.553-0.448-1-1-1   h-4c-0.552,0-1,0.447-1,1v3h-1c-0.552,0-1,0.447-1,1v26C23,38.553,23.448,39,24,39z M35,4c0-0.552,0.449-1,1-1s1,0.448,1,1v7h-2V4z    M27,9h2v2h-2V9z M25,13h14v24H25V13z" data-original="#000000" class="active-path" data-old_color="#E00093" fill="#463131"/>
	<path d="M36,15h-8c-0.552,0-1,0.447-1,1v6c0,0.553,0.448,1,1,1h8c0.552,0,1-0.447,1-1v-6C37,15.447,36.552,15,36,15z M35,21h-6v-4   h6V21z" data-original="#000000" class="active-path" data-old_color="#E00093" fill="#463131"/>
	<rect x="27" y="25" width="2" height="2" data-original="#000000" class="active-path" data-old_color="#E00093" fill="#463131"/>
	<rect x="31" y="25" width="2" height="2" data-original="#000000" class="active-path" data-old_color="#E00093" fill="#463131"/>
	<rect x="35" y="25" width="2" height="2" data-original="#000000" class="active-path" data-old_color="#E00093" fill="#463131"/>
	<rect x="27" y="29" width="2" height="2" data-original="#000000" class="active-path" data-old_color="#E00093" fill="#463131"/>
	<rect x="31" y="29" width="2" height="2" data-original="#000000" class="active-path" data-old_color="#E00093" fill="#463131"/>
	<rect x="35" y="29" width="2" height="2" data-original="#000000" class="active-path" data-old_color="#E00093" fill="#463131"/>
	<rect x="27" y="33" width="2" height="2" data-original="#000000" class="active-path" data-old_color="#E00093" fill="#463131"/>
	<rect x="31" y="33" width="2" height="2" data-original="#000000" class="active-path" data-old_color="#E00093" fill="#463131"/>
	<rect x="35" y="33" width="2" height="2" data-original="#000000" class="active-path" data-old_color="#E00093" fill="#463131"/>
	<path d="M28,49h-1.219l-1.432-5.729C25.014,41.935,23.817,41,22.438,41H21v-3c0-0.553-0.448-1-1-1h-8c-0.552,0-1,0.447-1,1v3H9.562   c-1.379,0-2.576,0.935-2.911,2.272L5.219,49H4c-1.654,0-3,1.346-3,3v6c0,0.553,0.448,1,1,1h3v2c0,1.103,0.897,2,2,2h4   c1.103,0,2-0.897,2-2v-2h6v2c0,1.103,0.897,2,2,2h4c1.103,0,2-0.897,2-2v-2h3c0.552,0,1-0.447,1-1v-6C31,50.346,29.654,49,28,49z    M13,39h6v2h-6V39z M8.591,43.758C8.703,43.312,9.102,43,9.562,43h12.877c0.459,0,0.859,0.312,0.97,0.757L24.719,49H7.281   L8.591,43.758z M11,61H7v-2h4V61z M25,61h-4v-2h4V61z M29,57H3v-5c0-0.552,0.449-1,1-1h24c0.551,0,1,0.448,1,1V57z" data-original="#000000" class="active-path" data-old_color="#E00093" fill="#463131"/>
	<rect x="5" y="53" width="2" height="2" data-original="#000000" class="active-path" data-old_color="#E00093" fill="#463131"/>
	<rect x="25" y="53" width="2" height="2" data-original="#000000" class="active-path" data-old_color="#E00093" fill="#463131"/>
	<rect x="14" y="53" width="4" height="2" data-original="#000000" class="active-path" data-old_color="#E00093" fill="#463131"/>
	<path d="M60,49h-1.219l-1.432-5.729C57.014,41.935,55.817,41,54.438,41H53v-3c0-0.553-0.448-1-1-1h-8c-0.552,0-1,0.447-1,1v3   h-1.438c-1.379,0-2.576,0.935-2.911,2.272L37.219,49H36c-1.654,0-3,1.346-3,3v6c0,0.553,0.448,1,1,1h3v2c0,1.103,0.897,2,2,2h4   c1.103,0,2-0.897,2-2v-2h6v2c0,1.103,0.897,2,2,2h4c1.103,0,2-0.897,2-2v-2h3c0.552,0,1-0.447,1-1v-6C63,50.346,61.654,49,60,49z    M45,39h6v2h-6V39z M40.591,43.758C40.703,43.312,41.102,43,41.562,43h12.877c0.459,0,0.859,0.312,0.97,0.757L56.719,49H39.281   L40.591,43.758z M43,61h-4v-2h4V61z M57,61h-4v-2h4V61z M61,57H35v-5c0-0.552,0.449-1,1-1h24c0.551,0,1,0.448,1,1V57z" data-original="#000000" class="active-path" data-old_color="#E00093" fill="#463131"/>
	<rect x="37" y="53" width="2" height="2" data-original="#000000" class="active-path" data-old_color="#E00093" fill="#463131"/>
	<rect x="57" y="53" width="2" height="2" data-original="#000000" class="active-path" data-old_color="#E00093" fill="#463131"/>
	<rect x="46" y="53" width="4" height="2" data-original="#000000" class="active-path" data-old_color="#E00093" fill="#463131"/>
	<path d="M51,34h2V20c0-0.553-0.448-1-1-1h-9v2h8V34z" data-original="#000000" class="active-path" data-old_color="#E00093" fill="#463131"/>
	<path d="M13,21h8v-2h-9c-0.552,0-1,0.447-1,1v14h2V21z" data-original="#000000" class="active-path" data-old_color="#E00093" fill="#463131"/>
</g></g> </svg>
