<?xml version="1.0" encoding="utf-8"?>
<!-- Generator: Adobe Illustrator 23.0.1, SVG Export Plug-In . SVG Version: 6.00 Build 0)  -->
<svg version="1.1" id="Layer_1" xmlns="http://www.w3.org/2000/svg" xmlns:xlink="http://www.w3.org/1999/xlink" x="0px" y="0px"
	 viewBox="0 0 665.9 571.3" style="enable-background:new 0 0 665.9 571.3;" xml:space="preserve">
<style type="text/css">
	.st0{fill:url(#SVGID_1_);}
	.st1{opacity:0.31;fill:#D8DCE4;enable-background:new    ;}
	.st2{fill:#FFFFFF;}
	.st3{fill:url(#SVGID_2_);}
	.st4{fill:url(#SVGID_3_);}
	.st5{fill:url(#SVGID_4_);}
	.st6{fill:url(#SVGID_5_);}
	.st7{fill:url(#SVGID_6_);}
	.st8{fill:url(#SVGID_7_);}
	.st9{fill:url(#SVGID_8_);}
	.st10{fill:url(#SVGID_9_);}
	.st11{fill:url(#SVGID_10_);}
	.st12{fill:url(#SVGID_11_);}
	.st13{fill:url(#SVGID_12_);}
	.st14{fill:url(#SVGID_13_);}
	.st15{font-family: 'Ubuntu', sans-serif;}
	.st16{font-size:17px;}
	.st17{font-family: 'Ubuntu', sans-serif;}
	.st18{font-size:84px;}
	.st19{letter-spacing:-3;}
</style>
<title>3</title>
<linearGradient id="SVGID_1_" gradientUnits="userSpaceOnUse" x1="61.6" y1="130.05" x2="324.08" y2="130.05" gradientTransform="matrix(1 0 0 -1 -61.6 415.85)">
	<stop  offset="0" style="stop-color:#793FEC"/>
	<stop  offset="1" style="stop-color:#9C94FF"/>
</linearGradient>
<path class="st0" d="M262.5,285.9c0,72.5-58.8,131.2-131.3,131.2C58.7,417,0,358.2,0,285.8c0-72.5,58.8-131.2,131.2-131.2
	C203.7,154.6,262.5,213.3,262.5,285.9C262.5,285.8,262.5,285.8,262.5,285.9z"/>
<path class="st1" d="M290,135.6c-39.2-39.3-92.5-61.4-148-61.3v10.8c109.6,0,198.5,88.9,198.4,198.6c0,109.6-88.9,198.4-198.4,198.4
	v10.8c115.6,0,209.3-93.7,209.3-209.3C351.3,228.1,329.3,174.8,290,135.6L290,135.6z"/>
<path class="st2" d="M149.8,79.5c0,6.4-5.2,11.7-11.7,11.6s-11.7-5.2-11.7-11.7c0-6.4,5.2-11.7,11.7-11.7
	C144.5,67.9,149.8,73.1,149.8,79.5L149.8,79.5L149.8,79.5z"/>
<linearGradient id="SVGID_2_" gradientUnits="userSpaceOnUse" x1="183.05" y1="336.3308" x2="216.37" y2="336.3308" gradientTransform="matrix(1 0 0 -1 -61.6 415.85)">
	<stop  offset="0" style="stop-color:#793FEC"/>
	<stop  offset="1" style="stop-color:#9C94FF"/>
</linearGradient>
<path class="st3" d="M149.8,79.5h-5c0,3.7-2.9,6.7-6.6,6.7c-3.7,0-6.7-2.9-6.7-6.6s2.9-6.7,6.6-6.7c1.8,0,3.5,0.7,4.7,1.9
	c1.3,1.2,2,2.9,2,4.7h10c0-9.2-7.5-16.7-16.7-16.7c-9.2,0-16.7,7.5-16.7,16.7c0,9.2,7.5,16.7,16.7,16.7c4.4,0,8.7-1.8,11.8-4.9
	c3.1-3.1,4.9-7.4,4.9-11.8H149.8z"/>
<path class="st2" d="M262.5,113c0,6.4-5.2,11.7-11.7,11.7s-11.7-5.2-11.7-11.7s5.2-11.7,11.7-11.7S262.5,106.5,262.5,113L262.5,113z
	"/>
<linearGradient id="SVGID_3_" gradientUnits="userSpaceOnUse" x1="295.76" y1="302.8808" x2="329.08" y2="302.8808" gradientTransform="matrix(1 0 0 -1 -61.6 415.85)">
	<stop  offset="0" style="stop-color:#793FEC"/>
	<stop  offset="1" style="stop-color:#9C94FF"/>
</linearGradient>
<path class="st4" d="M262.5,113h-5c0,3.7-2.9,6.7-6.6,6.7c-3.7,0-6.7-2.9-6.7-6.6c0-3.7,2.9-6.7,6.6-6.7c1.8,0,3.5,0.7,4.7,1.9
	c1.3,1.2,2,2.9,2,4.7h10c0-9.2-7.5-16.7-16.7-16.7c-9.2,0-16.7,7.5-16.7,16.7c0,9.2,7.5,16.7,16.7,16.7c4.4,0,8.7-1.8,11.8-4.9
	c3.1-3.1,4.9-7.4,4.9-11.8H262.5z"/>
<path class="st2" d="M330.8,182c0,6.4-5.2,11.7-11.7,11.7s-11.7-5.2-11.7-11.7s5.2-11.7,11.7-11.7S330.8,175.6,330.8,182L330.8,182z
	"/>
<linearGradient id="SVGID_4_" gradientUnits="userSpaceOnUse" x1="364.06" y1="233.8308" x2="397.38" y2="233.8308" gradientTransform="matrix(1 0 0 -1 -61.6 415.85)">
	<stop  offset="0" style="stop-color:#793FEC"/>
	<stop  offset="1" style="stop-color:#9C94FF"/>
</linearGradient>
<path class="st5" d="M330.8,182h-5c0,3.7-2.9,6.7-6.6,6.7c-3.7,0-6.7-2.9-6.7-6.6c0-3.7,2.9-6.7,6.6-6.7c1.8,0,3.5,0.7,4.7,1.9
	c1.3,1.2,2,2.9,2,4.7h10c0-9.2-7.5-16.7-16.7-16.7c-9.2,0-16.7,7.5-16.7,16.7c0,9.2,7.5,16.7,16.7,16.7c4.4,0,8.7-1.8,11.8-4.9
	c3.1-3.1,4.9-7.4,4.9-11.8H330.8z"/>
<path class="st2" d="M149.8,487.6c0-6.4-5.2-11.7-11.7-11.7s-11.7,5.2-11.7,11.7c0,6.4,5.2,11.7,11.7,11.7c0,0,0,0,0,0
	C144.5,499.3,149.8,494.1,149.8,487.6z"/>
<linearGradient id="SVGID_5_" gradientUnits="userSpaceOnUse" x1="183.05" y1="-71.7693" x2="216.37" y2="-71.7693" gradientTransform="matrix(1 0 0 -1 -61.6 415.85)">
	<stop  offset="0" style="stop-color:#793FEC"/>
	<stop  offset="1" style="stop-color:#9C94FF"/>
</linearGradient>
<path class="st6" d="M149.8,487.6h5c0-9.2-7.5-16.7-16.7-16.7c-9.2,0-16.7,7.5-16.7,16.7c0,9.2,7.5,16.7,16.7,16.7
	c4.4,0,8.7-1.8,11.8-4.9c3.1-3.1,4.9-7.4,4.9-11.8h-10c0,3.7-2.9,6.7-6.6,6.7c-3.7,0-6.7-2.9-6.7-6.6c0-3.7,2.9-6.7,6.6-6.7
	c1.8,0,3.5,0.7,4.7,1.9c1.3,1.2,2,2.9,2,4.7H149.8z"/>
<path class="st2" d="M262.5,454.2c0-6.4-5.2-11.7-11.7-11.6c-6.4,0-11.7,5.2-11.6,11.7c0,6.4,5.2,11.6,11.7,11.6
	C257.3,465.9,262.5,460.6,262.5,454.2L262.5,454.2z"/>
<linearGradient id="SVGID_6_" gradientUnits="userSpaceOnUse" x1="295.76" y1="-38.3192" x2="329.08" y2="-38.3192" gradientTransform="matrix(1 0 0 -1 -61.6 415.85)">
	<stop  offset="0" style="stop-color:#793FEC"/>
	<stop  offset="1" style="stop-color:#9C94FF"/>
</linearGradient>
<path class="st7" d="M262.5,454.2h5c0-9.2-7.5-16.7-16.7-16.7c-9.2,0-16.7,7.5-16.7,16.7c0,9.2,7.5,16.7,16.7,16.7
	c4.4,0,8.7-1.8,11.8-4.9c3.1-3.1,4.9-7.4,4.9-11.8h-10c0,3.7-2.9,6.7-6.6,6.7c-3.7,0-6.7-2.9-6.7-6.6c0-3.7,2.9-6.7,6.6-6.7
	c1.8,0,3.5,0.7,4.7,1.9c1.3,1.2,2,2.9,2,4.7H262.5z"/>
<path class="st2" d="M330.8,385.1c0-6.4-5.2-11.7-11.7-11.7s-11.7,5.2-11.7,11.7c0,6.4,5.2,11.7,11.7,11.7h0
	C325.6,396.8,330.8,391.6,330.8,385.1z"/>
<linearGradient id="SVGID_7_" gradientUnits="userSpaceOnUse" x1="364.06" y1="30.7207" x2="397.38" y2="30.7207" gradientTransform="matrix(1 0 0 -1 -61.6 415.85)">
	<stop  offset="0" style="stop-color:#793FEC"/>
	<stop  offset="1" style="stop-color:#9C94FF"/>
</linearGradient>
<path class="st8" d="M330.8,385.1h5c0-9.2-7.5-16.7-16.7-16.7c-9.2,0-16.7,7.5-16.7,16.7c0,9.2,7.5,16.7,16.7,16.7
	c4.4,0,8.7-1.8,11.8-4.9c3.1-3.1,4.9-7.4,4.9-11.8h-10c0,3.7-2.9,6.7-6.6,6.7c-3.7,0-6.7-2.9-6.7-6.6c0-3.7,2.9-6.7,6.6-6.7
	c1.8,0,3.5,0.7,4.7,1.9c1.3,1.2,2,2.9,2,4.7H330.8z"/>
<path class="st2" d="M357.8,283.6c0,6.4-5.2,11.7-11.7,11.7s-11.7-5.2-11.7-11.7s5.2-11.7,11.7-11.7S357.8,277.1,357.8,283.6
	L357.8,283.6z"/>
<linearGradient id="SVGID_8_" gradientUnits="userSpaceOnUse" x1="391.04" y1="132.2808" x2="424.36" y2="132.2808" gradientTransform="matrix(1 0 0 -1 -61.6 415.85)">
	<stop  offset="0" style="stop-color:#793FEC"/>
	<stop  offset="1" style="stop-color:#9C94FF"/>
</linearGradient>
<path class="st9" d="M357.8,283.6h-5c0,3.7-2.9,6.7-6.6,6.7c-3.7,0-6.7-2.9-6.7-6.6c0-3.7,2.9-6.7,6.6-6.7c1.8,0,3.5,0.7,4.7,1.9
	c1.3,1.2,2,2.9,2,4.7h10c0-9.2-7.5-16.7-16.7-16.7c-9.2,0-16.7,7.5-16.7,16.7c0,9.2,7.5,16.7,16.7,16.7c4.4,0,8.7-1.8,11.8-4.9
	c3.1-3.1,4.9-7.4,4.9-11.8H357.8z"/>
<path class="st1" d="M632.7,318.9H489.9c-18.4,0-33.2-14.9-33.2-33.2c0-18.3,14.9-33.2,33.2-33.2h142.8c18.4,0,33.2,14.9,33.2,33.2
	C665.9,304,651.1,318.8,632.7,318.9C632.7,318.9,632.7,318.9,632.7,318.9z"/>
<path class="st1" d="M553.5,490.4H410.7c-18.4,0-33.2,14.9-33.2,33.2c0,18.4,14.9,33.2,33.2,33.2l0,0h142.8
	c18.4,0,33.2-14.9,33.2-33.2C586.7,505.3,571.9,490.4,553.5,490.4z"/>
<path class="st1" d="M604,380H461.2c-18.4,0-33.2,14.9-33.2,33.2c0,18.4,14.9,33.2,33.2,33.2H604c18.4,0,33.2-14.9,33.2-33.2
	C637.2,394.9,622.3,380,604,380z"/>
<path class="st1" d="M553.4,81.2l-142.8-0.6c-18.4-0.1-33.2-15-33.1-33.4s15-33.2,33.4-33.1l0,0l142.8,0.6
	c18.4,0.1,33.2,15,33.1,33.4C586.7,66.4,571.8,81.3,553.4,81.2L553.4,81.2L553.4,81.2z"/>
<path class="st1" d="M604,191.3H461.2c-18.4,0-33.2-14.9-33.2-33.2c0-18.3,14.9-33.2,33.2-33.2H604c18.4,0,33.2,14.9,33.2,33.2
	C637.2,176.4,622.3,191.3,604,191.3z"/>
<linearGradient id="SVGID_9_" gradientUnits="userSpaceOnUse" x1="467" y1="130.2036" x2="574.6309" y2="130.2036" gradientTransform="matrix(1 0 0 -1 -61.6 415.85)">
	<stop  offset="0" style="stop-color:#793FEC"/>
	<stop  offset="1" style="stop-color:#9C94FF"/>
</linearGradient>
<path class="st10" d="M465.4,238L465.4,238c-20.9,0-39.3,13.6-45.5,33.5l-14.5,14.4l14.7,14.7c8.3,25,35.3,38.5,60.2,30.2
	c25-8.3,38.5-35.3,30.2-60.2C504.1,251.2,485.9,238,465.4,238z"/>
<linearGradient id="SVGID_10_" gradientUnits="userSpaceOnUse" x1="386.73" y1="368.1876" x2="495.44" y2="368.1876" gradientTransform="matrix(1 0 0 -1 -61.6 415.85)">
	<stop  offset="0" style="stop-color:#793FEC"/>
	<stop  offset="1" style="stop-color:#9C94FF"/>
</linearGradient>
<path class="st11" d="M386.2,0L386.2,0c-26.3,0-47.7,21.3-47.7,47.7l0,0l0,0c0,1.3,0.1,2.6,0.2,3.9l-13.5,25.8h23.8
	c16.4,20.6,46.4,24,67,7.6c11.4-9,18-22.8,18-37.3l0,0C433.8,21.3,412.5,0,386.2,0L386.2,0L386.2,0z"/>
<linearGradient id="SVGID_11_" gradientUnits="userSpaceOnUse" x1="439.23" y1="257.7848" x2="545.9075" y2="257.7848" gradientTransform="matrix(1 0 0 -1 -61.6 415.85)">
	<stop  offset="0" style="stop-color:#793FEC"/>
	<stop  offset="1" style="stop-color:#9C94FF"/>
</linearGradient>
<path class="st12" d="M436.6,110.4L436.6,110.4c-26.3,0-47.6,21.3-47.7,47.6c0,2.9,0.3,5.8,0.8,8.7l-12.1,13.1l23.4,10
	c17.5,19.7,47.6,21.4,67.3,3.9c19.7-17.5,21.4-47.6,3.9-67.3C463.2,116.2,450.2,110.4,436.6,110.4L436.6,110.4z"/>
<linearGradient id="SVGID_12_" gradientUnits="userSpaceOnUse" x1="386.73" y1="-107.775" x2="495.43" y2="-107.775" gradientTransform="matrix(1 0 0 -1 -61.6 415.85)">
	<stop  offset="0" style="stop-color:#793FEC"/>
	<stop  offset="1" style="stop-color:#9C94FF"/>
</linearGradient>
<path class="st13" d="M386.2,476L386.2,476c-15.3,0-29.7,7.4-38.7,19.8h-22.4l13.4,25.6c0,0.8-0.1,1.5-0.1,2.3
	c0,26.3,21.3,47.7,47.7,47.7s47.7-21.3,47.7-47.7C433.8,497.3,412.5,476,386.2,476L386.2,476L386.2,476z"/>
<linearGradient id="SVGID_13_" gradientUnits="userSpaceOnUse" x1="439.23" y1="2.63" x2="545.9" y2="2.63" gradientTransform="matrix(1 0 0 -1 -61.6 415.85)">
	<stop  offset="0" style="stop-color:#793FEC"/>
	<stop  offset="1" style="stop-color:#9C94FF"/>
</linearGradient>
<path class="st14" d="M436.6,365.6L436.6,365.6c-14.4,0-28.1,6.5-37.1,17.8l-21.9,10l11.9,12.6c-0.4,2.4-0.5,4.8-0.5,7.2
	c0,26.3,21.3,47.7,47.7,47.7s47.7-21.3,47.7-47.7S463,365.6,436.6,365.6L436.6,365.6L436.6,365.6z"/>
<g>
	<text transform="matrix(1 0 0 1 456.71 43.37)" class="st15 st16">Engineering</text>
	<text transform="matrix(1 0 0 1 476.21 63.77)" class="st15 st16">Service</text>
</g>
<g>
	<text transform="matrix(1 0 0 1 514.9 154.49)" class="st15 st16">Design</text>
	<text transform="matrix(1 0 0 1 513.9 174.89)" class="st15 st16">Service</text>
</g>
<text transform="matrix(1 0 0 1 526.04 282.3)" class="st15 st16">Manu</text>
<text transform="matrix(1 0 0 1 571.33 282.3)" class="st15 st16">f</text>
<text transform="matrix(1 0 0 1 577.69 282.3)" class="st15 st16">acturing</text>
<text transform="matrix(1 0 0 1 550.74 302.7)" class="st15 st16">solutions</text>
<g>
	<text transform="matrix(1 0 0 1 514.22 411.35)" class="st15 st16">Security</text>
	<text transform="matrix(1 0 0 1 511.62 431.75)" class="st15 st16">solutions</text>
</g>
<g>
	<text transform="matrix(1 0 0 1 464.34 519.16)" class="st15 st16">Soft</text>
	<text transform="matrix(1 0 0 1 496.84 519.16)" class="st15 st16">w</text>
	<text transform="matrix(1 0 0 1 508.34 519.16)" class="st15 st16">a</text>
	<text transform="matrix(1 0 0 1 518.5 519.16)" class="st15 st16">r</text>
	<text transform="matrix(1 0 0 1 524.81 519.16)" class="st15 st16">e</text>
	<text transform="matrix(1 0 0 1 465.34 539.56)" class="st15 st16">solutions</text>
</g>
<text transform="matrix(1 0 0 1 79.51 310.94)" class="st2 st17 st18">I</text>
<text transform="matrix(1 0 0 1 99.59 310.94)" class="st2 st17 st18 st19">o</text>
<text transform="matrix(1 0 0 1 142.34 310.94)" class="st2 st17 st18">T</text>
<path class="st2" d="M387.1,54.1c3.6,0.9,7.3-0.2,9.8-2.9c1.9-2,2.9-4.6,2.7-7.4c-0.5-5.5-5.4-9.5-10.9-9c-5.5,0.5-9.5,5.4-9,10.9
	c0,0.5,0.1,0.9,0.2,1.4l-3.8-1c0-0.9-0.1-1.9,0-2.9c0.1-0.4-0.1-0.8-0.5-1c-0.7-0.4-1.5-0.9-2.2-1.3c-0.6-0.3-0.9-1-0.6-1.6
	c0,0,0,0,0,0c0.4-0.9,0.7-1.9,1.1-2.8c0.2-0.7,0.9-1,1.5-0.8c0,0,0,0,0,0c0.9,0.2,1.8,0.4,2.7,0.6c0.2,0.1,0.5,0,0.6-0.2
	c0.7-0.8,1.4-1.5,2.1-2.2c0.1-0.2,0.2-0.4,0.2-0.6c-0.2-0.9-0.4-1.9-0.7-2.8c-0.2-0.6,0.1-1.3,0.7-1.5c1-0.4,1.9-0.9,2.9-1.3
	c0.6-0.3,1.3-0.1,1.6,0.5c0.5,0.8,1,1.6,1.5,2.3c0.1,0.2,0.4,0.3,0.6,0.3c1.1,0,2.1,0,3.2-0.1c0.2,0,0.3-0.1,0.4-0.3
	c0.5-0.8,1-1.6,1.5-2.4c0.3-0.6,1-0.9,1.6-0.6c0.1,0,0.1,0,0.2,0.1l2.7,1.1c0.7,0.2,1,0.8,0.9,1.5c0,0,0,0.1,0,0.1
	c-0.2,0.9-0.4,1.8-0.6,2.6c-0.1,0.2,0,0.5,0.2,0.6c0.8,0.7,1.5,1.4,2.3,2.2c0.2,0.2,0.4,0.3,0.6,0.2l2.6-0.6c0.7-0.3,1.4,0,1.7,0.7
	c0,0.1,0,0.1,0.1,0.2l1.1,2.5c0.4,0.6,0.2,1.4-0.4,1.8c-0.1,0-0.1,0.1-0.2,0.1c-0.7,0.5-1.4,1-2.2,1.4c-0.2,0.1-0.4,0.4-0.3,0.7
	c0,1,0,2.1,0,3.1c0,0.2,0.1,0.3,0.3,0.4c0.8,0.5,1.6,1,2.4,1.4c0.6,0.3,0.9,1,0.6,1.6c0,0,0,0.1-0.1,0.1c-0.4,0.9-0.7,1.8-1.1,2.7
	c-0.2,0.7-0.9,1-1.5,0.9c0,0,0,0-0.1,0c-0.9-0.2-1.8-0.4-2.7-0.6c-0.2,0-0.4,0.1-0.5,0.2c-0.7,0.7-1.5,1.5-2.2,2.2
	c-0.2,0.2-0.3,0.4-0.2,0.6c0.2,0.9,0.5,1.8,0.7,2.8c0.2,0.6-0.1,1.3-0.7,1.5c-1,0.4-1.9,0.8-2.9,1.2c-0.6,0.3-1.3,0.1-1.6-0.5
	c0,0,0,0,0,0c-0.5-0.8-1-1.6-1.5-2.4c-0.1-0.2-0.3-0.3-0.5-0.3c-0.9,0-1.9,0-2.8,0.1c-0.2,0-0.4-0.1-0.5-0.3c0,0,0,0,0,0
	c-0.3-1.1-0.6-2.1-1-3.2C387,54.2,387,54.2,387.1,54.1L387.1,54.1z M384.3,52.7c-0.1,0.2-0.2,0.4-0.3,0.6c-0.3,0.5-0.7,1-1,1.5
	c-0.1,0.2-0.1,0.4,0,0.6c0.3,0.6,0.5,1.2,0.8,1.8c0,0.2,0.2,0.4,0.5,0.4c0.6,0.1,1.2,0.2,1.7,0.3c0.5,0,0.9,0.4,0.9,0.9
	c0,0,0,0.1,0,0.1c0,0.7,0,1.3,0,2c0.1,0.5-0.3,0.9-0.7,1c0,0-0.1,0-0.1,0c-0.6,0.1-1.2,0.2-1.8,0.3c-0.2,0.1-0.3,0.2-0.4,0.3
	c-0.3,0.6-0.5,1.3-0.8,1.9c-0.1,0.2-0.1,0.3,0,0.5c0.3,0.5,0.7,1,1.1,1.5c0.3,0.3,0.3,0.9,0,1.2c0,0,0,0-0.1,0.1
	c-0.5,0.5-0.9,1-1.4,1.4c-0.3,0.4-0.9,0.4-1.3,0.1c0,0,0,0-0.1-0.1c-0.5-0.4-1-0.7-1.5-1c-0.2-0.1-0.3-0.1-0.5,0
	c-0.6,0.2-1.3,0.5-1.9,0.8c-0.2,0.1-0.3,0.2-0.4,0.4c-0.1,0.6-0.2,1.2-0.3,1.8c0,0.5-0.4,0.9-0.9,0.8c0,0-0.1,0-0.1,0h-2
	c-0.5,0.1-0.9-0.3-1-0.8c0,0,0-0.1,0-0.1c-0.1-0.6-0.2-1.2-0.3-1.7c-0.1-0.2-0.2-0.3-0.4-0.4c-0.6-0.3-1.2-0.5-1.8-0.8
	c-0.2-0.1-0.4,0-0.5,0.1c-0.5,0.3-1,0.7-1.5,1c-0.3,0.3-0.9,0.3-1.2,0c0,0-0.1-0.1-0.1-0.1c-0.5-0.5-1-0.9-1.4-1.4
	c-0.4-0.3-0.4-0.8-0.1-1.2c0,0,0,0,0.1-0.1c0.3-0.5,0.7-1,1-1.5c0.1-0.2,0.1-0.4,0-0.6c-0.2-0.6-0.5-1.2-0.8-1.8
	c-0.1-0.2-0.2-0.3-0.4-0.4c-0.6-0.1-1.2-0.2-1.8-0.3c-0.5,0-0.9-0.4-0.9-0.9c0,0,0,0,0-0.1c0-0.7,0-1.3,0-2c-0.1-0.5,0.3-0.9,0.7-1
	c0,0,0.1,0,0.1,0c0.6-0.1,1.1-0.2,1.7-0.3c0.3,0,0.5-0.2,0.5-0.5c0.2-0.6,0.4-1.2,0.7-1.7c0.1-0.2,0.1-0.5-0.1-0.7
	c-0.4-0.5-0.7-0.9-1-1.4c-0.3-0.3-0.3-0.9,0-1.2c0,0,0.1-0.1,0.1-0.1l1.4-1.4c0.3-0.4,0.8-0.5,1.2-0.2c0,0,0.1,0.1,0.1,0.1
	c0.5,0.3,1,0.7,1.4,1c0.2,0.2,0.4,0.2,0.6,0.1c0.6-0.3,1.2-0.5,1.8-0.8c0.2,0,0.4-0.2,0.4-0.5c0.1-0.6,0.2-1.1,0.3-1.7
	s0.4-0.9,1.1-0.9h1.8c0.8,0,1,0.2,1.1,1c0.1,0.5,0.2,1.1,0.3,1.6c0,0.2,0.2,0.5,0.4,0.5c0.6,0.2,1.2,0.4,1.8,0.7
	c0.2,0.1,0.5,0.1,0.7-0.1c0.5-0.4,0.9-0.7,1.4-1c0.4-0.3,0.9-0.3,1.3,0c0,0,0,0,0.1,0.1c0.5,0.5,1,0.9,1.4,1.4
	C384.1,52.2,384.2,52.4,384.3,52.7L384.3,52.7z M381.7,59.9c0-3.9-3.1-7-7-7s-7,3.1-7,7s3.1,7,7,7S381.7,63.7,381.7,59.9z
	 M396.1,44.6c0,3.6-2.9,6.6-6.5,6.6s-6.6-2.9-6.6-6.5s2.9-6.6,6.5-6.6c0,0,0,0,0,0C393.2,38.1,396.1,41,396.1,44.6z"/>
<g id="Page-1">
	<g id="_035---Creative-Thinking">
		<path id="Shape" class="st2" d="M443.4,147.2l-3.6-0.2c-0.1,0.7-0.2,1.4-0.3,2.1h0.3c1.2,0.2,2.4,0.3,3.6,0.2
			C443.4,148.5,443.4,147.9,443.4,147.2z"/>
		<path id="Shape-2" class="st2" d="M439.6,150.5h-0.2c-0.1,1.2-0.1,2.4-0.1,3.6c1-0.4,2.1-0.5,3.2-0.5h0.5c0.1-1,0.2-2,0.3-2.9
			c-0.3,0-0.6,0-0.9,0C441.5,150.7,440.5,150.6,439.6,150.5z"/>
		<path id="Shape-3" class="st2" d="M427.5,135c-0.1,0-0.2,0.1-0.2,0.2l-0.1,3.2c0.7,0.2,1.5,0.1,2.1-0.5l-1.5-2.8
			C427.7,135,427.6,134.9,427.5,135z"/>
		<path id="Shape-4" class="st2" d="M431,149.6c0.4-0.1,0.8,0.1,0.9,0.5c0,0,0,0,0,0l2,8.7c0.3-0.6,0.7-1.1,1.1-1.7l-3.2-13.6
			c-0.3,0.4-0.8,0.7-1.2,1l0.5,2.2c0.1,0.4-0.1,0.8-0.5,0.9c-0.4,0.1-0.8-0.1-0.9-0.5l-0.5-2.2H429c-0.5,0-1-0.1-1.4-0.3l3.2,13.4
			c0.5,0.1,1.1,0.2,1.6,0.4l-1.9-7.8C430.3,150,430.6,149.6,431,149.6C431,149.6,431,149.6,431,149.6z"/>
		<path id="Shape-5" class="st2" d="M445.1,141.1c-0.3-1.9-1.2-3.7-2.6-5.1c-0.2,1.5-1.2,3.1-3.1,5.2c-1.2,1.2-1.2,3.1,0,4.2
			c0,0,0,0,0.1,0.1l4.2,0.3C444.8,144.5,445.3,142.8,445.1,141.1z M442.6,144.7c-0.4,0-0.7-0.3-0.7-0.7c0-0.2,0-0.3,0.1-0.4
			c0.6-0.9,0.9-1.9,0.7-3c-0.1-0.4,0.1-0.8,0.5-0.9s0.8,0.1,0.9,0.5c0.3,1.5-0.1,3-1,4.2C443,144.6,442.8,144.7,442.6,144.7
			L442.6,144.7z"/>
		<path id="Shape-6" class="st2" d="M454.2,144.6l-3,1.9c-0.1,1.3-0.5,2.6-1,3.9c0.6,1.5,2.3,2.3,3.8,1.7c0.1,0,0.2-0.1,0.2-0.1
			c0.5-1.2,1.2-2.4,2.1-3.4l-0.8-3.4l-1.1,2.6c-0.2,0.4-0.6,0.5-0.9,0.4s-0.5-0.6-0.4-0.9L454.2,144.6z"/>
		<path id="Shape-7" class="st2" d="M451.3,159.2l2.3-5.5h-0.4c-0.6,0-1.2-0.1-1.8-0.4c-0.7-0.3-1.3-0.7-1.8-1.3l-1.4,3.4
			C449.5,156.4,450.6,157.7,451.3,159.2z"/>
		<path id="Shape-8" class="st2" d="M452.1,166.4c-0.3,0-0.7,0-1,0.1c-0.4,0.1-0.8-0.1-0.9-0.5c0-0.1,0-0.3,0-0.4
			c1.4-4.3-0.9-8.9-5.2-10.4c-4.2-1.4-8.8,0.9-10.3,5.1c-0.1,0.4-0.5,0.6-0.9,0.4c-0.1,0-0.1-0.1-0.2-0.1c-3-2.2-7.3-1.6-9.5,1.5
			c-0.8,1.1-1.3,2.4-1.3,3.8c0,0.4-0.3,0.7-0.7,0.7c-0.1,0-0.1,0-0.2,0c-0.4-0.1-0.8-0.2-1.2-0.2c-2.4,0.1-4.2,2.1-4.1,4.5
			c0.1,2.2,1.9,4,4.1,4.1h31.4c2.4-0.1,4.2-2.1,4.1-4.5C456.1,168.2,454.3,166.4,452.1,166.4L452.1,166.4z M428.1,162.8
			c-0.9,0.3-1.6,1.2-1.7,2.2c0,0.4-0.3,0.7-0.7,0.7s-0.7-0.3-0.7-0.7c0.1-1.6,1.1-3,2.6-3.5c0.4-0.1,0.8,0.1,0.9,0.5
			C428.6,162.3,428.4,162.6,428.1,162.8L428.1,162.8z M437.1,159.8c0.5-2,2.2-3.4,4.3-3.4c0.4,0,0.7,0.3,0.7,0.7s-0.3,0.7-0.7,0.7
			c-1.4,0-2.6,1-2.9,2.3c-0.1,0.3-0.4,0.5-0.7,0.5h-0.2C437.3,160.5,437,160.2,437.1,159.8C437.1,159.8,437.1,159.8,437.1,159.8
			L437.1,159.8z M444.6,169.4c-0.4,0.2-0.8,0-0.9-0.3c0,0,0,0,0,0c-0.4-0.8-1.1-1.2-1.9-1.2c-0.5,0-1,0.2-1.3,0.5h-0.1h-0.1h-0.1
			c-0.1,0-0.3,0-0.4,0h-0.1l-0.1-0.1l-0.1-0.1l0,0V168V168c-0.5-1-1.5-1.6-2.6-1.6c-1.6,0-2.9,1.3-2.9,2.9c0,0.4,0.1,0.8,0.2,1.1
			c0.2,0.4,0,0.8-0.4,0.9c0,0,0,0,0,0c-0.1,0-0.2,0.1-0.3,0.1c-0.3,0-0.5-0.2-0.7-0.4c-0.2-0.5-0.4-1.1-0.4-1.7
			c0-2.4,1.9-4.3,4.3-4.3c1.4,0,2.7,0.7,3.5,1.8c0.5-0.2,1-0.4,1.5-0.4c1.4,0,2.7,0.8,3.2,2.1c0.2,0.4,0,0.8-0.3,0.9c0,0,0,0,0,0
			L444.6,169.4z"/>
		<path id="Shape-9" class="st2" d="M429.5,143.3c0.9-0.2,1.6-1,1.7-1.9l-1.2-2.2c-0.4,0.3-0.8,0.5-1.3,0.7
			c-0.2,0.1-0.5,0.1-0.7,0.1c-0.3,0-0.5,0-0.8-0.1l-0.1,2.5C427.7,143.1,428.6,143.5,429.5,143.3z"/>
		<path id="Shape-10" class="st2" d="M420.3,151.6l2.6-1.1l-0.5-1.3l-6,2.5l5.2,12.5c0.6-2.5,2.3-4.6,4.6-5.6l-0.6-1.4l-2.6,1.1
			c-0.1,0-0.2,0.1-0.3,0c-0.4,0-0.7-0.3-0.7-0.7c0-0.3,0.2-0.6,0.4-0.7l2.6-1.1l-0.5-1.3l-1.3,0.5c-0.1,0-0.2,0.1-0.3,0
			c-0.4,0-0.7-0.3-0.7-0.7c0-0.3,0.2-0.6,0.4-0.7l1.3-0.5l-0.5-1.3l-2.6,1.1c-0.1,0-0.2,0.1-0.3,0c-0.4,0-0.7-0.3-0.7-0.7
			C419.8,152,420,151.7,420.3,151.6L420.3,151.6z"/>
	</g>
</g>
<polygon class="st2" points="453.7,282.7 458.5,281 458.5,270.1 453.7,270.1 "/>
<polygon class="st2" points="466.9,282.7 471.7,281 471.7,270.1 466.9,270.1 "/>
<path class="st2" d="M447.8,305.2h34.6v-11.8h-34.6V305.2z M464.4,295.2h3.7v5.9h-3.7L464.4,295.2z M457.8,295.2h3.7v5.9h-3.7V295.2
	z M451,295.2h3.7v5.9H451V295.2z"/>
<polygon class="st2" points="474.2,286.5 473.3,281.7 461.3,286.5 459.8,281.7 447.8,286.5 447.8,291.6 482.4,291.6 482.4,286.5 "/>
<path class="st2" d="M451.5,269.3c0.6-0.1,1.1-0.4,1.4-0.8c0.3-0.4,0.7-0.7,1.1-1c0.4-0.2,0.8-0.3,1.3-0.2c0.3,0.1,0.6,0.3,0.8,0.6
	c0.2,0.4,0.4,0.8,0.6,1.3h0.1c0.2-0.5,0.2-1.1,0-1.6c-0.1-0.3-0.3-0.6-0.5-0.8c-0.3-0.2-0.6-0.3-1-0.3c-0.5,0.1-1.1,0.4-1.5,0.8
	c-0.4,0.3-0.8,0.6-1.3,0.8c-0.4,0.2-0.8,0.3-1.3,0.3c-0.4,0-0.7-0.1-1-0.4c-0.7-0.6-1.2-1.4-1.6-2.2h-0.1c-0.1,1.1,0.3,2.2,1.1,3
	C450.2,269.3,450.9,269.5,451.5,269.3z"/>
<path class="st2" d="M466.4,269.4c0.4-0.1,0.7-0.3,1-0.6c0.2-0.3,0.5-0.5,0.8-0.7c0.3-0.1,0.6-0.2,0.9-0.1c0.2,0,0.3,0.2,0.4,0.3
	c0.2,0.2,0.3,0.5,0.5,0.9h0.1c0.2-0.4,0.2-0.8,0.1-1.2c-0.1-0.2-0.2-0.4-0.4-0.6c-0.2-0.2-0.5-0.3-0.8-0.2c-0.4,0.1-0.7,0.3-1,0.6
	c-0.3,0.2-0.6,0.4-0.9,0.5c-0.3,0.1-0.6,0.1-0.8,0.2c-0.2,0-0.4-0.1-0.6-0.2c-0.5-0.4-0.9-0.9-1.2-1.4h-0.1
	c-0.2,0.8,0.1,1.6,0.7,2.2C465.4,269.4,465.9,269.5,466.4,269.4z"/>
<g id="surface1">
	<path class="st2" d="M436.4,406.5c-4.6,0-8.4,3.8-8.4,8.4s3.8,8.4,8.4,8.4s8.4-3.8,8.4-8.4C444.8,410.2,441,406.5,436.4,406.5z
		 M441.4,413.3l-6,6c-0.5,0.5-1.3,0.5-1.8,0c0,0,0,0,0,0l-2.3-2.3c-0.5-0.5-0.5-1.3,0-1.8c0.5-0.5,1.3-0.5,1.8,0l1.4,1.4l5.1-5.1
		c0.5-0.5,1.3-0.5,1.8,0C441.9,411.9,441.9,412.8,441.4,413.3L441.4,413.3z"/>
	<path class="st2" d="M455.1,404.8L455.1,404.8c0-0.4,0-0.9,0-1.4c0-2.4-2-4.4-4.4-4.6c-4.6-0.1-9-2-12.3-5.2l0,0
		c-1.1-1-2.7-1-3.8,0l0,0c-3.3,3.3-7.8,5.1-12.4,5.2c-2.4,0.1-4.3,2.1-4.4,4.6c0,0.5,0,0.9,0,1.4v0.1c-0.1,5.2-0.2,11.6,1.9,17.4
		c1.1,3.1,2.9,6,5.3,8.3c3,2.8,6.5,4.9,10.4,6.2c0.1,0,0.3,0.1,0.4,0.1c0.4,0.1,0.8,0.1,1.2,0c0.1,0,0.3-0.1,0.4-0.1
		c3.9-1.3,7.4-3.4,10.4-6.2c2.4-2.3,4.2-5.2,5.3-8.3C455.3,416.4,455.2,410,455.1,404.8z M436.4,425.9c-6.1,0-11-4.9-11-11
		s4.9-11,11-11s11,4.9,11,11S442.5,425.9,436.4,425.9L436.4,425.9z"/>
</g>
<path class="st2" d="M398.7,544.1h-4l-0.8-2.5H379l-0.8,2.5h-4c-0.7,0-1.2,0.6-1.2,1.2c0,0.7,0.6,1.2,1.2,1.2h24.5
	c0.7,0,1.2-0.6,1.2-1.2C399.9,544.6,399.4,544.1,398.7,544.1z"/>
<path class="st2" d="M398.7,514.6c-0.7,0-1.2,0.6-1.2,1.2s0.6,1.2,1.2,1.2c0.7,0,1.2-0.6,1.2-1.2l0,0
	C399.9,515.1,399.4,514.6,398.7,514.6z"/>
<path class="st2" d="M403.6,507.2h-34.5c-2,0-3.7,1.7-3.7,3.7v20.9h7.5v-3.7c0-0.7,0.6-1.2,1.2-1.2c0,0,0,0,0,0h1.9
	c0.1-0.4,0.3-0.7,0.4-1l-1.3-1.3c-0.5-0.5-0.5-1.3,0-1.7c0,0,0,0,0,0l3.5-3.5c0.5-0.5,1.3-0.5,1.7,0c0,0,0,0,0,0l1.4,1.3
	c0.3-0.2,0.7-0.3,1-0.4v-1.9c0-0.7,0.6-1.2,1.2-1.2h4.9c0.7,0,1.2,0.6,1.2,1.2v1.9c0.4,0.1,0.7,0.3,1,0.4l1.4-1.3
	c0.5-0.5,1.3-0.5,1.7,0c0,0,0,0,0,0l3.5,3.5c0.5,0.5,0.5,1.3,0,1.7c0,0,0,0,0,0l-1.3,1.3c0.2,0.3,0.3,0.7,0.4,1h1.9
	c0.7,0,1.2,0.6,1.2,1.2v3.7h7.4v-20.9C407.4,508.8,405.7,507.2,403.6,507.2z M398.7,519.5c-2,0-3.7-1.7-3.7-3.7c0-2,1.7-3.7,3.7-3.7
	s3.7,1.7,3.7,3.7C402.4,517.8,400.7,519.5,398.7,519.5L398.7,519.5L398.7,519.5z"/>
<path class="st2" d="M382.7,530.5c0,0.4,0.1,0.8,0.2,1.2h6.9c0.7-1.9-0.3-4-2.2-4.7c-1.9-0.7-4,0.3-4.7,2.2
	C382.8,529.7,382.7,530.1,382.7,530.5L382.7,530.5z"/>
<path class="st2" d="M378.1,528.4c-0.1,0.5-0.6,0.9-1.2,0.9h-1.6v2.5h5.1c-0.8-3.3,1.3-6.6,4.6-7.4c3.3-0.8,6.6,1.3,7.4,4.6
	c0.2,0.9,0.2,1.9,0,2.8h5.1v-2.5h-1.6c-0.6,0-1-0.4-1.2-0.9c-0.2-0.8-0.5-1.5-0.9-2.2c-0.3-0.5-0.2-1.1,0.2-1.5l1.1-1.1l-1.7-1.7
	l-1.1,1.1c-0.4,0.4-1,0.5-1.5,0.2c-0.7-0.4-1.4-0.7-2.2-0.9c-0.5-0.1-0.9-0.6-0.9-1.2v-1.6h-2.5v1.6c0,0.6-0.4,1-0.9,1.2
	c-0.8,0.2-1.5,0.5-2.2,0.9c-0.5,0.3-1.1,0.2-1.5-0.2l-1.2-1.1l-1.7,1.7l1.1,1.1c0.4,0.4,0.5,1,0.2,1.5
	C378.6,526.9,378.3,527.6,378.1,528.4z"/>
<path class="st2" d="M365.4,535.5c0,2,1.7,3.7,3.7,3.7h34.5c2.1,0,3.7-1.6,3.8-3.7v-1.2h-42V535.5z"/>
</svg>
