<?xml version="1.0" encoding="utf-8"?>
<!-- Generator: Adobe Illustrator 21.0.0, SVG Export Plug-In . SVG Version: 6.00 Build 0)  -->
<svg version="1.1" id="Capa_1" xmlns="http://www.w3.org/2000/svg" xmlns:xlink="http://www.w3.org/1999/xlink" x="0px" y="0px"
	 viewBox="0 0 512 512" style="enable-background:new 0 0 512 512;" xml:space="preserve">
<style type="text/css">
	.st0{fill:#B2EC3F;}
	.st1{fill:#793FEC;}
</style>
<polygon class="st0" points="384,165 115,165 99,53 241.5,36.6 252,100.8 279,99.4 285,63 401,91 "/>
<g>
	<g>
		<g>
			<path class="st1" d="M329,63.3C323.9,27.2,292.5,0,256,0c-23.5,0-45.7,11.3-59.6,30.3c-2.8,3.9-2,9.3,1.9,12.1
				c3.9,2.8,9.3,2,12.1-1.9C221,26,238.1,17.4,256,17.4c27.9,0,51.9,20.8,55.8,48.4c0.6,4.3,4.3,7.5,8.6,7.5c0.4,0,0.8,0,1.2-0.1
				C326.4,72.4,329.7,68,329,63.3z"/>
		</g>
	</g>
	<g>
		<g>
			<path class="st1" d="M454.4,160.4l-26-43.4c-1.6-2.6-4.4-4.2-7.4-4.2h-24.9c-4.8,0-8.7,3.9-8.7,8.7s3.9,8.7,8.7,8.7h20l15.6,26
				H80.4l15.6-26h9.2c4.8,0,8.7-3.9,8.7-8.7s-3.9-8.7-8.7-8.7H91.1c-3.1,0-5.9,1.6-7.4,4.2l-26,43.4c-1.6,2.7-1.6,6-0.1,8.7
				c1.5,2.7,4.4,4.4,7.6,4.4h381.8c3.1,0,6-1.7,7.6-4.4C456,166.4,456,163.1,454.4,160.4z"/>
		</g>
	</g>
	<g>
		<g>
			<path class="st1" d="M411.1,80.4c-1.2-2-3.2-3.4-5.4-3.9L287.4,48.9c-2.2-0.5-4.6-0.1-6.6,1.1c-2,1.2-3.3,3.2-3.9,5.4l-8.9,38.1
				c-1.1,4.7,1.8,9.3,6.5,10.4c4.7,1.1,9.3-1.8,10.4-6.5l6.9-29.7l101.4,23.7l-15.9,68.1c-1.1,4.7,1.8,9.3,6.5,10.4
				c0.7,0.2,1.3,0.2,2,0.2c3.9,0,7.5-2.7,8.4-6.7l17.9-76.6C412.7,84.7,412.3,82.3,411.1,80.4z"/>
		</g>
	</g>
	<g>
		<g>
			<path class="st1" d="M260.6,100.9L252.7,34c-0.3-2.3-1.4-4.4-3.2-5.8c-1.8-1.4-4.1-2.1-6.4-1.8L97.9,43.6
				c-4.8,0.6-8.2,4.9-7.6,9.6l13.2,111.5c0.5,4.4,4.3,7.7,8.6,7.7c0.3,0,0.7,0,1-0.1c4.8-0.6,8.2-4.9,7.6-9.6L108.6,59.8l127.9-15.1
				l6.9,58.3c0.6,4.8,4.9,8.1,9.6,7.6C257.7,110,261.1,105.7,260.6,100.9z"/>
		</g>
	</g>
	<g>
		<g>
			<path class="st1" d="M329.2,161.6L312,90c-0.5-2.2-1.9-4.2-3.9-5.4c-2-1.2-4.3-1.6-6.6-1l-139.8,33.6c-4.7,1.1-7.5,5.8-6.4,10.5
				l8.6,35.8c1.1,4.7,5.8,7.5,10.5,6.4c4.7-1.1,7.5-5.8,6.4-10.5l-6.6-27.4l122.9-29.6l15.2,63.2c1,4,4.5,6.6,8.4,6.6
				c0.7,0,1.4-0.1,2-0.2C327.5,170.9,330.3,166.2,329.2,161.6z"/>
		</g>
	</g>
	<g>
		<g>
			<path class="st1" d="M455.6,164.4c-0.2-4.6-4-8.2-8.7-8.2H65.1c-4.6,0-8.4,3.6-8.7,8.2L39.1,502.9c-0.1,2.4,0.7,4.7,2.4,6.4
				c1.6,1.7,3.9,2.7,6.3,2.7h416.5c2.4,0,4.7-1,6.3-2.7c1.6-1.7,2.5-4,2.4-6.4L455.6,164.4z M56.9,494.6l16.5-321.1h365.3
				l16.5,321.1H56.9z"/>
		</g>
	</g>
	<g>
		<g>
			<path class="st1" d="M321.1,190.9c-14.4,0-26,11.7-26,26c0,14.4,11.7,26,26,26s26-11.7,26-26S335.4,190.9,321.1,190.9z
				 M321.1,225.6c-4.8,0-8.7-3.9-8.7-8.7s3.9-8.7,8.7-8.7c4.8,0,8.7,3.9,8.7,8.7S325.9,225.6,321.1,225.6z"/>
		</g>
	</g>
	<g>
		<g>
			<path class="st1" d="M190.9,190.9c-14.4,0-26,11.7-26,26c0,14.4,11.7,26,26,26s26-11.7,26-26S205.3,190.9,190.9,190.9z
				 M190.9,225.6c-4.8,0-8.7-3.9-8.7-8.7s3.9-8.7,8.7-8.7c4.8,0,8.7,3.9,8.7,8.7S195.7,225.6,190.9,225.6z"/>
		</g>
	</g>
	<g>
		<g>
			<path class="st1" d="M321.1,216.9h-0.7c-4.8,0-8.7,3.9-8.7,8.7c0,1.2,0.2,2.3,0.7,3.3v44.4c0,31.1-25.3,56.4-56.4,56.4
				s-56.4-25.3-56.4-56.4v-47.7c0-4.8-3.9-8.7-8.7-8.7c-4.8,0-8.7,3.9-8.7,8.7v47.7c0,40.7,33.1,73.8,73.8,73.8s73.8-33.1,73.8-73.8
				v-47.7C329.8,220.8,325.9,216.9,321.1,216.9z"/>
		</g>
	</g>
</g>
</svg>
