<?xml version="1.0"?>
<svg xmlns="http://www.w3.org/2000/svg" xmlns:xlink="http://www.w3.org/1999/xlink" version="1.1" id="Layer_1" x="0px" y="0px" viewBox="0 0 512 512" style="enable-background:new 0 0 512 512;" xml:space="preserve" width="512px" height="512px" class=""><g><path style="fill:#7383BF" d="M512,129.029C512,57.77,439.257,0,349.533,0c-89.731,0-162.467,57.77-162.467,129.029  c0,63.663,58.056,116.554,134.419,127.108h-0.231c4.007,24.614-3.386,50.749-22.191,69.733c40.349,0,73.657-30.389,78.716-69.729  h-0.231C453.921,245.596,512,192.701,512,129.029z" data-original="#FFD24D" class="" data-old_color="#7383bf"/><g>
	<circle style="fill:#FFFFFF" cx="292.261" cy="129.024" r="11.378" data-original="#F14742" class="active-path" data-old_color="#ffffff"/>
	<circle style="fill:#FFFFFF" cx="406.801" cy="129.024" r="11.378" data-original="#F14742" class="active-path" data-old_color="#ffffff"/>
	<circle style="fill:#FFFFFF" cx="349.536" cy="129.024" r="11.378" data-original="#F14742" class="active-path" data-old_color="#ffffff"/>
</g><path style="fill:#1B4145" d="M349.998,411.754c-24.59-24.589-50.926-45.288-50.926-45.288L260.7,404.838L107.162,251.3  l38.372-38.373c0,0-20.698-26.336-45.288-50.926c-24.59-24.589-50.926-45.288-50.926-45.288S3.343,159.01,0.25,192.558  c-4.137,44.904,43.395,126.545,118.021,201.172c74.626,74.625,156.267,122.157,201.171,118.021  c33.547-3.094,75.845-49.071,75.845-49.071S374.588,436.342,349.998,411.754z" data-original="#1B4145" class=""/></g> </svg>
