<?xml version="1.0"?>
<svg xmlns="http://www.w3.org/2000/svg" height="512px" viewBox="0 -100 496 496" width="512px" class=""><g><path d="m56 264c0 13.253906-10.746094 24-24 24s-24-10.746094-24-24 10.746094-24 24-24 24 10.746094 24 24zm0 0" fill="#57a4ff" data-original="#57A4FF" class="" style="fill:#0E0E0F" data-old_color="#57A4FF"/><path d="m488 264c0 13.253906-10.746094 24-24 24s-24-10.746094-24-24 10.746094-24 24-24 24 10.746094 24 24zm0 0" fill="#57a4ff" data-original="#57A4FF" class="" style="fill:#0E0E0F" data-old_color="#57A4FF"/><g fill="#004fac"><path d="m464 224c4.535156-.003906 9.035156.765625 13.3125 2.273438 4.164062 1.46875 8.734375-.714844 10.207031-4.882813 1.472657-4.164063-.714843-8.734375-4.878906-10.207031-5.988281-2.113282-12.292969-3.1875-18.640625-3.183594-.800781 0-1.527344.070312-2.289062.105469l-70.175782-202.722657c-1.109375-3.214843-4.132812-5.3710932-7.535156-5.382812h-32c-4.417969 0-8 3.582031-8 8s3.582031 8 8 8h26.304688l67.527343 195.089844c-11.367187 3.921875-21.179687 11.378906-28 21.285156-.59375-.199219-1.207031-.324219-1.832031-.375h-336c-.625.050781-1.242188.171875-1.839844.367188-14.324218-20.902344-40.898437-29.585938-64.800781-21.167969-4.164063 1.472656-6.351563 6.042969-4.878906 10.207031 1.472656 4.167969 6.042969 6.351562 10.207031 4.882812 12.242188-4.320312 25.816406-2.433593 36.414062 5.0625 10.59375 7.496094 16.894532 19.667969 16.898438 32.648438 0 4.417969 3.582031 8 8 8h336c4.417969 0 8-3.582031 8-8 .027344-22.082031 17.917969-39.972656 40-40zm-376.566406 32c-.40625-2.707031-1.015625-5.382812-1.816406-8h324.78125c-.800782 2.617188-1.40625 5.292969-1.8125 8zm0 0" data-original="#000000" class="active-path" style="fill:#7383BF" data-old_color="#7383bf"/><path d="m32 232c-17.671875 0-32 14.328125-32 32s14.328125 32 32 32 32-14.328125 32-32-14.328125-32-32-32zm0 48c-8.835938 0-16-7.164062-16-16s7.164062-16 16-16 16 7.164062 16 16-7.164062 16-16 16zm0 0" data-original="#000000" class="active-path" style="fill:#7383BF" data-old_color="#7383bf"/><path d="m464 232c-17.671875 0-32 14.328125-32 32s14.328125 32 32 32 32-14.328125 32-32-14.328125-32-32-32zm0 48c-8.835938 0-16-7.164062-16-16s7.164062-16 16-16 16 7.164062 16 16-7.164062 16-16 16zm0 0" data-original="#000000" class="active-path" style="fill:#7383BF" data-old_color="#7383bf"/></g></g> </svg>
