<svg xmlns="http://www.w3.org/2000/svg" width="139.178" height="139.028" viewBox="0 0 139.178 139.028">
  <g id="admin" transform="translate(0)">
    <path id="Path_2208" data-name="Path 2208" d="M39.251,28.762a5.978,5.978,0,1,0,5.978,5.978,5.985,5.985,0,0,0-5.978-5.978Zm0,7.882a1.9,1.9,0,1,1,1.9-1.9A1.907,1.907,0,0,1,39.251,36.644Zm0,0" transform="translate(-24.229 -20.943)" fill="#ff6969"/>
    <path id="Path_2209" data-name="Path 2209" d="M95.236,28.762a5.978,5.978,0,1,0,5.977,5.978,5.986,5.986,0,0,0-5.977-5.978Zm0,7.882a1.9,1.9,0,1,1,1.9-1.9A1.906,1.906,0,0,1,95.236,36.644Zm0,0" transform="translate(-64.995 -20.943)" fill="#ff6969"/>
    <path id="Path_2210" data-name="Path 2210" d="M151.223,28.762A5.978,5.978,0,1,0,157.2,34.74a5.985,5.985,0,0,0-5.978-5.978Zm0,7.882a1.9,1.9,0,1,1,1.9-1.9A1.907,1.907,0,0,1,151.223,36.644Zm0,0" transform="translate(-105.764 -20.943)" fill="#ff6969"/>
    <path id="Path_2211" data-name="Path 2211" d="M130.214,0H8.965A8.976,8.976,0,0,0,0,8.965v98.557a8.956,8.956,0,0,0,8.965,8.965H48.6v7.305h-6.15a7.449,7.449,0,0,0-7.44,7.44v4.4a3.4,3.4,0,0,0,3.395,3.395H72.713a2.037,2.037,0,0,0,0-4.074H39.083v-3.721a3.371,3.371,0,0,1,3.366-3.367H96.574a3.37,3.37,0,0,1,3.366,3.367v3.721h-14.6a2.037,2.037,0,0,0,0,4.074h15.278a3.4,3.4,0,0,0,3.4-3.395v-4.4a7.449,7.449,0,0,0-7.44-7.44h-6.15v-7.305h39.635a8.956,8.956,0,0,0,8.965-8.965V97.76l.154-88.795A8.974,8.974,0,0,0,130.214,0ZM86.35,123.793H52.672v-7.305H86.35Zm48.6-16.271a4.9,4.9,0,0,1-4.392,4.866c-.165.016-.33.024-.5.024H8.965c-.169,0-.336-.008-.5-.024a4.9,4.9,0,0,1-4.392-4.866V99.8H134.949Zm0-11.8H4.074V27.708H134.949Zm0-72.089H4.224V8.965A4.9,4.9,0,0,1,9.115,4.074H130.059a4.9,4.9,0,0,1,4.891,4.891Zm0,0" fill="#ff6969"/>
    <path id="Path_2212" data-name="Path 2212" d="M35.455,125.878h5.419a2.037,2.037,0,0,0,0-4.073H35.455a2.037,2.037,0,0,0,0,4.073Zm0,0" transform="translate(-24.334 -88.694)" fill="#ff6969"/>
    <path id="Path_2213" data-name="Path 2213" d="M80.7,125.878h33.054a2.037,2.037,0,1,0,0-4.073H80.7a2.037,2.037,0,1,0,0,4.073Zm0,0" transform="translate(-57.281 -88.694)" fill="#ff6969"/>
    <path id="Path_2214" data-name="Path 2214" d="M157.747,158.848a2.037,2.037,0,0,0,0-4.074h-13.39a2.037,2.037,0,0,0,0,4.074Zm0,0" transform="translate(-103.633 -112.701)" fill="#ff6969"/>
    <path id="Path_2215" data-name="Path 2215" d="M110.031,156.81a2.037,2.037,0,0,0-2.037-2.037h-4.6a2.037,2.037,0,0,0,0,4.074h4.6A2.037,2.037,0,0,0,110.031,156.81Zm0,0" transform="translate(-73.804 -112.701)" fill="#ff6969"/>
    <path id="Path_2216" data-name="Path 2216" d="M35.455,158.848H46.73a2.037,2.037,0,1,0,0-4.074H35.455a2.037,2.037,0,0,0,0,4.074Zm0,0" transform="translate(-24.334 -112.701)" fill="#ff6969"/>
    <path id="Path_2217" data-name="Path 2217" d="M147.724,176.209h-2.778V158.6a3.583,3.583,0,0,0-3.579-3.578H126.912a3.584,3.584,0,0,0-3.579,3.578v19.642a2.037,2.037,0,0,0,2.038,2.037h90.71a2.036,2.036,0,0,0,2.037-2.037v-30.5a3.583,3.583,0,0,0-3.579-3.579H200.083a3.582,3.582,0,0,0-3.578,3.579v28.468h-2.777V143.9a2.037,2.037,0,1,0-4.074,0v32.307H176.188v-51.33h13.465v6.529a2.037,2.037,0,0,0,4.074,0v-7.025a3.583,3.583,0,0,0-3.579-3.578H175.693a3.583,3.583,0,0,0-3.579,3.578v51.825h-2.778v-35.8a3.582,3.582,0,0,0-3.578-3.579H151.3a3.583,3.583,0,0,0-3.579,3.579v35.8Zm-6.851,0H127.407V159.1h13.466Zm59.706-27.973h13.465v27.973H200.579ZM151.8,140.9h13.465v35.306H151.8Zm0,0" transform="translate(-89.807 -87.966)" fill="#ff6969"/>
  </g>
</svg>
