<svg xmlns="http://www.w3.org/2000/svg" width="150.006" height="138.269" viewBox="0 0 150.006 138.269">
  <g id="blogging" transform="translate(0 -0.5)">
    <path id="Path_2218" data-name="Path 2218" d="M60.038,48.394h-.03a2.93,2.93,0,0,0,0,5.86h.03a2.93,2.93,0,1,0,0-5.86Zm0,0" transform="translate(-40.356 -33.862)" fill="#ff6969"/>
    <path id="Path_2219" data-name="Path 2219" d="M109.569,48.394h-.03a2.93,2.93,0,0,0,0,5.86h.03a2.93,2.93,0,0,0,0-5.86Zm0,0" transform="translate(-75.375 -33.862)" fill="#ff6969"/>
    <path id="Path_2220" data-name="Path 2220" d="M159.1,48.394h-.03a2.93,2.93,0,1,0,0,5.86h.03a2.93,2.93,0,1,0,0-5.86Zm0,0" transform="translate(-110.395 -33.862)" fill="#ff6969"/>
    <path id="Path_2221" data-name="Path 2221" d="M300.834,48.394H244.309a2.93,2.93,0,0,0,0,5.86h56.525a2.93,2.93,0,0,0,0-5.86Zm0,0" transform="translate(-170.66 -33.862)" fill="#ff6969"/>
    <path id="Path_2222" data-name="Path 2222" d="M255.821,452.438a2.931,2.931,0,1,0,2.071.858A2.959,2.959,0,0,0,255.821,452.438Zm0,0" transform="translate(-178.799 -319.529)" fill="#ff6969"/>
    <path id="Path_2223" data-name="Path 2223" d="M140.7.5H9.307A9.319,9.319,0,0,0,0,9.808V129.461a9.318,9.318,0,0,0,9.308,9.308H64.748a2.93,2.93,0,0,0,0-5.86H9.307a3.452,3.452,0,0,1-3.448-3.448V34.424H144.146v95.037a3.453,3.453,0,0,1-3.448,3.448H88.968a2.93,2.93,0,1,0,0,5.86H140.7a9.318,9.318,0,0,0,9.308-9.308V9.808A9.319,9.319,0,0,0,140.7.5ZM5.859,28.563V9.808A3.453,3.453,0,0,1,9.308,6.36H140.7a3.453,3.453,0,0,1,3.448,3.448V28.564H5.859Zm0,0" transform="translate(0)" fill="#ff6969"/>
    <path id="Path_2224" data-name="Path 2224" d="M121.712,205.047A10.559,10.559,0,0,0,111.165,194.5H101.3a2.93,2.93,0,0,0-2.93,2.93V227.9a2.93,2.93,0,0,0,2.93,2.93h9.864a10.539,10.539,0,0,0,7.283-18.165A10.512,10.512,0,0,0,121.712,205.047Zm-5.86,15.235a4.694,4.694,0,0,1-4.688,4.688h-6.934v-9.375h6.934A4.693,4.693,0,0,1,115.853,220.282Zm-11.622-10.547V200.36h6.934a4.688,4.688,0,1,1,0,9.375Zm0,0" transform="translate(-69.55 -137.162)" fill="#ff6969"/>
    <path id="Path_2225" data-name="Path 2225" d="M199.578,194.5a2.93,2.93,0,0,0-2.93,2.93v23.694a9.717,9.717,0,0,0,9.706,9.706,2.93,2.93,0,0,0,0-5.86,3.851,3.851,0,0,1-3.847-3.847V197.43A2.93,2.93,0,0,0,199.578,194.5Zm0,0" transform="translate(-139.034 -137.162)" fill="#ff6969"/>
    <path id="Path_2226" data-name="Path 2226" d="M273.663,256.684a10.609,10.609,0,1,0-10.609,10.609A10.621,10.621,0,0,0,273.663,256.684Zm-15.359,0a4.749,4.749,0,1,1,4.75,4.749A4.756,4.756,0,0,1,258.3,256.684Zm0,0" transform="translate(-178.484 -173.626)" fill="#ff6969"/>
    <path id="Path_2227" data-name="Path 2227" d="M351.812,275.5a4.755,4.755,0,0,1-4.749-4.749,2.93,2.93,0,0,0-5.86,0,10.61,10.61,0,0,0,21.219,0V256.685a10.622,10.622,0,1,0-5.86,9.482v4.581A4.756,4.756,0,0,1,351.812,275.5Zm0-14.063a4.75,4.75,0,1,1,4.751-4.75A4.755,4.755,0,0,1,351.812,261.434Zm0,0" transform="translate(-241.237 -173.626)" fill="#ff6969"/>
    <path id="Path_2228" data-name="Path 2228" d="M101.3,402.36h86.505a2.93,2.93,0,0,0,0-5.86H101.3a2.93,2.93,0,1,0,0,5.86Zm0,0" transform="translate(-69.55 -279.979)" fill="#ff6969"/>
  </g>
</svg>
