<svg xmlns="http://www.w3.org/2000/svg" width="364.955" height="390.867" viewBox="0 0 364.955 390.867"><g transform="translate(-4 -4)"><path d="M360.786,66.449a22.962,22.962,0,0,0-18.7-5.046L202.9,85.609,163.366,46.075a6.988,6.988,0,0,0-4.962-2.056H88.22A7.016,7.016,0,0,0,81.2,37H4V51.037H46.11v98.257H4v14.037H81.2a7.016,7.016,0,0,0,7.018-7.018h19.4l75.033,37.52a22.9,22.9,0,0,0,21.82-.7l153.113-89.316a22.945,22.945,0,0,0,3.2-37.366Zm-286.6,82.845H60.147V51.037H74.184Zm276.32-57.6L197.4,181a8.88,8.88,0,0,1-8.464.274L112.42,143.019a7,7,0,0,0-3.144-.744H88.22V58.055H155.5l55.3,55.291a12.839,12.839,0,0,1-9.075,21.911,12.919,12.919,0,0,1-9.075-3.762L156.348,95.2l-9.924,9.924,36.3,36.292a26.868,26.868,0,0,0,38-38l-5.678-5.678L344.489,75.229A8.906,8.906,0,0,1,350.5,91.694Z" transform="translate(0 198.606)" fill="#f05537"/><rect width="104.335" height="14.044" transform="matrix(0.673, -0.74, 0.74, 0.673, 174.266, 153.694)" fill="#f05537"/><path d="M48.055,56.61A21.055,21.055,0,1,0,27,35.555,21.081,21.081,0,0,0,48.055,56.61Zm0-28.073a7.018,7.018,0,1,1-7.018,7.018A7.025,7.025,0,0,1,48.055,28.537Z" transform="translate(138.422 63.193)" fill="#f05537"/><path d="M35,41.555A21.055,21.055,0,1,0,56.055,20.5,21.081,21.081,0,0,0,35,41.555Zm28.073,0a7.018,7.018,0,1,1-7.018-7.018A7.025,7.025,0,0,1,63.073,41.555Z" transform="translate(186.569 99.303)" fill="#f05537"/><path d="M149.215,268.508a7.023,7.023,0,0,0,10.191,0L270.7,151.245c31.877-33.59,31.877-88.242,0-121.825a79.611,79.611,0,0,0-116.393-.267,79.611,79.611,0,0,0-116.393.267c-31.877,33.59-31.877,88.242,0,121.825ZM48.1,39.085a65.573,65.573,0,0,1,96.278,0l4.836,5.1a7.248,7.248,0,0,0,10.184,0l4.836-5.1a65.573,65.573,0,0,1,96.278,0c26.824,28.256,26.824,74.24,0,102.5l-106.2,111.9L48.1,141.581C21.277,113.325,21.277,67.341,48.1,39.085Z" transform="translate(60.241 0)" fill="#f05537"/><rect width="14.037" height="14.037" transform="translate(179.459 172.441)" fill="#f05537"/><rect width="14.037" height="14.037" transform="translate(207.533 172.441)" fill="#f05537"/><rect width="14.037" height="14.037" transform="translate(235.606 172.441)" fill="#f05537"/></g></svg>