<svg xmlns="http://www.w3.org/2000/svg" width="34" height="25.5" viewBox="0 0 34 25.5">
  <g id="coupon" transform="translate(-1 -4.8)">
    <g id="Group_651" data-name="Group 651">
      <g id="Group_650" data-name="Group 650">
        <g id="Group_649" data-name="Group 649">
          <path id="Path_1880" data-name="Path 1880" d="M34.3,14a.684.684,0,0,0,.7-.7V7.6a2.8,2.8,0,0,0-2.8-2.8H3.8A2.8,2.8,0,0,0,1,7.6v5.7a.751.751,0,0,0,.7.7,3.5,3.5,0,0,1,0,7,.773.773,0,0,0-.7.8v5.7a2.8,2.8,0,0,0,2.8,2.8H32.1a2.8,2.8,0,0,0,2.8-2.8V21.8a.684.684,0,0,0-.7-.7,3.478,3.478,0,0,1-3.5-3.5A3.65,3.65,0,0,1,34.3,14Zm-5,3.5a4.963,4.963,0,0,0,4.2,4.9v5a1.367,1.367,0,0,1-1.4,1.4H3.8a1.367,1.367,0,0,1-1.4-1.4v-5a4.876,4.876,0,0,0,4.2-4.9,4.963,4.963,0,0,0-4.2-4.9v-5A1.367,1.367,0,0,1,3.8,6.2H32.1a1.367,1.367,0,0,1,1.4,1.4v5A4.963,4.963,0,0,0,29.3,17.5Z" fill="#ff6969"/>
          <path id="Path_1881" data-name="Path 1881" d="M10.2,7.4a.684.684,0,0,0-.7.7V9.7a.7.7,0,1,0,1.4,0V8.1A.684.684,0,0,0,10.2,7.4Z" fill="#ff6969"/>
          <path id="Path_1882" data-name="Path 1882" d="M10.2,13.2a.684.684,0,0,0-.7.7v1.4a.7.7,0,1,0,1.4,0V14A.773.773,0,0,0,10.2,13.2Z" fill="#ff6969"/>
          <path id="Path_1883" data-name="Path 1883" d="M10.2,18.9a.684.684,0,0,0-.7.7V21a.7.7,0,1,0,1.4,0V19.6A.684.684,0,0,0,10.2,18.9Z" fill="#ff6969"/>
          <path id="Path_1884" data-name="Path 1884" d="M10.2,24.6a.684.684,0,0,0-.7.7v1.4a.7.7,0,1,0,1.4,0V25.3A.684.684,0,0,0,10.2,24.6Z" fill="#ff6969"/>
          <path id="Path_1885" data-name="Path 1885" d="M24.8,10.5a.775.775,0,0,0-1,.2L15.3,23.5a.775.775,0,0,0,.2,1,.6.6,0,0,0,.4.1.713.713,0,0,0,.6-.3L25,11.5A.8.8,0,0,0,24.8,10.5Z" fill="#ff6969"/>
          <path id="Path_1886" data-name="Path 1886" d="M19.4,14c0-2-1.3-3.5-2.8-3.5S13.8,12,13.8,14s1.3,3.5,2.8,3.5S19.4,15.9,19.4,14Zm-4.2,0c0-1.2.6-2.1,1.4-2.1S18,12.9,18,14s-.6,2.1-1.4,2.1S15.2,15.1,15.2,14Z" fill="#ff6969"/>
          <path id="Path_1887" data-name="Path 1887" d="M23.7,17.5c-1.6,0-2.8,1.6-2.8,3.5s1.3,3.5,2.8,3.5c1.6,0,2.8-1.6,2.8-3.5S25.2,17.5,23.7,17.5Zm0,5.7c-.8,0-1.4-1-1.4-2.1s.6-2.1,1.4-2.1,1.4,1,1.4,2.1S24.4,23.2,23.7,23.2Z" fill="#ff6969"/>
        </g>
      </g>
    </g>
  </g>
</svg>
