<svg xmlns="http://www.w3.org/2000/svg" width="384.49" height="384.49" viewBox="0 0 384.49 384.49"><path d="M320.409,67.888V32.041A32.081,32.081,0,0,0,288.368,0H32.041A32.081,32.081,0,0,0,0,32.041v140.98a31.978,31.978,0,0,0,28.734,31.711l24.088,62.529a32.049,32.049,0,0,0,41.417,18.38L244.664,227.7a92.636,92.636,0,0,0,7.981,82.25l3.682,5.888v62.249a6.406,6.406,0,0,0,6.408,6.408H378.082a6.406,6.406,0,0,0,6.408-6.408V166.556a83.863,83.863,0,0,0-24.551-59.067Zm0,38.324L339.857,156.7a19.224,19.224,0,0,1-11.036,24.844L317.7,185.837a32.047,32.047,0,0,0,2.7-12.816ZM12.816,173.021V32.041A19.227,19.227,0,0,1,32.041,12.816H288.368a19.227,19.227,0,0,1,19.225,19.225V72.771h-.056l.056.146v100.1a19.488,19.488,0,0,1-.436,3.32l-58.7-58.705a34.187,34.187,0,0,0-49.343,47.278l25.024,27.333H32.041A19.227,19.227,0,0,1,12.816,173.021Zm82.1,32.041L49.343,222.605,42.6,205.061Zm-5.28,68.617A19.224,19.224,0,0,1,64.78,262.652L53.97,234.539l76.494-29.478v-.039H235.885l8.329,9.081Zm282.043,98H269.143V320.409H371.674Zm0-64.082H266.292l-2.779-4.441a79.91,79.91,0,0,1-1.623-82.069,6.406,6.406,0,0,0-.84-7.511l-52.513-57.289a21.371,21.371,0,0,1,30.858-29.558L341.511,228.817l9.061-9.061-23.71-23.71,6.575-2.563a32.044,32.044,0,0,0,18.372-41.4l-21.69-56.321,20.759,20.8a70.966,70.966,0,0,1,20.8,49.992Zm0,0" fill="#f05537"/><path d="M109.92,126.582a16.661,16.661,0,0,0,16.661-16.661V79.161A16.661,16.661,0,0,0,109.92,62.5H79.161A16.661,16.661,0,0,0,62.5,79.161V109.92a16.661,16.661,0,0,0,16.661,16.661Zm-34.6-16.661v-8.971H88.133V88.133H75.316V79.161a3.846,3.846,0,0,1,3.845-3.845H109.92a3.846,3.846,0,0,1,3.845,3.845v8.971H100.949v12.816h12.816v8.971a3.846,3.846,0,0,1-3.845,3.845H79.161A3.846,3.846,0,0,1,75.316,109.92Zm0,0" transform="translate(-36.867 -36.867)" fill="#f05537"/><path d="M78.125,265.625h25.633v12.816H78.125Zm0,0" transform="translate(-46.084 -156.686)" fill="#f05537"/><path d="M78.125,359.375h25.633v12.816H78.125Zm0,0" transform="translate(-46.084 -211.987)" fill="#f05537"/><path d="M359.375,359.375h25.633v12.816H359.375Zm0,0" transform="translate(-211.987 -211.987)" fill="#f05537"/><path d="M171.875,265.625h25.633v12.816H171.875Zm0,0" transform="translate(-101.385 -156.686)" fill="#f05537"/><path d="M265.625,265.625h25.633v12.816H265.625Zm0,0" transform="translate(-156.686 -156.686)" fill="#f05537"/><path d="M359.375,265.625h25.633v12.816H359.375Zm0,0" transform="translate(-211.987 -156.686)" fill="#f05537"/><path d="M656.25,78.125h12.816V97.35H656.25Zm0,0" transform="translate(-387.107 -46.084)" fill="#f05537"/><path d="M593.75,78.125h12.816V97.35H593.75Zm0,0" transform="translate(-350.239 -46.084)" fill="#f05537"/><path d="M531.25,78.125h12.816V97.35H531.25Zm0,0" transform="translate(-313.372 -46.084)" fill="#f05537"/><path d="M468.75,78.125h12.816V97.35H468.75Zm0,0" transform="translate(-276.505 -46.084)" fill="#f05537"/><path d="M687.5,812.5h12.816v12.816H687.5Zm0,0" transform="translate(-405.54 -479.275)" fill="#f05537"/></svg>