<svg xmlns="http://www.w3.org/2000/svg" width="372.305" height="372.292" viewBox="0 0 372.305 372.292"><g transform="translate(0 -0.008)"><g transform="translate(0 0.008)"><path d="M304.078,198.564A99.278,99.278,0,1,0,204.8,99.286,99.394,99.394,0,0,0,304.078,198.564Zm0-186.147a86.869,86.869,0,1,1-86.869,86.869A86.964,86.964,0,0,1,304.078,12.417Z" transform="translate(-55.882 -0.008)" fill="#f05537"/><path d="M396.909,353.731c-6.844-11.864-22.077-15.916-33.513-9.288L291.978,379.2c-11.1,5.553-22.306,5.553-46.865,5.553-24.006,0-60.659-6.062-61.025-6.118a6.2,6.2,0,1,0-2.048,12.236c1.545.26,38.03,6.292,63.073,6.292,25.762,0,38.694,0,52.357-6.831l71.741-34.94a12.413,12.413,0,1,1,12.236,21.6l-83.9,52.214c-.174.118-18.075,11.392-58.642,11.392-35.169,0-89.518-29.945-90.3-30.373-.558-.273-14.017-6.856-40-6.856a6.2,6.2,0,0,0,0,12.409c22.567,0,34.2,5.43,34.22,5.43V421.2c2.339,1.3,57.687,31.806,96.083,31.806,44.8,0,64.667-12.906,65.325-13.347l83.592-52.028a24.825,24.825,0,0,0,9.084-33.9Z" transform="translate(-27.941 -93.125)" fill="#f05537"/><path d="M332.019,148.938a12.423,12.423,0,0,1-12.41-12.41,6.2,6.2,0,1,0-12.409,0,24.792,24.792,0,0,0,18.615,23.939v.881a6.2,6.2,0,1,0,12.409,0v-.881a24.767,24.767,0,0,0-6.2-48.758,12.41,12.41,0,1,1,12.41-12.41,6.2,6.2,0,1,0,12.409,0A24.792,24.792,0,0,0,338.224,75.36v-.881a6.2,6.2,0,1,0-12.409,0v.881a24.767,24.767,0,0,0,6.2,48.758,12.41,12.41,0,1,1,0,24.82Z" transform="translate(-83.824 -18.635)" fill="#f05537"/><path d="M43.434,273.074H6.2a6.2,6.2,0,1,0,0,12.409H43.434a6.215,6.215,0,0,1,6.2,6.2V428.2a6.215,6.215,0,0,1-6.2,6.2H6.2a6.2,6.2,0,1,0,0,12.409H43.434a18.638,18.638,0,0,0,18.615-18.615V291.689A18.638,18.638,0,0,0,43.434,273.074Z" transform="translate(0 -74.518)" fill="#f05537"/><path d="M108.6,319.617h49.639c7.241,0,19.545,9.233,30.4,17.373,13.613,10.213,26.477,19.856,37.85,19.856h37.229c9.425,0,14.1,4.275,14.228,4.387a6.2,6.2,0,0,0,8.774-8.774c-.819-.819-8.438-8.023-23-8.023H226.5c-7.241,0-19.545-9.233-30.4-17.374-13.613-10.213-26.477-19.856-37.85-19.856H108.6a6.205,6.205,0,0,0,0,12.41Z" transform="translate(-27.941 -83.831)" fill="#f05537"/><path d="M35.682,453.048a9.307,9.307,0,1,0-9.307,9.307A9.319,9.319,0,0,0,35.682,453.048Z" transform="translate(-4.657 -121.086)" fill="#f05537"/></g></g></svg>