<svg xmlns="http://www.w3.org/2000/svg" width="428.155" height="413.88" viewBox="0 0 428.155 413.88"><g transform="translate(0 -7.982)"><g transform="translate(0 143.92)"><path d="M363.793,160.017H6.13A6.123,6.123,0,0,0,0,166.133V337.818a6.123,6.123,0,0,0,6.116,6.13H249.331a6.13,6.13,0,1,0,0-12.26H12.26V172.277H357.648v15.329a6.123,6.123,0,0,0,6.116,6.13h.014a6.123,6.123,0,0,0,6.13-6.116V166.147A6.124,6.124,0,0,0,363.793,160.017Z" transform="translate(0 -160.017)" fill="#f05537"/></g><g transform="translate(14.302 50.933)"><path d="M323.9,120.544,37.78,56.167a6.13,6.13,0,0,0-7.332,4.649L16.143,125.194a6.133,6.133,0,1,0,11.974,2.661L41.085,69.479,321.209,132.5a5.781,5.781,0,0,0,1.352.15,6.13,6.13,0,0,0,1.338-12.11Z" transform="translate(-15.995 -56.019)" fill="#f05537"/></g><g transform="translate(92.877 7.982)"><path d="M298.462,79.986,126.79,8.457a6.152,6.152,0,0,0-7.868,2.926L104.616,39.994a6.151,6.151,0,1,0,10.822,5.851q.1-.176.179-.359V45.5l11.738-23.49L293.726,91.33a6.146,6.146,0,1,0,4.735-11.344Z" transform="translate(-103.875 -7.982)" fill="#f05537"/></g><g transform="translate(228.895 172.532)"><path d="M318.9,192.017H262.13a6.13,6.13,0,0,0,0,12.26H318.9a6.13,6.13,0,0,0,0-12.26Z" transform="translate(-256 -192.017)" fill="#f05537"/></g><g transform="translate(114.855 172.939)"><path d="M191.4,192.473a62.946,62.946,0,1,0,62.946,62.946A62.946,62.946,0,0,0,191.4,192.473Zm0,114.447a51.5,51.5,0,1,1,51.5-51.5A51.5,51.5,0,0,1,191.4,306.92Z" transform="translate(-128.456 -192.473)" fill="#f05537"/></g><g transform="translate(270.79 192.968)"><path d="M381.539,214.873c-37.911,0-78.683,8.956-78.683,28.612V415.156c0,19.656,40.772,28.612,78.683,28.612s78.683-8.956,78.683-28.612V243.485C460.221,223.829,419.449,214.873,381.539,214.873Zm64.377,200.176c-1.08,3.97-22.532,14.413-64.377,14.413s-63.3-10.443-64.377-14.306V403.912c15.221,7.668,40.364,11.244,64.377,11.244s49.162-3.612,64.377-11.252Zm0-28.612c-1.08,3.97-22.532,14.413-64.377,14.413s-63.3-10.443-64.377-14.306V375.3c15.221,7.668,40.364,11.244,64.377,11.244s49.162-3.612,64.377-11.252Zm0-28.612c-1.08,3.97-22.532,14.413-64.377,14.413s-63.3-10.443-64.377-14.306V346.688c15.221,7.668,40.364,11.244,64.377,11.244s49.162-3.612,64.377-11.252Zm0-28.612c-1.08,3.97-22.532,14.413-64.377,14.413s-63.3-10.443-64.377-14.306V318.076c15.221,7.668,40.364,11.244,64.377,11.244s49.162-3.612,64.377-11.252Zm0-28.612c-1.08,3.97-22.532,14.413-64.377,14.413s-63.3-10.443-64.377-14.306V289.464c15.221,7.632,40.364,11.244,64.377,11.244s49.162-3.612,64.377-11.252Zm0-28.612c-1.08,3.97-22.532,14.413-64.377,14.413s-63.3-10.443-64.377-14.306V260.852c15.221,7.632,40.364,11.244,64.377,11.244s49.162-3.612,64.377-11.252Zm-64.377-14.2c-41.78,0-63.225-10.415-64.377-14.177v-.043c1.152-3.984,22.6-14.392,64.377-14.392,41.487,0,62.946,10.257,64.377,14.306C444.485,247.533,423.026,257.791,381.539,257.791Z" transform="translate(-302.856 -214.873)" fill="#f05537"/></g><g transform="translate(28.605 172.532)"><path d="M123.965,306.457H69.9l-25.636-28.04V231.923l28.311-27.646h51.394a6.13,6.13,0,0,0,0-12.26H70.082a6.136,6.136,0,0,0-4.292,1.738L33.837,224.921a7.684,7.684,0,0,0-1.845,5.007V280.8a6.134,6.134,0,0,0,1.6,4.134l29.063,31.788a6.129,6.129,0,0,0,4.528,2h56.78a6.13,6.13,0,1,0,0-12.26Z" transform="translate(-31.992 -192.017)" fill="#f05537"/></g><g transform="translate(156.342 203.697)"><path d="M199.891,251.908h-7.153c-2.225,0-3.576-1.245-3.576-1.788s1.352-1.788,3.576-1.788h17.882a7.153,7.153,0,1,0,0-14.306h-7.153a7.153,7.153,0,1,0-14.306,0v.322a16.652,16.652,0,0,0-14.306,15.737,17.082,17.082,0,0,0,17.882,16.13h7.153c2.225,0,3.576,1.245,3.576,1.788s-1.352,1.788-3.576,1.788H182.009a7.153,7.153,0,0,0,0,14.306h7.153a7.153,7.153,0,1,0,14.306,0v-.322a16.652,16.652,0,0,0,14.306-15.737A17.082,17.082,0,0,0,199.891,251.908Z" transform="translate(-174.856 -226.873)" fill="#f05537"/></g></g></svg>