<svg xmlns="http://www.w3.org/2000/svg" width="500" height="408.206" viewBox="0 0 500 408.206">
  <g id="payment" transform="translate(1 -46.014)">
    <g id="Group_740" data-name="Group 740" transform="translate(-1 46.014)">
      <g id="Group_739" data-name="Group 739">
        <path id="Path_1993" data-name="Path 1993" d="M272.067,336.147H408.6c5.12,0,8.533-3.413,8.533-8.533v-76.8c0-5.12-3.413-8.533-8.533-8.533H272.067c-5.12,0-8.533,3.413-8.533,8.533v76.8C263.533,332.733,266.947,336.147,272.067,336.147Zm8.533-76.8H400.067V319.08H280.6Z" transform="translate(-7.971 -52.023)" fill="#ff6969"/>
        <path id="Path_1994" data-name="Path 1994" d="M41.667,225.213h68.267c5.12,0,8.533-3.413,8.533-8.533s-3.413-8.533-8.533-8.533H41.667c-5.12,0-8.533,3.413-8.533,8.533S36.547,225.213,41.667,225.213Z" transform="translate(1 -50.027)" fill="#ff6969"/>
        <path id="Path_1995" data-name="Path 1995" d="M144.067,225.213h68.267c5.12,0,8.533-3.413,8.533-8.533s-3.413-8.533-8.533-8.533H144.067c-5.12,0-8.533,3.413-8.533,8.533S138.947,225.213,144.067,225.213Z" transform="translate(-2.89 -50.027)" fill="#ff6969"/>
        <path id="Path_1996" data-name="Path 1996" d="M41.667,259.347H152.6c5.12,0,8.533-3.413,8.533-8.533s-3.413-8.533-8.533-8.533H41.667c-5.12,0-8.533,3.413-8.533,8.533S36.547,259.347,41.667,259.347Z" transform="translate(1 -50.872)" fill="#ff6969"/>
        <path id="Path_1997" data-name="Path 1997" d="M212.333,242.28h-25.6c-5.12,0-8.533,3.413-8.533,8.533s3.413,8.533,8.533,8.533h25.6c5.12,0,8.533-3.413,8.533-8.533S217.453,242.28,212.333,242.28Z" transform="translate(-3.641 -50.872)" fill="#ff6969"/>
        <path id="Path_1998" data-name="Path 1998" d="M491.346,134.319a31.038,31.038,0,0,0-22.493-12.5L448.859,119.4V79.337a33.421,33.421,0,0,0-33.323-33.323H32.323A33.419,33.419,0,0,0-1,79.337V345.92a33.45,33.45,0,0,0,23.872,31.941A32.422,32.422,0,0,0,52.317,410.9L437.2,454.219h3.332c16.662,0,31.657-12.5,33.323-28.324l24.992-267.416A32.381,32.381,0,0,0,491.346,134.319ZM15.662,104.329H432.2v49.984H15.662ZM32.323,62.675H415.536A16.711,16.711,0,0,1,432.2,79.337v8.33H15.662v-8.33A16.71,16.71,0,0,1,32.323,62.675ZM15.662,345.919V170.974H432.2V345.919a16.711,16.711,0,0,1-16.662,16.662H32.324A16.711,16.711,0,0,1,15.662,345.919Zm466.52-190.773L457.19,422.562a16.8,16.8,0,0,1-18.327,15L54.816,394.238a16.842,16.842,0,0,1-15-15H415.536a33.421,33.421,0,0,0,33.323-33.323V135.152l19.161,1.666c4.166,0,8.33,2.5,10.83,5.831S483.016,150.98,482.182,155.146Z" transform="translate(1 -46.014)" fill="#ff6969"/>
      </g>
    </g>
  </g>
</svg>
