<svg id="search" xmlns="http://www.w3.org/2000/svg" width="500" height="500" viewBox="0 0 500 500">
  <g id="Group_745" data-name="Group 745" transform="translate(292.683 185.366)">
    <g id="Group_744" data-name="Group 744">
      <path id="Path_2019" data-name="Path 2019" d="M310,190a10,10,0,1,0,10,10A10,10,0,0,0,310,190Z" transform="translate(-300 -190)" fill="#ff6969"/>
    </g>
  </g>
  <g id="Group_747" data-name="Group 747">
    <g id="Group_746" data-name="Group 746">
      <path id="Path_2020" data-name="Path 2020" d="M488.556,433.319,358.2,302.968a193.559,193.559,0,0,0,32.421-107.655C390.625,87.617,303.008,0,195.313,0S0,87.617,0,195.313,87.617,390.625,195.313,390.625a193.569,193.569,0,0,0,107.655-32.42L339,394.235l.016.016,94.3,94.3a39.058,39.058,0,1,0,55.237-55.236Zm-190.181-95.7,0,0a174.276,174.276,0,0,1-103.061,33.468c-96.926,0-175.781-78.855-175.781-175.781S98.387,19.531,195.313,19.531,371.094,98.387,371.094,195.313a174.276,174.276,0,0,1-33.469,103.062A176.633,176.633,0,0,1,298.375,337.624Zm20.488,8.854a195.971,195.971,0,0,0,27.614-27.614l27.706,27.706a237.044,237.044,0,0,1-27.614,27.614ZM474.745,474.745a19.516,19.516,0,0,1-27.615,0l-86.714-86.714a256.614,256.614,0,0,0,27.614-27.614l86.717,86.717a19.514,19.514,0,0,1,0,27.611Z" fill="#ff6969"/>
    </g>
  </g>
  <g id="Group_749" data-name="Group 749" transform="translate(40 40)">
    <g id="Group_748" data-name="Group 748">
      <path id="Path_2021" data-name="Path 2021" d="M200,40C111.775,40,40,111.775,40,200s71.775,160,160,160,160-71.775,160-160S288.225,40,200,40Zm0,300c-77.2,0-140-62.8-140-140S122.8,60,200,60s140,62.8,140,140S277.2,340,200,340Z" transform="translate(-40 -40)" fill="#ff6969"/>
    </g>
  </g>
  <g id="Group_751" data-name="Group 751" transform="translate(184.143 77.722)">
    <g id="Group_750" data-name="Group 750">
      <path id="Path_2022" data-name="Path 2022" d="M312.065,157.073A120.189,120.189,0,0,0,200,80a10,10,0,0,0,0,20,100.683,100.683,0,0,1,93.4,64.247,10,10,0,1,0,18.669-7.174Z" transform="translate(-190 -80)" fill="#ff6969"/>
    </g>
  </g>
</svg>
