<svg xmlns="http://www.w3.org/2000/svg" width="141.239" height="151.495" viewBox="0 0 141.239 151.495">
  <path id="share" d="M99.4,107.671a26.034,26.034,0,0,0-3.505,4.389L51.52,85.124a25.393,25.393,0,0,0,0-18.967l44.384-26.73a25.813,25.813,0,1,0-2.316-4.6L49.147,61.592a25.681,25.681,0,1,0,0,28.1L93.58,116.661a25.658,25.658,0,1,0,5.819-8.99ZM117.556,5.136A20.543,20.543,0,1,1,97.013,25.679,20.567,20.567,0,0,1,117.556,5.136ZM27.679,96.184A20.543,20.543,0,1,1,48.222,75.641,20.567,20.567,0,0,1,27.679,96.184Zm104.4,44.171a20.542,20.542,0,1,1,6.019-14.527A20.565,20.565,0,0,1,132.081,140.355Z" transform="translate(-1.997)" fill="#ff6969"/>
</svg>
