<svg xmlns="http://www.w3.org/2000/svg" width="396.358" height="359.291" viewBox="0 0 396.358 359.291"><g transform="translate(0 -23.94)"><g transform="translate(141.79 23.941)"><path d="M431.86,211.424h-7.581a11.518,11.518,0,0,1,0-23.035h7.581a5.866,5.866,0,0,0,5.867-5.867v-35.2a5.866,5.866,0,0,0-5.867-5.867h-7.581a11.53,11.53,0,0,1-11.518-11.518V127.8l8.606-7.883a5.868,5.868,0,0,0,.493-8.144l-22.9-26.73a5.867,5.867,0,0,0-8.272-.638l-5.757,4.934A11.518,11.518,0,1,1,369.94,71.848l5.757-4.934a5.866,5.866,0,0,0,.638-8.272l-22.9-26.729a5.867,5.867,0,0,0-8.272-.638L339.4,36.208a11.517,11.517,0,0,1-16.24-1.253L315.48,25.99a5.867,5.867,0,0,0-8.272-.638L205.775,112.263H189.026a5.867,5.867,0,0,0,0,11.734h212v5.939a23.278,23.278,0,0,0,23.252,23.252h1.714v23.466h-1.714a23.252,23.252,0,0,0,0,46.5h1.714v23.466h-1.714a23.278,23.278,0,0,0-23.252,23.251v13.3H360.459a5.867,5.867,0,0,0,0,11.734h46.435a5.866,5.866,0,0,0,5.867-5.867V269.875a11.53,11.53,0,0,1,11.518-11.517h7.581a5.866,5.866,0,0,0,5.867-5.867v-35.2A5.866,5.866,0,0,0,431.86,211.424ZM223.81,112.263l86.576-74.181,3.864,4.51a23.252,23.252,0,0,0,32.785,2.528l1.3-1.116,15.268,17.818-1.3,1.116a23.252,23.252,0,1,0,30.258,35.313l1.3-1.116,12.961,15.127H223.81Z" transform="translate(-183.159 -23.941)" fill="#f05537"/></g><g transform="translate(0 112.262)"><path d="M267.593,308.944H36.7v-5.938a23.278,23.278,0,0,0-23.252-23.252H11.734V256.288h1.715a23.252,23.252,0,0,0,0-46.5H11.734V186.319h1.715A23.278,23.278,0,0,0,36.7,163.067v-13.3h66.957a5.867,5.867,0,0,0,0-11.734H30.834a5.866,5.866,0,0,0-5.867,5.867v19.168a11.531,11.531,0,0,1-11.518,11.518H5.867A5.866,5.866,0,0,0,0,180.451v35.2a5.866,5.866,0,0,0,5.867,5.867h7.582a11.518,11.518,0,1,1,0,23.035H5.867A5.866,5.866,0,0,0,0,250.421v35.2a5.866,5.866,0,0,0,5.867,5.867h7.582a11.531,11.531,0,0,1,11.518,11.518v3.172l-8.289,6.574a5.864,5.864,0,0,0-.81,8.414l22.9,26.73a5.867,5.867,0,0,0,8.272.638L52.8,343.6a11.517,11.517,0,0,1,16.24,1.253,11.531,11.531,0,0,1-1.253,16.241l-5.757,4.933a5.866,5.866,0,0,0-.638,8.272l22.9,26.73a5.865,5.865,0,0,0,8.272.638l5.758-4.933a11.517,11.517,0,0,1,16.24,1.253l7.681,8.965a5.866,5.866,0,0,0,8.272.638l101.254-86.757c.057-.049.105-.1.16-.152H267.59a5.868,5.868,0,0,0,0-11.737ZM127.342,394.859l-3.864-4.509a23.252,23.252,0,0,0-32.785-2.528l-1.3,1.116L74.121,371.118l1.3-1.116a23.252,23.252,0,0,0-30.257-35.315l-1.3,1.116L30.9,320.678H213.917Z" transform="translate(0 -138.031)" fill="#f05537"/></g><g transform="translate(59.239 139.768)"><path d="M348.536,173.562H181.406a5.867,5.867,0,0,0,0,11.734H342.669V289.464H88.257V185.3h48.308a5.867,5.867,0,1,0,0-11.734H82.39a5.866,5.866,0,0,0-5.867,5.867v115.9A5.866,5.866,0,0,0,82.39,301.2H348.537a5.866,5.866,0,0,0,5.867-5.867v-115.9A5.867,5.867,0,0,0,348.536,173.562Z" transform="translate(-76.523 -173.562)" fill="#f05537"/></g><g transform="translate(85.745 177.906)"><path d="M146.3,222.827H113.9c-2.145,0-3.141,2.3-3.141,4.443,0,2.451,1.149,4.519,3.141,4.519h11.261v43.89c0,2.068,2.452,3.141,4.978,3.141,2.452,0,4.979-1.072,4.979-3.141v-43.89H146.3c1.992,0,3.141-2.145,3.141-4.519C149.444,225.125,148.449,222.827,146.3,222.827Z" transform="translate(-110.762 -222.827)" fill="#f05537"/></g><g transform="translate(129.865 177.906)"><path d="M172.733,222.827c-2.528,0-4.978.919-4.978,3.063V275.68c0,2.068,2.451,3.141,4.978,3.141,2.452,0,4.978-1.072,4.978-3.141V225.89C177.712,223.746,175.185,222.827,172.733,222.827Z" transform="translate(-167.755 -222.827)" fill="#f05537"/></g><g transform="translate(148.479 177.904)"><path d="M222.668,259.21c-2.6,0-4.749.766-4.9,3.141-.23,3.217-.842,8.2-7.813,8.2-5.285,0-8.2-2.834-8.2-8.809V240.367c0-5.975,2.91-8.81,8.042-8.81,7.276,0,7.813,5.209,7.967,7.583.076,2.3,2.145,3.141,4.978,3.141,3.37,0,4.979-.919,4.979-4.9,0-8.886-7.584-14.554-18.232-14.554-9.651,0-17.694,4.749-17.694,17.541v21.371c0,12.792,7.967,17.541,17.618,17.541,10.723,0,18.308-5.9,18.308-15.167C227.724,260.2,226.115,259.21,222.668,259.21Z" transform="translate(-191.799 -222.825)" fill="#f05537"/></g><g transform="translate(191.141 177.906)"><path d="M284.289,272.463l-16.7-25.43L281.3,229.874a2.956,2.956,0,0,0,.612-1.914c0-2.528-3.217-5.133-5.745-5.133a3.164,3.164,0,0,0-2.757,1.455L256.866,246.8V225.89c0-2.144-2.527-3.063-4.978-3.063-2.528,0-4.978.919-4.978,3.063h0V275.68c0,2.068,2.451,3.141,4.978,3.141,2.452,0,4.978-1.072,4.978-3.141V260.667L261,255.458l14.4,21.831a3.888,3.888,0,0,0,3.446,1.914c2.911,0,5.974-2.527,5.974-4.978A2.986,2.986,0,0,0,284.289,272.463Z" transform="translate(-246.909 -222.827)" fill="#f05537"/></g><g transform="translate(233.421 177.905)"><path d="M333.16,270.089H311.482v-15.4h11.644c2.145,0,3.141-2.068,3.141-3.83,0-2.068-1.149-3.984-3.141-3.984H311.482V231.558H333.16c1.992,0,3.141-2.069,3.141-4.443,0-2.068-1-4.289-3.141-4.289H305.891c-2.222,0-4.366,1.072-4.366,3.141v49.713c0,2.068,2.144,3.141,4.366,3.141H333.16c2.145,0,3.141-2.221,3.141-4.289C336.3,272.157,335.152,270.089,333.16,270.089Z" transform="translate(-301.525 -222.826)" fill="#f05537"/></g><g transform="translate(270.341 177.906)"><path d="M384.757,222.827h-32.4c-2.145,0-3.141,2.3-3.141,4.443,0,2.451,1.149,4.519,3.141,4.519h11.261v43.89c0,2.068,2.452,3.141,4.978,3.141,2.452,0,4.979-1.072,4.979-3.141v-43.89h11.183c1.992,0,3.141-2.145,3.141-4.519C387.9,225.125,386.9,222.827,384.757,222.827Z" transform="translate(-349.216 -222.827)" fill="#f05537"/></g></g></svg>