<svg xmlns="http://www.w3.org/2000/svg" width="459.001" height="392.871" viewBox="0 0 459.001 392.871">
  <g id="webpage" transform="translate(0.001 -0.098)">
    <path id="Path_2067" data-name="Path 2067" d="M347.055,287.656a45.16,45.16,0,1,1,45.16-45.156A45.212,45.212,0,0,1,347.055,287.656Zm0-76.324A31.166,31.166,0,1,0,378.223,242.5a31.2,31.2,0,0,0-31.168-31.168Zm0,0" fill="#ff6969"/>
    <path id="Path_2068" data-name="Path 2068" d="M414.023,366.707h-14c0-28.43-23.266-50.7-52.973-50.7s-52.973,22.27-52.973,50.7H280.089c0-36.277,29.414-64.7,66.965-64.7s66.969,28.418,66.969,64.7Zm0,0" fill="#ff6969"/>
    <path id="Path_2069" data-name="Path 2069" d="M347.055,392.969A111.945,111.945,0,1,1,459,281.024,112.072,112.072,0,0,1,347.055,392.969Zm0-209.9a97.951,97.951,0,1,0,97.953,97.953,98.063,98.063,0,0,0-97.953-97.953Zm0,0" fill="#ff6969"/>
    <path id="Path_2070" data-name="Path 2070" d="M244.992,312.551H46.976A47.031,47.031,0,0,1,0,265.574V47.074A47.031,47.031,0,0,1,46.976.1H306.847a47.031,47.031,0,0,1,46.977,46.977v129a7,7,0,1,1-13.992,0v-129A33.022,33.022,0,0,0,306.847,14.09H46.976A33.022,33.022,0,0,0,13.992,47.074v218.5a33.022,33.022,0,0,0,32.984,32.984H244.992a7,7,0,0,1,0,13.992Zm0,0" fill="#ff6969"/>
    <path id="Path_2071" data-name="Path 2071" d="M346.828,95.395H7A7,7,0,0,1,7,81.4H346.828a7,7,0,0,1,0,13.992Zm0,0" fill="#ff6969"/>
    <path id="Path_2072" data-name="Path 2072" d="M100.328,67.629a19.555,19.555,0,1,1,19.555-19.555A19.578,19.578,0,0,1,100.328,67.629Zm0-25.117a5.563,5.563,0,1,0,5.563,5.563A5.57,5.57,0,0,0,100.328,42.512Zm0,0" fill="#ff6969"/>
    <path id="Path_2073" data-name="Path 2073" d="M43.914,67.453A19.555,19.555,0,1,1,63.469,47.9,19.578,19.578,0,0,1,43.914,67.453Zm0-25.117A5.563,5.563,0,1,0,49.477,47.9,5.57,5.57,0,0,0,43.914,42.336Zm0,0" fill="#ff6969"/>
    <path id="Path_2074" data-name="Path 2074" d="M156.742,67.8A19.555,19.555,0,1,1,176.3,48.25,19.576,19.576,0,0,1,156.742,67.8Zm0-25.117A5.563,5.563,0,1,0,162.3,48.25,5.57,5.57,0,0,0,156.742,42.688Zm0,0" fill="#ff6969"/>
  </g>
</svg>
