<?xml version="1.0"?>
<svg xmlns="http://www.w3.org/2000/svg" height="512px" viewBox="-1 0 512 512" width="512px"><g><path d="m390.65625 403.75-26.25 63.007812v45.242188h15v-42.242188l26.253906-63.007812v-39.515625h-15.003906zm0 0" data-original="#000000" class="active-path" data-old_color="#000000" fill="#323232"/><path d="m213.882812 460.59375 6.132813 9.816406v41.589844h15v-45.894531l-8.414063-13.460938zm0 0" data-original="#000000" class="active-path" data-old_color="#000000" fill="#323232"/><path d="m272.527344 215.339844h15v-8.78125c0-17.695313-14.398438-32.09375-32.101563-32.09375-17.695312 0-32.09375 14.398437-32.09375 32.09375v119.34375h-42.695312v81.5l25.292969 40.46875 12.722656-7.949219-23.015625-36.820313v-62.199218h42.695312v-134.34375c0-9.425782 7.667969-17.09375 17.09375-17.09375 9.429688 0 17.101563 7.671875 17.101563 17.09375zm0 0" data-original="#000000" class="active-path" data-old_color="#000000" fill="#323232"/><path d="m366.285156 280.582031h-39.382812v-14.371093h-39.375v-35.871094h-15v105.273437h15v-54.398437h24.371094v54.398437h15.003906v-40.03125h24.382812v40.03125h15v-23.449219h24.371094v40.070313h15.003906v-55.074219h-39.375zm0 0" data-original="#000000" class="active-path" data-old_color="#000000" fill="#323232"/><path d="m140.632812 421.992188h15v15h-15zm0 0" data-original="#000000" class="active-path" data-old_color="#000000" fill="#323232"/><path d="m140.632812 451.992188h15v15.003906h-15zm0 0" data-original="#000000" class="active-path" data-old_color="#000000" fill="#323232"/><path d="m140.632812 364.984375h15v42.003906h-15zm0 0" data-original="#000000" class="active-path" data-old_color="#000000" fill="#323232"/><path d="m104.628906 451.992188h15v15.003906h-15zm0 0" data-original="#000000" class="active-path" data-old_color="#000000" fill="#323232"/><path d="m104.628906 481.996094h15v15.003906h-15zm0 0" data-original="#000000" class="active-path" data-old_color="#000000" fill="#323232"/><path d="m104.628906 394.988281h15v42.003907h-15zm0 0" data-original="#000000" class="active-path" data-old_color="#000000" fill="#323232"/><path d="m246.773438 456.621094-7.953126-12.722656 12.722657-7.949219 7.949219 12.722656zm0 0" data-original="#000000" class="active-path" data-old_color="#000000" fill="#323232"/><path d="m211.773438 400.632812 12.722656-7.953124 19.101562 30.5625-12.71875 7.953124zm0 0" data-original="#000000" class="active-path" data-old_color="#000000" fill="#323232"/><path d="m136.691406 162.96875 45.5625-44.414062-62.964844-9.148438-28.164062-57.058594-28.160156 57.058594-62.964844 9.148438 45.5625 44.414062-10.753906 62.710938 56.316406-29.609376 56.320312 29.609376zm-45.566406 16.152344-36.394531 19.136718 6.949219-40.527343-29.441407-28.703125 40.691407-5.910156 18.195312-36.875 18.199219 36.875 40.691406 5.910156-29.445313 28.703125 6.953126 40.527343zm0 0" data-original="#000000" class="active-path" data-old_color="#000000" fill="#323232"/><path d="m198.824219 173.332031 56.320312-29.609375 56.316407 29.609375-10.753907-62.710937 45.5625-44.414063-62.964843-9.148437-28.160157-57.058594-28.160156 57.058594-62.96875 9.148437 45.566406 44.414063zm-2.570313-96.648437 40.691406-5.914063 18.199219-36.871093 18.199219 36.871093 40.691406 5.914063-29.445312 28.699218 6.949218 40.527344-36.394531-19.132812-36.394531 19.132812 6.949219-40.527344zm0 0" data-original="#000000" class="active-path" data-old_color="#000000" fill="#323232"/><path d="m510.289062 118.554688-62.96875-9.148438-28.160156-57.058594-28.160156 57.058594-62.964844 9.148438 45.5625 44.414062-10.753906 62.710938 56.316406-29.609376 56.320313 29.609376-10.757813-62.710938zm-91.128906 60.566406-36.394531 19.136718 6.949219-40.527343-29.445313-28.703125 40.691407-5.910156 18.199218-36.875 18.199219 36.875 40.691406 5.910156-29.445312 28.703125 6.949219 40.527343zm0 0" data-original="#000000" class="active-path" data-old_color="#000000" fill="#323232"/></g> </svg>
