<?xml version="1.0"?>
<svg xmlns="http://www.w3.org/2000/svg" id="Layer_1" data-name="Layer 1" viewBox="0 0 512 512" width="512px" height="512px"><g><title class="active-path" style="fill:#DBC92A" data-old_color="#000000">campaign </title><path d="M283.069,44.069a6,6,0,0,0,4.243-10.243L260.242,6.757a6,6,0,0,0-8.484,0l-27.07,27.069a6,6,0,1,0,8.485,8.486l15.87-15.87V77.035a6,6,0,0,0,12,0V25.355a5.966,5.966,0,0,0-.075-.9l17.859,17.859A5.982,5.982,0,0,0,283.069,44.069Z" data-original="#000000" class="active-path" data-old_color="#000000" fill="#dbc92a"/><path d="M224.688,469.688a6,6,0,0,0,0,8.486l27.07,27.069a6,6,0,0,0,8.484,0l27.07-27.069a6,6,0,0,0-8.485-8.486l-15.87,15.87V434.965a6,6,0,0,0-12,0v51.68a5.966,5.966,0,0,0,.075.9l-17.859-17.859A6,6,0,0,0,224.688,469.688Z" data-original="#000000" class="active-path" data-old_color="#000000" fill="#dbc92a"/><path d="M38.069,289.069a6,6,0,0,0,4.243-10.243l-15.87-15.869H77.035a6,6,0,0,0,0-12H25.355a5.966,5.966,0,0,0-.9.075l17.859-17.858a6,6,0,1,0-8.485-8.486L6.758,251.757a6,6,0,0,0,0,8.486l27.069,27.069A5.982,5.982,0,0,0,38.069,289.069Z" data-original="#000000" class="active-path" data-old_color="#000000" fill="#dbc92a"/><path d="M505.242,251.757l-27.069-27.069a6,6,0,1,0-8.485,8.486l15.87,15.869H434.965a6,6,0,0,0,0,12h51.68a5.966,5.966,0,0,0,.9-.075l-17.859,17.858a6,6,0,0,0,8.485,8.486l27.069-27.069a6,6,0,0,0,0-8.486Z" data-original="#000000" class="active-path" data-old_color="#000000" fill="#dbc92a"/><path d="M127.04,82.759a6,6,0,0,0-6-6H82.759a6,6,0,0,0-6,6V121.04a6,6,0,0,0,12,0V98.6l35.775,35.775a6,6,0,0,0,8.485-8.485L96.476,89.344a5.964,5.964,0,0,0-.716-.585h25.28A6,6,0,0,0,127.04,82.759Z" data-original="#000000" class="active-path" data-old_color="#000000" fill="#dbc92a"/><path d="M384.96,429.241a6,6,0,0,0,6,6h38.281a6,6,0,0,0,6-6V390.96a6,6,0,0,0-12,0V413.4l-35.775-35.775a6,6,0,0,0-8.485,8.485l36.543,36.543a5.964,5.964,0,0,0,.716.585H390.96A6,6,0,0,0,384.96,429.241Z" data-original="#000000" class="active-path" data-old_color="#000000" fill="#dbc92a"/><path d="M435.241,121.04V82.759a6,6,0,0,0-6-6H390.96a6,6,0,0,0,0,12H413.4l-35.775,35.774a6,6,0,1,0,8.484,8.486l36.544-36.543a5.964,5.964,0,0,0,.585-.716v25.28a6,6,0,0,0,12,0Z" data-original="#000000" class="active-path" data-old_color="#000000" fill="#dbc92a"/><path d="M134.373,378.981a6,6,0,0,0-8.485,0L89.344,415.524a5.964,5.964,0,0,0-.585.716V390.96a6,6,0,0,0-12,0v38.281a6,6,0,0,0,6,6H121.04a6,6,0,0,0,0-12H98.6l35.775-35.774A6,6,0,0,0,134.373,378.981Z" data-original="#000000" class="active-path" data-old_color="#000000" fill="#dbc92a"/><path d="M352.229,353.712a6,6,0,0,0,6-6V280.759h.947a42.824,42.824,0,1,0,0-85.647h-.947V131.633A6,6,0,0,0,350,126.062L212.115,181.216H143.792A33.83,33.83,0,0,0,110,215.008v49.33a33.832,33.832,0,0,0,19.286,30.513L147.8,362.042a33.127,33.127,0,0,0,63.873-17.6l-12.763-46.309h13.2L350,353.283A6.012,6.012,0,0,0,352.229,353.712Zm6.947-146.6a30.824,30.824,0,1,1,0,61.647h-.947V207.112Zm-151.9,79.017H197.037V193.216h10.234ZM122,264.338v-49.33a21.816,21.816,0,0,1,21.792-21.792h41.245v92.913H143.792A21.815,21.815,0,0,1,122,264.338Zm63.354,109.269a21.125,21.125,0,0,1-25.982-14.754L142.629,298.1c.387.014.773.03,1.163.03h42.675l13.641,49.5A21.15,21.15,0,0,1,185.354,373.607ZM346.229,338.85,219.271,288.067V191.278L346.229,140.5Z" data-original="#000000" class="active-path" data-old_color="#000000" fill="#dbc92a"/></g> </svg>
