<svg xmlns="http://www.w3.org/2000/svg" width="439.805" height="439.805" viewBox="0 0 439.805 439.805"><path d="M340.637,0H99.168A99.279,99.279,0,0,0,0,99.168V340.637A99.279,99.279,0,0,0,99.168,439.8H340.637A99.279,99.279,0,0,0,439.8,340.637V99.168A99.279,99.279,0,0,0,340.637,0Zm82.879,340.637a82.968,82.968,0,0,1-82.879,82.879H99.168a82.968,82.968,0,0,1-82.879-82.879V99.168A82.968,82.968,0,0,1,99.168,16.289H340.637a82.968,82.968,0,0,1,82.879,82.879Z" fill="#8ae1ff"/><path d="M76.1,12,9,240.047H34.411l21.5-73.627h67.762l22.479,73.627h26.388L103.151,12Zm-14,130.313L89.468,49.791,117.8,142.313Z" transform="translate(64.301 85.734)" fill="#8ae1ff"/><path d="M127.987,126.816q0,37.8-36.821,37.791-37.8,0-37.791-37.465V19.96H29.919V127.142q0,59.618,61.247,59.618,23.774,0,37.8-15.646v12.062h22.479V19.96H127.987V126.816Z" transform="translate(213.757 142.605)" fill="#8ae1ff"/></svg>