<svg xmlns="http://www.w3.org/2000/svg" width="512.001" height="512" viewBox="0 0 512.001 512"><g transform="translate(-0.001)"><path d="M488.469,224.453h-88.7v-81.2h72.664a23.559,23.559,0,0,0,23.531-23.531v-96.2A23.561,23.561,0,0,0,472.438,0H312.114a23.559,23.559,0,0,0-23.531,23.531v40.6H239.454V39.562A39.611,39.611,0,0,0,199.887,0H39.563A39.61,39.61,0,0,0,0,39.562V488.468A23.561,23.561,0,0,0,23.532,512H215.919a23.559,23.559,0,0,0,23.531-23.531V375.726h33.1V488.468A23.559,23.559,0,0,0,296.079,512H488.47A23.561,23.561,0,0,0,512,488.468V247.984a23.559,23.559,0,0,0-23.531-23.531ZM497,247.984v40.6h-66.77a23.533,23.533,0,1,0-43.848,0H367.711V264.016a7.5,7.5,0,0,0-7.5-7.5h-48.1a7.5,7.5,0,0,0-7.5,7.5v24.566H287.551v-40.6a8.54,8.54,0,0,1,8.531-8.531H488.469A8.54,8.54,0,0,1,497,247.984Zm-97.227,32.063a8.533,8.533,0,1,1,8.531,8.531A8.542,8.542,0,0,1,399.774,280.047Zm-80.16,8.535V271.516h33.1v17.066ZM472.437,128.258H447.871V63.1h33.1v56.629a8.542,8.542,0,0,1-8.531,8.531Zm8.531-104.727V48.1h-33.1V15h24.563a8.543,8.543,0,0,1,8.535,8.531Zm-177.387,0A8.542,8.542,0,0,1,312.113,15H432.871V128.258H312.113a8.54,8.54,0,0,1-8.531-8.531ZM15,335.644H31.547a.515.515,0,0,1,.516.516v56.113a.515.515,0,0,1-.516.516H15Zm0-136.273H31.547a.515.515,0,0,1,.516.516V256a.515.515,0,0,1-.516.516H15Zm209.453,289.1A8.542,8.542,0,0,1,215.921,497H23.53A8.542,8.542,0,0,1,15,488.469v-80.68H31.546a15.529,15.529,0,0,0,15.516-15.516V336.16a15.532,15.532,0,0,0-15.516-15.516H15V303.582H183.854a7.5,7.5,0,0,0,0-15H15V271.52H31.546A15.532,15.532,0,0,0,47.062,256V199.891a15.532,15.532,0,0,0-15.516-15.52H15V39.562A24.591,24.591,0,0,1,39.562,15H199.886a24.589,24.589,0,0,1,24.563,24.563V288.578h-8.527a7.5,7.5,0,1,0,0,15h8.527V488.469Zm15-127.742V79.129h49.129v40.6a23.556,23.556,0,0,0,23.531,23.531h72.66v81.2H296.082a23.556,23.556,0,0,0-23.531,23.531V360.727ZM488.469,497H296.082a8.54,8.54,0,0,1-8.531-8.531V303.582H497V488.469A8.542,8.542,0,0,1,488.468,497Zm0,0" fill="#727c8e"/><path d="M135.758,64.129H103.692A15.534,15.534,0,0,0,88.176,79.645V95.676a15.532,15.532,0,0,0,15.516,15.516h32.066a15.532,15.532,0,0,0,15.516-15.516V79.645A15.534,15.534,0,0,0,135.758,64.129Zm.516,31.547a.515.515,0,0,1-.516.516H103.692a.515.515,0,0,1-.516-.516V79.645a.515.515,0,0,1,.516-.516h32.066a.515.515,0,0,1,.516.516Zm0,0" fill="#727c8e"/><path d="M448.387,271.516h24.047a7.5,7.5,0,0,0,0-15H448.387a7.5,7.5,0,0,0,0,15Zm0,0" fill="#727c8e"/><path d="M392.273,328.66A71.629,71.629,0,1,0,463.9,400.289,71.71,71.71,0,0,0,392.273,328.66Zm0,128.258A56.629,56.629,0,1,1,448.9,400.289,56.691,56.691,0,0,1,392.273,456.918Zm0,0" fill="#727c8e"/><path d="M421.453,385a7.5,7.5,0,0,0-5.391,9.133A24.528,24.528,0,1,1,398.422,376.5a7.5,7.5,0,0,0,3.742-14.527,39.527,39.527,0,1,0,28.426,28.418A7.506,7.506,0,0,0,421.453,385Zm0,0" fill="#727c8e"/><path d="M328.145,111.191h80.164a7.5,7.5,0,0,0,7.5-7.5V39.562a7.5,7.5,0,0,0-7.5-7.5H392.278a7.5,7.5,0,0,0,0,15h8.531V96.191H335.645V47.062h24.566a7.5,7.5,0,0,0,0-15H328.145a7.5,7.5,0,0,0-7.5,7.5v64.129a7.5,7.5,0,0,0,7.5,7.5Zm0,0" fill="#727c8e"/></g></svg>