<svg xmlns="http://www.w3.org/2000/svg" width="496" height="496" viewBox="0 0 496 496"><path d="M272,264H256v16H240v16h16v16h16V296h16V280H272Zm0,0" fill="#727c8e"/><path d="M496,152V72H456V41.887L476.945,0H387.055L408,41.887V72H387.551A31.892,31.892,0,0,0,360,56H232a32.032,32.032,0,0,0-32,32H160V56H40A40.047,40.047,0,0,0,0,96v8H88v16H0v8a40.047,40.047,0,0,0,40,40H160V136h40a32.032,32.032,0,0,0,32,32h5.121l-26.48,84.754a63.7,63.7,0,0,0,62.648,98.492L286.238,416H275.055l-16,32H240v48H496V448H476.945l-16-32H448V355.473L329.2,284.191,358.238,168H360a31.892,31.892,0,0,0,27.551-16H408v22.113L387.055,216h89.891L456,174.114V152ZM17.367,88A24.046,24.046,0,0,1,40,72H144V88ZM144,152H40a24.046,24.046,0,0,1-22.633-16H144Zm16-32H104V104h96v16Zm56,168a48,48,0,1,1,48,48A48.047,48.047,0,0,1,216,288Zm110.594,13.289,52.84,31.7-85.578,39.5-5.094-25.48a64.227,64.227,0,0,0,37.832-45.719Zm68.293,40.977,27.793,16.68-120.8,53.688-4.8-24.008,98.273-45.352ZM480,480H256V464H480Zm-20.945-32H276.946l8-16H451.055ZM333.7,416,432,372.312V416ZM319.633,256.488a63.818,63.818,0,0,0-85.594-25L253.88,168h87.883ZM376,136a16.016,16.016,0,0,1-16,16H232a16.016,16.016,0,0,1-16-16V88a16.016,16.016,0,0,1,16-16H360a16.016,16.016,0,0,1,16,16ZM451.055,16l-8,16H420.946l-8-16ZM424,48h16V72H424Zm56,40v16H392V88Zm-88,32h88v16H392Zm20.945,80,8-16h22.109l8,16ZM440,168H424V152h16Zm0,0" fill="#727c8e"/><path d="M264,88a24,24,0,1,0,24,24A24.031,24.031,0,0,0,264,88Zm0,32a8,8,0,1,1,8-8A8.01,8.01,0,0,1,264,120Zm0,0" fill="#727c8e"/><path d="M328,88a24,24,0,1,0,24,24A24.031,24.031,0,0,0,328,88Zm0,32a8,8,0,1,1,8-8A8.01,8.01,0,0,1,328,120Zm0,0" fill="#727c8e"/><path d="M167.426,364.105l12.941-15.5L147.4,315.625l-15.5,12.949a79.382,79.382,0,0,0-10.781-4.461L119.313,304H72.688l-1.809,20.121A78.707,78.707,0,0,0,60.1,328.585l-15.5-12.953L11.625,348.609l12.941,15.5a78.877,78.877,0,0,0-4.461,10.773L0,376.687v46.625l20.121,1.809a77.637,77.637,0,0,0,4.465,10.773L11.641,451.4l32.969,32.977,15.5-12.949a79.382,79.382,0,0,0,10.781,4.461L72.688,496h46.625l1.809-20.121a78.707,78.707,0,0,0,10.781-4.465l15.5,12.953,32.969-32.977-12.941-15.5a78.876,78.876,0,0,0,4.461-10.773l20.105-1.8V376.687l-20.121-1.809A78.63,78.63,0,0,0,167.426,364.105ZM176,408.687l-16.633,1.5-1.391,5.5a63,63,0,0,1-7.066,17.047L148,437.609l10.711,12.824-12.277,12.285L133.6,452l-4.867,2.91a63.361,63.361,0,0,1-17.055,7.066l-5.5,1.391L104.688,480H87.313l-1.5-16.633-5.5-1.391a63.361,63.361,0,0,1-17.055-7.066L58.4,452,45.567,462.71,33.289,450.425,44,437.609l-2.91-4.875a63.625,63.625,0,0,1-7.066-17.047l-1.391-5.5L16,408.687V391.312l16.633-1.5,1.391-5.5a63,63,0,0,1,7.066-17.047L44,362.39,33.289,349.566l12.277-12.285L58.4,348l4.867-2.91a63.361,63.361,0,0,1,17.055-7.066l5.5-1.391L87.313,320h17.375l1.5,16.633,5.5,1.391a63.361,63.361,0,0,1,17.055,7.066L133.6,348l12.832-10.711,12.277,12.285L148,362.39l2.91,4.875a63.625,63.625,0,0,1,7.066,17.047l1.391,5.5,16.633,1.5Zm0,0" fill="#727c8e"/><path d="M96,352a48,48,0,1,0,48,48A48.047,48.047,0,0,0,96,352Zm0,80a32,32,0,1,1,32-32A32.032,32.032,0,0,1,96,432Zm0,0" fill="#727c8e"/><path d="M88,184h16v16H88Zm0,0" fill="#727c8e"/><path d="M88,216h16v16H88Zm0,0" fill="#727c8e"/><path d="M88,248h16v16H88Zm0,0" fill="#727c8e"/></svg>