<svg xmlns="http://www.w3.org/2000/svg" width="420" height="512" viewBox="0 0 420 512"><g transform="translate(-46)"><path d="M256,40.01A9.989,9.989,0,1,0,265.99,50,9.969,9.969,0,0,0,256,40.01Z" fill="#727c8e"/><path d="M456,60a50.057,50.057,0,0,1-50-50A10,10,0,0,0,396,0H116a10,10,0,0,0-10,10A50.057,50.057,0,0,1,56,60,10,10,0,0,0,46,70V233.19A290.467,290.467,0,0,0,253.128,511.579a10,10,0,0,0,5.745,0A290.5,290.5,0,0,0,466,233.19V70A10,10,0,0,0,456,60ZM446,233.19c0,119.448-76.221,222.892-190,258.353A270.392,270.392,0,0,1,66,233.19V79.288A70.164,70.164,0,0,0,125.288,20H386.712A70.164,70.164,0,0,0,446,79.288Z" fill="#727c8e"/><path d="M420.012,92.49a90.079,90.079,0,0,1-46.5-46.5A10,10,0,0,0,364.35,40H295.98a10,10,0,0,0,0,20h62.047A109.933,109.933,0,0,0,406,107.973V233.19c0,97.863-58.749,182.3-150,216.1-91.251-33.8-150-118.241-150-216.1V107.973A109.938,109.938,0,0,0,153.973,60H216.02a10,10,0,1,0,0-20H147.65a10,10,0,0,0-9.16,5.988,90.079,90.079,0,0,1-46.5,46.5A10,10,0,0,0,86,101.65V233.19C86,340.4,152.311,433.843,252.664,469.356a10,10,0,0,0,6.672,0C359.605,433.873,426,340.49,426,233.19V101.65A10,10,0,0,0,420.012,92.49Z" fill="#727c8e"/><path d="M256,146a90,90,0,1,0,90,90A90.1,90.1,0,0,0,256,146Zm0,160a70,70,0,1,1,70-70A70.079,70.079,0,0,1,256,306Z" fill="#727c8e"/><path d="M303.071,208.928a10,10,0,0,0-14.143,0L246,251.857l-12.929-12.928a10,10,0,0,0-14.143,14.143l20,20a10,10,0,0,0,14.143,0l50-50A10,10,0,0,0,303.071,208.928Z" fill="#727c8e"/></g></svg>