<svg xmlns="http://www.w3.org/2000/svg" width="376.512" height="496" viewBox="0 0 376.512 496"><g transform="translate(-61.671)"><path d="M332.73,371.832a7.265,7.265,0,0,0-7.266,7.266v13.365a8.314,8.314,0,0,1-5.326,7.73,7.266,7.266,0,1,0,5.171,13.58A22.925,22.925,0,0,0,340,392.463V379.1A7.265,7.265,0,0,0,332.73,371.832Z" transform="translate(-7.931 -11.62)" fill="#727c8e"/><path d="M189.448,392.581H84.467a8.274,8.274,0,0,1-8.263-8.264V118.43a7.266,7.266,0,0,0-14.531,0V384.317a22.821,22.821,0,0,0,22.795,22.8H189.448a7.266,7.266,0,0,0,0-14.531Z" transform="translate(0 -3.474)" fill="#727c8e"/><path d="M68.936,91.537A7.265,7.265,0,0,0,76.2,84.272V64.228a8.272,8.272,0,0,1,8.263-8.263H136.72v10.2a14.344,14.344,0,0,0,14.328,14.328h91.637A14.344,14.344,0,0,0,257.013,66.16v-10.2h52.251a8.278,8.278,0,0,1,8.273,8.263v39.894a7.266,7.266,0,1,0,14.531,0V64.228a22.825,22.825,0,0,0-22.8-22.795H256.851a14.337,14.337,0,0,0-14.166-12.292H232.544a36.409,36.409,0,0,0-71.353,0H151.049a14.338,14.338,0,0,0-14.166,12.291H84.466A22.82,22.82,0,0,0,61.671,64.227V84.271A7.264,7.264,0,0,0,68.936,91.537ZM196.868,14.531A21.915,21.915,0,0,1,217.5,29.141H176.232A21.915,21.915,0,0,1,196.868,14.531ZM151.252,43.672h91.23v4.933c0,.031,0,.062,0,.094s0,.062,0,.094V65.957h-91.23Z" fill="#727c8e"/><path d="M340.318,194.406V170.6a7.266,7.266,0,1,0-14.531,0v23.8a7.266,7.266,0,0,0,14.531,0Z" transform="translate(-8.254 -5.104)" fill="#727c8e"/><path d="M331.589,340.624a52.635,52.635,0,1,0,52.634,52.634A52.694,52.694,0,0,0,331.589,340.624Zm0,90.738a38.1,38.1,0,1,1,38.1-38.1A38.147,38.147,0,0,1,331.589,431.362Z" transform="translate(-6.79 -10.644)" fill="#727c8e"/><path d="M436.848,363.808l-20.247-3.1a91.843,91.843,0,0,0-4.43-10.7L424.295,333.5a7.266,7.266,0,0,0-.717-9.438l-2.587-2.589a7.267,7.267,0,0,0-11.8,8.044l-11.412,15.538a7.265,7.265,0,0,0-.492,7.835A77.057,77.057,0,0,1,404.04,369.2a7.267,7.267,0,0,0,5.887,5.188l18.557,2.84V403.7l-18.557,2.84a7.267,7.267,0,0,0-5.887,5.188,77.035,77.035,0,0,1-6.753,16.312,7.263,7.263,0,0,0,.492,7.835l11.113,15.129-18.719,18.72-15.13-11.113a7.272,7.272,0,0,0-7.836-.492,76.928,76.928,0,0,1-16.309,6.753,7.266,7.266,0,0,0-5.189,5.887l-2.842,18.559H316.392l-2.84-18.558a7.267,7.267,0,0,0-5.19-5.887,76.94,76.94,0,0,1-16.31-6.753,7.267,7.267,0,0,0-7.835.492l-15.129,11.113-18.72-18.72,11.113-15.129a7.265,7.265,0,0,0,.492-7.835,77.036,77.036,0,0,1-6.753-16.31,7.267,7.267,0,0,0-5.887-5.19l-18.558-2.84V377.23l18.558-2.84a7.266,7.266,0,0,0,5.887-5.189,77.064,77.064,0,0,1,6.753-16.31,7.265,7.265,0,0,0-.492-7.836l-11.113-15.128,18.72-18.72,15.129,11.113a7.267,7.267,0,0,0,7.835.492,77.087,77.087,0,0,1,16.312-6.753,7.267,7.267,0,0,0,5.188-5.887l2.84-18.557h26.474l2.84,18.557a7.267,7.267,0,0,0,5.188,5.887,77.007,77.007,0,0,1,16.311,6.753,7.265,7.265,0,0,0,7.835-.492l15.131-11.113a7.266,7.266,0,0,0,10.192-10.357l-4.328-4.328a7.267,7.267,0,0,0-9.439-.718l-16.508,12.124a91.838,91.838,0,0,0-10.7-4.43l-3.1-20.247a7.266,7.266,0,0,0-7.182-6.166H336.9V258.535a7.266,7.266,0,0,0-14.531,0v18.549h-12.21a7.266,7.266,0,0,0-7.182,6.166l-3.1,20.247a91.686,91.686,0,0,0-10.7,4.43L272.662,295.8a7.267,7.267,0,0,0-9.439.718l-27.543,27.543a7.266,7.266,0,0,0-.718,9.439l12.125,16.506a91.642,91.642,0,0,0-4.43,10.7l-20.248,3.1a7.266,7.266,0,0,0-6.166,7.182v38.951a7.266,7.266,0,0,0,6.166,7.182l20.248,3.1a91.563,91.563,0,0,0,4.43,10.7l-12.125,16.507a7.266,7.266,0,0,0,.718,9.439l27.543,27.543a7.266,7.266,0,0,0,9.439.718l16.507-12.125a91.521,91.521,0,0,0,10.7,4.43l3.1,20.248a7.266,7.266,0,0,0,7.182,6.166H349.1a7.266,7.266,0,0,0,7.182-6.166l3.1-20.248a91.366,91.366,0,0,0,10.7-4.43L386.6,485.133a7.268,7.268,0,0,0,9.439-.719l27.542-27.543a7.264,7.264,0,0,0,.718-9.438L412.17,430.928a91.687,91.687,0,0,0,4.43-10.7l20.247-3.1a7.266,7.266,0,0,0,6.166-7.182V370.992A7.264,7.264,0,0,0,436.848,363.808Z" transform="translate(-4.83 -7.852)" fill="#727c8e"/><path d="M242.162,147.958c-.019-.179-.047-.356-.068-.535-.067-.568-.14-1.133-.23-1.694-.029-.178-.065-.356-.1-.534-.1-.556-.2-1.11-.316-1.659-.041-.186-.086-.371-.129-.557-.122-.534-.251-1.065-.392-1.591-.055-.2-.114-.4-.172-.605-.142-.5-.292-1-.452-1.487-.074-.227-.151-.451-.23-.676-.157-.454-.32-.906-.492-1.353q-.147-.384-.3-.764c-.164-.4-.333-.8-.509-1.2-.128-.289-.257-.576-.39-.862-.162-.343-.329-.683-.5-1.021s-.327-.652-.5-.974c-.147-.274-.3-.544-.453-.815-.209-.371-.418-.742-.637-1.107-.108-.179-.224-.355-.334-.533a42.509,42.509,0,0,0-4.556-6.041c-.027-.03-.053-.062-.08-.092-.371-.408-.756-.805-1.144-1.2-.119-.121-.236-.244-.356-.364-.35-.347-.708-.686-1.07-1.021-.174-.162-.349-.323-.525-.481s-.317-.3-.482-.443c-.069-.063-.139-.126-.21-.186-.09-.078-.182-.152-.238-.2-.327-.275-.657-.548-.969-.794-.16-.128-.32-.253-.47-.369-.184-.141-.369-.278-.553-.416l-.013-.01c-.12-.09-.24-.183-.36-.27-.186-.138-.374-.272-.552-.4-.285-.2-.571-.4-.889-.61l-.633-.418q-.382-.244-.769-.481c-.009,0-.076-.046-.083-.051l-.1-.061,0,0c-.192-.117-.384-.233-.591-.356-.232-.136-.465-.265-.654-.37-.123-.07-.256-.14-.382-.21l-.252-.139c-.1-.056-.2-.112-.307-.17l-.45-.23c-.1-.05-.2-.092-.3-.14q-.853-.432-1.728-.823c-.124-.056-.247-.114-.372-.169a42.15,42.15,0,0,0-9.37-2.859l-.252-.045q-1.042-.183-2.1-.315c-.139-.017-.279-.037-.419-.053q-.981-.112-1.973-.177c-.164-.012-.326-.028-.491-.038-.8-.045-1.6-.073-2.407-.073a42.6,42.6,0,0,0-42.548,42.547v17.009a42.547,42.547,0,1,0,85.094,0v-17.01q0-1.136-.061-2.259c-.009-.168-.027-.334-.039-.5C242.266,149.12,242.223,148.536,242.162,147.958ZM201.408,124.5c.207.012.413.031.619.047.3.022.6.047.9.078.254.028.507.062.759.1s.489.069.733.108q.4.067.8.143c.229.045.456.093.683.143.264.058.53.117.791.183s.514.139.771.211c.221.062.443.121.662.188.475.148.947.306,1.415.481.068.025.134.054.2.079.43.164.858.336,1.282.522.082.036.164.075.246.111q.625.28,1.241.593c.2.1.4.2.6.308l.271.151q.42.232.831.479l.248.15.077.047c.291.18.579.363.863.554l.014.009c.095.063.192.132.287.2.26.178.517.36.77.547.1.075.2.152.3.229q.368.28.727.571c.1.081.2.164.3.248.192.16.379.325.565.489s.341.3.508.457.343.324.512.488c.144.14.289.282.43.425.181.184.358.371.534.56.124.133.248.266.369.4.182.2.359.41.535.617.11.13.22.26.327.391q.262.323.513.653c.1.135.207.27.308.407.16.217.315.437.469.659.1.148.206.3.306.446.14.21.275.424.41.638.107.17.213.338.316.509.116.194.228.391.339.589s.225.394.331.595c.092.171.178.347.266.52.117.23.234.459.344.693.068.142.131.288.2.432.121.268.242.536.356.807.044.1.082.212.125.318.125.312.249.624.362.941.02.057.039.115.059.172a27.915,27.915,0,0,1,1.355,5.737c.022.172.047.344.066.517a23.25,23.25,0,0,1-8.788-8,7.265,7.265,0,0,0-11.487-.914,34.857,34.857,0,0,1-35.526,10.16c.012-.188.027-.374.043-.561.018-.221.034-.442.058-.661.026-.245.061-.488.093-.732.029-.212.054-.426.087-.637.04-.249.087-.494.133-.741.038-.2.072-.408.113-.609.052-.251.114-.5.173-.748.046-.193.087-.388.138-.579.069-.263.146-.52.222-.779.05-.174.1-.351.151-.523.1-.32.21-.635.322-.948.039-.108.072-.218.111-.326q.231-.629.491-1.243c.057-.135.121-.265.18-.4.121-.274.241-.548.37-.818.079-.165.166-.325.248-.488.118-.233.233-.468.357-.7.092-.171.192-.338.288-.507.123-.216.244-.434.372-.646.1-.17.211-.336.318-.5.131-.206.26-.413.394-.615.112-.168.231-.331.346-.5.138-.2.273-.392.416-.584.121-.164.248-.324.373-.485.145-.187.29-.375.44-.559.13-.159.263-.313.4-.469.153-.179.305-.358.463-.535.138-.153.279-.3.419-.454.16-.17.32-.341.484-.508.145-.147.294-.293.443-.437.167-.162.334-.324.506-.481.152-.141.308-.279.463-.417.174-.154.35-.307.527-.457.159-.134.321-.265.482-.4q.272-.219.549-.432c.166-.127.332-.251.5-.374q.282-.206.569-.4c.171-.119.344-.235.518-.351q.292-.193.59-.379c.176-.11.354-.22.534-.326.2-.12.4-.236.61-.352.182-.1.364-.2.548-.3.208-.11.419-.217.63-.323.186-.093.372-.186.56-.274.215-.1.432-.2.65-.295.19-.084.38-.169.573-.248.221-.092.446-.178.669-.264.194-.075.387-.15.582-.22.229-.082.461-.159.693-.234.195-.065.389-.131.586-.191.236-.072.477-.138.716-.2.2-.054.392-.111.591-.162.245-.062.493-.115.74-.171.2-.045.392-.091.591-.131.256-.051.514-.094.773-.139.194-.033.386-.071.581-.1.273-.041.55-.072.826-.106.182-.022.363-.048.547-.067.309-.031.622-.05.934-.072.154-.01.306-.026.461-.034q.7-.035,1.412-.036C200.377,124.452,200.893,124.47,201.408,124.5Zm-1.551,73a28.049,28.049,0,0,1-28.016-28.016V165.6a49.313,49.313,0,0,0,40.3-9.662,37.448,37.448,0,0,0,15.731,9.134v4.4A28.046,28.046,0,0,1,199.857,197.493Z" transform="translate(-2.989 -3.435)" fill="#727c8e"/><path d="M258.762,263.929A44.825,44.825,0,0,0,229.174,227q-.3-.134-.624-.24-.785-.263-1.569-.493l-.166-.05c-.11-.035-.222-.068-.334-.1l-1.316-.347c-.512-.129-1.043-.247-1.568-.356-.082-.02-.166-.039-.249-.056-.554-.112-1.119-.215-1.685-.305-.531-.094-1.07-.176-1.626-.246l-.275-.036c-.58-.069-1.158-.127-1.771-.175-.446-.034-.891-.066-1.379-.091-.241-.013-.475-.021-.713-.025-.507-.02-1.025-.03-1.541-.03h-30.1c-.516,0-1.033.011-1.541.031-.24,0-.48.014-.755.026-.446.022-.89.055-1.357.091-.59.047-1.17.1-1.769.175l-.259.034c-.552.07-1.094.153-1.625.246-.565.091-1.13.193-1.684.305-.083.017-.167.036-.249.056-.526.108-1.064.229-1.635.373l-1.249.33c-.109.028-.218.061-.326.095-.059.017-.118.035-.178.054q-.785.231-1.57.493-.312.1-.611.236a44.824,44.824,0,0,0-29.6,36.936,7.265,7.265,0,0,0,3.136,6.853,100.455,100.455,0,0,0,112.633,0A7.268,7.268,0,0,0,258.762,263.929Zm-59.452,9.593A85.424,85.424,0,0,1,155.122,261.3a30.28,30.28,0,0,1,19.566-20.738c.171-.058.339-.121.5-.19.2-.063.4-.124.605-.183.055-.016.11-.032.166-.05l.057-.017.971-.257c.359-.09.734-.171,1.1-.246.076-.016.151-.032.226-.05.324-.063.652-.122.979-.174l.139-.022c.318-.057.642-.107,1.059-.16l.083-.012c.387-.047.774-.085,1.148-.114.328-.024.656-.049.993-.067l.188-.009c.108,0,.217,0,.325-.008.338-.016.683-.021,1.029-.021h30.1c.345,0,.692.007,1.03.021.108,0,.2.008.308.008l.213.01c.328.017.657.042.963.064.394.031.782.07,1.238.126l.1.014c.332.042.656.092.973.148.047.008.092.016.139.022.327.052.656.11.979.174.075.018.15.034.226.05.367.075.742.156,1.039.23l1.035.272.046.015.178.055q.3.087.6.181c.167.069.336.134.509.191A30.286,30.286,0,0,1,243.5,261.3,85.43,85.43,0,0,1,199.31,273.522Z" transform="translate(-2.442 -7.014)" fill="#727c8e"/><path d="M287.434,131.056a7.266,7.266,0,0,0,0,14.531h76.588a25.931,25.931,0,1,0,0-14.531Zm101.476-4.134a11.4,11.4,0,1,1-11.4,11.4A11.414,11.414,0,0,1,388.909,126.922Z" transform="translate(-6.828 -3.512)" fill="#727c8e"/><path d="M280.168,226.25a7.265,7.265,0,0,0,7.266,7.266h76.588a25.932,25.932,0,1,0,0-14.531H287.434A7.265,7.265,0,0,0,280.168,226.25Zm108.741-11.4a11.4,11.4,0,1,1-11.4,11.4A11.414,11.414,0,0,1,388.909,214.849Z" transform="translate(-6.828 -6.26)" fill="#727c8e"/></g></svg>