<svg xmlns="http://www.w3.org/2000/svg" width="387.146" height="512" viewBox="0 0 387.146 512">

<style>
@-webkit-keyframes fadein {
    from: { opacity: 0; }
    to: { opacity: 1; }
}

@-moz-keyframes fadein {
    from: { opacity: 0; }
    to: { opacity: 1; }
}

@keyframes fadein {
    from: { opacity: 0; }
    to: { opacity: 1; }
}

#foo {
    background-color: green;
    color: white;
    -webkit-animation: fadein 2s ease-in alternate infinite;
    -moz-animation: fadein 2s ease-in alternate infinite;
    animation: fadein 2s ease-in alternate infinite;
}
</style>
	<g id="foo" transform="translate(-0.002 -0.002)"><path d="M257.543,68.047a41.177,41.177,0,0,0-67.613-20.57,41.18,41.18,0,0,0-67.617,20.57A55.9,55.9,0,0,0,106.625,157.5a43.706,43.706,0,0,0,41.246,53.031,29.316,29.316,0,0,0,27.07,17.93l.234,0a22.268,22.268,0,0,0,14.75-5.754,22.139,22.139,0,0,0,14.688,5.754l.3,0a29.318,29.318,0,0,0,27.074-17.93A43.706,43.706,0,0,0,273.234,157.5a55.9,55.9,0,0,0-15.691-89.457ZM175.059,213.461l-.117,0a14.351,14.351,0,0,1-11.449-5.676,43.547,43.547,0,0,0,13.863-8.875,7.5,7.5,0,1,0-10.3-10.9,27.881,27.881,0,0,1-14.687,7.379,29.351,29.351,0,0,1-3.074.168,28.7,28.7,0,0,1-27.168-37.875,29.209,29.209,0,0,1,19.121-17.5,38.271,38.271,0,0,0,6.727,12.8,7.5,7.5,0,1,0,11.68-9.414,24.79,24.79,0,0,1-5.219-15.559,25.173,25.173,0,0,1,3.879-13.7A7.5,7.5,0,0,0,145.7,106.2a39.819,39.819,0,0,0-6.168,18.965,43.329,43.329,0,0,0-26.066,17.23,40.878,40.878,0,0,1,18.191-62.062,7.49,7.49,0,0,0,4.691-5.953,26.284,26.284,0,0,1,25.949-22.566,25.948,25.948,0,0,1,19.063,8.23,3.957,3.957,0,0,1,1.074,2.73V75.707a40.436,40.436,0,0,0-25.98,10.648,7.5,7.5,0,0,0,10.137,11.063,25.49,25.49,0,0,1,15.84-6.691v115.18a7.512,7.512,0,0,1-7.367,7.555Zm91.336-71.07a43.33,43.33,0,0,0-26.066-17.23A39.818,39.818,0,0,0,234.16,106.2a7.5,7.5,0,0,0-12.613,8.121,25.206,25.206,0,0,1,3.879,13.7,24.79,24.79,0,0,1-5.219,15.559,7.5,7.5,0,0,0,11.68,9.414,38.27,38.27,0,0,0,6.727-12.8,29.191,29.191,0,0,1,19.117,17.5,28.682,28.682,0,0,1-27.168,37.871,29.408,29.408,0,0,1-3.074-.168,27.9,27.9,0,0,1-14.687-7.379,7.5,7.5,0,0,0-10.3,10.906,43.542,43.542,0,0,0,13.859,8.871,14.351,14.351,0,0,1-11.449,5.676l-.113,0a7.513,7.513,0,0,1-7.371-7.555V90.722a25.531,25.531,0,0,1,15.844,6.691A7.5,7.5,0,0,0,223.4,86.355,40.43,40.43,0,0,0,197.426,75.7V62.769a3.96,3.96,0,0,1,1.07-2.73,25.948,25.948,0,0,1,19.063-8.23,26.284,26.284,0,0,1,25.949,22.566,7.5,7.5,0,0,0,4.691,5.957,40.879,40.879,0,0,1,18.2,62.059Zm0,0" fill="#727c8e"/><path d="M343.008,272.879a7.674,7.674,0,0,0-2.836-2.766l-55.539-30.77q6.428-10.424,13.926-20.289a136.447,136.447,0,0,0,.074-165.086,7.5,7.5,0,1,0-11.941,9.074,121.441,121.441,0,0,1-.062,146.922c-25.609,33.609-42.59,72.516-49.219,112.676H142.465A248.61,248.61,0,0,0,93.754,210.653a121.66,121.66,0,0,1-25.211-78.875c2.348-62.469,53.086-113.707,115.5-116.641A121.506,121.506,0,0,1,265.16,41.1a7.5,7.5,0,1,0,9.3-11.77,136.463,136.463,0,0,0-192.574,190.5,235.529,235.529,0,0,1,13.5,19.426l-55.7,30.863a7.529,7.529,0,0,0-2.836,2.766L2.4,331.59a17.4,17.4,0,0,0,6.574,24.02l26.84,14.871v52.809a7.506,7.506,0,0,0,3.867,6.563l146.609,81.223a7.588,7.588,0,0,0,7.27,0l91.844-50.883a7.5,7.5,0,0,0-7.27-13.121L197.43,491.785V385.5l20.723,35.32A17.288,17.288,0,0,0,233.1,429.45a17.492,17.492,0,0,0,8.484-2.211l87.453-48.449v40.078l-20.523,11.371a7.5,7.5,0,0,0,7.27,13.121l24.387-13.512a7.5,7.5,0,0,0,3.867-6.562V370.477l26.84-14.871a17.4,17.4,0,0,0,6.574-24.02ZM189.926,349.328l-21.09-11.687H211.02Zm131.137-72.652L254.407,313.6a237.4,237.4,0,0,1,22.742-61.254ZM102.907,252.238a233.2,233.2,0,0,1,22.609,61.4L58.794,276.676ZM50.817,378.789l14.055,7.785a7.5,7.5,0,1,0,7.27-13.121l-55.9-30.969a2.4,2.4,0,0,1-.906-3.3l30.746-52.395,133.484,73.953-30.8,52.5a2.382,2.382,0,0,1-3.227.883l-44.746-24.789a7.5,7.5,0,0,0-7.27,13.121l44.746,24.789a17.307,17.307,0,0,0,23.434-6.41l20.723-35.32V491.781L50.817,418.867Zm313.941-37.766a2.367,2.367,0,0,1-1.148,1.461L234.317,414.118a2.38,2.38,0,0,1-3.227-.883l-30.8-52.5,133.488-73.953,30.742,52.395a2.365,2.365,0,0,1,.242,1.844Zm0,0" fill="#727c8e"/><path d="M34.117,217.34h.035a7.5,7.5,0,0,0,7.465-7.535l-.008-1.867a7.5,7.5,0,0,0-7.5-7.465H34.07a7.5,7.5,0,0,0-7.465,7.539l.012,1.867A7.5,7.5,0,0,0,34.117,217.34Zm0,0" fill="#727c8e"/><path d="M26.68,237.406a7.5,7.5,0,0,0,7.5,7.465h.035a7.5,7.5,0,0,0,7.465-7.539l-.008-1.867a7.5,7.5,0,0,0-7.5-7.461h-.039a7.5,7.5,0,0,0-7.461,7.535Zm0,0" fill="#727c8e"/><path d="M46.973,230.145h.043l1.863-.008a7.5,7.5,0,0,0-.035-15H48.8l-1.867.008a7.5,7.5,0,0,0,.035,15Zm0,0" fill="#727c8e"/><path d="M19.441,230.207h.043l1.867-.008a7.5,7.5,0,0,0-.039-15h-.039l-1.867.008a7.5,7.5,0,0,0,.035,15Zm0,0" fill="#727c8e"/><path d="M357.414,159.082l.008,1.867a7.5,7.5,0,0,0,7.5,7.461h.039a7.5,7.5,0,0,0,7.465-7.535l-.012-1.867a7.5,7.5,0,0,0-7.5-7.465h-.035A7.505,7.505,0,0,0,357.414,159.082Zm0,0" fill="#727c8e"/><path d="M364.988,195.945h.039a7.5,7.5,0,0,0,7.461-7.539l-.012-1.867a7.5,7.5,0,0,0-7.5-7.465h-.043a7.505,7.505,0,0,0-7.461,7.543l.012,1.863A7.5,7.5,0,0,0,364.988,195.945Zm0,0" fill="#727c8e"/><path d="M379.652,166.207h-.039l-1.867.008a7.5,7.5,0,0,0,.035,15h.035l1.867-.012a7.5,7.5,0,0,0-.031-15Zm0,0" fill="#727c8e"/><path d="M350.25,181.277h.039l1.863-.008a7.5,7.5,0,0,0-.031-15h-.035l-1.867.008a7.5,7.5,0,0,0,.031,15Zm0,0" fill="#727c8e"/><path d="M46.949,38.977h.039a7.5,7.5,0,0,0,7.461-7.539l-.012-1.867a7.5,7.5,0,0,0-7.5-7.461H46.9a7.5,7.5,0,0,0-7.461,7.539l.012,1.867a7.5,7.5,0,0,0,7.5,7.461Zm0,0" fill="#727c8e"/><path d="M54.5,57.1A7.5,7.5,0,0,0,47,49.641h-.043A7.5,7.5,0,0,0,39.5,57.18l.012,1.867a7.5,7.5,0,0,0,7.5,7.461h.039a7.5,7.5,0,0,0,7.461-7.539Zm0,0" fill="#727c8e"/><path d="M59.8,51.781h.043l1.867-.012a7.5,7.5,0,0,0-.039-15h-.039l-1.867.012a7.5,7.5,0,0,0,.035,15Zm0,0" fill="#727c8e"/><path d="M32.273,51.844h.039l1.867-.008a7.5,7.5,0,0,0-.035-15H34.1l-1.867.012a7.5,7.5,0,0,0,.039,15Zm0,0" fill="#727c8e"/><path d="M336.461,202.156A7.5,7.5,0,0,0,329,209.7l.012,1.867a7.5,7.5,0,0,0,7.5,7.461h.039a7.5,7.5,0,0,0,7.461-7.539L344,209.617A7.538,7.538,0,0,0,336.461,202.156Zm0,0" fill="#727c8e"/><path d="M336.574,246.555h.039a7.5,7.5,0,0,0,7.461-7.539l-.008-1.867a7.5,7.5,0,0,0-7.5-7.461h-.039a7.5,7.5,0,0,0-7.461,7.539l.008,1.867A7.5,7.5,0,0,0,336.574,246.555Zm0,0" fill="#727c8e"/><path d="M349.367,231.828h.043l1.867-.012a7.5,7.5,0,0,0-.039-15H351.2l-1.867.012a7.5,7.5,0,0,0,.035,15Zm0,0" fill="#727c8e"/><path d="M323.668,216.879l-1.867.012a7.5,7.5,0,0,0,.039,15h.039l1.867-.012a7.5,7.5,0,1,0-.078-15Zm0,0" fill="#727c8e"/><path d="M336.766,86.219a7.5,7.5,0,0,0,7.2,5.418,7.408,7.408,0,0,0,2.082-.3l7.66-2.211a7.5,7.5,0,0,0-4.16-14.41l-7.66,2.211a7.5,7.5,0,0,0-5.125,9.289Zm0,0" fill="#727c8e"/><path d="M335.359,74.27a7.476,7.476,0,0,0,5.406-2.3l5.527-5.746a7.5,7.5,0,1,0-10.809-10.4l-5.527,5.746a7.5,7.5,0,0,0,5.4,12.7Zm0,0" fill="#727c8e"/><path d="M355.488,98.051l-7.742-1.914a7.5,7.5,0,1,0-3.6,14.563l7.742,1.914a7.5,7.5,0,0,0,3.6-14.563Zm0,0" fill="#727c8e"/><path d="M21.73,156.824c.129,0,.262,0,.395-.012l7.965-.414a7.5,7.5,0,1,0-.785-14.98l-7.961.418a7.5,7.5,0,0,0,.387,14.988Zm0,0" fill="#727c8e"/><path d="M21.641,132.742l7.1,3.621A7.5,7.5,0,1,0,35.555,123l-7.105-3.621a7.5,7.5,0,1,0-6.809,13.367Zm0,0" fill="#727c8e"/><path d="M38.227,174.066a7.5,7.5,0,1,0-8.168-12.578l-6.687,4.34a7.5,7.5,0,1,0,8.168,12.582Zm0,0" fill="#727c8e"/></g></svg>