<svg xmlns="http://www.w3.org/2000/svg" width="512.001" height="506.001" viewBox="0 0 512.001 506.001"><g transform="translate(0 -3)"><path d="M341.954,328.358c-12.131,0-22-8.542-22-19.041s9.869-19.042,22-19.042,22,8.542,22,19.042a10,10,0,0,0,20,0c0-18.325-13.654-33.733-32-37.915v-5.2a10,10,0,0,0-20,0v5.2c-18.346,4.182-32,19.59-32,37.915,0,21.527,18.841,39.041,42,39.041,12.131,0,22,8.542,22,19.042s-9.869,19.042-22,19.042-22-8.542-22-19.042a10,10,0,0,0-20,0c0,18.325,13.654,33.733,32,37.915v4.32a10,10,0,0,0,20,0v-4.32c18.346-4.182,32-19.59,32-37.915C383.954,345.872,365.113,328.358,341.954,328.358Z" fill="#727c8e"/><path d="M451.482,268.876a130.294,130.294,0,0,0-53.222-47.1,10,10,0,1,0-8.666,18.025,110.094,110.094,0,0,1,49.585,150.792,10,10,0,1,0,17.656,9.394,130.145,130.145,0,0,0-5.353-131.11Z" fill="#727c8e"/><path d="M357.673,209H357a10,10,0,0,0,0,20h.627a10,10,0,0,0,.046-20Z" fill="#727c8e"/><path d="M294.407,438.2A110.095,110.095,0,0,1,244.823,287.41a10,10,0,1,0-17.656-9.394,130.057,130.057,0,0,0,58.575,178.212,10,10,0,1,0,8.665-18.026Z" fill="#727c8e"/><path d="M327,449l-.579,0a10,10,0,0,0-.091,20l.67,0a10,10,0,0,0,0-20Z" fill="#727c8e"/><path d="M387.409,175.168A45.9,45.9,0,0,0,382.966,167H409a46,46,0,0,0,0-92H328.92A45.97,45.97,0,0,0,291,3H46a46,46,0,0,0,0,92h80.08a45.872,45.872,0,0,0,0,52H100a45.973,45.973,0,0,0-28.585,82,45.917,45.917,0,0,0,0,72,45.917,45.917,0,0,0,0,72A45.973,45.973,0,0,0,100,455H217.85A169.55,169.55,0,0,0,342,509c93.738,0,170-76.262,170-170C512,260.984,459.171,195.083,387.409,175.168ZM409,95a26,26,0,0,1,0,52H164a26,26,0,0,1,0-52ZM46,75a26,26,0,0,1,0-52H291a26,26,0,0,1,0,52Zm54,92H345a25.985,25.985,0,0,1,11.345,2.612c-4.73-.4-9.512-.611-14.344-.611a169.472,169.472,0,0,0-120.3,50H100a26,26,0,0,1,0-52Zm0,72H204.615a169.516,169.516,0,0,0-25.7,52H100a26,26,0,0,1,0-52Zm0,72h74.32a170.136,170.136,0,0,0-.617,52H100a26,26,0,0,1,0-52Zm0,124a26,26,0,0,1,0-52h77.786a169.33,169.33,0,0,0,23.993,52Zm242,54c-82.71,0-150-67.29-150-150s67.29-150,150-150,150,67.29,150,150S424.711,489,342,489Z" fill="#727c8e"/></g></svg>