<svg xmlns="http://www.w3.org/2000/svg" xmlns:xlink="http://www.w3.org/1999/xlink" width="607.2" height="408.1" viewBox="0 0 607.2 408.1"><defs><radialGradient id="a" cx="362.444" cy="302.395" r="378.705" gradientTransform="matrix(-0.583, 0, 0, 0.583, 212.442, 16.723)" gradientUnits="userSpaceOnUse"><stop offset="0"/><stop offset="1" stop-color="#fff" stop-opacity="0"/></radialGradient><linearGradient id="b" x1="-6.252" y1="0.534" x2="-6.893" y2="0.249" gradientUnits="objectBoundingBox"><stop offset="0" stop-color="#fff" stop-opacity="0"/><stop offset="1" stop-color="#f8fbff"/></linearGradient><radialGradient id="c" cx="527.495" cy="80.353" r="123.718" gradientTransform="translate(21.987 8.302) scale(0.568 0.568)" xlink:href="#a"/><linearGradient id="d" x1="0.483" y1="0.46" x2="0.529" y2="0.589" gradientUnits="objectBoundingBox"><stop offset="0" stop-color="#fff" stop-opacity="0"/><stop offset="0.505" stop-color="#fff"/><stop offset="1" stop-color="#fff" stop-opacity="0"/></linearGradient><clipPath id="e"><path d="M497.8,39.7,472.9,54.2a2.848,2.848,0,0,1,2.9.3l25-14.5A2.8,2.8,0,0,0,497.8,39.7Z" opacity="0.3"/></clipPath><linearGradient id="f" x1="0.444" y1="0.33" x2="0.597" y2="0.66" xlink:href="#d"/><clipPath id="g"><path d="M529.1,72.6l-18.9-11-2.8,1.6,18.9,11Z"/></clipPath><radialGradient id="h" cx="175.973" cy="117.903" r="107.518" gradientTransform="translate(19.065 7.224) scale(0.57 0.57)" xlink:href="#a"/><clipPath id="i"><path d="M157.7,91.7V82.4L153.6,80l-.1,9.3Z"/></clipPath><clipPath id="j"><path d="M157.1,77.6V74.3l-2.9-1.6V76Z"/></clipPath><clipPath id="k"><path d="M171.4,97.4l.1-10.3-9-5.2V92.2Z"/></clipPath><clipPath id="l"><path d="M170.5,95.7V87.6l-7-4v8Z"/></clipPath><clipPath id="m"><path d="M142.1,84V80l-6.8-3.9v4Z"/></clipPath><clipPath id="n"><path d="M200.8,56.2l-7.5-4.3L169.7,65.4l7.6,4.4Z"/></clipPath><clipPath id="o"><path d="M179.1,44.2l-7.5-4.4L148.1,53.4l7.5,4.4Z"/></clipPath><radialGradient id="p" cx="634.134" cy="253.488" r="117.897" gradientTransform="translate(20.808 7.924) scale(0.574 0.574)" xlink:href="#a"/><linearGradient id="q" x1="0.479" y1="0.44" x2="0.528" y2="0.569" xlink:href="#d"/><linearGradient id="r" x1="0.374" y1="0.239" x2="0.668" y2="0.766" xlink:href="#d"/><radialGradient id="s" cx="364.521" cy="144.747" r="115.335" gradientTransform="translate(20.299 7.776) scale(0.576 0.576)" xlink:href="#a"/><linearGradient id="t" x1="-65.128" y1="-0.011" x2="-65.957" y2="0.808" gradientUnits="objectBoundingBox"><stop offset="0" stop-color="#454c51"/><stop offset="1" stop-color="#1b2024"/></linearGradient><linearGradient id="u" x1="-66.148" y1="0.5" x2="-65.147" y2="0.5" xlink:href="#t"/><clipPath id="v"><path d="M375.8,138.9V134l-8.1-4.7v4.9Z"/></clipPath><clipPath id="w"><path d="M368.5,162.4v-19l6.8-3.9.1,18.9Z"/></clipPath><radialGradient id="x" cx="117.934" cy="255.9" r="106.682" gradientTransform="translate(18.688 7.196) scale(0.579 0.579)" xlink:href="#a"/><linearGradient id="y" x1="0.44" y1="0.438" x2="-0.146" y2="-0.186" xlink:href="#b"/><clipPath id="z"><path d="M86.7,224.7c2.7-1.6,6.4-1.3,10.5,1L94.9,227c-4.1-2.4-7.8-2.6-10.5-1C85.1,225.6,86,225,86.7,224.7Z"/></clipPath><clipPath id="aa"><path d="M97.2,225.7a27.3,27.3,0,0,1,3,2.1c-.8.4-1.5.9-2.3,1.3a20.25,20.25,0,0,0-3-2.1C95.6,226.6,96.5,226.1,97.2,225.7Z"/></clipPath><clipPath id="ab"><path d="M111.9,251.1c0,4.6-1.7,7.9-4.3,9.4l-2.3,1.3c2.6-1.5,4.3-4.8,4.3-9.4,0-8.2-5-17.9-11.7-23.4.8-.4,1.5-.9,2.3-1.3C106.9,233.2,111.9,242.9,111.9,251.1Z"/></clipPath><linearGradient id="ac" x1="0.009" y1="0.028" x2="0.563" y2="0.56" xlink:href="#d"/><linearGradient id="ad" x1="0.519" y1="0.518" x2="0.9" y2="0.883" xlink:href="#d"/></defs><g transform="translate(-73.4 -31)"><path d="M200.6,311.9a.9.9,0,0,1-.5-.1l-6.9-4a1.03,1.03,0,0,1,1-1.8l6.9,4a1.107,1.107,0,0,1,.4,1.4A1.193,1.193,0,0,1,200.6,311.9Zm-13.9-8a.9.9,0,0,1-.5-.1l-6.9-4a1.03,1.03,0,0,1,1-1.8l6.9,4a1.107,1.107,0,0,1,.4,1.4A1.05,1.05,0,0,1,186.7,303.9Zm-13.8-8a.9.9,0,0,1-.5-.1l-6.9-4a1.03,1.03,0,0,1,1-1.8l6.9,4a1.107,1.107,0,0,1,.4,1.4A1.382,1.382,0,0,1,172.9,295.9Zm-13.9-8a.9.9,0,0,1-.5-.1l-6.9-4a1.03,1.03,0,1,1,1-1.8l6.9,4a1.107,1.107,0,0,1,.4,1.4A1.05,1.05,0,0,1,159,287.9Zm-13.9-8a.9.9,0,0,1-.5-.1l-6.9-4a1.03,1.03,0,0,1,1-1.8l6.9,4a1.107,1.107,0,0,1,.4,1.4A1.05,1.05,0,0,1,145.1,279.9Z" fill="#727c8e"/><path d="M269.9,351.8a.9.9,0,0,1-.5-.1l-6.9-4a1.03,1.03,0,0,1,1-1.8l6.9,4a1.107,1.107,0,0,1,.4,1.4A1.382,1.382,0,0,1,269.9,351.8Zm-13.9-8a.9.9,0,0,1-.5-.1l-6.9-4a1.03,1.03,0,0,1,1-1.8l6.9,4a1.107,1.107,0,0,1,.4,1.4A1.193,1.193,0,0,1,256,343.8Zm-13.9-8a.9.9,0,0,1-.5-.1l-6.9-4a1.03,1.03,0,1,1,1-1.8l6.9,4a1.107,1.107,0,0,1,.4,1.4A1.05,1.05,0,0,1,242.1,335.8Zm-13.8-8a.9.9,0,0,1-.5-.1l-6.9-4a1.03,1.03,0,1,1,1-1.8l6.9,4a1.107,1.107,0,0,1,.4,1.4A1.193,1.193,0,0,1,228.3,327.8Zm-13.9-8a.9.9,0,0,1-.5-.1l-6.9-4a1.03,1.03,0,1,1,1-1.8l6.9,4a1.107,1.107,0,0,1,.4,1.4A1.05,1.05,0,0,1,214.4,319.8Z" fill="#727c8e"/><path d="M285,287.8a.9.9,0,0,1-.5-.1l-6.9-4a1.03,1.03,0,1,1,1-1.8l6.9,4a1.107,1.107,0,0,1,.4,1.4A1.05,1.05,0,0,1,285,287.8Zm-13.8-8a.9.9,0,0,1-.5-.1l-6.9-4a1.03,1.03,0,0,1,1-1.8l6.9,4a1.107,1.107,0,0,1,.4,1.4A1.193,1.193,0,0,1,271.2,279.8Zm-13.9-8a.9.9,0,0,1-.5-.1l-6.9-4a1.03,1.03,0,1,1,1-1.8l6.9,4a1.107,1.107,0,0,1,.4,1.4A1.05,1.05,0,0,1,257.3,271.8Zm-13.8-8a.9.9,0,0,1-.5-.1l-6.9-4a1.03,1.03,0,0,1,1-1.8l6.9,4a1.107,1.107,0,0,1,.4,1.4A1.382,1.382,0,0,1,243.5,263.8Zm96.3,55.9a.9.9,0,0,1-.5-.1l-6.9-4a1.03,1.03,0,0,1,1-1.8l6.9,4a1.107,1.107,0,0,1,.4,1.4A1.058,1.058,0,0,1,339.8,319.7Zm-13.9-8a.9.9,0,0,1-.5-.1l-6.9-4a1.03,1.03,0,0,1,1-1.8l6.9,4a1.107,1.107,0,0,1,.4,1.4A.874.874,0,0,1,325.9,311.7Zm-13.9-8a.9.9,0,0,1-.5-.1l-6.9-4a1.03,1.03,0,1,1,1-1.8l6.9,4a1.107,1.107,0,0,1,.4,1.4A.874.874,0,0,1,312,303.7Zm-13.8-8a.9.9,0,0,1-.5-.1l-6.9-4a1.03,1.03,0,0,1,1-1.8l6.9,4a1.107,1.107,0,0,1,.4,1.4A.957.957,0,0,1,298.2,295.7Zm-68.6-39.9a.9.9,0,0,1-.5-.1,11.382,11.382,0,0,1-5.3-6.7.982.982,0,1,1,1.9-.5,9.246,9.246,0,0,0,4.4,5.5,1.107,1.107,0,0,1,.4,1.4A1.267,1.267,0,0,1,229.6,255.8Zm-4.2-13.9c-.2,0-.3,0-.4-.1a.883.883,0,0,1-.4-1.3,12.213,12.213,0,0,1,4.5-4.8l1.6-1a1.03,1.03,0,1,1,1,1.8l-1.6,1a8.966,8.966,0,0,0-3.7,4A1.528,1.528,0,0,1,225.4,241.9Zm12.7-9.4a1.193,1.193,0,0,1-.9-.5,1.012,1.012,0,0,1,.4-1.4l6.9-4a1.03,1.03,0,1,1,1,1.8l-6.9,4A.749.749,0,0,1,238.1,232.5Zm13-9.1a1.422,1.422,0,0,1-.6-.2.984.984,0,0,1-.3-1.4,12.6,12.6,0,0,0,2.2-7,1,1,0,0,1,2,0,15.554,15.554,0,0,1-2.6,8.1A.752.752,0,0,1,251.1,223.4Zm.4-15.2a1.193,1.193,0,0,1-.9-.5,12.226,12.226,0,0,0-4.7-4.6l-.7-.4a1.03,1.03,0,1,1,1-1.8l.7.4a14.463,14.463,0,0,1,5.4,5.3,1.076,1.076,0,0,1-.3,1.4A.551.551,0,0,1,251.5,208.2Zm-12.7-9.4a.9.9,0,0,1-.5-.1l-6.9-4a1.03,1.03,0,0,1,1-1.8l6.9,4a1.107,1.107,0,0,1,.4,1.4A1.193,1.193,0,0,1,238.8,198.8Zm-13.8-8a.9.9,0,0,1-.5-.1l-6.9-4a1.03,1.03,0,0,1,1-1.8l6.9,4a1.107,1.107,0,0,1,.4,1.4A1.382,1.382,0,0,1,225,190.8Zm-13.9-8.1a.9.9,0,0,1-.5-.1l-6.9-4a1.03,1.03,0,1,1,1-1.8l6.9,4a1.107,1.107,0,0,1,.4,1.4A.874.874,0,0,1,211.1,182.7Zm-12.2-9.4a1.063,1.063,0,0,1-1-.9v-.6a6,6,0,0,1,3-5.2l2-1.2a1.03,1.03,0,0,1,1,1.8l-2,1.2a3.994,3.994,0,0,0-2,3.4v.4c.1.5-.3,1-1,1.1Zm11.4-10a1.193,1.193,0,0,1-.9-.5,1.012,1.012,0,0,1,.4-1.4l6.9-4a1.012,1.012,0,0,1,1.1,1.7l-.2.1-6.7,3.9C210.6,163.2,210.5,163.3,210.3,163.3Zm11.4-10.4h-.2a1.037,1.037,0,0,1-.8-1.2,11.018,11.018,0,0,0,.2-1.8,8.074,8.074,0,0,0-1.6-5,1,1,0,1,1,1.6-1.2,10.347,10.347,0,0,1,1.9,6.2,16.354,16.354,0,0,1-.2,2.2A.817.817,0,0,1,221.7,152.9Zm-7.9-12.3a.9.9,0,0,1-.5-.1l-6.9-4a1.03,1.03,0,0,1,1-1.8l6.9,4a1.107,1.107,0,0,1,.4,1.4A1.05,1.05,0,0,1,213.8,140.6Zm-13.9-8a.9.9,0,0,1-.5-.1l-3.7-2.2a1.03,1.03,0,0,1,1-1.8l3.7,2.2a1.107,1.107,0,0,1,.4,1.4A1.05,1.05,0,0,1,199.9,132.6Z" fill="#727c8e"/><path d="M360.5,272.1a.9.9,0,0,1-.5-.1l-6.9-4a1.03,1.03,0,0,1,1-1.8l6.9,4a1.107,1.107,0,0,1,.4,1.4A1.193,1.193,0,0,1,360.5,272.1ZM346.7,264a.9.9,0,0,1-.5-.1l-6.9-4a1.03,1.03,0,0,1,1-1.8l6.9,4a1.107,1.107,0,0,1,.4,1.4A1.383,1.383,0,0,1,346.7,264Zm-13.9-8a.9.9,0,0,1-.5-.1l-6.9-4a1.03,1.03,0,0,1,1-1.8l6.9,4a1.107,1.107,0,0,1,.4,1.4A1.05,1.05,0,0,1,332.8,256Zm-12.4-9.5a1.2,1.2,0,0,1-1-.7,8.084,8.084,0,0,1,2.5-8.3.992.992,0,1,1,1.3,1.5,6.06,6.06,0,0,0-2.1,4.6,7.772,7.772,0,0,0,.2,1.6,1.028,1.028,0,0,1-.7,1.2C320.6,246.5,320.5,246.5,320.4,246.5Zm9.1-11.3a1.193,1.193,0,0,1-.9-.5,1.012,1.012,0,0,1,.4-1.4l6.9-4a1.03,1.03,0,0,1,1,1.8l-6.9,4A4.327,4.327,0,0,1,329.5,235.2Zm13.9-8a1.193,1.193,0,0,1-.9-.5,1.012,1.012,0,0,1,.4-1.4l6.9-4a1.03,1.03,0,1,1,1,1.8l-6.9,4C343.7,227.1,343.6,227.2,343.4,227.2Zm13.9-8a1.193,1.193,0,0,1-.9-.5,1.012,1.012,0,0,1,.4-1.4l6.8-3.9a1.012,1.012,0,0,1,1.1,1.7l-.1.1-6.8,3.9A4.333,4.333,0,0,0,357.3,219.2Zm9-11a.961.961,0,0,1-.9-.6,4.507,4.507,0,0,0-1.7-1.9l-4.1-2.5a1.012,1.012,0,0,1,1.1-1.7l4.1,2.5a6.163,6.163,0,0,1,2.5,2.8.992.992,0,0,1-.5,1.3C366.6,208.1,366.5,208.2,366.3,208.2Zm-13-9a.749.749,0,0,1-.5-.1L346,195a1.012,1.012,0,0,1,1.1-1.7l6.8,4.1a.984.984,0,0,1,.3,1.4A1.8,1.8,0,0,1,353.3,199.2Zm-13.7-8.3a.749.749,0,0,1-.5-.1l-6.8-4.1a1.012,1.012,0,0,1,1.1-1.7l6.8,4.1a.984.984,0,0,1,.3,1.4A1.8,1.8,0,0,1,339.6,190.9Zm-13.7-8.3a.749.749,0,0,1-.5-.1l-.7-.4a7.417,7.417,0,0,1-3.6-6.4v-.5c0-.6.5-.9,1.1-.9a.9.9,0,0,1,.9,1.1v.4a5.454,5.454,0,0,0,2.7,4.7l.7.4a.984.984,0,0,1,.3,1.4A2.39,2.39,0,0,1,325.9,182.6Zm.8-12.5a1.193,1.193,0,0,1-.9-.5,1.012,1.012,0,0,1,.4-1.4l6.9-4a1.03,1.03,0,1,1,1,1.8l-6.9,4A1.087,1.087,0,0,1,326.7,170.1Zm13.8-8a1.193,1.193,0,0,1-.9-.5,1.012,1.012,0,0,1,.4-1.4l6.9-4a1.03,1.03,0,0,1,1,1.8l-6.9,4A.749.749,0,0,1,340.5,162.1Zm13.9-8a1.193,1.193,0,0,1-.9-.5,1.012,1.012,0,0,1,.4-1.4l.2-.1a1.03,1.03,0,0,1,1,1.8l-.2.1A1.087,1.087,0,0,1,354.4,154.1Z" fill="#727c8e"/><path d="M486.3,254.9a1.193,1.193,0,0,1-.9-.5,1.076,1.076,0,0,1,.3-1.4l6.8-4.1a1.012,1.012,0,0,1,1.1,1.7l-6.8,4.1A.646.646,0,0,1,486.3,254.9Zm-27.4,16.3a1.193,1.193,0,0,1-.9-.5,1.076,1.076,0,0,1,.3-1.4l6.8-4.1a1.012,1.012,0,1,1,1.1,1.7l-6.8,4.1A.55.55,0,0,1,458.9,271.2Zm13.7-8.3a1.193,1.193,0,0,1-.9-.5,1.076,1.076,0,0,1,.3-1.4l6.8-4.1a1.012,1.012,0,1,1,1.1,1.7l-6.8,4.1A.646.646,0,0,1,472.6,262.9Zm27-16.7a1.421,1.421,0,0,1-.6-.2.966.966,0,0,1-.1-1.4,8.941,8.941,0,0,0,1.9-5.5,6.151,6.151,0,0,0-.1-1.3.962.962,0,1,1,1.9-.3,7.568,7.568,0,0,1,.1,1.5,10.2,10.2,0,0,1-2.4,6.7A.64.64,0,0,1,499.6,246.2Zm-2.1-14.1a1.421,1.421,0,0,1-.6-.2c-.1-.1-.3-.2-.4-.3l-6.4-3.8a1.012,1.012,0,0,1,1.1-1.7l6.4,3.8a2.186,2.186,0,0,1,.5.3.984.984,0,0,1,.3,1.4A.957.957,0,0,1,497.5,232.1Zm-13.7-8.3a.749.749,0,0,1-.5-.1l-6.8-4.1a1.012,1.012,0,0,1,1.1-1.7l6.8,4.1a.969.969,0,0,1-.6,1.8Zm-13.7-8.2a.749.749,0,0,1-.5-.1l-5.5-3.3a7.1,7.1,0,0,1-1.4-1,1,1,0,1,1,1.2-1.6,8.339,8.339,0,0,0,1.2.8l5.5,3.3a.984.984,0,0,1,.3,1.4A.792.792,0,0,1,470.1,215.6Zm-11.3-10.7a1.2,1.2,0,0,1-1-.7,14.083,14.083,0,0,1-.7-4.5,17.374,17.374,0,0,1,.5-3.9.982.982,0,0,1,1.9.5,12.406,12.406,0,0,0,.1,7.3,1.04,1.04,0,0,1-.6,1.3Zm4.1-14.5a.909.909,0,0,1-.8-.4.966.966,0,0,1,.1-1.4,13.655,13.655,0,0,1,2.1-1.5l4.8-2.8a1.03,1.03,0,1,1,1,1.8l-4.8,2.8a12.734,12.734,0,0,0-1.9,1.3A.764.764,0,0,1,462.9,190.4Zm13.7-8.3a1.193,1.193,0,0,1-.9-.5,1.012,1.012,0,0,1,.4-1.4l6.9-4a1.03,1.03,0,1,1,1,1.8l-6.9,4A.9.9,0,0,1,476.6,182.1Zm13.8-8a1.193,1.193,0,0,1-.9-.5,1.012,1.012,0,0,1,.4-1.4l6.9-4a1.03,1.03,0,0,1,1,1.8l-6.9,4A.749.749,0,0,1,490.4,174.1Zm13.8-8.1a1.193,1.193,0,0,1-.9-.5,1.012,1.012,0,0,1,.4-1.4l.7-.4a7.967,7.967,0,0,0,3.8-5,.982.982,0,0,1,1.9.5,10.247,10.247,0,0,1-4.8,6.2l-.7.4C504.6,166,504.4,166,504.2,166Zm3.8-13.6a1.02,1.02,0,0,1-.8-.5,7.74,7.74,0,0,0-2.8-2.6l-3.2-1.8a1.03,1.03,0,1,1,1-1.8l3.2,1.8a10.04,10.04,0,0,1,3.5,3.3.984.984,0,0,1-.3,1.4A.735.735,0,0,1,508,152.4Zm-13.2-8.7a.9.9,0,0,1-.5-.1l-6.9-4a1.107,1.107,0,0,1-.4-1.4,1.075,1.075,0,0,1,1.4-.4l6.9,4a1.107,1.107,0,0,1,.4,1.4A1.193,1.193,0,0,1,494.8,143.7Zm-13.9-8a.9.9,0,0,1-.5-.1l-6-3.5a8.8,8.8,0,0,0-1-.6,1,1,0,1,1,1.2-1.6,5.583,5.583,0,0,0,.8.5l6,3.5a1.107,1.107,0,0,1,.4,1.4A1.267,1.267,0,0,1,480.9,135.7Zm-10.5-10.9a.987.987,0,0,1-1-.9v-.6a10.291,10.291,0,0,1,3.2-7.4.992.992,0,1,1,1.3,1.5,8.262,8.262,0,0,0-2.6,5.9v.4a.9.9,0,0,1-.9,1.1Zm9.7-11.4a1.193,1.193,0,0,1-.9-.5,1.012,1.012,0,0,1,.4-1.4l6.9-4a1.03,1.03,0,0,1,1,1.8l-6.9,4A1.087,1.087,0,0,1,480.1,113.4Zm13.8-8a1.193,1.193,0,0,1-.9-.5,1.012,1.012,0,0,1,.4-1.4l6.9-4a1.03,1.03,0,0,1,1,1.8l-6.9,4A.749.749,0,0,1,493.9,105.4Zm13.9-8a1.193,1.193,0,0,1-.9-.5,1.012,1.012,0,0,1,.4-1.4l4.5-2.6a1.03,1.03,0,1,1,1,1.8l-4.5,2.6A1.087,1.087,0,0,1,507.8,97.4Z" fill="#727c8e"/><path d="M333.5,437.9,518.9,330.8a3.853,3.853,0,0,0,0-6.7L414.1,263.6a9.117,9.117,0,0,0-9.3,0L219.4,370.7a3.853,3.853,0,0,0,0,6.7l104.8,60.5A9.609,9.609,0,0,0,333.5,437.9Z" fill="url(#a)"/><path d="M241.1,350l87.3-50.4V430.3a8.834,8.834,0,0,1-4.4-1.2l-45.8-26.5L219.9,369a3.655,3.655,0,0,1-1.9-3.3V350Z" fill="#a8cde5"/><path d="M404.2,255.9a9.417,9.417,0,0,1,9.2,0l91.4,52.8v-2.2h14.7v12.7h0a4.083,4.083,0,0,1-1.9,3.5L333.3,429.1a8.389,8.389,0,0,1-4.8,1.2V299.6Z" fill="#cbdfef"/><path d="M333.3,416.2,517.7,309.8a3.767,3.767,0,0,0,0-6.6L413.4,243a9.417,9.417,0,0,0-9.2,0L219.9,349.4a3.767,3.767,0,0,0,0,6.6l104.2,60.2A8.935,8.935,0,0,0,333.3,416.2Z" fill="#f8fbff"/><path d="M276.6,374.5c-3.8.6-6.1,2.9-5.1,5.1s4.9,3.5,8.8,2.9c3.8-.6,6.1-2.9,5.1-5.1S280.4,373.9,276.6,374.5Z" fill="#a8cde5"/><path d="M242.1,346.9l166.5-96.1h.4l96.6,55.8L338.9,402.8Z" fill="#7dc9c6"/><path d="M438.6,267.8v77.4L424,353.6V259.4Z" fill="none"/><path d="M408.3,250.9V362.7l-69.4,40V291Z" fill="none"/><path d="M505.6,306.5,448,339.7V273.2Z" fill="none"/><path d="M242.1,346.9l32.4-18.8v37.5Z" fill="none"/><path d="M290.3,374.6V319.1l17.1-9.9v75.4Z" fill="none"/><path d="M307.4,309.2,338.9,291V402.7l-31.5-18.1Z" fill="#a0e0dc"/><path d="M274.5,365.6V328.1l15.8-9v55.5Z" fill="#a0e0dc"/><path d="M408.7,250.7h.4l15,8.7v94.2l-15.7,9.1V250.9Z" fill="#a0e0dc"/><path d="M448,273.2v66.5l-9.4,5.5V267.8Z" fill="#a0e0dc"/><path d="M409,253.6h-.4l-164,94.7-2.5-1.5,166.5-96.1h.4l96.6,55.8L503,308Z" fill="#69b7b1"/><path d="M242.1,346.9l166.5-96.1h.4l96.6,55.8L338.9,402.8Z" fill="url(#b)"/><ellipse cx="100.9" cy="58.2" rx="100.9" ry="58.2" transform="translate(278.5 202.8)" fill="#8ae1ff" opacity="0.7"/><ellipse cx="15.6" cy="9" rx="15.6" ry="9" transform="translate(255.3 149.4)" fill="#a4e1f6" opacity="0.7"/><path d="M552.4,145.1c-6.1,3.5-16,3.5-22.1,0s-6.1-9.2,0-12.8,16-3.5,22.1,0C558.5,135.9,558.5,141.6,552.4,145.1Z" fill="#a4e1f6" opacity="0.7"/><path d="M614.3,313.6c-6.1,3.5-16,3.5-22.1,0s-6.1-9.2,0-12.8c6.1-3.5,16-3.5,22.1,0S620.4,310.1,614.3,313.6Z" fill="#a4e1f6" opacity="0.7"/><path d="M618.5,378.9a9.764,9.764,0,0,1-9.1,0c-2.5-1.5-2.5-3.8,0-5.3a9.764,9.764,0,0,1,9.1,0C621,375,621,377.4,618.5,378.9Z" fill="#a4e1f6" opacity="0.7"/><path d="M645,397.7a15.462,15.462,0,0,1-13.9,0c-3.8-2.2-3.8-5.8,0-8a15.462,15.462,0,0,1,13.9,0C648.8,391.9,648.8,395.4,645,397.7Z" fill="#a4e1f6" opacity="0.7"/><path d="M136.7,397.7a15.462,15.462,0,0,1-13.9,0c-3.8-2.2-3.8-5.8,0-8a15.462,15.462,0,0,1,13.9,0C140.5,391.9,140.5,395.4,136.7,397.7Z" fill="#a4e1f6" opacity="0.7"/><ellipse cx="15.6" cy="9" rx="15.6" ry="9" transform="translate(132.9 307.3)" fill="#a4e1f6" opacity="0.7"/><path d="M439,294.6a33.81,33.81,0,0,0-.8-28c-4.5-9.4-13.2-18.1-25.2-25s-27-12-43.3-14.5a171.3,171.3,0,0,0-48.5-.5c-3,.4-4.8,2.1-4.1,3.8s3.7,2.8,6.6,2.4a151.745,151.745,0,0,1,43.1.4c14.5,2.3,27.7,6.7,38.4,12.9s18.4,13.8,22.3,22.2a30.077,30.077,0,0,1,.7,24.9c-.5,1.1.2,2.2,1.5,3a6.629,6.629,0,0,0,2.6.8C435.4,297.4,438.3,296.3,439,294.6Z" fill="#fff"/><path d="M412.6,270.6c-3.2-6.9-9.6-13.2-18.3-18.2-8.8-5.1-19.7-8.7-31.5-10.6a123.447,123.447,0,0,0-35.4-.3c-3,.4-4.8,2.1-4.1,3.8a3.107,3.107,0,0,0,1.5,1.5,7.913,7.913,0,0,0,5.2.8c20.5-2.8,41.6.6,56.5,9.2s20.9,20.8,16,32.6c-.7,1.7,1.1,3.4,4.1,3.8s5.9-.6,6.6-2.4A23.841,23.841,0,0,0,412.6,270.6Z" fill="#fff"/><path d="M375.5,263.3c-11-6.4-26.7-8.9-41.9-6.8-3,.4-4.8,2.1-4.1,3.8s3.7,2.8,6.6,2.4c11.5-1.6,23.3.4,31.6,5.2s11.7,11.6,8.9,18.2c-.5,1.1.2,2.2,1.5,3a6.629,6.629,0,0,0,2.6.8c3,.4,5.9-.6,6.6-2.4C391,278.7,386.6,269.6,375.5,263.3Z" fill="#fff"/><path d="M352.8,276.4c-4.9-2.8-12.9-2.8-17.8,0s-4.9,7.4,0,10.2,12.9,2.8,17.8,0S357.7,279.2,352.8,276.4Z" fill="#fff"/><path d="M477.6,79.5,507,62.4a9.486,9.486,0,0,1,9.5,0l58.3,33.4a1.7,1.7,0,0,1,0,3l-29.9,17.6a8.019,8.019,0,0,1-7.8.1L477.6,82.9A1.9,1.9,0,0,1,477.6,79.5Z" fill="url(#c)"/><path d="M497.8,39.7,472.9,54.2a2.848,2.848,0,0,1,2.9.3l25-14.5A2.8,2.8,0,0,0,497.8,39.7Z" opacity="0.3" fill="url(#d)"/><g clip-path="url(#e)"><path d="M475.8,54.4l25-14.4-.6-.3L475.3,54.2c.2,0,.3.1.5.2" fill="#4e4f51"/><path d="M475.3,54.1l24.9-14.5c-.2-.1-.3-.1-.5-.2L474.8,54a4.332,4.332,0,0,0,.5.1" fill="#4e4f51"/><path d="M474.8,54l24.9-14.5c-.1,0-.2-.1-.4-.1L474.4,53.9a.6.6,0,0,1,.4.1" fill="#4e4f51"/><path d="M474.4,53.9l24.9-14.5H499L474.1,53.9h.3" fill="#4e4f51"/><path d="M474.1,53.9,499,39.4h-.3L473.8,53.9h.3" fill="#4e4f51"/><path d="M473.8,53.9l24.9-14.5h-.2L473.6,53.9h.2" fill="#4e4f51"/><path d="M473.6,53.9l24.9-14.5c-.1,0-.2,0-.2.1L473.4,54c0-.1.1-.1.2-.1" fill="#4e4f51"/><path d="M473.4,54l24.9-14.5c-.1,0-.1,0-.2.1L473.1,54h.3" fill="#4e4f51"/><path d="M473.1,54,498,39.5c-.1,0-.1.1-.2.1L472.9,54.1c.1,0,.2,0,.2-.1" fill="#4e4f51"/><path d="M472.9,54.1l24.9-14.5h0L472.9,54.1h0" fill="#4e4f51"/></g><path d="M541.4,92.3l24.9-14.5L500.8,40l-25,14.4Z" fill="#404041"/><path d="M499.2,60.5l31.7,18.3,6.5-3.8,5.6-3.2L511.2,53.4l-5.5,3.3Z" fill="#383738"/><path d="M499.2,60.5l31.7,18.3,6.5-3.8L505.7,56.7Z" fill="#302d2f"/><path d="M475.8,54.4c-2.5-1.5-4.5,0-4.1,3.1l2,16.6a9.1,9.1,0,0,0,4.1,6.4L539.3,116c2,1.2,3.8.5,4.1-1.7l2-14.3c.4-2.6-1.5-6.3-4.1-7.8Z" fill="#8e9093"/><path d="M476.8,56.6c-2.2-1.3-3.8,0-3.5,2.7L475,73.6a7.979,7.979,0,0,0,3.5,5.5L538.7,114c1.8,1,3.3.4,3.5-1.4l1.8-12.3a7.5,7.5,0,0,0-3.5-6.7Z" fill="#515254"/><path d="M541.4,92.3c.1.1.2.1.3.2l.1.1c.1.1.2.1.3.2h0c.1.1.2.2.3.2l.1.1.3.3h0l.4.4.1.1a1.38,1.38,0,0,1,.3.4h0c.1.1.1.2.2.3a.1.1,0,0,0,.1.1c.1.1.1.2.2.3h0c.1.1.1.2.2.3a.1.1,0,0,0,.1.1.349.349,0,0,0,.1.2v.1c.1.1.1.2.2.3h0c0,.1.1.2.1.3v.1a.349.349,0,0,0,.1.2v.1c0,.1.1.2.1.3h0c0,.1.1.2.1.3v.1c0,.1.1.3.1.4V100l-2,14.3a2.582,2.582,0,0,1-1.2,2l24.9-14.5a2.673,2.673,0,0,0,1.2-2l2.1-14.3V83.1h0c0-.1-.1-.3-.1-.4h0v-.1c0-.1-.1-.2-.1-.3h0c0-.1-.1-.2-.1-.3h0v-.1a.349.349,0,0,0-.1-.2v-.1h0c0-.1-.1-.2-.1-.3h0c-.1-.1-.1-.2-.2-.3h0v-.1a.349.349,0,0,0-.1-.2v-.1h0c-.1-.1-.1-.2-.2-.3h0c-.1-.1-.1-.2-.2-.3h0c-.1-.1-.1-.2-.2-.3h0a1.38,1.38,0,0,1-.3-.4h0c-.1-.2-.3-.3-.4-.4h0l-.3-.3-.1-.1c-.1-.1-.2-.2-.3-.2h0c-.1-.1-.2-.2-.3-.2a.1.1,0,0,1-.1-.1c-.1-.1-.2-.1-.3-.2Z" fill="#231f20"/><path d="M541.4,92.3c.1.1.2.1.3.2l.1.1c.1.1.2.1.3.2h0c.1.1.2.2.3.2l.1.1.3.3h0l.4.4.1.1a1.38,1.38,0,0,1,.3.4h0c.1.1.1.2.2.3a.1.1,0,0,0,.1.1c.1.1.1.2.2.3h0c.1.1.1.2.2.3a.1.1,0,0,0,.1.1.349.349,0,0,0,.1.2v.1c.1.1.1.2.2.3h0c0,.1.1.2.1.3v.1a.349.349,0,0,0,.1.2v.1c0,.1.1.2.1.3h0c0,.1.1.2.1.3v.1c0,.1.1.3.1.4v2.1l24.9-14.6V83.2h0c0-.1-.1-.3-.1-.4h0v-.1c0-.1-.1-.2-.1-.3h0c0-.1-.1-.2-.1-.3h0V82a.349.349,0,0,0-.1-.2v-.1h0c0-.1-.1-.2-.1-.3h0c-.1-.1-.1-.2-.2-.3h0V81a.349.349,0,0,0-.1-.2v-.1h0c-.1-.1-.1-.2-.2-.3h0c-.1-.1-.1-.2-.2-.3h0c-.1-.1-.1-.2-.2-.3h0a1.38,1.38,0,0,1-.3-.4h0c-.1-.2-.3-.3-.4-.4h0l-.3-.3-.1-.1c-.1-.1-.2-.2-.3-.2h0c-.1-.1-.2-.2-.3-.2a.1.1,0,0,1-.1-.1c-.1-.1-.2-.1-.3-.2Z" opacity="0.3" fill="url(#f)"/><g opacity="0.4"><path d="M541,94.7a2.159,2.159,0,0,1-.9-1.4l.4.2a6.884,6.884,0,0,1,1.3,1.1C541.7,94.9,541.4,94.9,541,94.7Z"/><path d="M537.7,92.8a2.159,2.159,0,0,1-.9-1.4l1.8,1C538.6,92.9,538.2,93.1,537.7,92.8Z"/><path d="M534.4,90.9a2.143,2.143,0,0,1-.9-1.5l1.8,1C535.3,91,534.9,91.2,534.4,90.9Z"/><path d="M531.1,89a1.859,1.859,0,0,1-.9-1.5l1.8,1C532,89.1,531.6,89.3,531.1,89Z"/><path d="M527.8,87.1a1.859,1.859,0,0,1-.9-1.5l1.8,1C528.7,87.2,528.3,87.4,527.8,87.1Z"/><path d="M524.6,85.2a1.859,1.859,0,0,1-.9-1.5l1.8,1C525.4,85.3,525,85.5,524.6,85.2Z"/><path d="M521.3,83.3a1.859,1.859,0,0,1-.9-1.5l1.8,1C522.1,83.4,521.7,83.6,521.3,83.3Z"/><path d="M518,81.4a1.859,1.859,0,0,1-.9-1.5l1.8,1C518.8,81.5,518.5,81.7,518,81.4Z"/><path d="M514.7,79.5a1.859,1.859,0,0,1-.9-1.5l1.8,1C515.6,79.6,515.2,79.8,514.7,79.5Z"/><path d="M511.4,77.7a1.859,1.859,0,0,1-.9-1.5l1.8,1C512.3,77.7,511.9,77.9,511.4,77.7Z"/><path d="M508.1,75.8a1.859,1.859,0,0,1-.9-1.5l1.8,1C509,75.8,508.6,76,508.1,75.8Z"/><path d="M504.8,73.9a1.859,1.859,0,0,1-.9-1.5l1.8,1.1C505.7,73.9,505.3,74.1,504.8,73.9Z"/><path d="M501.5,72a1.859,1.859,0,0,1-.9-1.5l1.8,1.1C502.4,72,502,72.2,501.5,72Z"/><path d="M498.3,70.1a1.859,1.859,0,0,1-.9-1.5l1.8,1.1A.608.608,0,0,1,498.3,70.1Z"/><path d="M495,68.2a2.016,2.016,0,0,1-.9-1.5l1.8,1.1C495.9,68.2,495.5,68.4,495,68.2Z"/><path d="M491.7,66.3a2.016,2.016,0,0,1-.9-1.5l1.8,1.1C492.6,66.3,492.2,66.5,491.7,66.3Z"/><path d="M488.4,64.4a2.016,2.016,0,0,1-.9-1.5l1.8,1.1C489.3,64.4,488.9,64.6,488.4,64.4Z"/><path d="M485.1,62.5a2.016,2.016,0,0,1-.9-1.5l1.8,1A.552.552,0,0,1,485.1,62.5Z"/><path d="M481.8,60.6a2.016,2.016,0,0,1-.9-1.5l1.8,1.1C482.7,60.6,482.3,60.9,481.8,60.6Z"/><path d="M478.5,58.7a2.036,2.036,0,0,1-.9-1.6l1.8,1.1A.552.552,0,0,1,478.5,58.7Z"/><path d="M475.2,56.8a1.7,1.7,0,0,1-.6-.6,2.657,2.657,0,0,1,1.5.1C476.1,56.8,475.7,57,475.2,56.8Z"/><path d="M543.4,98.4a.6.6,0,0,1,.3-.6,7.469,7.469,0,0,1,.3,2A1.974,1.974,0,0,1,543.4,98.4Z"/><path d="M541,98.1a2.036,2.036,0,0,1-.9-1.6c0-.6.4-.8.9-.5a2.036,2.036,0,0,1,.9,1.6A.552.552,0,0,1,541,98.1Z"/><path d="M537.7,96.2a2.036,2.036,0,0,1-.9-1.6c0-.6.4-.8.9-.5a2.036,2.036,0,0,1,.9,1.6A.552.552,0,0,1,537.7,96.2Z"/><path d="M534.4,94.3a2.036,2.036,0,0,1-.9-1.6c0-.6.4-.8.9-.5a2.036,2.036,0,0,1,.9,1.6A.552.552,0,0,1,534.4,94.3Z"/><path d="M531.1,92.4a2.036,2.036,0,0,1-.9-1.6c0-.6.4-.8.9-.5a2.036,2.036,0,0,1,.9,1.6A.552.552,0,0,1,531.1,92.4Z"/><path d="M527.8,90.5a2.036,2.036,0,0,1-.9-1.6c0-.6.4-.8.9-.5a2.036,2.036,0,0,1,.9,1.6C528.8,90.5,528.3,90.8,527.8,90.5Z"/><path d="M524.6,88.6a2.036,2.036,0,0,1-.9-1.6c0-.6.4-.8.9-.5a2.036,2.036,0,0,1,.9,1.6A.552.552,0,0,1,524.6,88.6Z"/><path d="M521.3,86.7a2.036,2.036,0,0,1-.9-1.6c0-.6.4-.8.9-.5a2.036,2.036,0,0,1,.9,1.6A.552.552,0,0,1,521.3,86.7Z"/><path d="M518,84.8a2.036,2.036,0,0,1-.9-1.6c0-.6.4-.8.9-.5a2.036,2.036,0,0,1,.9,1.6A.552.552,0,0,1,518,84.8Z"/><path d="M514.7,82.9a2.036,2.036,0,0,1-.9-1.6c0-.6.4-.8.9-.5a2.036,2.036,0,0,1,.9,1.6A.552.552,0,0,1,514.7,82.9Z"/><path d="M511.4,81a2.036,2.036,0,0,1-.9-1.6c0-.6.4-.8.9-.5a2.036,2.036,0,0,1,.9,1.6A.552.552,0,0,1,511.4,81Z"/><path d="M508.1,79.1a2.036,2.036,0,0,1-.9-1.6c0-.6.4-.8.9-.5a2.036,2.036,0,0,1,.9,1.6A.552.552,0,0,1,508.1,79.1Z"/><path d="M504.8,77.2a2.036,2.036,0,0,1-.9-1.6c0-.6.4-.8.9-.5a2.036,2.036,0,0,1,.9,1.6A.552.552,0,0,1,504.8,77.2Z"/><path d="M501.5,75.3a2.036,2.036,0,0,1-.9-1.6c0-.6.4-.8.9-.5a2.036,2.036,0,0,1,.9,1.6A.552.552,0,0,1,501.5,75.3Z"/><path d="M498.2,73.4a2.036,2.036,0,0,1-.9-1.6c0-.6.4-.8.9-.5a2.036,2.036,0,0,1,.9,1.6C499.2,73.4,498.8,73.7,498.2,73.4Z"/><path d="M495,71.5a2.036,2.036,0,0,1-.9-1.6c0-.6.4-.8.9-.5a2.036,2.036,0,0,1,.9,1.6C495.9,71.6,495.5,71.8,495,71.5Z"/><path d="M491.7,69.6a2.036,2.036,0,0,1-.9-1.6c0-.6.4-.8.9-.5a2.036,2.036,0,0,1,.9,1.6C492.6,69.7,492.2,69.9,491.7,69.6Z"/><path d="M488.4,67.7a2.036,2.036,0,0,1-.9-1.6c0-.6.4-.8.9-.5a2.036,2.036,0,0,1,.9,1.6C489.3,67.8,488.9,68,488.4,67.7Z"/><path d="M485.1,65.8a2.036,2.036,0,0,1-.9-1.6c0-.6.4-.8.9-.5a2.036,2.036,0,0,1,.9,1.6C486,65.9,485.6,66.1,485.1,65.8Z"/><path d="M481.8,63.9a2.036,2.036,0,0,1-.9-1.6c0-.6.4-.8.9-.5a2.036,2.036,0,0,1,.9,1.6C482.7,64,482.3,64.2,481.8,63.9Z"/><path d="M478.5,62a2.036,2.036,0,0,1-.9-1.6c0-.6.4-.8.9-.5a2.036,2.036,0,0,1,.9,1.6C479.4,62.1,479,62.3,478.5,62Z"/><path d="M475.2,60.1a2.036,2.036,0,0,1-.9-1.6c0-.6.4-.8.9-.5a2.036,2.036,0,0,1,.9,1.6C476.1,60.2,475.7,60.4,475.2,60.1Z"/><path d="M543.9,101.1l-.2,1.6a1.613,1.613,0,0,1-.3-.9C543.4,101.3,543.6,101.1,543.9,101.1Z"/><path d="M541,101.4a2.036,2.036,0,0,1-.9-1.6c0-.6.4-.8.9-.5a2.036,2.036,0,0,1,.9,1.6C541.9,101.5,541.5,101.7,541,101.4Z"/><path d="M537.7,99.5a2.036,2.036,0,0,1-.9-1.6c0-.6.4-.8.9-.5a2.036,2.036,0,0,1,.9,1.6C538.6,99.6,538.2,99.8,537.7,99.5Z"/><path d="M534.4,97.6a2.036,2.036,0,0,1-.9-1.6c0-.6.4-.8.9-.5a2.036,2.036,0,0,1,.9,1.6C535.3,97.7,534.9,97.9,534.4,97.6Z"/><path d="M531.1,95.7a2.036,2.036,0,0,1-.9-1.6c0-.6.4-.8.9-.5a2.036,2.036,0,0,1,.9,1.6C532,95.8,531.6,96,531.1,95.7Z"/><path d="M527.8,93.8a2.036,2.036,0,0,1-.9-1.6c0-.6.4-.8.9-.5a2.036,2.036,0,0,1,.9,1.6C528.7,93.9,528.3,94.1,527.8,93.8Z"/><path d="M524.5,91.9a2.036,2.036,0,0,1-.9-1.6c0-.6.4-.8.9-.5a2.036,2.036,0,0,1,.9,1.6C525.5,92,525,92.2,524.5,91.9Z"/><path d="M521.3,90a2.036,2.036,0,0,1-.9-1.6c0-.6.4-.8.9-.5a2.036,2.036,0,0,1,.9,1.6C522.2,90.1,521.8,90.3,521.3,90Z"/><path d="M518,88.1a2.036,2.036,0,0,1-.9-1.6c0-.6.4-.8.9-.5a2.036,2.036,0,0,1,.9,1.6C518.9,88.2,518.5,88.4,518,88.1Z"/><path d="M514.7,86.2a2.036,2.036,0,0,1-.9-1.6c0-.6.4-.8.9-.5a2.036,2.036,0,0,1,.9,1.6C515.6,86.3,515.2,86.5,514.7,86.2Z"/><path d="M511.4,84.3a2.036,2.036,0,0,1-.9-1.6c0-.6.4-.8.9-.5a2.036,2.036,0,0,1,.9,1.6C512.3,84.4,511.9,84.6,511.4,84.3Z"/><path d="M508.1,82.4a2.036,2.036,0,0,1-.9-1.6c0-.6.4-.8.9-.5a2.036,2.036,0,0,1,.9,1.6C509,82.5,508.6,82.7,508.1,82.4Z"/><path d="M504.8,80.5a2.036,2.036,0,0,1-.9-1.6c0-.6.4-.8.9-.5a2.036,2.036,0,0,1,.9,1.6C505.7,80.6,505.3,80.8,504.8,80.5Z"/><path d="M501.5,78.6a2.036,2.036,0,0,1-.9-1.6c0-.6.4-.8.9-.5a2.036,2.036,0,0,1,.9,1.6C502.4,78.7,502,78.9,501.5,78.6Z"/><path d="M498.2,76.7a2.036,2.036,0,0,1-.9-1.6c0-.6.4-.8.9-.5a2.036,2.036,0,0,1,.9,1.6C499.2,76.8,498.7,77,498.2,76.7Z"/><path d="M494.9,74.8a2.036,2.036,0,0,1-.9-1.6c0-.6.4-.8.9-.5a2.036,2.036,0,0,1,.9,1.6C495.9,74.9,495.5,75.1,494.9,74.8Z"/><path d="M491.7,72.9a2.036,2.036,0,0,1-.9-1.6c0-.6.4-.8.9-.5a2.036,2.036,0,0,1,.9,1.6C492.6,73,492.2,73.2,491.7,72.9Z"/><path d="M488.4,71a2.036,2.036,0,0,1-.9-1.6c0-.6.4-.8.9-.5a2.036,2.036,0,0,1,.9,1.6C489.3,71.1,488.9,71.3,488.4,71Z"/><path d="M485.1,69.1a2.036,2.036,0,0,1-.9-1.6c0-.6.4-.8.9-.5a2.036,2.036,0,0,1,.9,1.6C486,69.2,485.6,69.4,485.1,69.1Z"/><path d="M481.8,67.2a2.036,2.036,0,0,1-.9-1.6c0-.6.4-.8.9-.5a2.036,2.036,0,0,1,.9,1.6C482.7,67.3,482.3,67.5,481.8,67.2Z"/><path d="M478.5,65.3a2.036,2.036,0,0,1-.9-1.6c0-.6.4-.8.9-.5a2.036,2.036,0,0,1,.9,1.6C479.4,65.4,479,65.6,478.5,65.3Z"/><path d="M475.2,63.4a2.036,2.036,0,0,1-.9-1.6c0-.6.4-.8.9-.5a2.036,2.036,0,0,1,.9,1.6C476.1,63.5,475.7,63.7,475.2,63.4Z"/><path d="M541,104.7a2.036,2.036,0,0,1-.9-1.6c0-.6.4-.8.9-.5a2.036,2.036,0,0,1,.9,1.6C541.9,104.8,541.5,105,541,104.7Z"/><path d="M537.7,102.8a2.036,2.036,0,0,1-.9-1.6c0-.6.4-.8.9-.5a2.036,2.036,0,0,1,.9,1.6C538.6,102.9,538.2,103.1,537.7,102.8Z"/><path d="M534.4,100.9a2.036,2.036,0,0,1-.9-1.6c0-.6.4-.8.9-.5a2.036,2.036,0,0,1,.9,1.6C535.3,101,534.9,101.2,534.4,100.9Z"/><path d="M531.1,99a2.036,2.036,0,0,1-.9-1.6c0-.6.4-.8.9-.5a2.036,2.036,0,0,1,.9,1.6C532,99.1,531.6,99.3,531.1,99Z"/><path d="M527.8,97.1a2.036,2.036,0,0,1-.9-1.6c0-.6.4-.8.9-.5a2.036,2.036,0,0,1,.9,1.6C528.7,97.2,528.3,97.4,527.8,97.1Z"/><path d="M524.5,95.2a2.036,2.036,0,0,1-.9-1.6c0-.6.4-.8.9-.5a2.036,2.036,0,0,1,.9,1.6C525.4,95.3,525,95.5,524.5,95.2Z"/><path d="M521.2,93.3a2.036,2.036,0,0,1-.9-1.6c0-.6.4-.8.9-.5a2.036,2.036,0,0,1,.9,1.6C522.2,93.4,521.7,93.6,521.2,93.3Z"/><path d="M518,91.4a2.036,2.036,0,0,1-.9-1.6c0-.6.4-.8.9-.5a2.036,2.036,0,0,1,.9,1.6C518.9,91.5,518.5,91.7,518,91.4Z"/><path d="M514.7,89.5a2.036,2.036,0,0,1-.9-1.6c0-.6.4-.8.9-.5a2.036,2.036,0,0,1,.9,1.6C515.6,89.6,515.2,89.8,514.7,89.5Z"/><path d="M511.4,87.7a2.036,2.036,0,0,1-.9-1.6c0-.6.4-.8.9-.5a2.036,2.036,0,0,1,.9,1.6C512.3,87.7,511.9,87.9,511.4,87.7Z"/><path d="M508.1,85.8a2.036,2.036,0,0,1-.9-1.6c0-.6.4-.8.9-.5a2.036,2.036,0,0,1,.9,1.6C509,85.8,508.6,86,508.1,85.8Z"/><path d="M504.8,83.9a2.036,2.036,0,0,1-.9-1.6c0-.6.4-.8.9-.5a2.036,2.036,0,0,1,.9,1.6C505.7,83.9,505.3,84.1,504.8,83.9Z"/><path d="M501.5,82a2.036,2.036,0,0,1-.9-1.6c0-.6.4-.8.9-.5a2.036,2.036,0,0,1,.9,1.6C502.4,82,502,82.2,501.5,82Z"/><path d="M498.2,80.1a2.036,2.036,0,0,1-.9-1.6c0-.6.4-.8.9-.5a2.036,2.036,0,0,1,.9,1.6C499.1,80.1,498.7,80.3,498.2,80.1Z"/><path d="M494.9,78.2a2.036,2.036,0,0,1-.9-1.6c0-.6.4-.8.9-.5a2.036,2.036,0,0,1,.9,1.6C495.9,78.2,495.4,78.5,494.9,78.2Z"/><path d="M491.7,76.3a2.036,2.036,0,0,1-.9-1.6c0-.6.4-.8.9-.5a2.036,2.036,0,0,1,.9,1.6A.552.552,0,0,1,491.7,76.3Z"/><path d="M488.4,74.4a2.036,2.036,0,0,1-.9-1.6c0-.6.4-.8.9-.5a2.036,2.036,0,0,1,.9,1.6A.552.552,0,0,1,488.4,74.4Z"/><path d="M485.1,72.5a2.036,2.036,0,0,1-.9-1.6c0-.6.4-.8.9-.5A2.036,2.036,0,0,1,486,72,.552.552,0,0,1,485.1,72.5Z"/><path d="M481.8,70.6a2.036,2.036,0,0,1-.9-1.6c0-.6.4-.8.9-.5a2.036,2.036,0,0,1,.9,1.6A.552.552,0,0,1,481.8,70.6Z"/><path d="M478.5,68.7a2.036,2.036,0,0,1-.9-1.6c0-.6.4-.8.9-.5a2.036,2.036,0,0,1,.9,1.6A.552.552,0,0,1,478.5,68.7Z"/><path d="M475.2,66.8a2.036,2.036,0,0,1-.9-1.6c0-.6.4-.8.9-.5a2.036,2.036,0,0,1,.9,1.6A.552.552,0,0,1,475.2,66.8Z"/><path d="M541,108.1a2.036,2.036,0,0,1-.9-1.6c0-.6.4-.8.9-.5a2.036,2.036,0,0,1,.9,1.6A.552.552,0,0,1,541,108.1Z"/><path d="M537.7,106.2a2.036,2.036,0,0,1-.9-1.6c0-.6.4-.8.9-.5a2.036,2.036,0,0,1,.9,1.6A.552.552,0,0,1,537.7,106.2Z"/><path d="M534.4,104.3a2.036,2.036,0,0,1-.9-1.6c0-.6.4-.8.9-.5a2.036,2.036,0,0,1,.9,1.6A.552.552,0,0,1,534.4,104.3Z"/><path d="M531.1,102.4a2.036,2.036,0,0,1-.9-1.6c0-.6.4-.8.9-.5a2.036,2.036,0,0,1,.9,1.6C532,102.5,531.6,102.7,531.1,102.4Z"/><path d="M527.8,100.5a2.036,2.036,0,0,1-.9-1.6c0-.6.4-.8.9-.5a2.036,2.036,0,0,1,.9,1.6A.552.552,0,0,1,527.8,100.5Z"/><path d="M524.5,98.6a2.036,2.036,0,0,1-.9-1.6c0-.6.4-.8.9-.5a2.036,2.036,0,0,1,.9,1.6A.552.552,0,0,1,524.5,98.6Z"/><path d="M521.2,96.7a2.036,2.036,0,0,1-.9-1.6c0-.6.4-.8.9-.5a2.036,2.036,0,0,1,.9,1.6A.552.552,0,0,1,521.2,96.7Z"/><path d="M517.9,94.8a2.036,2.036,0,0,1-.9-1.6c0-.6.4-.8.9-.5a2.036,2.036,0,0,1,.9,1.6C518.9,94.8,518.5,95.1,517.9,94.8Z"/><path d="M514.7,92.9a2.036,2.036,0,0,1-.9-1.6c0-.6.4-.8.9-.5a2.036,2.036,0,0,1,.9,1.6C515.6,93,515.2,93.2,514.7,92.9Z"/><path d="M511.4,91a2.036,2.036,0,0,1-.9-1.6c0-.6.4-.8.9-.5a2.036,2.036,0,0,1,.9,1.6A.552.552,0,0,1,511.4,91Z"/><path d="M508.1,89.1a2.036,2.036,0,0,1-.9-1.6c0-.6.4-.8.9-.5a2.036,2.036,0,0,1,.9,1.6A.552.552,0,0,1,508.1,89.1Z"/><path d="M504.8,87.2a2.036,2.036,0,0,1-.9-1.6c0-.6.4-.8.9-.5a2.036,2.036,0,0,1,.9,1.6A.552.552,0,0,1,504.8,87.2Z"/><path d="M501.5,85.3a2.036,2.036,0,0,1-.9-1.6c0-.6.4-.8.9-.5a2.036,2.036,0,0,1,.9,1.6A.552.552,0,0,1,501.5,85.3Z"/><path d="M498.2,83.4a2.036,2.036,0,0,1-.9-1.6c0-.6.4-.8.9-.5a2.036,2.036,0,0,1,.9,1.6A.552.552,0,0,1,498.2,83.4Z"/><path d="M494.9,81.5a2.036,2.036,0,0,1-.9-1.6c0-.6.4-.8.9-.5a2.036,2.036,0,0,1,.9,1.6C495.8,81.6,495.4,81.8,494.9,81.5Z"/><path d="M491.6,79.6a2.036,2.036,0,0,1-.9-1.6c0-.6.4-.8.9-.5a2.036,2.036,0,0,1,.9,1.6C492.6,79.7,492.1,79.9,491.6,79.6Z"/><path d="M488.4,77.7a2.036,2.036,0,0,1-.9-1.6c0-.6.4-.8.9-.5a2.036,2.036,0,0,1,.9,1.6C489.3,77.8,488.9,78,488.4,77.7Z"/><path d="M485.1,75.8a2.036,2.036,0,0,1-.9-1.6c0-.6.4-.8.9-.5a2.036,2.036,0,0,1,.9,1.6C486,75.9,485.6,76.1,485.1,75.8Z"/><path d="M481.8,73.9a2.036,2.036,0,0,1-.9-1.6c0-.6.4-.8.9-.5a2.036,2.036,0,0,1,.9,1.6C482.7,74,482.3,74.2,481.8,73.9Z"/><path d="M478.5,72a2.036,2.036,0,0,1-.9-1.6c0-.6.4-.8.9-.5a2.036,2.036,0,0,1,.9,1.6C479.4,72.1,479,72.3,478.5,72Z"/><path d="M475.2,68a2.036,2.036,0,0,1,.9,1.6c0,.6-.4.8-.9.5a2.361,2.361,0,0,1-.8-.9l-.1-.9C474.4,67.9,474.8,67.8,475.2,68Z"/><path d="M541,111.4a2.036,2.036,0,0,1-.9-1.6c0-.6.4-.8.9-.5a2.036,2.036,0,0,1,.9,1.6C541.9,111.5,541.5,111.7,541,111.4Z"/><path d="M537.7,109.5a2.036,2.036,0,0,1-.9-1.6c0-.6.4-.8.9-.5a2.036,2.036,0,0,1,.9,1.6C538.6,109.6,538.2,109.8,537.7,109.5Z"/><path d="M534.4,107.6a2.036,2.036,0,0,1-.9-1.6c0-.6.4-.8.9-.5a2.036,2.036,0,0,1,.9,1.6C535.3,107.7,534.9,107.9,534.4,107.6Z"/><path d="M531.1,105.7a2.036,2.036,0,0,1-.9-1.6c0-.6.4-.8.9-.5a2.036,2.036,0,0,1,.9,1.6C532,105.8,531.6,106,531.1,105.7Z"/><path d="M527.8,103.8a2.036,2.036,0,0,1-.9-1.6c0-.6.4-.8.9-.5a2.036,2.036,0,0,1,.9,1.6C528.7,103.9,528.3,104.1,527.8,103.8Z"/><path d="M524.5,101.9a2.036,2.036,0,0,1-.9-1.6c0-.6.4-.8.9-.5a2.036,2.036,0,0,1,.9,1.6C525.4,102,525,102.2,524.5,101.9Z"/><path d="M521.2,100a2.036,2.036,0,0,1-.9-1.6c0-.6.4-.8.9-.5a2.036,2.036,0,0,1,.9,1.6C522.1,100.1,521.7,100.3,521.2,100Z"/><path d="M517.9,98.1a2.036,2.036,0,0,1-.9-1.6c0-.6.4-.8.9-.5a2.036,2.036,0,0,1,.9,1.6C518.9,98.2,518.4,98.4,517.9,98.1Z"/><path d="M514.6,96.2a2.036,2.036,0,0,1-.9-1.6c0-.6.4-.8.9-.5a2.036,2.036,0,0,1,.9,1.6C515.6,96.3,515.2,96.5,514.6,96.2Z"/><path d="M511.4,94.3a2.036,2.036,0,0,1-.9-1.6c0-.6.4-.8.9-.5a2.036,2.036,0,0,1,.9,1.6C512.3,94.4,511.9,94.6,511.4,94.3Z"/><path d="M508.1,92.4a2.036,2.036,0,0,1-.9-1.6c0-.6.4-.8.9-.5a2.036,2.036,0,0,1,.9,1.6C509,92.5,508.6,92.7,508.1,92.4Z"/><path d="M504.8,90.5a2.036,2.036,0,0,1-.9-1.6c0-.6.4-.8.9-.5a2.036,2.036,0,0,1,.9,1.6C505.7,90.6,505.3,90.8,504.8,90.5Z"/><path d="M501.5,88.6a2.036,2.036,0,0,1-.9-1.6c0-.6.4-.8.9-.5a2.036,2.036,0,0,1,.9,1.6C502.4,88.7,502,88.9,501.5,88.6Z"/><path d="M498.2,86.7a2.036,2.036,0,0,1-.9-1.6c0-.6.4-.8.9-.5a2.036,2.036,0,0,1,.9,1.6C499.1,86.8,498.7,87,498.2,86.7Z"/><path d="M494.9,84.8a2.036,2.036,0,0,1-.9-1.6c0-.6.4-.8.9-.5a2.036,2.036,0,0,1,.9,1.6C495.8,84.9,495.4,85.1,494.9,84.8Z"/><path d="M491.6,82.9a2.036,2.036,0,0,1-.9-1.6c0-.6.4-.8.9-.5a2.036,2.036,0,0,1,.9,1.6C492.5,83,492.1,83.2,491.6,82.9Z"/><path d="M488.3,81a2.036,2.036,0,0,1-.9-1.6c0-.6.4-.8.9-.5a2.036,2.036,0,0,1,.9,1.6C489.3,81.1,488.8,81.3,488.3,81Z"/><path d="M485.1,79.1a2.036,2.036,0,0,1-.9-1.6c0-.6.4-.8.9-.5a2.036,2.036,0,0,1,.9,1.6C486,79.2,485.6,79.4,485.1,79.1Z"/><path d="M481.8,77.2a2.036,2.036,0,0,1-.9-1.6c0-.6.4-.8.9-.5a2.036,2.036,0,0,1,.9,1.6C482.7,77.3,482.3,77.5,481.8,77.2Z"/><path d="M478.5,75.3a2.036,2.036,0,0,1-.9-1.6c0-.6.4-.8.9-.5a2.036,2.036,0,0,1,.9,1.6C479.4,75.4,479,75.6,478.5,75.3Z"/><path d="M475.2,71.3a2.036,2.036,0,0,1,.9,1.6c0,.6-.4.8-.9.5-.1-.1-.2-.1-.3-.2l-.2-2A1.087,1.087,0,0,1,475.2,71.3Z"/><path d="M540.6,114.4a1.9,1.9,0,0,1-.5-1.3c0-.6.4-.8.9-.5a1.548,1.548,0,0,1,.8,1.1A1.525,1.525,0,0,1,540.6,114.4Z"/><path d="M537.7,112.8a2.036,2.036,0,0,1-.9-1.6c0-.6.4-.8.9-.5a2.036,2.036,0,0,1,.9,1.6C538.6,112.9,538.2,113.1,537.7,112.8Z"/><path d="M534.4,110.9a2.036,2.036,0,0,1-.9-1.6c0-.6.4-.8.9-.5a2.036,2.036,0,0,1,.9,1.6C535.3,111,534.9,111.2,534.4,110.9Z"/><path d="M531.1,109a2.036,2.036,0,0,1-.9-1.6c0-.6.4-.8.9-.5a2.036,2.036,0,0,1,.9,1.6C532,109.1,531.6,109.3,531.1,109Z"/><path d="M527.8,107.1a2.036,2.036,0,0,1-.9-1.6c0-.6.4-.8.9-.5a2.036,2.036,0,0,1,.9,1.6C528.7,107.2,528.3,107.4,527.8,107.1Z"/><path d="M524.5,105.2a2.036,2.036,0,0,1-.9-1.6c0-.6.4-.8.9-.5a2.036,2.036,0,0,1,.9,1.6C525.4,105.3,525,105.5,524.5,105.2Z"/><path d="M521.2,103.3a2.036,2.036,0,0,1-.9-1.6c0-.6.4-.8.9-.5a2.036,2.036,0,0,1,.9,1.6C522.1,103.4,521.7,103.6,521.2,103.3Z"/><path d="M517.9,101.4a2.036,2.036,0,0,1-.9-1.6c0-.6.4-.8.9-.5a2.036,2.036,0,0,1,.9,1.6C518.8,101.5,518.4,101.7,517.9,101.4Z"/><path d="M514.6,99.5a2.036,2.036,0,0,1-.9-1.6c0-.6.4-.8.9-.5a2.036,2.036,0,0,1,.9,1.6C515.6,99.6,515.1,99.8,514.6,99.5Z"/><path d="M511.4,97.7a2.036,2.036,0,0,1-.9-1.6c0-.6.4-.8.9-.5a2.036,2.036,0,0,1,.9,1.6C512.3,97.8,511.9,97.9,511.4,97.7Z"/><path d="M508.1,95.8a2.036,2.036,0,0,1-.9-1.6c0-.6.4-.8.9-.5a2.036,2.036,0,0,1,.9,1.6C509,95.8,508.6,96,508.1,95.8Z"/><path d="M504.8,93.9a2.036,2.036,0,0,1-.9-1.6c0-.6.4-.8.9-.5a2.036,2.036,0,0,1,.9,1.6C505.7,93.9,505.3,94.1,504.8,93.9Z"/><path d="M501.5,92a2.036,2.036,0,0,1-.9-1.6c0-.6.4-.8.9-.5a2.036,2.036,0,0,1,.9,1.6C502.4,92,502,92.2,501.5,92Z"/><path d="M498.2,90.1a2.036,2.036,0,0,1-.9-1.6c0-.6.4-.8.9-.5a2.036,2.036,0,0,1,.9,1.6C499.1,90.1,498.7,90.3,498.2,90.1Z"/><path d="M494.9,88.2a2.036,2.036,0,0,1-.9-1.6c0-.6.4-.8.9-.5a2.036,2.036,0,0,1,.9,1.6A.552.552,0,0,1,494.9,88.2Z"/><path d="M491.6,86.3a2.036,2.036,0,0,1-.9-1.6c0-.6.4-.8.9-.5a2.036,2.036,0,0,1,.9,1.6A.552.552,0,0,1,491.6,86.3Z"/><path d="M488.3,84.4a2.036,2.036,0,0,1-.9-1.6c0-.6.4-.8.9-.5a2.036,2.036,0,0,1,.9,1.6A.552.552,0,0,1,488.3,84.4Z"/><path d="M485,82.5a2.036,2.036,0,0,1-.9-1.6c0-.6.4-.8.9-.5a2.036,2.036,0,0,1,.9,1.6C486,82.5,485.6,82.8,485,82.5Z"/><path d="M481.8,80.6a2.036,2.036,0,0,1-.9-1.6c0-.6.4-.8.9-.5a2.036,2.036,0,0,1,.9,1.6A.552.552,0,0,1,481.8,80.6Z"/><path d="M478.5,78.7a2.036,2.036,0,0,1-.9-1.6c0-.6.4-.8.9-.5a2.036,2.036,0,0,1,.9,1.6A.552.552,0,0,1,478.5,78.7Z"/><path d="M476.1,76.2a.367.367,0,0,1-.1.3,6.632,6.632,0,0,1-.9-1.9A2.2,2.2,0,0,1,476.1,76.2Z"/></g><g clip-path="url(#g)"><path d="M524.1,72.8l2.3-1.3,2.2,1.3-2.2,1.3-2.3-1.3" fill="#bbbdbf"/><path d="M517.7,69.1l2.2-1.3,1.2.6-2.3,1.3-1.1-.6" fill="#bbbdbf"/><path d="M516.2,68.2l2.3-1.3,1.1.7-2.3,1.3-1.1-.7" fill="#bbbdbf"/><path d="M508.8,62.4l3.8.6-2.8,1.6-1-2.2" fill="#bbbdbf"/></g><path d="M131.6,125.8l43.8-24.7,42.5,24.7-43,24.5Z" fill="url(#h)"/><path d="M203.9,89.5v32.6L160.6,97.9V64.6Z" fill="#6a6b70"/><path d="M199.8,121,161.4,99.5l-25.6,13.9,38.4,22.3Z" fill="#eaebed"/><path d="M203.9,122.1,160.6,97.9l-28.9,15.7L175,138.7Z" fill="#eaebed"/><path d="M172.4,125.7a13.588,13.588,0,0,0,12.7,0c3.6-2.1,3.6-5.5,0-7.6a13.588,13.588,0,0,0-12.7,0C168.8,120.2,168.8,123.6,172.4,125.7Z" fill="#242f34"/><path d="M151.2,115a13.588,13.588,0,0,0,12.7,0c3.6-2.1,3.6-5.5,0-7.6a13.588,13.588,0,0,0-12.7,0C147.5,109.5,147.6,112.9,151.2,115Z" fill="#242f34"/><path d="M218.3,122.8l-43.3,25v-9.1l28.9-16.6V89.5L175,106.2V81l43.3-25Z" fill="#9ca6af"/><path d="M175,138.7l-43.3-25.1v9.2l43.3,25Z" fill="#cac5c6"/><path d="M199.8,121v1.1l-25.6,14.8v-1.2Z" fill="#d1d2d4"/><path d="M135.8,113.4l38.4,22.3v1.2l-38.4-22.2Z" fill="#d1d2d4"/><path d="M175,81,131.6,56,175,31l43.3,25Z" fill="#eaebed"/><path d="M175,106.2,131.6,81V56L175,81Z" fill="#cac5c6"/><path d="M160.6,97.9V72.7l-15-8.6v25Z" fill="#242f34"/><path d="M203.9,56,176.5,71.5l-9.9-5.8,27.5-15.5Z" fill="#c8c7ca"/><path d="M182.3,44,154.8,59.4,145,53.7l27.4-15.5Z" fill="#c8c7ca"/><g clip-path="url(#i)"><path d="M153.6,80l4.1,2.4v.7l-4.1-2.4V80" fill="#e6e7e8"/><path d="M153.6,81.4l4.1,2.4v.7l-4.1-2.4v-.7" fill="#e6e7e8"/><path d="M153.6,82.8l4.1,2.4v.7l-4.1-2.4v-.7" fill="#e6e7e8"/><path d="M153.6,84.3l4.1,2.4v.7L153.6,85v-.7" fill="#e6e7e8"/><path d="M153.6,85.7l4.1,2.4v.7l-4.1-2.4v-.7" fill="#e6e7e8"/><path d="M153.6,87.2l4.1,2.4v.7l-4.1-2.4v-.7" fill="#e6e7e8"/><path d="M153.5,88.6l4.2,2.4v.7l-4.2-2.4v-.7" fill="#e6e7e8"/></g><g clip-path="url(#j)"><path d="M155.6,73.5A3.23,3.23,0,0,1,157,76c0,.9-.6,1.3-1.4.8a2.906,2.906,0,0,1-1.4-2.4c0-1,.7-1.3,1.4-.9" fill="#00a2c4"/></g><g clip-path="url(#k)"><path d="M167,84.5a9.819,9.819,0,0,1,4.5,7.8c0,2.8-2,4-4.5,2.5a9.792,9.792,0,0,1-4.5-7.7c0-2.9,2-4.1,4.5-2.6" fill="#0386a2"/></g><g clip-path="url(#l)"><path d="M167,85.6a7.763,7.763,0,0,1,3.5,6.1c0,2.2-1.6,3.1-3.5,2a7.737,7.737,0,0,1-3.5-6c0-2.3,1.5-3.2,3.5-2.1" fill="#00a2c4"/></g><g clip-path="url(#m)"><path d="M135.3,76.1l6.8,3.9v4l-6.8-3.9v-4" fill="#00a2c4"/></g><g clip-path="url(#n)"><path d="M192.7,52.2a1.083,1.083,0,0,1,1.1,0l6.4,3.7c.3.2.3.5,0,.6a1.083,1.083,0,0,1-1.1,0l-6.4-3.7c-.3-.2-.3-.5,0-.6" fill="#b0b0b2"/><path d="M190.7,53.3a1.083,1.083,0,0,1,1.1,0l6.4,3.7c.3.2.3.5,0,.6a1.083,1.083,0,0,1-1.1,0l-6.4-3.7c-.3-.1-.3-.4,0-.6" fill="#b0b0b2"/><path d="M188.7,54.5a1.083,1.083,0,0,1,1.1,0l6.4,3.7c.3.2.3.5,0,.6a1.083,1.083,0,0,1-1.1,0l-6.4-3.7c-.3-.1-.3-.4,0-.6" fill="#b0b0b2"/><path d="M186.6,55.7a1.083,1.083,0,0,1,1.1,0l6.4,3.7c.3.2.3.5,0,.6a1.083,1.083,0,0,1-1.1,0l-6.4-3.7c-.3-.1-.3-.4,0-.6" fill="#b0b0b2"/><path d="M184.6,56.9a1.083,1.083,0,0,1,1.1,0l6.4,3.7c.3.2.3.5,0,.6a1.083,1.083,0,0,1-1.1,0l-6.4-3.7q-.45-.3,0-.6" fill="#b0b0b2"/><path d="M182.5,58.1a1.083,1.083,0,0,1,1.1,0l6.4,3.7c.3.2.3.5,0,.6a1.083,1.083,0,0,1-1.1,0l-6.4-3.7c-.3-.2-.3-.5,0-.6" fill="#b0b0b2"/><path d="M180.5,59.2a1.083,1.083,0,0,1,1.1,0L188,63c.3.2.3.5,0,.6a1.083,1.083,0,0,1-1.1,0l-6.4-3.7a.385.385,0,0,1,0-.7" fill="#b0b0b2"/><path d="M178.5,60.4a1.083,1.083,0,0,1,1.1,0l6.4,3.7c.3.2.3.5,0,.6a1.083,1.083,0,0,1-1.1,0L178.5,61c-.4-.1-.4-.4,0-.6" fill="#b0b0b2"/><path d="M176.4,61.6a1.083,1.083,0,0,1,1.1,0l6.4,3.7c.3.2.3.5,0,.6a1.083,1.083,0,0,1-1.1,0l-6.4-3.7q-.45-.3,0-.6" fill="#b0b0b2"/><path d="M174.4,62.8a1.083,1.083,0,0,1,1.1,0l6.4,3.7c.3.2.3.5,0,.6a1.083,1.083,0,0,1-1.1,0l-6.4-3.7c-.3-.2-.3-.5,0-.6" fill="#b0b0b2"/><path d="M172.3,63.9a1.083,1.083,0,0,1,1.1,0l6.4,3.7c.3.2.3.5,0,.6a1.083,1.083,0,0,1-1.1,0l-6.4-3.7c-.3-.1-.3-.4,0-.6" fill="#b0b0b2"/><path d="M170.3,65.1a1.083,1.083,0,0,1,1.1,0l6.4,3.7c.3.2.3.5,0,.6a1.083,1.083,0,0,1-1.1,0l-6.4-3.7c-.3-.1-.3-.4,0-.6" fill="#b0b0b2"/></g><g clip-path="url(#o)"><path d="M171.1,40.2a1.083,1.083,0,0,1,1.1,0l6.4,3.7c.3.2.3.5,0,.6a1.083,1.083,0,0,1-1.1,0l-6.4-3.7c-.3-.2-.3-.5,0-.6" fill="#b0b0b2"/><path d="M169,41.3a1.083,1.083,0,0,1,1.1,0l6.4,3.7c.3.2.3.5,0,.6a1.083,1.083,0,0,1-1.1,0L169,42a.385.385,0,0,1,0-.7" fill="#b0b0b2"/><path d="M167,42.5a1.083,1.083,0,0,1,1.1,0l6.4,3.7c.3.2.3.5,0,.6a1.083,1.083,0,0,1-1.1,0L167,43.1c-.3-.1-.3-.4,0-.6" fill="#b0b0b2"/><path d="M165,43.7a1.083,1.083,0,0,1,1.1,0l6.4,3.7c.3.2.3.5,0,.6a1.083,1.083,0,0,1-1.1,0L165,44.3c-.4-.2-.3-.4,0-.6" fill="#b0b0b2"/><path d="M162.9,44.9a1.083,1.083,0,0,1,1.1,0l6.4,3.7c.3.2.3.5,0,.6a1.083,1.083,0,0,1-1.1,0l-6.4-3.7c-.3-.2-.3-.5,0-.6" fill="#b0b0b2"/><path d="M160.9,46a1.083,1.083,0,0,1,1.1,0l6.4,3.7c.3.2.3.5,0,.6a1.083,1.083,0,0,1-1.1,0l-6.4-3.7c-.3-.1-.3-.4,0-.6" fill="#b0b0b2"/><path d="M158.8,47.2a1.083,1.083,0,0,1,1.1,0l6.4,3.7c.3.2.3.5,0,.6a1.083,1.083,0,0,1-1.1,0l-6.4-3.7c-.3-.1-.3-.4,0-.6" fill="#b0b0b2"/><path d="M156.8,48.4a1.083,1.083,0,0,1,1.1,0l6.4,3.7c.3.2.3.5,0,.6a1.083,1.083,0,0,1-1.1,0L156.8,49c-.3-.1-.3-.4,0-.6" fill="#b0b0b2"/><path d="M154.8,49.6a1.083,1.083,0,0,1,1.1,0l6.4,3.7c.3.2.3.5,0,.6a1.083,1.083,0,0,1-1.1,0l-6.4-3.7q-.45-.3,0-.6" fill="#b0b0b2"/><path d="M152.7,50.8a1.083,1.083,0,0,1,1.1,0l6.4,3.7c.3.2.3.5,0,.6a1.083,1.083,0,0,1-1.1,0l-6.4-3.7c-.3-.2-.3-.5,0-.6" fill="#b0b0b2"/><path d="M150.7,51.9a1.083,1.083,0,0,1,1.1,0l6.4,3.7c.3.2.3.5,0,.6a1.083,1.083,0,0,1-1.1,0l-6.4-3.7c-.3-.1-.3-.4,0-.6" fill="#b0b0b2"/><path d="M148.6,53.1a1.083,1.083,0,0,1,1.1,0l6.4,3.7c.3.2.3.5,0,.6a1.083,1.083,0,0,1-1.1,0l-6.4-3.7c-.3-.1-.3-.4,0-.6" fill="#b0b0b2"/></g><path d="M585.3,260.5l44-25.6,51,29.1-43.2,25.4Z" fill="url(#p)"/><path d="M680.6,135.9h0v-.4h0V135h0v-.5h0v-.2a1243462022764.421,1243462022764.421,0,0,1-.2-.2h0c0-.1-.1-.1-.1-.2s-.1-.1-.1-.2h0l-.1-.1a355274863646.684,355274863646.684,0,0,1-.2-.2.1.1,0,0,0-.1-.1h0l-.1-.1-.1-.1-.1-.1a.1.1,0,0,1-.1-.1h0a1243462022283.8,1243462022283.8,0,0,0-.2-.2.1.1,0,0,1-.1-.1H679l-49-27.9h-1a.1.1,0,0,0-.1.1L592.4,126a.1.1,0,0,0,.1-.1h.7c.1,0,.1,0,.2.1h0c.1,0,.1.1.2.1l48.8,28.2a1.38,1.38,0,0,0,.4.3h0l.3.3h0a1.381,1.381,0,0,1,.3.4h0c.1.1.2.3.3.4h0a.758.758,0,0,1,.2.4h0c.1.1.1.3.2.5h0c0,.2.1.3.1.5h0v.4l-.4,124.7v.4h0c0,.1-.1.2-.1.3h0a.349.349,0,0,1-.1.2l-.1.1-.2.2,36.5-21.2c.1,0,.1-.1.2-.2l.1-.1a497384809009.191,497384809009.191,0,0,1,.2-.2h0v-.3h0V261h0l.3-125.1Z" fill="#c5c7c9"/><path d="M643,154.6h0a1.381,1.381,0,0,1,.3.4h0c.1.1.2.3.3.4h0a.758.758,0,0,1,.2.4h0c.1.1.1.3.2.5h0c0,.2.1.3.1.5h0v.4L680.6,136v-.5h0V135h0v-.5h0v-.2a828974681843.065,828974681843.065,0,0,0-.2-.2h0c0-.1-.1-.1-.1-.2s-.1-.1-.1-.2h0l-.1-.1a3730386067331.88,3730386067331.88,0,0,0-.3-.3h0l-.1-.1-.1-.1-.1-.1a.1.1,0,0,1-.1-.1h0a1243462022284.626,1243462022284.626,0,0,0-.3-.3H679l-36.5,21.2a1.38,1.38,0,0,0,.4.3h0A.4.4,0,0,0,643,154.6Z" opacity="0.3" fill="url(#q)"/><path d="M642.3,154.1a4.073,4.073,0,0,1,1.8,3.2L643.7,282c0,1.2-.8,1.6-1.9,1.1L593,254.9a4.073,4.073,0,0,1-1.8-3.2l.4-124.7c0-1.2.8-1.6,1.9-1.1Z" fill="#9c9ea1"/><path d="M587.5,128.5l-1.2.7h0a1.364,1.364,0,0,0-.5,1.2l-.4,124.7a4.073,4.073,0,0,0,1.8,3.2L636,286.5a1.245,1.245,0,0,0,1.3.1h0l.7-.4,1.5-128.9Z" fill="#f0f1f2"/><path d="M605.9,180.5l15.5,8.9v9.2l-15.5-9v-9.1" fill="#24c7dd"/><path d="M606.7,189.2v-8.3l-.8-.4v9.1l15.5,9v-.9Z" fill="#04a0b5"/><path d="M608.4,194.1a2.906,2.906,0,0,1,1.4,2.4c0,.9-.6,1.2-1.4.8a2.906,2.906,0,0,1-1.4-2.4.884.884,0,0,1,1.4-.8" fill="#404041"/><path d="M613.6,197.2a2.906,2.906,0,0,1,1.4,2.4c0,.9-.6,1.2-1.4.8a2.906,2.906,0,0,1-1.4-2.4c.1-.9.7-1.2,1.4-.8" fill="#404041"/><path d="M618.9,199.9a2.906,2.906,0,0,1,1.4,2.4c0,.9-.6,1.2-1.4.8a2.906,2.906,0,0,1-1.4-2.4c0-.9.6-1.2,1.4-.8" fill="#404041"/><path d="M642.6,158.1h0v-.4h0v-.5h0v-.5h0v-.2a310865505573.8,310865505573.8,0,0,1-.2-.2h0c0-.1-.1-.1-.1-.2s-.1-.1-.1-.2h0l-.1-.1a828974681531.278,828974681531.278,0,0,1-.2-.2.1.1,0,0,0-.1-.1h0l-.1-.1-.1-.1-.1-.1a.1.1,0,0,1-.1-.1h0a310865505687.747,310865505687.747,0,0,0-.2-.2.1.1,0,0,1-.1-.1H641l-49-28h-1a.1.1,0,0,0-.1.1l-4.4,2.5a.1.1,0,0,0,.1-.1h.7c.1,0,.1,0,.2.1h0c.1,0,.1.1.2.1l48.8,28.2a1.38,1.38,0,0,0,.4.3h0l.3.3h0a1.381,1.381,0,0,1,.3.4h0c.1.1.2.3.3.4h0a.758.758,0,0,1,.2.4h0c.1.1.1.3.2.5h0c0,.2.1.3.1.5h0v.4l-.4,124.7v.4h0c0,.1-.1.2-.1.3h0c0,.1-.1.1-.1.2l-.1.1-.2.2h0l4.4-2.5c.1,0,.1-.1.2-.2l.1-.1a248692404505.056,248692404505.056,0,0,0,.2-.2h0v-.3h0v-.4h0l.3-125Z" fill="#c5c7c9"/><path d="M637.1,158.1h0a1.381,1.381,0,0,1,.3.4h0c.1.1.2.3.3.4h0a.758.758,0,0,1,.2.4h0c.1.1.1.3.2.5h0c0,.2.1.3.1.5h0v.4l4.4-2.5v-.5h0v-.5h0v-.5h0v-.2a2486924044139.73,2486924044139.73,0,0,1-.2-.2h0c0-.1-.1-.1-.1-.2s-.1-.1-.1-.2h0l-.1-.1a932596516666.393,932596516666.393,0,0,0-.3-.3h0l-.1-.1-.1-.1-.1-.1a.1.1,0,0,1-.1-.1h0a746077213514.884,746077213514.884,0,0,0-.3-.3H641l-4.4,2.5a1.38,1.38,0,0,0,.4.3h0A.4.4,0,0,0,637.1,158.1Z" opacity="0.5" fill="url(#r)"/><path d="M633.4,272.1l-2.9-1.7-1.6.9a.367.367,0,0,1-.3.1h-.1c-.1,0-.1,0-.2.1h-.8a.1.1,0,0,1-.1-.1h0l2.9,1.7h0a.1.1,0,0,1,.1.1h.8a.31.31,0,0,0,.2-.1h.1c.1,0,.2-.1.3-.1Z" fill="#b5b5b5"/><path d="M627.7,168.7V168c0-.1,0-.1.1-.2v-.1c0-.1.1-.2.1-.3h0a.349.349,0,0,1,.1-.2v-.1a.349.349,0,0,1,.1-.2h0c.1-.1.1-.2.2-.3v-.1c0-.1.1-.1.1-.2a331589872673.148,331589872673.148,0,0,0,.2-.2l.1-.1.1-.1.2-.2.1-.1a1.38,1.38,0,0,1,.4-.3l.1-.1c.1-.1.3-.2.4-.3l2.9-1.7-2.9-1.7-2.9,1.7c-.1.1-.3.2-.4.3l-.1.1a1.38,1.38,0,0,1-.4.3h0l-.1.1-.2.2-.1.1v.1l-.1.1a.1.1,0,0,1-.1.1l-.1.1a.1.1,0,0,1-.1.1v.1l-.1.1-.1.1h0c0,.1-.1.1-.1.2h0c0,.1-.1.1-.1.2v.3c0,.1-.1.1-.1.2h0a.349.349,0,0,1-.1.2h0v.7h0v1l.3,103.5a2.729,2.729,0,0,0,1.1,2.5l2.9,1.7a2.729,2.729,0,0,1-1.1-2.5l-.3-103.5v-.5C627.6,168.8,627.6,168.8,627.7,168.7Z" fill="#c5c7c9"/><path d="M633.1,163.2v2l-2.5,1.5a2.57,2.57,0,0,0-1.2,2.1l.3,103c0,1.4,1,1.9,2.2,1.2l1.6-.9v2l-1.6.9c-2.2,1.2-3.9.2-3.9-2.2l-.3-103.5a6.055,6.055,0,0,1,2.6-4.5Z" fill="#a6a8ab"/><path d="M588,129.6s.8.4,2.1,1.2c1.3.7,3.2,1.8,5.5,3.1s4.9,2.8,7.7,4.4,5.8,3.3,8.8,5.1c3,1.7,6,3.5,8.8,5.1s5.4,3.2,7.6,4.5,4.1,2.4,5.4,3.2,2,1.2,2,1.2-.8-.4-2.1-1.2c-1.3-.7-3.2-1.8-5.5-3.1s-4.9-2.8-7.7-4.4-5.8-3.3-8.8-5.1c-3-1.7-6-3.5-8.8-5.1s-5.4-3.2-7.6-4.5-4.1-2.4-5.4-3.2A20.782,20.782,0,0,0,588,129.6Z" fill="#fff" opacity="0.5"/><path d="M638.2,161.5s0,7.6.1,19.1v42c-.1,15.3-.2,30.5-.2,42-.1,11.4-.2,19.1-.2,19.1s0-7.6-.1-19.1v-42c.1-15.3.2-30.5.2-42C638.2,169.1,638.2,161.5,638.2,161.5Z" fill="#fff" opacity="0.5"/><path d="M631.6,164s-.4.2-1.1.6a5.16,5.16,0,0,0-2.3,2.5,4.709,4.709,0,0,0-.5,2.4v2.9c0,2.1,0,4.5.1,7,.1,10.3.1,24,.2,37.7v50.1c0-3-.1-7.3-.1-12.4-.1-10.3-.1-24-.2-37.7V169.5a4.751,4.751,0,0,1,.6-2.4,5.776,5.776,0,0,1,2.4-2.5A5.671,5.671,0,0,1,631.6,164Z" fill="#fff" opacity="0.5"/><path d="M316.6,145,348,126.4l61.8,35.3-30.6,18.4Z" fill="url(#s)"/><path d="M408.2,158.8v2l-29.3,17.1v-2.4Z" fill="#666769"/><path d="M378.9,177.9l-61-34.8v-2.3l61,34.7Z" fill="#828284"/><path d="M410,113.7v45l-31.1,17.9V131.7Z" fill="#9ca6af"/><path d="M347.8,77.7l62.2,36-31.1,18-62.3-36Z" fill="#edeef0"/><path d="M378.9,176.6l-62.3-35.7V95.7l62.3,36Z" fill="#cac5c6"/><path d="M316.6,95.7,365.5,124v44.9l-48.9-28Z" fill="url(#t)"/><path d="M320.6,98v41.1l44.9,25.3v4.5l-48.9-28V95.7Z" fill="url(#u)"/><path d="M363,128.8v29.7l-1.3.8v-30Z" fill="#505658"/><path d="M359.2,128l2.5,1.3v30l-2.5-1.4Z" fill="#63696d"/><path d="M363,128.8l-2.5-1.5-1.3.7,2.5,1.3Z" fill="#757c80"/><g clip-path="url(#v)"><path d="M367.7,129.3l8.1,4.7v4.9l-8.1-4.7v-4.9" fill="#00a5c4"/></g><g clip-path="url(#w)"><path d="M375.3,139.5l-6.8,3.9v1.8l6.8-4v-1.7" fill="#9e9d9f"/><path d="M375.3,142.9l-6.8,4v1.8l6.9-4-.1-1.8" fill="#9e9d9f"/><path d="M375.4,146.3l-6.9,4v1.8l6.9-4v-1.8" fill="#9e9d9f"/><path d="M375.4,149.8l-6.9,3.9v1.8l6.9-3.9v-1.8" fill="#9e9d9f"/><path d="M375.4,153.2l-6.9,4V159l6.9-4v-1.8" fill="#9e9d9f"/><path d="M375.4,156.7l-6.9,3.9v1.8l6.9-4v-1.7" fill="#9e9d9f"/></g><path d="M73.5,262.3,114,238.8l46,26.6-40.5,23.5Z" fill="url(#x)"/><path d="M119.6,227.9,160,204.4l-.1,57.7-40.5,23.5Z" fill="#9ca6af"/><path d="M73.5,201.3,114,177.8l46,26.6-40.4,23.5Z" fill="#7d8891"/><path d="M119.6,227.9l-.2,57.7L73.4,259l.1-57.7Z" fill="#eaebed"/><path d="M119.5,213,160,189.5l-.1,13.3-40.4,23.5Z" fill="#9ca6af"/><path d="M73.5,186.5,114,162.9l46,26.6L119.5,213Z" fill="#c5c7c9"/><path d="M119.5,213v13.3L73.4,199.7l.1-13.2Z" fill="#eaebed"/><path d="M104.8,262.1l.6-.3,2.3-1.3-.6.3c-.1,0-.1.1-.2.1-.1.1-.3.1-.4.2-.1,0-.2.1-.3.1s-.1,0-.2.1c-.1,0-.3.1-.4.1h-.2c-.2,0-.5.1-.7.1H102a.6.6,0,0,1-.4-.1.367.367,0,0,1-.3-.1c-.1,0-.3-.1-.4-.1a.367.367,0,0,1-.3-.1c-.1,0-.3-.1-.4-.1s-.1,0-.2-.1a1.421,1.421,0,0,0-.6-.2h0a4.872,4.872,0,0,0-.7-.3c-.1,0-.1-.1-.2-.1-.2-.1-.3-.2-.5-.2a.349.349,0,0,1-.2-.1,2.092,2.092,0,0,1-.6-.4c-.2-.1-.5-.3-.7-.4h0a3.039,3.039,0,0,1-.7-.5c-.1-.1-.2-.1-.2-.2-.2-.1-.3-.2-.5-.3-.1-.1-.2-.1-.3-.2s-.3-.2-.4-.3-.2-.2-.3-.2c-.1-.1-.3-.2-.4-.3l-.3-.3c-.1-.1-.3-.2-.4-.3l-.3-.3c-.1-.1-.3-.2-.4-.4l-.3-.3-.4-.4c-.1-.1-.2-.2-.2-.3a1.756,1.756,0,0,1-.4-.5l-.2-.2c-.2-.2-.4-.5-.6-.7l-.1-.1c-.2-.2-.3-.4-.5-.6a3.039,3.039,0,0,1-.5-.7L89,252a8.342,8.342,0,0,1-.8-1.2c0-.1-.1-.1-.1-.2-.3-.5-.7-1-1-1.6,0-.1-.1-.1-.1-.2a10.909,10.909,0,0,0-.6-1.1c-.1-.1-.1-.3-.2-.4a.758.758,0,0,1-.2-.4l-.3-.6c0-.1-.1-.1-.1-.2-.1-.3-.3-.5-.4-.8,0-.1-.1-.1-.1-.2l-.3-.6c0-.1-.1-.2-.1-.3a1.421,1.421,0,0,1-.2-.6c0-.1-.1-.2-.1-.3-.1-.2-.2-.5-.3-.7v-.1a6.888,6.888,0,0,0-.3-.8c0-.1-.1-.2-.1-.3-.1-.2-.1-.4-.2-.6,0-.1-.1-.2-.1-.3a4.332,4.332,0,0,0-.1-.5c0-.1-.1-.2-.1-.3,0-.2-.1-.4-.1-.6a.367.367,0,0,0-.1-.3c0-.2-.1-.5-.1-.7V238c0-.3-.1-.6-.1-.8V237a1.268,1.268,0,0,0-.1-.6v-3.8c0-.2,0-.3.1-.4v-.3a.6.6,0,0,1,.1-.4.756.756,0,0,1,.1-.4c0-.1.1-.2.1-.3s.1-.3.1-.4.1-.2.1-.3c0-.2.1-.3.2-.5a.349.349,0,0,1,.1-.2,4.874,4.874,0,0,1,.3-.7,2.186,2.186,0,0,1,.3-.5v-.1a1.38,1.38,0,0,1,.3-.4c.2-.2.3-.5.5-.7a.1.1,0,0,1,.1-.1c.2-.2.3-.4.5-.6h0a2.652,2.652,0,0,1,.6-.5l.1-.1a2.092,2.092,0,0,1,.6-.4h0l-2.3,1.3c-.2.1-.4.3-.6.4a.1.1,0,0,0-.1.1c-.2.2-.4.3-.6.5h0c-.2.2-.3.4-.5.6l-.1.1a4.233,4.233,0,0,0-.5.7h0c-.1.1-.2.3-.3.4v.1c-.1.2-.2.3-.3.5h0c-.1.2-.2.5-.3.7v.1c0,.1,0,.1-.1.2-.1.2-.1.3-.2.5v.3c0,.1-.1.3-.1.4v.4a.756.756,0,0,1-.1.4v3h0v2.8c0,.2.1.5.1.7h0v.1c0,.2.1.4.1.6v.1a.367.367,0,0,0,.1.3.756.756,0,0,0,.1.4v.2a.367.367,0,0,0,.1.3c0,.1,0,.2.1.2,0,.1.1.2.1.3s.1.2.1.3v.2c0,.1.1.3.1.4s.1.2.1.3v.1a2.354,2.354,0,0,1,.2.8h0v.1c.1.2.1.4.2.6v.1c0,.1.1.2.1.3s.1.2.1.3a.349.349,0,0,0,.1.2c0,.1.1.2.1.3s.1.1.1.2c.1.1.1.3.2.4,0,.1.1.1.1.2v.1c.1.2.2.5.3.7h0c0,.1.1.1.1.2a2.186,2.186,0,0,0,.3.5v.1a.758.758,0,0,1,.2.4c.1.1.1.2.2.4v.1a10.909,10.909,0,0,0,.6,1.1,248777795709.83,248777795709.83,0,0,1,.2.2,14,14,0,0,0,1,1.6.1.1,0,0,0,.1.1l.1.1c.3.4.5.8.8,1.2h0l.1.1a3.039,3.039,0,0,1,.5.7h0a2.182,2.182,0,0,0,.4.5c0,.1.1.1.1.2h0a4.349,4.349,0,0,1,.6.7h0l.2.2.4.4.1.1.3.3.3.3.1.1.3.3.2.2.1.1.3.3.2.2c.1,0,.1.1.2.1l.3.3.2.2.2.2c.1.1.2.2.3.2s.1.1.2.1c.1.1.2.1.3.2s.2.1.3.2l.1.1c.1.1.2.2.3.2.1.1.2.1.2.2h.1c.2.1.4.3.6.4h0a2.092,2.092,0,0,1,.6.4l.1.1c.2.1.3.2.5.3.1,0,.1.1.2.1a.349.349,0,0,1,.2.1c.1,0,.1.1.2.1s.2.1.3.1.1.1.2.1h.1a1.421,1.421,0,0,0,.6.2h0c.2.1.4.1.6.2h.1c.1,0,.1,0,.2.1.1,0,.2.1.3.1h.2a.367.367,0,0,1,.3.1c.1,0,.1,0,.2.1h.2a.367.367,0,0,1,.3.1h2.9c.2,0,.5-.1.7-.1h.2c.1,0,.3-.1.4-.1s.1,0,.2-.1c.1,0,.2-.1.3-.1h.1a.758.758,0,0,0,.4-.2C104.6,262.2,104.7,262.2,104.8,262.1Z" fill="#858786"/><path d="M104.8,262.1l.6-.3,2.3-1.3-.6.3c-.1,0-.1.1-.2.1-.1.1-.3.1-.4.2-.1,0-.2.1-.3.1s-.1,0-.2.1c-.1,0-.3.1-.4.1h-.2c-.2,0-.5.1-.7.1H102a.6.6,0,0,1-.4-.1.367.367,0,0,1-.3-.1c-.1,0-.3-.1-.4-.1a.367.367,0,0,1-.3-.1c-.1,0-.3-.1-.4-.1s-.1,0-.2-.1a1.421,1.421,0,0,0-.6-.2h0a4.872,4.872,0,0,0-.7-.3c-.1,0-.1-.1-.2-.1-.2-.1-.3-.2-.5-.2a.349.349,0,0,1-.2-.1,2.092,2.092,0,0,1-.6-.4c-.2-.1-.5-.3-.7-.4h0a3.039,3.039,0,0,1-.7-.5c-.1-.1-.2-.1-.2-.2-.2-.1-.3-.2-.5-.3-.1-.1-.2-.1-.3-.2s-.3-.2-.4-.3-.2-.2-.3-.2c-.1-.1-.3-.2-.4-.3l-.3-.3c-.1-.1-.3-.2-.4-.3l-.3-.3c-.1-.1-.3-.2-.4-.4l-.3-.3-.4-.4c-.1-.1-.2-.2-.2-.3a1.756,1.756,0,0,1-.4-.5l-.2-.2c-.2-.2-.4-.5-.6-.7l-.1-.1c-.2-.2-.3-.4-.5-.6a3.039,3.039,0,0,1-.5-.7L89,252a8.342,8.342,0,0,1-.8-1.2c0-.1-.1-.1-.1-.2-.3-.5-.7-1-1-1.6,0-.1-.1-.1-.1-.2a10.909,10.909,0,0,0-.6-1.1c-.1-.1-.1-.3-.2-.4a.758.758,0,0,1-.2-.4l-.3-.6c0-.1-.1-.1-.1-.2-.1-.3-.3-.5-.4-.8,0-.1-.1-.1-.1-.2l-.3-.6c0-.1-.1-.2-.1-.3a1.421,1.421,0,0,1-.2-.6c0-.1-.1-.2-.1-.3-.1-.2-.2-.5-.3-.7v-.1a6.888,6.888,0,0,0-.3-.8c0-.1-.1-.2-.1-.3-.1-.2-.1-.4-.2-.6,0-.1-.1-.2-.1-.3a4.332,4.332,0,0,0-.1-.5c0-.1-.1-.2-.1-.3,0-.2-.1-.4-.1-.6a.367.367,0,0,0-.1-.3c0-.2-.1-.5-.1-.7V238c0-.3-.1-.6-.1-.8V237a1.268,1.268,0,0,0-.1-.6v-3.8c0-.2,0-.3.1-.4v-.3a.6.6,0,0,1,.1-.4.756.756,0,0,1,.1-.4c0-.1.1-.2.1-.3s.1-.3.1-.4.1-.2.1-.3c0-.2.1-.3.2-.5a.349.349,0,0,1,.1-.2,4.874,4.874,0,0,1,.3-.7,2.186,2.186,0,0,1,.3-.5v-.1a1.38,1.38,0,0,1,.3-.4c.2-.2.3-.5.5-.7a.1.1,0,0,1,.1-.1c.2-.2.3-.4.5-.6h0a2.652,2.652,0,0,1,.6-.5l.1-.1a2.092,2.092,0,0,1,.6-.4h0l-2.3,1.3c-.2.1-.4.3-.6.4a.1.1,0,0,0-.1.1c-.2.2-.4.3-.6.5h0c-.2.2-.3.4-.5.6l-.1.1a4.233,4.233,0,0,0-.5.7h0c-.1.1-.2.3-.3.4v.1c-.1.2-.2.3-.3.5h0c-.1.2-.2.5-.3.7v.1c0,.1,0,.1-.1.2-.1.2-.1.3-.2.5v.3c0,.1-.1.3-.1.4v.4a.756.756,0,0,1-.1.4v3h0v2.8c0,.2.1.5.1.7h0v.1c0,.2.1.4.1.6v.1a.367.367,0,0,0,.1.3.756.756,0,0,0,.1.4v.2a.367.367,0,0,0,.1.3c0,.1,0,.2.1.2,0,.1.1.2.1.3s.1.2.1.3v.2c0,.1.1.3.1.4s.1.2.1.3v.1a2.354,2.354,0,0,1,.2.8h0v.1c.1.2.1.4.2.6v.1c0,.1.1.2.1.3s.1.2.1.3a.349.349,0,0,0,.1.2c0,.1.1.2.1.3s.1.1.1.2c.1.1.1.3.2.4,0,.1.1.1.1.2v.1c.1.2.2.5.3.7h0c0,.1.1.1.1.2a2.186,2.186,0,0,0,.3.5v.1a.758.758,0,0,1,.2.4c.1.1.1.2.2.4v.1a10.909,10.909,0,0,0,.6,1.1,248777795709.83,248777795709.83,0,0,1,.2.2,14,14,0,0,0,1,1.6.1.1,0,0,0,.1.1l.1.1c.3.4.5.8.8,1.2h0l.1.1a3.039,3.039,0,0,1,.5.7h0a2.182,2.182,0,0,0,.4.5c0,.1.1.1.1.2h0a4.349,4.349,0,0,1,.6.7h0l.2.2.4.4.1.1.3.3.3.3.1.1.3.3.2.2.1.1.3.3.2.2c.1,0,.1.1.2.1l.3.3.2.2.2.2c.1.1.2.2.3.2s.1.1.2.1c.1.1.2.1.3.2s.2.1.3.2l.1.1c.1.1.2.2.3.2.1.1.2.1.2.2h.1c.2.1.4.3.6.4h0a2.092,2.092,0,0,1,.6.4l.1.1c.2.1.3.2.5.3.1,0,.1.1.2.1a.349.349,0,0,1,.2.1c.1,0,.1.1.2.1s.2.1.3.1.1.1.2.1h.1a1.421,1.421,0,0,0,.6.2h0c.2.1.4.1.6.2h.1c.1,0,.1,0,.2.1.1,0,.2.1.3.1h.2a.367.367,0,0,1,.3.1c.1,0,.1,0,.2.1h.2a.367.367,0,0,1,.3.1h2.9c.2,0,.5-.1.7-.1h.2c.1,0,.3-.1.4-.1s.1,0,.2-.1c.1,0,.2-.1.3-.1h.1a.758.758,0,0,0,.4-.2C104.6,262.2,104.7,262.2,104.8,262.1Z" fill="#9e9d9f"/><path d="M96.2,226.4c8.2,4.7,14.8,16.2,14.8,25.6s-6.7,13.2-14.9,8.5-14.8-16.2-14.8-25.6S88,221.7,96.2,226.4Z" fill="#7dc9c6"/><path d="M96.2,226.4c8.2,4.7,14.8,16.2,14.8,25.6s-6.7,13.2-14.9,8.5-14.8-16.2-14.8-25.6S88,221.7,96.2,226.4Z" fill="url(#y)"/><g clip-path="url(#z)"><path d="M84.5,226l2.3-1.3,1.2-.6-2.3,1.3a6.659,6.659,0,0,0-1.2.6Z" fill="#313033"/><path d="M85.7,225.4l2.3-1.3c.3-.1.7-.2,1-.3l-2.3,1.3c-.4.1-.7.2-1,.3Z" fill="#313033"/><path d="M86.7,225.1l2.3-1.3a2.768,2.768,0,0,1,.9-.1L87.6,225c-.4,0-.6.1-.9.1Z" fill="#313033"/><path d="M87.5,225l2.3-1.3h.8L88.3,225Z" fill="#313033"/><path d="M88.3,225l2.3-1.3h.7L89,225Z" fill="#313033"/><path d="M89,225l2.3-1.3a1.952,1.952,0,0,1,.7.1l-2.3,1.3a1.952,1.952,0,0,0-.7-.1Z" fill="#313033"/><path d="M89.6,225.1l2.3-1.3c.2,0,.4.1.6.1l-2.3,1.3c-.1-.1-.3-.1-.6-.1Z" fill="#313033"/><path d="M90.3,225.2l2.3-1.3c.2,0,.4.1.6.1l-2.3,1.3c-.2,0-.4-.1-.6-.1Z" fill="#313033"/><path d="M90.9,225.3l2.3-1.3c.2.1.4.1.6.2l-2.3,1.3c-.2-.1-.4-.1-.6-.2Z" fill="#313033"/><path d="M91.5,225.5l2.3-1.3c.2.1.4.1.6.2l-2.3,1.3a1.421,1.421,0,0,0-.6-.2Z" fill="#313033"/><path d="M92.1,225.7l2.3-1.3c.2.1.4.1.6.2l-2.3,1.3a1.421,1.421,0,0,0-.6-.2Z" fill="#313033"/><path d="M92.7,225.9l2.3-1.3a1.421,1.421,0,0,0,.6.2l-2.3,1.3c-.2-.1-.4-.1-.6-.2Z" fill="#313033"/><path d="M93.3,226.1l2.3-1.3.6.3-2.3,1.3-.6-.3Z" fill="#313033"/><path d="M93.9,226.4l2.3-1.3.6.3-2.3,1.3-.6-.3Z" fill="#313033"/><path d="M94.5,226.7l2.3-1.3c.2.1.3.2.5.3L95,227a2.186,2.186,0,0,1-.5-.3Z" fill="#313033"/></g><g clip-path="url(#aa)"><path d="M94.9,227l2.3-1.3.1.1L95,227.1c0-.1,0-.1-.1-.1Z" fill="#313033"/><path d="M95.1,227.1l2.3-1.3a2.092,2.092,0,0,1,.6.4l-2.3,1.3a2.092,2.092,0,0,0-.6-.4Z" fill="#313033"/><path d="M95.7,227.5l2.3-1.3c.2.1.4.3.6.4l-2.3,1.3a2.092,2.092,0,0,0-.6-.4Z" fill="#313033"/><path d="M96.3,227.9l2.3-1.3a2.652,2.652,0,0,1,.6.5l-2.3,1.3a2.652,2.652,0,0,0-.6-.5Z" fill="#313033"/><path d="M97,228.3l2.3-1.3c.2.2.4.3.6.5l-2.3,1.3c-.2-.2-.4-.3-.6-.5Z" fill="#313033"/><path d="M97.6,228.8l2.3-1.3a1.794,1.794,0,0,0,.7.5l-2.3,1.3a1.794,1.794,0,0,1-.7-.5Z" fill="#313033"/></g><g clip-path="url(#ab)"><path d="M97.6,228.8l2.3-1.3a1.794,1.794,0,0,0,.7.5l-2.3,1.3a1.794,1.794,0,0,1-.7-.5Z" fill="#313033"/><path d="M98.3,229.3l2.3-1.3a4.35,4.35,0,0,0,.7.6L99,229.9a4.35,4.35,0,0,1-.7-.6Z" fill="#313033"/><path d="M98.9,229.9l2.3-1.3.6.6-2.3,1.3-.6-.6Z" fill="#313033"/><path d="M99.6,230.5l2.3-1.3.6.6-2.3,1.3-.6-.6Z" fill="#313033"/><path d="M100.2,231.1l2.3-1.3.6.6-2.3,1.3-.6-.6Z" fill="#313033"/><path d="M100.8,231.8l2.3-1.3.6.6-2.3,1.3-.6-.6Z" fill="#313033"/><path d="M101.4,232.4l2.3-1.3a4.349,4.349,0,0,1,.6.7l-2.3,1.3a3.19,3.19,0,0,1-.6-.7Z" fill="#3f3c3e"/><path d="M101.9,233.1l2.3-1.3c.2.2.4.5.6.7l-2.3,1.3a4.349,4.349,0,0,0-.6-.7Z" fill="#444143"/><path d="M102.5,233.8l2.3-1.3a5.5,5.5,0,0,0,.7.9l-2.3,1.3a9.685,9.685,0,0,0-.7-.9Z" fill="#494648"/><path d="M103.1,234.6l2.3-1.3c.3.4.6.9.9,1.3l-2.3,1.3a7.7,7.7,0,0,0-.9-1.3Z" fill="#4d494b"/><path d="M104.1,235.9l2.3-1.3a17.393,17.393,0,0,1,1.1,1.8l-2.3,1.3c-.4-.6-.7-1.2-1.1-1.8Z" fill="#504d4e"/><path d="M105.2,237.7l2.3-1.3a8.264,8.264,0,0,1,.7,1.3l-2.3,1.3c-.2-.4-.5-.9-.7-1.3Z" fill="#4d494b"/><path d="M105.9,239l2.3-1.3c.2.3.3.6.5.9l-2.3,1.3c-.2-.3-.3-.6-.5-.9Z" fill="#494648"/><path d="M106.4,239.9l2.3-1.3c.1.3.3.5.4.8l-2.3,1.3a5.9,5.9,0,0,1-.4-.8Z" fill="#444143"/><path d="M106.7,240.7l2.3-1.3c.1.2.2.5.3.7l-2.3,1.3a1.493,1.493,0,0,0-.3-.7Z" fill="#3f3c3e"/><path d="M107.1,241.4l2.3-1.3c.1.2.2.5.3.7l-2.3,1.3a4.876,4.876,0,0,0-.3-.7Z" fill="#313033"/><path d="M107.4,242.1l2.3-1.3c.1.2.2.5.3.7l-2.3,1.3c-.1-.2-.2-.5-.3-.7Z" fill="#313033"/><path d="M107.7,242.8l2.3-1.3c.1.2.2.5.3.7l-2.3,1.3a1.08,1.08,0,0,1-.3-.7Z" fill="#313033"/><path d="M107.9,243.5l2.3-1.3c.1.3.2.5.3.8l-2.3,1.3c-.1-.3-.2-.5-.3-.8Z" fill="#313033"/><path d="M108.2,244.3l2.3-1.3a2.354,2.354,0,0,1,.2.8l-2.3,1.3a1.884,1.884,0,0,0-.2-.8Z" fill="#313033"/><path d="M108.4,245l2.3-1.3a2.354,2.354,0,0,1,.2.8l-2.3,1.3a3.091,3.091,0,0,0-.2-.8Z" fill="#313033"/><path d="M108.7,245.8l2.3-1.3c.1.3.1.5.2.8l-2.3,1.3a2.354,2.354,0,0,1-.2-.8Z" fill="#313033"/><path d="M108.9,246.6l2.3-1.3c.1.3.1.5.2.8l-2.3,1.3a3.091,3.091,0,0,1-.2-.8Z" fill="#313033"/><path d="M109,247.4l2.3-1.3c.1.3.1.5.2.8l-2.3,1.3a1.884,1.884,0,0,0-.2-.8Z" fill="#313033"/><path d="M109.2,248.1l2.3-1.3c0,.2.1.5.1.7l-2.3,1.3c0-.2-.1-.4-.1-.7Z" fill="#313033"/><path d="M109.3,248.9l2.3-1.3c0,.2.1.5.1.7l-2.3,1.3a1.7,1.7,0,0,0-.1-.7Z" fill="#313033"/><path d="M109.4,249.6l2.3-1.3c0,.2.1.5.1.7l-2.3,1.3a1.952,1.952,0,0,0-.1-.7Z" fill="#313033"/><path d="M109.5,250.3l2.3-1.3a1.7,1.7,0,0,0,.1.7l-2.3,1.3c0-.2-.1-.4-.1-.7Z" fill="#313033"/><path d="M109.6,251l2.3-1.3v.7l-2.3,1.3V251Z" fill="#313033"/><path d="M109.6,251.8l2.3-1.3v.7h0l-2.3,1.3h0v-.7Z" fill="#313033"/><path d="M109.6,252.5l2.3-1.3v.7l-2.3,1.3v-.7Z" fill="#313033"/><path d="M109.6,253.2l2.3-1.3v.7l-2.3,1.3v-.7Z" fill="#313033"/><path d="M109.6,253.9l2.3-1.3a1.7,1.7,0,0,1-.1.7l-2.3,1.3a1.483,1.483,0,0,1,.1-.7Z" fill="#313033"/><path d="M109.5,254.6l2.3-1.3c0,.2-.1.5-.1.7l-2.3,1.3a1.483,1.483,0,0,1,.1-.7Z" fill="#313033"/><path d="M109.4,255.3l2.3-1.3c0,.2-.1.5-.1.7l-2.3,1.3a1.483,1.483,0,0,1,.1-.7Z" fill="#313033"/><path d="M109.2,256l2.3-1.3c-.1.3-.1.5-.2.8l-2.3,1.3a3.091,3.091,0,0,0,.2-.8Z" fill="#313033"/><path d="M109,256.7l2.3-1.3c-.1.3-.2.5-.3.8l-2.3,1.3a1.135,1.135,0,0,0,.3-.8Z" fill="#313033"/><path d="M108.8,257.5l2.3-1.3a2.01,2.01,0,0,1-.4.8l-2.3,1.3a2.01,2.01,0,0,0,.4-.8Z" fill="#313033"/><path d="M108.4,258.3l2.3-1.3a8.794,8.794,0,0,1-.6,1l-2.3,1.3a2.075,2.075,0,0,0,.6-1Z" fill="#313033"/><path d="M107.9,259.4l2.3-1.3a6.919,6.919,0,0,1-2.6,2.5l-2.3,1.3a8.83,8.83,0,0,0,2.6-2.5Z" fill="#313033"/></g><path d="M115.1,252.2v-1.7a.9.9,0,0,0-.1-.5v-.4c0-.3-.1-.6-.1-.9h0v-.1c0-.2-.1-.5-.1-.7v-.1a.756.756,0,0,0-.1-.4c0-.1-.1-.3-.1-.4a.367.367,0,0,0-.1-.3c0-.1-.1-.3-.1-.4a.367.367,0,0,0-.1-.3c0-.1-.1-.2-.1-.4,0-.1-.1-.3-.1-.4V245a.764.764,0,0,0-.2-.5c0-.1-.1-.2-.1-.3v-.1l-.3-.9h0v-.1c-.1-.3-.2-.5-.3-.8a.1.1,0,0,0-.1-.1c0-.1-.1-.2-.1-.3-.1-.1-.1-.3-.2-.4,0-.1-.1-.2-.1-.3s-.1-.2-.1-.3a.349.349,0,0,0-.1-.2c-.1-.2-.1-.3-.2-.5,0-.1-.1-.2-.1-.3v-.1c-.1-.3-.3-.6-.4-.9h0c0-.1-.1-.2-.1-.3a4.876,4.876,0,0,1-.3-.7.1.1,0,0,0-.1-.1,2.186,2.186,0,0,0-.3-.5c-.1-.1-.1-.3-.2-.4v-.1c-.3-.5-.5-.9-.8-1.4a.1.1,0,0,0-.1-.1c-.1-.1-.1-.2-.2-.3l-.3-.6c-.1-.2-.2-.3-.3-.5a2.092,2.092,0,0,0-.4-.6c0-.1-.1-.1-.1-.2s-.1-.1-.1-.2a16.964,16.964,0,0,0-1-1.4h0l-.1-.1a5.5,5.5,0,0,0-.7-.9v-.1a1.794,1.794,0,0,1-.5-.7l-.2-.2h0c-.2-.3-.5-.5-.7-.8h0l-.2-.2-.5-.5-.1-.1-.3-.3-.4-.4-.1-.1-.3-.3-.3-.3-.2-.2a1.38,1.38,0,0,0-.4-.3c-.1-.1-.2-.2-.3-.2l-.2-.2a1.38,1.38,0,0,0-.4-.3c-.1-.1-.2-.1-.2-.2-.1-.1-.2-.1-.2-.2a1.38,1.38,0,0,0-.4-.3l-.2-.2c-.1-.1-.2-.2-.3-.2l-.3-.3-.1-.1c-.1-.1-.3-.2-.4-.3s-.2-.1-.3-.2a.1.1,0,0,1-.1-.1c-.3-.2-.5-.3-.8-.5h0a2.506,2.506,0,0,0-.7-.4c-.1,0-.1-.1-.2-.1l-.6-.3c-.1,0-.1-.1-.2-.1-.1-.1-.2-.1-.3-.2a.349.349,0,0,1-.2-.1c-.1-.1-.2-.1-.4-.2-.1,0-.2-.1-.3-.1h-.1c-.2-.1-.5-.2-.7-.3h0c-.2-.1-.5-.2-.7-.3h-.1c-.1,0-.2-.1-.3-.1s-.2-.1-.4-.1c-.1,0-.1,0-.2-.1-.1,0-.2-.1-.3-.1s-.2,0-.2-.1a927118882560.829,927118882560.829,0,0,0-.6-.2h-.5a.756.756,0,0,1-.4-.1H87.7c-.2,0-.4.1-.6.1h-.2c-.2,0-.3.1-.5.1a.349.349,0,0,0-.2.1c-.1,0-.2.1-.3.1h-.1c-.2.1-.3.1-.5.2a.349.349,0,0,0-.2.1c-.2.1-.5.2-.7.3h0l-2.3,1.3a5.737,5.737,0,0,0,.7-.4.349.349,0,0,0,.2-.1c.2-.1.3-.1.5-.2.1,0,.3-.1.4-.1a.349.349,0,0,0,.2-.1c.2,0,.3-.1.5-.1h.2c.2,0,.4-.1.6-.1h2.8a.6.6,0,0,1,.4.1.756.756,0,0,1,.4.1c.2,0,.3.1.5.1a.367.367,0,0,1,.3.1c.2,0,.3.1.5.1.1,0,.2.1.3.1.2.1.4.1.5.2.1,0,.2.1.3.1.3.1.5.2.8.3h0a2.994,2.994,0,0,1,.8.4c.1,0,.2.1.3.1l.6.3c.1,0,.2.1.3.2.3.1.5.3.8.4a4.054,4.054,0,0,0,.9.5h0a5.546,5.546,0,0,1,.8.6c.1.1.2.1.3.2.2.1.4.3.6.4l.3.3c.2.1.3.3.5.4a1.38,1.38,0,0,0,.4.3c.2.1.3.3.5.4a1.38,1.38,0,0,0,.4.3c.2.1.3.3.5.4a1.38,1.38,0,0,0,.4.3c.2.1.3.3.5.4l.3.3.5.5.3.3a2.651,2.651,0,0,1,.5.6c.1.1.1.2.2.2.2.3.5.6.7.9l.2.2c.2.2.4.5.6.7a5.5,5.5,0,0,0,.7.9l.1.1a16.964,16.964,0,0,0,1,1.4.52.52,0,0,1,.2.4,2.092,2.092,0,0,0,.4.6c.1.2.2.3.3.5l.3.6c.1.2.2.3.3.5.3.5.5.9.8,1.4.1.2.2.3.3.5a2.186,2.186,0,0,0,.3.5c.1.3.3.5.4.8,0,.1.1.2.1.3.2.3.3.7.5,1,0,.1.1.2.1.3.1.2.2.5.3.7,0,.1.1.2.1.3.1.2.2.5.3.7,0,.1.1.2.1.3l.3.9v.1c.1.3.2.7.3,1,0,.1.1.2.1.3.1.2.1.5.2.7,0,.1.1.3.1.4a6.373,6.373,0,0,1,.2.7c0,.1.1.3.1.4a1.7,1.7,0,0,1,.1.7c0,.1.1.2.1.4.1.3.1.6.2.9v.2a3.4,3.4,0,0,1,.1,1v.3c0,.2.1.5.1.7V257a.749.749,0,0,1-.1.5.6.6,0,0,1-.1.4c0,.2-.1.3-.1.5,0,.1-.1.3-.1.4s-.1.3-.1.4c0,.2-.1.3-.1.5,0,.1-.1.3-.1.4-.1.2-.1.4-.2.6,0,.1-.1.2-.1.3a3.552,3.552,0,0,1-.4.9c-.1.2-.2.5-.3.7v.1l-.3.6-.1.1c-.1.1-.2.3-.3.4,0,.1-.1.1-.1.2-.1.1-.2.3-.3.4l-.1.1c-.1.2-.3.3-.4.5l-.1.1c-.1.1-.3.2-.4.4-.1,0-.1.1-.2.1a1.38,1.38,0,0,1-.4.3c-.1,0-.1.1-.2.1a2.187,2.187,0,0,0-.5.3l2.3-1.3a2.187,2.187,0,0,0,.5-.3c.1,0,.1-.1.2-.1a1.38,1.38,0,0,1,.4-.3c.1,0,.1-.1.2-.1.1-.1.3-.2.4-.4l.1-.1a1,1,0,0,0,.4-.5l.1-.1a1.381,1.381,0,0,0,.3-.4c0-.1.1-.1.1-.2.1-.1.2-.3.3-.4l.1-.1h0a2.185,2.185,0,0,1,.3-.5v-.1l.3-.6h0c.1-.3.3-.6.4-.9v-.1c0-.1,0-.2.1-.2.1-.2.1-.4.2-.6,0-.1,0-.1.1-.2,0-.1,0-.1.1-.2,0-.2.1-.3.1-.5,0-.1,0-.1.1-.2v-.2c0-.1.1-.3.1-.4v-.5a.6.6,0,0,1,.1-.4v-3C115.1,252.7,115.1,252.4,115.1,252.2Z" fill="#9e9d9f"/><path d="M94.9,223.2c9.9,5.7,18,19.7,17.9,31.1,0,11.4-8.1,16-18,10.3s-18-19.7-17.9-31.1C76.9,222.1,85,217.5,94.9,223.2Zm-.1,37.6c8.1,4.7,14.7.9,14.8-8.4,0-9.3-6.6-20.7-14.7-25.4s-14.7-.9-14.8,8.4c0,9.3,6.6,20.7,14.7,25.4Z" fill="#cac5c6"/><path d="M108.3,212.4h0c0-.2-.1-.3-.1-.5v-.2c0-.1-.1-.2-.1-.3v-.2a.1.1,0,0,0-.1-.1.349.349,0,0,0-.1-.2v-.1h0v-.1c0-.1-.1-.1-.1-.2s-.1-.1-.1-.2h0c0-.1-.1-.1-.1-.2s-.1-.1-.2-.2h0l-.1-.1-.2-.2h0l-.1-.1c-.1,0-.1-.1-.2-.1s-.1-.1-.2-.1-.1-.1-.2-.1h-.1a.1.1,0,0,1-.1-.1h-1a.1.1,0,0,0-.1.1l-1.6.9a.1.1,0,0,0,.1-.1h1a.1.1,0,0,1,.1.1h.1c.1,0,.1.1.2.1a.52.52,0,0,0,.4.2l.1.1.3.3h0c.1.1.2.3.3.4h0c.1.1.2.3.3.4h0a.758.758,0,0,1,.2.4v.1c.1.1.1.3.2.5v.1c0,.2.1.3.1.5h0v.5a1.609,1.609,0,0,1-.3,1.1l-.2.2h0l1.6-.9a1.375,1.375,0,0,0,.6-1.3A.373.373,0,0,1,108.3,212.4Z" fill="#9e9d9f"/><path d="M104.7,210.3a4.4,4.4,0,0,1,2,3.5c0,1.3-.9,1.8-2,1.2a4.4,4.4,0,0,1-2-3.5C102.6,210.1,103.6,209.6,104.7,210.3Z" fill="#cac5c6"/><path d="M114.7,216.2h0c0-.2-.1-.3-.1-.5v-.2c0-.1-.1-.2-.1-.3V215a.1.1,0,0,0-.1-.1.349.349,0,0,0-.1-.2v-.1h0v-.1c0-.1-.1-.1-.1-.2s-.1-.1-.1-.2h0c0-.1-.1-.1-.1-.2s-.1-.1-.2-.2h0l-.1-.1-.2-.2h0l-.1-.1c-.1,0-.1-.1-.2-.1s-.1-.1-.2-.1-.1-.1-.2-.1h-.1a.1.1,0,0,1-.1-.1h-1a.1.1,0,0,0-.1.1l-1.6.9a.1.1,0,0,0,.1-.1h1a.1.1,0,0,1,.1.1h.1c.1,0,.1.1.2.1a.52.52,0,0,0,.4.2l.1.1.3.3h0c.1.1.2.3.3.4h0c.1.1.2.3.3.4h0a.758.758,0,0,1,.2.4v.1c.1.1.1.3.2.5v.1c0,.2.1.3.1.5h0v.5a1.609,1.609,0,0,1-.3,1.1l-.2.2h0l1.6-.9a1.375,1.375,0,0,0,.6-1.3A.373.373,0,0,1,114.7,216.2Z" fill="#9e9d9f"/><path d="M111.1,214.1a4.4,4.4,0,0,1,2,3.5c0,1.3-.9,1.8-2,1.2a4.4,4.4,0,0,1-2-3.5C109.1,214,110,213.4,111.1,214.1Z" fill="#cac5c6"/><path d="M80.4,196.4h0c0-.2-.1-.3-.1-.5v-.2c0-.1-.1-.2-.1-.3v-.2a.1.1,0,0,0-.1-.1.349.349,0,0,0-.1-.2v-.1h0v-.1c0-.1-.1-.1-.1-.2s-.1-.1-.1-.2h0c0-.1-.1-.1-.1-.2s-.1-.1-.2-.2h0l-.1-.1-.2-.2h0l-.1-.1c-.1,0-.1-.1-.2-.1s-.1-.1-.2-.1-.1-.1-.2-.1h-.1a.1.1,0,0,1-.1-.1h-1a.1.1,0,0,0-.1.1l-1.6.9a.1.1,0,0,0,.1-.1h1a.1.1,0,0,1,.1.1h.1c.1,0,.1.1.2.1a.52.52,0,0,0,.4.2l.1.1.3.3h0c.1.1.2.3.3.4h0c.1.1.2.3.3.4h0a.758.758,0,0,1,.2.4v.1c.1.1.1.3.2.5v.1c0,.2.1.3.1.5h0v.5a1.609,1.609,0,0,1-.3,1.1l-.2.2h0l1.6-.9a1.375,1.375,0,0,0,.6-1.3C80.5,196.7,80.5,196.5,80.4,196.4Z" fill="#9e9d9f"/><path d="M76.8,194.3a4.4,4.4,0,0,1,2,3.5c0,1.3-.9,1.8-2,1.2a4.4,4.4,0,0,1-2-3.5C74.8,194.2,75.7,193.6,76.8,194.3Z" fill="#cac5c6"/><path d="M86.8,200.2h0c0-.2-.1-.3-.1-.5v-.2c0-.1-.1-.2-.1-.3V199a.1.1,0,0,0-.1-.1.349.349,0,0,0-.1-.2v-.1h0v-.1c0-.1-.1-.1-.1-.2s-.1-.1-.1-.2h0c0-.1-.1-.1-.1-.2s-.1-.1-.2-.2h0l-.1-.1-.2-.2h0l-.1-.1c-.1,0-.1-.1-.2-.1s-.1-.1-.2-.1-.1-.1-.2-.1h-.1a.1.1,0,0,1-.1-.1h-1a.1.1,0,0,0-.1.1l-1.6.9a.1.1,0,0,0,.1-.1h1a.1.1,0,0,1,.1.1h.1c.1,0,.1.1.2.1a.52.52,0,0,0,.4.2l.1.1.3.3h0c.1.1.2.3.3.4h0c.1.1.2.3.3.4h0a.758.758,0,0,1,.2.4v.1c.1.1.1.3.2.5v.1c0,.2.1.3.1.5h0v.5a1.609,1.609,0,0,1-.3,1.1l-.2.2h0l1.6-.9a1.375,1.375,0,0,0,.6-1.3C86.9,200.5,86.9,200.3,86.8,200.2Z" fill="#9e9d9f"/><path d="M83.2,198.1a4.4,4.4,0,0,1,2,3.5c0,1.3-.9,1.8-2,1.2a4.4,4.4,0,0,1-2-3.5C81.2,198,82.1,197.4,83.2,198.1Z" fill="#cac5c6"/><path d="M89,200.5l.7-.4v4.5l-.7.4Z" fill="#828583"/><path d="M89,205l.7-.4,9.4,5.5-.6.3Z" fill="#b0b2af"/><path d="M89,200.5l.7-.4,9.5,5.5-.7.4Z" fill="#3fa0bd"/><path d="M98.5,206v4.4L89,205v-4.5Z" fill="#45adcd"/><g opacity="0.77"><path d="M98.5,206v4.4L89,205v-4.5Z" fill="url(#ac)"/></g><g opacity="0.5"><path d="M98.5,206v4.4L89,205v-4.5Z" fill="url(#ad)"/></g><path d="M98.5,206l.7-.4-.1,4.5-.6.3Z" fill="#2a788e"/><path d="M99.8,205.4h0v-.1h-.1l-10.1-5.8h-.1l-.6.4h.2l10.1,5.8.1.1h0l.1.1a.349.349,0,0,1,.1.2v5.4c0,.1,0,.2-.1.2l.6-.4c.1,0,.1-.1.1-.2v-5.2C99.8,205.5,99.8,205.5,99.8,205.4Z" fill="#c5c7c9"/><path d="M99.1,205.6a.367.367,0,0,1,.1.3v5.2c0,.1,0,.2-.1.2h-.2l-10.1-5.8a.215.215,0,0,1-.2-.2.367.367,0,0,1-.1-.3v-5.2c0-.1,0-.2.1-.2h.2l10.1,5.8Zm-.6,4.8v-4.5L89,200.4v4.5l9.5,5.5Z" fill="#fff"/><path d="M106.2,234.4a6.407,6.407,0,0,1,.7.9c.4.6,1,1.5,1.6,2.6a35.7,35.7,0,0,1,1.9,3.9c.3.7.6,1.5.9,2.3s.5,1.6.8,2.4l.6,2.4a20.024,20.024,0,0,1,.4,2.4c0,.4.1.8.1,1.2v2.2a3.4,3.4,0,0,1-.1,1c0,.3-.1.6-.1.9s-.1.6-.1.8c-.1.5-.2.9-.3,1.3-.2.7-.3,1.1-.3,1.1s.1-.4.3-1.1c.1-.4.1-.8.2-1.3,0-.3.1-.5.1-.8a2.769,2.769,0,0,1,.1-.9v-2a4.1,4.1,0,0,0-.1-1.1c0-.4-.1-.8-.1-1.1a20.022,20.022,0,0,0-.4-2.4l-.6-2.4c-.2-.8-.5-1.6-.7-2.4a20.944,20.944,0,0,1-.8-2.3l-.9-2.1a15.044,15.044,0,0,0-.9-1.8c-.6-1.1-1.1-2-1.4-2.7C106.5,234.7,106.2,234.4,106.2,234.4Z" fill="#fff" opacity="0.5"/><path d="M82.4,227.8a8.26,8.26,0,0,0-.9,1.6,15.146,15.146,0,0,0-1.2,4.7,17.1,17.1,0,0,0,0,3.2,8.584,8.584,0,0,0,.3,1.7,12.091,12.091,0,0,0,.5,1.8,45.988,45.988,0,0,0,7,14,32.729,32.729,0,0,0,2.4,2.7,16.38,16.38,0,0,0,2.5,2.1,21.435,21.435,0,0,0,4.2,2.4c.5.2,1,.4,1.3.5a1.75,1.75,0,0,0,.5.1,1.75,1.75,0,0,1-.5-.1c-.3-.1-.7-.2-1.3-.4a16.7,16.7,0,0,1-4.3-2.3,23.21,23.21,0,0,1-2.5-2.1,33.211,33.211,0,0,1-2.5-2.7,37.9,37.9,0,0,1-4.2-6.7,56.6,56.6,0,0,1-2.9-7.4,11.627,11.627,0,0,1-.4-1.8,11.019,11.019,0,0,1-.2-1.8,18.15,18.15,0,0,1,0-3.3,14.864,14.864,0,0,1,1.3-4.7A4.76,4.76,0,0,1,82.4,227.8Z" fill="#fff" opacity="0.5"/><path d="M231.4,246.2a12.29,12.29,0,0,1-11.2,0c-3.1-1.8-3.1-4.7,0-6.5a12.29,12.29,0,0,1,11.2,0C234.5,241.5,234.5,244.4,231.4,246.2Z" fill="#fff"/><path d="M206.4,175.2a12.29,12.29,0,0,1-11.2,0c-3.1-1.8-3.1-4.7,0-6.5a12.29,12.29,0,0,1,11.2,0C209.5,170.5,209.5,173.4,206.4,175.2Z" fill="#fff"/><path d="M177.4,298.7a12.29,12.29,0,0,1-11.2,0c-3.1-1.8-3.1-4.7,0-6.5a12.29,12.29,0,0,1,11.2,0C180.5,294,180.5,296.9,177.4,298.7Z" fill="#fff"/><path d="M328.8,179.8a12.29,12.29,0,0,1-11.2,0c-3.1-1.8-3.1-4.7,0-6.5a12.29,12.29,0,0,1,11.2,0C331.9,175.1,331.9,178,328.8,179.8Z" fill="#fff"/><path d="M512.8,162.6a12.29,12.29,0,0,1-11.2,0c-3.1-1.8-3.1-4.7,0-6.5a12.29,12.29,0,0,1,11.2,0C515.9,157.9,515.9,160.8,512.8,162.6Z" fill="#fff"/><path d="M576,290.2a12.29,12.29,0,0,1-11.2,0c-3.1-1.8-3.1-4.7,0-6.5a12.29,12.29,0,0,1,11.2,0C579.1,285.5,579.1,288.4,576,290.2Z" fill="#fff"/><path d="M477.3,124.2a12.29,12.29,0,0,1-11.2,0c-3.1-1.8-3.1-4.7,0-6.5a12.29,12.29,0,0,1,11.2,0C480.4,119.5,480.4,122.4,477.3,124.2Z" fill="#fff"/><path d="M556,191c-1.3,0-2.5-.1-3.7-.2a1,1,0,1,1,.2-2,19.4,19.4,0,0,0,3.4.2h.4a1,1,0,0,1,1,1,.945.945,0,0,1-1,1Zm5.4-.6a.974.974,0,0,1-1-.8,1.012,1.012,0,0,1,.8-1.2,19.009,19.009,0,0,0,3.6-1.2.985.985,0,0,1,.8,1.8,23.432,23.432,0,0,1-4,1.3C561.5,190.4,561.5,190.4,561.4,190.4Zm-13.8-.8a.367.367,0,0,1-.3-.1,16.937,16.937,0,0,1-2.7-1.3,6.723,6.723,0,0,1-1.1-.7,1,1,0,1,1,1.2-1.6l.9.6a13.346,13.346,0,0,0,2.4,1.1,1.04,1.04,0,0,1,.6,1.3A1.2,1.2,0,0,1,547.6,189.6Zm21.7-3.1a.908.908,0,0,1-.7-.3.967.967,0,0,1,0-1.4,5.637,5.637,0,0,0,1.6-2.9,1.02,1.02,0,1,1,2,.4,7.308,7.308,0,0,1-2.2,4A1.165,1.165,0,0,1,569.3,186.5ZM540.9,184a.856.856,0,0,1-.9-.7,5.7,5.7,0,0,1-.4-2.2,6.874,6.874,0,0,1,.5-2.4,1.012,1.012,0,1,1,1.9.7,4.671,4.671,0,0,0-.3,1.7,4.012,4.012,0,0,0,.3,1.5,1.04,1.04,0,0,1-.6,1.3A1.338,1.338,0,0,1,540.9,184Zm29-5.6a.91.91,0,0,1-.8-.4,11.115,11.115,0,0,0-2.8-2.3,1.157,1.157,0,0,1-.5-.7.956.956,0,0,1-.9,0,19.009,19.009,0,0,0-3.6-1.2,1.02,1.02,0,0,1,.4-2,23.432,23.432,0,0,1,4,1.3,1.037,1.037,0,0,1,.6.8.908.908,0,0,1,1,0,10.214,10.214,0,0,1,3.3,2.8.978.978,0,0,1-.2,1.4A.55.55,0,0,1,569.9,178.4Zm-25.7-2a1.235,1.235,0,0,1-.8-.4.984.984,0,0,1,.3-1.4l.9-.6a19.465,19.465,0,0,1,2.9-1.3,1.012,1.012,0,0,1,.7,1.9,9.65,9.65,0,0,0-2.5,1.2c-.3.2-.5.3-.8.5C544.6,176.3,544.4,176.4,544.2,176.4Zm8.4-2.9a1.063,1.063,0,0,1-1-.9.993.993,0,0,1,.9-1.1c1.1-.1,2.3-.2,3.4-.2h.7a1,1,0,0,1,0,2h-.7c-1.1,0-2.1.1-3.2.2C552.7,173.4,552.6,173.5,552.6,173.5Z" fill="#727c8e"/><path d="M412.3,92.6c-1.2,0-2.4-.1-3.6-.2a1,1,0,0,1,.2-2c1.1.1,2.2.2,3.3.2h.5a1,1,0,0,1,1,1,.945.945,0,0,1-1,1Zm5.5-.6a.974.974,0,0,1-1-.8,1.012,1.012,0,0,1,.8-1.2,19.01,19.01,0,0,0,3.6-1.2.985.985,0,0,1,.8,1.8,23.433,23.433,0,0,1-4,1.3C418,92,417.9,92,417.8,92ZM404,91.1a.367.367,0,0,1-.3-.1,16.939,16.939,0,0,1-2.7-1.3,6.726,6.726,0,0,1-1.1-.7,1,1,0,1,1,1.2-1.6l.9.6a13.346,13.346,0,0,0,2.4,1.1,1.036,1.036,0,0,1-.4,2ZM425.8,88a.908.908,0,0,1-.7-.3.967.967,0,0,1,0-1.4,5.637,5.637,0,0,0,1.6-2.9,1.02,1.02,0,1,1,2,.4,7.308,7.308,0,0,1-2.2,4A1.853,1.853,0,0,1,425.8,88Zm-28.5-2.5a.856.856,0,0,1-.9-.7,5.7,5.7,0,0,1-.4-2.2,6.874,6.874,0,0,1,.5-2.4,1.012,1.012,0,0,1,1.9.7,4.671,4.671,0,0,0-.3,1.7,4.013,4.013,0,0,0,.3,1.5,1.04,1.04,0,0,1-.6,1.3A1.338,1.338,0,0,1,397.3,85.5Zm29-5.6a.909.909,0,0,1-.8-.4,11.116,11.116,0,0,0-2.8-2.3,1.157,1.157,0,0,1-.5-.7.956.956,0,0,1-.9,0,19.009,19.009,0,0,0-3.6-1.2,1.02,1.02,0,0,1,.4-2,23.433,23.433,0,0,1,4,1.3,1.037,1.037,0,0,1,.6.8.908.908,0,0,1,1,0,10.215,10.215,0,0,1,3.3,2.8,1.063,1.063,0,0,1-.1,1.4A.864.864,0,0,1,426.3,79.9Zm-25.7-2a1.234,1.234,0,0,1-.8-.4.984.984,0,0,1,.3-1.4l.9-.6a19.464,19.464,0,0,1,2.9-1.3,1.012,1.012,0,1,1,.7,1.9,9.65,9.65,0,0,0-2.5,1.2c-.3.2-.5.3-.8.5A1.952,1.952,0,0,1,400.6,77.9ZM409,75a1.063,1.063,0,0,1-1-.9.993.993,0,0,1,.9-1.1c1.1-.1,2.3-.2,3.4-.2h.7a1,1,0,0,1,0,2h-.7c-1.1,0-2.1.1-3.2.2Z" fill="#fff"/><path d="M381.4,74.8a1.063,1.063,0,0,1-1-.9.937.937,0,0,1,.8-1.1,10.458,10.458,0,0,0,3.4-1.1,1.03,1.03,0,0,1,1,1.8,13.144,13.144,0,0,1-4.1,1.3Zm-5-.2h-.2a16.073,16.073,0,0,1-3.3-1.2c-.3-.2-.5-.3-.8-.5a1,1,0,1,1,1.2-1.6c.2.1.4.3.6.4a10.79,10.79,0,0,0,2.7,1,1.037,1.037,0,0,1,.8,1.2A.993.993,0,0,1,376.4,74.6Zm11.3-5a1.063,1.063,0,0,1-1-.9,3.647,3.647,0,0,0-1.9-2.3,1.03,1.03,0,0,1,1-1.8,5.385,5.385,0,0,1,2.9,3.7.937.937,0,0,1-.8,1.1C387.8,69.6,387.8,69.6,387.7,69.6Zm-16.4-.9a.6.6,0,0,1-.4-.1.992.992,0,0,1-.5-1.3,6.02,6.02,0,0,1,2.5-2.5c.3-.2.6-.3.9-.5a.985.985,0,0,1,.8,1.8,1.612,1.612,0,0,0-.7.4,4.587,4.587,0,0,0-1.7,1.7A1.193,1.193,0,0,1,371.3,68.7Zm11.8-3h-.3a13.318,13.318,0,0,0-3.4-.5h-.2a1,1,0,0,1-1-1,.945.945,0,0,1,1-1h.2a16.842,16.842,0,0,1,4,.5,1.086,1.086,0,0,1,.7,1.2A1.15,1.15,0,0,1,383.1,65.7Z" fill="#fff"/><path d="M515.8,214.9a1.063,1.063,0,0,1-1-.9.937.937,0,0,1,.8-1.1,10.458,10.458,0,0,0,3.4-1.1,1.03,1.03,0,1,1,1,1.8,13.143,13.143,0,0,1-4.1,1.3Zm-5-.1h-.2a16.073,16.073,0,0,1-3.3-1.2c-.3-.2-.5-.3-.8-.5a1,1,0,1,1,1.2-1.6c.2.1.4.3.6.4a10.79,10.79,0,0,0,2.7,1,1.037,1.037,0,0,1,.8,1.2A1.087,1.087,0,0,1,510.8,214.8Zm11.3-5a1.063,1.063,0,0,1-1-.9,3.646,3.646,0,0,0-1.9-2.3,1.03,1.03,0,1,1,1-1.8,5.385,5.385,0,0,1,2.9,3.7.937.937,0,0,1-.8,1.1C522.2,209.8,522.2,209.8,522.1,209.8Zm-16.5-.9a.6.6,0,0,1-.4-.1.992.992,0,0,1-.5-1.3,6.02,6.02,0,0,1,2.5-2.5c.3-.2.6-.3.9-.5a.985.985,0,0,1,.8,1.8,1.612,1.612,0,0,0-.7.4,4.587,4.587,0,0,0-1.7,1.7A.937.937,0,0,1,505.6,208.9Zm11.9-3h-.3a13.317,13.317,0,0,0-3.4-.5h-.2a1,1,0,0,1-1-1,.945.945,0,0,1,1-1h.2a16.842,16.842,0,0,1,4,.5,1.086,1.086,0,0,1,.7,1.2A1.15,1.15,0,0,1,517.5,205.9Z" fill="#fff"/><path d="M133.7,154.5a1.063,1.063,0,0,1-1-.9.937.937,0,0,1,.8-1.1,10.458,10.458,0,0,0,3.4-1.1,1.03,1.03,0,0,1,1,1.8,13.144,13.144,0,0,1-4.1,1.3Zm-5-.1h-.2a16.073,16.073,0,0,1-3.3-1.2c-.3-.2-.5-.3-.8-.5a1,1,0,1,1,1.2-1.6c.2.1.4.3.6.4a10.79,10.79,0,0,0,2.7,1,1.037,1.037,0,0,1,.8,1.2A1.126,1.126,0,0,1,128.7,154.4Zm11.3-5a1.063,1.063,0,0,1-1-.9,3.647,3.647,0,0,0-1.9-2.3,1.03,1.03,0,0,1,1-1.8,5.385,5.385,0,0,1,2.9,3.7.937.937,0,0,1-.8,1.1C140.1,149.4,140.1,149.4,140,149.4Zm-16.4-.9a.6.6,0,0,1-.4-.1.992.992,0,0,1-.5-1.3,6.02,6.02,0,0,1,2.5-2.5c.3-.2.6-.3.9-.5a.985.985,0,0,1,.8,1.8,1.612,1.612,0,0,0-.7.4,4.587,4.587,0,0,0-1.7,1.7A1.05,1.05,0,0,1,123.6,148.5Zm11.8-3h-.3a13.318,13.318,0,0,0-3.4-.5h-.2a1,1,0,0,1-1-1,.945.945,0,0,1,1-1h.2a16.842,16.842,0,0,1,4,.5,1.086,1.086,0,0,1,.7,1.2A1.15,1.15,0,0,1,135.4,145.5Z" fill="#727c8e"/><path d="M123.5,346.6a1.063,1.063,0,0,1-1-.9.937.937,0,0,1,.8-1.1,10.458,10.458,0,0,0,3.4-1.1,1.03,1.03,0,1,1,1,1.8,13.143,13.143,0,0,1-4.1,1.3C123.6,346.5,123.6,346.6,123.5,346.6Zm-4.9-.2h-.2a16.072,16.072,0,0,1-3.3-1.2c-.3-.2-.5-.3-.8-.5a1,1,0,0,1,1.2-1.6c.2.1.4.3.6.4a10.791,10.791,0,0,0,2.7,1,1.037,1.037,0,0,1,.8,1.2A1.2,1.2,0,0,1,118.6,346.4Zm11.3-5a1.063,1.063,0,0,1-1-.9,3.647,3.647,0,0,0-1.9-2.3,1.03,1.03,0,1,1,1-1.8,5.385,5.385,0,0,1,2.9,3.7.937.937,0,0,1-.8,1.1C130,341.4,129.9,341.4,129.9,341.4Zm-16.5-.9a.6.6,0,0,1-.4-.1.992.992,0,0,1-.5-1.3,6.02,6.02,0,0,1,2.5-2.5c.3-.2.6-.3.9-.5a.985.985,0,1,1,.8,1.8,1.612,1.612,0,0,0-.7.4,4.587,4.587,0,0,0-1.7,1.7A.937.937,0,0,1,113.4,340.5Zm11.8-3h-.3a13.318,13.318,0,0,0-3.4-.5h-.2a1,1,0,0,1-1-1,.945.945,0,0,1,1-1h.3a17.525,17.525,0,0,1,4,.5,1.086,1.086,0,0,1,.7,1.2A1.17,1.17,0,0,1,125.2,337.5Z" fill="#fff"/><path d="M199.7,413.3a1.063,1.063,0,0,1-1-.9.937.937,0,0,1,.8-1.1,11.98,11.98,0,0,0,3.5-1.1,1.03,1.03,0,0,1,1,1.8,13.143,13.143,0,0,1-4.1,1.3Zm-4.9-.2h-.2a16.072,16.072,0,0,1-3.3-1.2c-.3-.2-.5-.3-.8-.5a1,1,0,0,1,1.2-1.6c.2.1.4.3.6.4a10.791,10.791,0,0,0,2.7,1,1.037,1.037,0,0,1,.8,1.2A1.088,1.088,0,0,1,194.8,413.1Zm11.3-4.9a1.063,1.063,0,0,1-1-.9,3.647,3.647,0,0,0-1.9-2.3,1.03,1.03,0,1,1,1-1.8,5.385,5.385,0,0,1,2.9,3.7.937.937,0,0,1-.8,1.1Zm-16.5-.9a.6.6,0,0,1-.4-.1.992.992,0,0,1-.5-1.3,6.02,6.02,0,0,1,2.5-2.5c.3-.2.6-.3.9-.5a.985.985,0,1,1,.8,1.8,1.612,1.612,0,0,0-.7.4,4.587,4.587,0,0,0-1.7,1.7A1.148,1.148,0,0,1,189.6,407.3Zm11.9-3.1h-.3a13.449,13.449,0,0,0-3.5-.5h-.2a1,1,0,1,1,0-2h.2a16.842,16.842,0,0,1,4,.5,1.086,1.086,0,0,1,.7,1.2A.948.948,0,0,1,201.5,404.2Z" fill="#727c8e"/><path d="M648,313.1a1.063,1.063,0,0,1-1-.9.937.937,0,0,1,.8-1.1,10.458,10.458,0,0,0,3.4-1.1,1.03,1.03,0,1,1,1,1.8,13.143,13.143,0,0,1-4.1,1.3Zm-5-.2h-.2a16.072,16.072,0,0,1-3.3-1.2c-.3-.2-.5-.3-.8-.5a1,1,0,1,1,1.2-1.6c.2.1.4.3.6.4a10.79,10.79,0,0,0,2.7,1,1.037,1.037,0,0,1,.8,1.2A.993.993,0,0,1,643,312.9Zm11.3-5a1.063,1.063,0,0,1-1-.9,3.646,3.646,0,0,0-1.9-2.3,1.03,1.03,0,1,1,1-1.8,5.385,5.385,0,0,1,2.9,3.7.937.937,0,0,1-.8,1.1C654.4,307.9,654.4,307.9,654.3,307.9Zm-16.4-.9a.6.6,0,0,1-.4-.1.992.992,0,0,1-.5-1.3,6.02,6.02,0,0,1,2.5-2.5c.3-.2.6-.3.9-.5a.985.985,0,0,1,.8,1.8,1.612,1.612,0,0,0-.7.4,4.952,4.952,0,0,0-1.8,1.7A.891.891,0,0,1,637.9,307Zm11.8-3h-.3a13.318,13.318,0,0,0-3.4-.5h-.2a1,1,0,0,1-1-1,.945.945,0,0,1,1-1h.2a16.842,16.842,0,0,1,4,.5,1.086,1.086,0,0,1,.7,1.2A1.15,1.15,0,0,1,649.7,304Z" fill="#fff"/><path d="M589.9,407.5a1.063,1.063,0,0,1-1-.9.937.937,0,0,1,.8-1.1,10.458,10.458,0,0,0,3.4-1.1,1.03,1.03,0,1,1,1,1.8,13.143,13.143,0,0,1-4.1,1.3Zm-5-.2h-.2a16.072,16.072,0,0,1-3.3-1.2c-.3-.2-.5-.3-.8-.5a1,1,0,1,1,1.2-1.6c.2.1.4.3.6.4a10.79,10.79,0,0,0,2.7,1,1.037,1.037,0,0,1,.8,1.2A.993.993,0,0,1,584.9,407.3Zm11.4-4.9a1.063,1.063,0,0,1-1-.9,3.646,3.646,0,0,0-1.9-2.3,1.03,1.03,0,1,1,1-1.8,5.385,5.385,0,0,1,2.9,3.7.937.937,0,0,1-.8,1.1C596.4,402.4,596.3,402.4,596.3,402.4Zm-16.5-.9a.6.6,0,0,1-.4-.1.992.992,0,0,1-.5-1.3,6.02,6.02,0,0,1,2.5-2.5c.3-.2.6-.3.9-.5a.985.985,0,1,1,.8,1.8,1.612,1.612,0,0,0-.7.4,4.952,4.952,0,0,0-1.8,1.7A.792.792,0,0,1,579.8,401.5Zm11.8-3.1h-.3a13.318,13.318,0,0,0-3.4-.5h-.2a1,1,0,0,1-1-1,.945.945,0,0,1,1-1h.2a16.842,16.842,0,0,1,4,.5,1.086,1.086,0,0,1,.7,1.2A1.021,1.021,0,0,1,591.6,398.4Z" fill="#727c8e"/><path d="M280.5,106.6a1.063,1.063,0,0,1-1-.9.937.937,0,0,1,.8-1.1,10.458,10.458,0,0,0,3.4-1.1,1.03,1.03,0,0,1,1,1.8,13.144,13.144,0,0,1-4.1,1.3Zm-5-.2h-.2a16.073,16.073,0,0,1-3.3-1.2c-.3-.2-.5-.3-.8-.5a1,1,0,1,1,1.2-1.6c.2.1.4.3.6.4a10.79,10.79,0,0,0,2.7,1,1.037,1.037,0,0,1,.8,1.2A.993.993,0,0,1,275.5,106.4Zm11.4-5a1.063,1.063,0,0,1-1-.9,3.647,3.647,0,0,0-1.9-2.3,1.03,1.03,0,0,1,1-1.8,5.385,5.385,0,0,1,2.9,3.7.937.937,0,0,1-.8,1.1C287,101.4,286.9,101.4,286.9,101.4Zm-16.5-.9a.6.6,0,0,1-.4-.1.992.992,0,0,1-.5-1.3,6.02,6.02,0,0,1,2.5-2.5c.3-.2.6-.3.9-.5a.985.985,0,0,1,.8,1.8,1.612,1.612,0,0,0-.7.4,4.587,4.587,0,0,0-1.7,1.7A1.05,1.05,0,0,1,270.4,100.5Zm11.8-3h-.3a13.448,13.448,0,0,0-3.5-.5h-.2a1,1,0,0,1-1-1,.945.945,0,0,1,1-1h.2a16.842,16.842,0,0,1,4,.5,1.086,1.086,0,0,1,.7,1.2A.948.948,0,0,1,282.2,97.5Z" fill="#fff"/><path d="M303.2,74.5a8.808,8.808,0,0,1-3.3-.6,1.012,1.012,0,1,1,.7-1.9,8.053,8.053,0,0,0,3.5.4,1,1,0,0,1,.2,2C303.9,74.4,303.6,74.5,303.2,74.5Zm5.3-2.2a.9.9,0,0,1-.5-.1,1.107,1.107,0,0,1-.4-1.4c.1-.2.2-.3.2-.5,0-.5-.4-1-1.1-1.4a5.939,5.939,0,0,0-.8-.4,1.012,1.012,0,1,1,.7-1.9,3.7,3.7,0,0,1,1.1.5,3.614,3.614,0,0,1,2.1,3.1,2.822,2.822,0,0,1-.4,1.5A1.069,1.069,0,0,1,308.5,72.3Zm-10.6-2a.9.9,0,0,1-.5-.1,1.012,1.012,0,0,1-.4-1.4,5.492,5.492,0,0,1,1.7-1.7,5.724,5.724,0,0,1,2.3-.8,1.02,1.02,0,0,1,.4,2,4.924,4.924,0,0,0-1.7.6,3,3,0,0,0-1,.9A.792.792,0,0,1,297.9,70.3Z" fill="#727c8e"/><path d="M103.5,107.5a8.808,8.808,0,0,1-3.3-.6,1.012,1.012,0,0,1,.7-1.9,8.053,8.053,0,0,0,3.5.4,1,1,0,1,1,.2,2A4.485,4.485,0,0,1,103.5,107.5Zm5.3-2.2a.9.9,0,0,1-.5-.1,1.107,1.107,0,0,1-.4-1.4c.1-.2.2-.3.2-.5,0-.5-.4-1-1.1-1.4a5.937,5.937,0,0,0-.8-.4,1.012,1.012,0,0,1,.7-1.9,3.7,3.7,0,0,1,1.1.5,3.614,3.614,0,0,1,2.1,3.1,2.822,2.822,0,0,1-.4,1.5A1.069,1.069,0,0,1,108.8,105.3Zm-10.6-2a.9.9,0,0,1-.5-.1,1.012,1.012,0,0,1-.4-1.4,5.493,5.493,0,0,1,1.7-1.7,5.724,5.724,0,0,1,2.3-.8,1.02,1.02,0,1,1,.4,2,4.924,4.924,0,0,0-1.7.6,3,3,0,0,0-1,.9A.792.792,0,0,1,98.2,103.3Z" fill="#fff"/><path d="M576,74.5a8.808,8.808,0,0,1-3.3-.6,1.012,1.012,0,0,1,.7-1.9,8.053,8.053,0,0,0,3.5.4.945.945,0,0,1,1.1.9.993.993,0,0,1-.9,1.1C576.7,74.4,576.3,74.5,576,74.5Zm5.3-2.2a.9.9,0,0,1-.5-.1,1.107,1.107,0,0,1-.4-1.4c.1-.2.2-.3.2-.5,0-.5-.4-1-1.1-1.4a5.939,5.939,0,0,0-.8-.4,1.012,1.012,0,0,1,.7-1.9,3.7,3.7,0,0,1,1.1.5,3.613,3.613,0,0,1,2.1,3.1,2.822,2.822,0,0,1-.4,1.5A1.209,1.209,0,0,1,581.3,72.3Zm-10.6-2a.9.9,0,0,1-.5-.1,1.012,1.012,0,0,1-.4-1.4,5.493,5.493,0,0,1,1.7-1.7,5.724,5.724,0,0,1,2.3-.8,1.02,1.02,0,0,1,.4,2,4.924,4.924,0,0,0-1.7.6,3,3,0,0,0-1,.9A.891.891,0,0,1,570.7,70.3Z" fill="#fff"/><path d="M249.7,427.7a8.809,8.809,0,0,1-3.3-.6,1.012,1.012,0,1,1,.7-1.9,8.053,8.053,0,0,0,3.5.4.945.945,0,0,1,1.1.9.993.993,0,0,1-.9,1.1C250.4,427.6,250,427.7,249.7,427.7Zm5.2-2.2a.9.9,0,0,1-.5-.1,1.107,1.107,0,0,1-.4-1.4c.1-.2.2-.3.2-.5,0-.5-.4-1-1.1-1.4a5.938,5.938,0,0,0-.8-.4,1.012,1.012,0,1,1,.7-1.9,3.7,3.7,0,0,1,1.1.5,3.614,3.614,0,0,1,2.1,3.1,2.822,2.822,0,0,1-.4,1.5A.961.961,0,0,1,254.9,425.5Zm-10.5-2a.9.9,0,0,1-.5-.1,1.012,1.012,0,0,1-.4-1.4,5.492,5.492,0,0,1,1.7-1.7,5.724,5.724,0,0,1,2.3-.8,1.02,1.02,0,1,1,.4,2,4.923,4.923,0,0,0-1.7.6,3,3,0,0,0-1,.9A.891.891,0,0,1,244.4,423.5Z" fill="#fff"/><path d="M93.8,316.4c-1.2,0-2.4-.1-3.6-.2a1,1,0,1,1,.2-2c1.1.1,2.2.2,3.3.2h.5a1,1,0,0,1,1,1,.945.945,0,0,1-1,1Zm5.5-.6a.974.974,0,0,1-1-.8,1.012,1.012,0,0,1,.8-1.2,19.008,19.008,0,0,0,3.6-1.2.985.985,0,1,1,.8,1.8,23.431,23.431,0,0,1-4,1.3C99.5,315.8,99.4,315.8,99.3,315.8ZM85.5,315a.367.367,0,0,1-.3-.1,16.937,16.937,0,0,1-2.7-1.3,6.726,6.726,0,0,1-1.1-.7,1,1,0,0,1,1.2-1.6l.9.6a13.347,13.347,0,0,0,2.4,1.1,1.04,1.04,0,0,1,.6,1.3A1.2,1.2,0,0,1,85.5,315Zm21.8-3.2a.908.908,0,0,1-.7-.3.967.967,0,0,1,0-1.4,5.637,5.637,0,0,0,1.6-2.9,1.02,1.02,0,0,1,2,.4,7.308,7.308,0,0,1-2.2,4A1.854,1.854,0,0,1,107.3,311.8Zm-28.5-2.4a.856.856,0,0,1-.9-.7,5.7,5.7,0,0,1-.4-2.2,6.874,6.874,0,0,1,.5-2.4,1.012,1.012,0,1,1,1.9.7,4.671,4.671,0,0,0-.3,1.7,4.012,4.012,0,0,0,.3,1.5,1.04,1.04,0,0,1-.6,1.3A2.035,2.035,0,0,0,78.8,309.4Zm29-5.7a.91.91,0,0,1-.8-.4,11.115,11.115,0,0,0-2.8-2.3,1.157,1.157,0,0,1-.5-.7.956.956,0,0,1-.9,0,19.011,19.011,0,0,0-3.6-1.2,1.02,1.02,0,1,1,.4-2,23.431,23.431,0,0,1,4,1.3,1.037,1.037,0,0,1,.6.8.908.908,0,0,1,1,0,10.215,10.215,0,0,1,3.3,2.8,1.063,1.063,0,0,1-.1,1.4A.6.6,0,0,1,107.8,303.7Zm-25.7-2a1.235,1.235,0,0,1-.8-.4.984.984,0,0,1,.3-1.4l.9-.6a19.464,19.464,0,0,1,2.9-1.3,1.012,1.012,0,0,1,.7,1.9,9.649,9.649,0,0,0-2.5,1.2c-.3.2-.5.3-.8.5A1.953,1.953,0,0,1,82.1,301.7Zm8.4-2.9a1.063,1.063,0,0,1-1-.9.993.993,0,0,1,.9-1.1,28.843,28.843,0,0,1,4.1-.2,1,1,0,0,1,0,2,23.577,23.577,0,0,0-3.8.2Z" fill="#727c8e"/><path d="M503.2,294.5a1.193,1.193,0,0,1-.9-.5,1.012,1.012,0,0,1,.4-1.4l2.4-1.4a1.03,1.03,0,1,1,1,1.8l-2.4,1.4A4.332,4.332,0,0,1,503.2,294.5Zm9.4-5.4a1.193,1.193,0,0,1-.9-.5,1.012,1.012,0,0,1,.4-1.4l6.9-4a1.03,1.03,0,1,1,1,1.8l-6.9,4A4.335,4.335,0,0,0,512.6,289.1Zm58.6-.4h-.6a1,1,0,0,1,0-2,19.355,19.355,0,0,0,7.5-1.2,1.012,1.012,0,0,1,.7,1.9A24.253,24.253,0,0,1,571.2,288.7Zm-8.3-1.7a.6.6,0,0,1-.4-.1,14.287,14.287,0,0,1-3-1.6l-4-2.5a1.012,1.012,0,1,1,1.1-1.7l4,2.5a14.651,14.651,0,0,0,2.8,1.4.992.992,0,0,1,.5,1.3C563.6,286.7,563.3,287,562.9,287Zm22.7-3.3a1.193,1.193,0,0,1-.9-.5,1.012,1.012,0,0,1,.4-1.4l6.9-4a1.03,1.03,0,1,1,1,1.8l-6.9,4A4.335,4.335,0,0,0,585.6,283.7ZM526.4,281a1.193,1.193,0,0,1-.9-.5,1.012,1.012,0,0,1,.4-1.4l2.7-1.5a21.83,21.83,0,0,1,4.7-2.1.982.982,0,1,1,.5,1.9,23.458,23.458,0,0,0-4.3,1.9l-2.7,1.5C526.7,281,526.6,281,526.4,281Zm22.7-2.2a.6.6,0,0,1-.4-.1,20.91,20.91,0,0,0-7.3-2,.9.9,0,0,1-.9-1.1,1.018,1.018,0,0,1,1.1-.9,22.18,22.18,0,0,1,8,2.2.992.992,0,0,1,.5,1.3A1.217,1.217,0,0,1,549.1,278.8Zm50.3-3.1a1.193,1.193,0,0,1-.9-.5,1.012,1.012,0,0,1,.4-1.4l6.9-4a1.03,1.03,0,1,1,1,1.8l-6.9,4A4.335,4.335,0,0,1,599.4,275.7Z" fill="#727c8e"/></g></svg>