<svg xmlns="http://www.w3.org/2000/svg" width="512" height="494.934" viewBox="0 0 512 494.934"><g transform="translate(1 -7.533)"><path d="M88.6,306.2H58.733V276.333c0-5.12-3.413-8.533-8.533-8.533s-8.533,3.413-8.533,8.533v38.4c0,5.12,3.413,8.533,8.533,8.533H88.6c5.12,0,8.533-3.413,8.533-8.533S93.72,306.2,88.6,306.2Z" fill="#8ae1ff"/><path d="M50.2,237.933a8.551,8.551,0,0,0,8.533-8.533V144.067c0-5.12-3.413-8.533-8.533-8.533s-8.533,3.413-8.533,8.533V229.4C41.667,234.52,45.08,237.933,50.2,237.933Z" fill="#8ae1ff"/><path d="M88.6,50.2H50.2c-5.12,0-8.533,3.413-8.533,8.533v38.4c0,5.12,3.413,8.533,8.533,8.533s8.533-3.413,8.533-8.533V67.267H88.6c5.12,0,8.533-3.413,8.533-8.533S93.72,50.2,88.6,50.2Z" fill="#8ae1ff"/><path d="M220.867,50.2H135.534c-5.12,0-8.533,3.413-8.533,8.533s3.413,8.533,8.533,8.533h85.333a8.55,8.55,0,0,0,8.533-8.533C229.4,53.613,225.987,50.2,220.867,50.2Z" fill="#8ae1ff"/><path d="M306.2,50.2H267.8c-5.12,0-8.533,3.413-8.533,8.533s3.413,8.533,8.533,8.533h29.867V97.133c0,5.12,3.413,8.533,8.533,8.533s8.533-3.413,8.533-8.533v-38.4C314.733,53.613,311.32,50.2,306.2,50.2Z" fill="#8ae1ff"/><path d="M306.2,135.533c-5.12,0-8.533,3.413-8.533,8.533V229.4c0,5.12,3.413,8.533,8.533,8.533a8.551,8.551,0,0,0,8.533-8.533V144.067C314.733,138.947,311.32,135.533,306.2,135.533Z" fill="#8ae1ff"/><path d="M306.2,267.8c-5.12,0-8.533,3.413-8.533,8.533V306.2H267.8c-5.12,0-8.533,3.413-8.533,8.533s3.413,8.533,8.533,8.533h38.4c5.12,0,8.533-3.413,8.533-8.533v-38.4C314.733,271.213,311.32,267.8,306.2,267.8Z" fill="#8ae1ff"/><path d="M220.867,306.2H135.534c-5.12,0-8.533,3.413-8.533,8.533s3.413,8.533,8.533,8.533h85.333a8.55,8.55,0,0,0,8.533-8.533C229.4,309.613,225.987,306.2,220.867,306.2Z" fill="#8ae1ff"/><path d="M408.6,144.067c-5.12,0-8.533,3.413-8.533,8.533V191c0,5.12,3.413,8.533,8.533,8.533s8.533-3.413,8.533-8.533V152.6C417.133,147.48,413.72,144.067,408.6,144.067Z" fill="#8ae1ff"/><path d="M408.6,229.4c-5.12,0-8.533,3.413-8.533,8.533v85.333c0,5.12,3.413,8.533,8.533,8.533a8.551,8.551,0,0,0,8.533-8.533V237.933C417.133,232.813,413.72,229.4,408.6,229.4Z" fill="#8ae1ff"/><path d="M408.6,361.667c-5.12,0-8.533,3.413-8.533,8.533v29.867H370.2c-5.12,0-8.533,3.413-8.533,8.533s3.413,8.533,8.533,8.533h38.4c5.12,0,8.533-3.413,8.533-8.533V370.2C417.133,365.08,413.72,361.667,408.6,361.667Z" fill="#8ae1ff"/><path d="M323.267,400.067H237.934c-5.12,0-8.533,3.413-8.533,8.533s3.413,8.533,8.533,8.533h85.333A8.55,8.55,0,0,0,331.8,408.6C331.8,403.48,328.387,400.067,323.267,400.067Z" fill="#8ae1ff"/><path d="M191,400.067H152.6c-5.12,0-8.533,3.413-8.533,8.533s3.413,8.533,8.533,8.533H191c5.12,0,8.533-3.413,8.533-8.533S196.12,400.067,191,400.067Z" fill="#8ae1ff"/><path d="M502.467,178.2c5.12,0,8.533-3.413,8.533-8.533s-3.413-8.533-8.533-8.533H468.334v-25.6h34.133c5.12,0,8.533-3.413,8.533-8.533s-3.413-8.533-8.533-8.533H468.011a30.3,30.3,0,0,0-29.544-25.6H357.4V37.4A30.235,30.235,0,0,0,327.533,7.533H28.867A30.235,30.235,0,0,0-1,37.4V336.067a30.235,30.235,0,0,0,29.867,29.867H101.4v64A30.3,30.3,0,0,0,127,459.478v34.456c0,5.12,3.413,8.533,8.533,8.533s8.533-3.413,8.533-8.533V459.8h25.6v34.133c0,5.12,3.413,8.533,8.533,8.533s8.533-3.413,8.533-8.533V459.8h25.6v34.133c0,5.12,3.413,8.533,8.533,8.533s8.533-3.413,8.533-8.533V459.8H255v34.133c0,5.12,3.413,8.533,8.533,8.533s8.533-3.413,8.533-8.533V459.8h25.6v34.133c0,5.12,3.413,8.533,8.533,8.533s8.533-3.413,8.533-8.533V459.8h25.6v34.133c0,5.12,3.413,8.533,8.533,8.533s8.533-3.413,8.533-8.533V459.8H383v34.133c0,5.12,3.413,8.533,8.533,8.533s8.533-3.413,8.533-8.533V459.8h25.6v34.133c0,5.12,3.413,8.533,8.533,8.533s8.533-3.413,8.533-8.533V458.669c12-3.113,23.054-12.42,25.212-24.469h34.522c5.12,0,8.533-3.413,8.533-8.533s-3.413-8.533-8.533-8.533H468.333v-25.6h34.133c5.12,0,8.533-3.413,8.533-8.533s-3.413-8.533-8.533-8.533H468.333v-25.6h34.133c5.12,0,8.533-3.413,8.533-8.533s-3.413-8.533-8.533-8.533H468.333V306.2h34.133c5.12,0,8.533-3.413,8.533-8.533s-3.413-8.533-8.533-8.533H468.333v-25.6h34.133c5.12,0,8.533-3.413,8.533-8.533s-3.413-8.533-8.533-8.533H468.333v-25.6h34.133c5.12,0,8.533-3.413,8.533-8.533s-3.413-8.533-8.533-8.533H468.333V178.2h34.134ZM28.867,348.867a13.123,13.123,0,0,1-12.8-12.8V37.4a13.123,13.123,0,0,1,12.8-12.8H327.534a13.123,13.123,0,0,1,12.8,12.8V336.067a13.123,13.123,0,0,1-12.8,12.8H28.867Zm422.4,81.066c0,5.973-8.533,12.8-17.067,12.8H131.267a13.123,13.123,0,0,1-12.8-12.8v-64H327.534A30.235,30.235,0,0,0,357.4,336.066V109.933h81.067a13.123,13.123,0,0,1,12.8,12.8v307.2Z" fill="#8ae1ff"/></g></svg>