<svg xmlns="http://www.w3.org/2000/svg" width="496" height="496" viewBox="0 0 496 496"><rect width="168" height="16" transform="translate(64 192)" fill="#8ae1ff"/><path d="M456,96H352V0H32V96.808A40.075,40.075,0,0,0,0,136V408a40.045,40.045,0,0,0,40,40h72v32H80v16H416V480H384V448h72a40.045,40.045,0,0,0,40-40V136A40.045,40.045,0,0,0,456,96Zm-96,56a40,40,0,1,1-40-40A40.045,40.045,0,0,1,360,152ZM271.112,256a56.244,56.244,0,0,0-9.752-7.592l27.664-49.792A55.686,55.686,0,0,0,336,205.64V256ZM272,296a40,40,0,1,1-40-40A40.045,40.045,0,0,1,272,296Zm-7.36-136H80V48H304V98.36A55.42,55.42,0,0,0,264.64,160ZM48,16H336V98.36A55.648,55.648,0,0,0,320,96V32H64V176H269.48a56.037,56.037,0,0,0,7.352,11.632l-30.208,54.376A55.416,55.416,0,0,0,192.888,256H48ZM368,480H128V448H368Zm112-72a24.029,24.029,0,0,1-24,24H40a24.029,24.029,0,0,1-24-24v-8H480Zm0-24H16V136a23.967,23.967,0,0,1,16-22.528V272H181.48a56,56,0,1,0,101.04,0H352V219.9l20.512,32.824a55.667,55.667,0,1,0,13.688-8.3L355.488,195.28A55.868,55.868,0,0,0,359.112,112H456a24.029,24.029,0,0,1,24,24ZM408,256a40,40,0,1,1-40,40A40.045,40.045,0,0,1,408,256Z" fill="#8ae1ff"/><rect width="16" height="16" transform="translate(216 224)" fill="#8ae1ff"/><rect width="136" height="16" transform="translate(64 224)" fill="#8ae1ff"/></svg>