<svg xmlns="http://www.w3.org/2000/svg" width="496" height="496" viewBox="0 0 496 496"><path d="M120,208H376v16H120Zm0,0" fill="#8ae1ff"/><path d="M272,240H376v16H272Zm0,0" fill="#8ae1ff"/><path d="M120,240H224v16H120Zm0,0" fill="#8ae1ff"/><path d="M272,176H376v16H272Zm0,0" fill="#8ae1ff"/><path d="M120,176H224v16H120Zm0,0" fill="#8ae1ff"/><path d="M120,144H376v16H120Zm0,0" fill="#8ae1ff"/><path d="M424,185.367V144a48.047,48.047,0,0,0-48-48v16a32.032,32.032,0,0,1,32,32v41.367A62.139,62.139,0,0,0,421.32,224,62.139,62.139,0,0,0,408,262.633V304a32.032,32.032,0,0,1-32,32v16a48.047,48.047,0,0,0,48-48V262.633a46.327,46.327,0,0,1,13.656-32.977L443.313,224l-5.656-5.656A46.314,46.314,0,0,1,424,185.367Zm0,0" fill="#8ae1ff"/><path d="M88,304V262.633A62.139,62.139,0,0,0,74.68,224,62.139,62.139,0,0,0,88,185.367V144a32.032,32.032,0,0,1,32-32V96a48.047,48.047,0,0,0-48,48v41.367a46.327,46.327,0,0,1-13.656,32.977L52.687,224l5.656,5.656A46.314,46.314,0,0,1,72,262.633V304a48.047,48.047,0,0,0,48,48V336a32.032,32.032,0,0,1-32-32Zm0,0" fill="#8ae1ff"/><path d="M248,352a32,32,0,1,0,32,32A32.032,32.032,0,0,0,248,352Zm0,48a16,16,0,1,1,16-16A16.016,16.016,0,0,1,248,400Zm0,0" fill="#8ae1ff"/><path d="M248,320a64.195,64.195,0,0,0-30.457,7.7l7.625,14.074a48.012,48.012,0,0,1,65.062,65.062l14.074,7.625A64.024,64.024,0,0,0,248,320Zm0,0" fill="#8ae1ff"/><path d="M248,432a48.012,48.012,0,0,1-42.23-70.832L191.7,353.543A64.024,64.024,0,0,0,278.457,440.3l-7.625-14.074A48.113,48.113,0,0,1,248,432Zm0,0" fill="#8ae1ff"/><path d="M496,24A24.031,24.031,0,0,0,472,0H24A24.031,24.031,0,0,0,0,24V392H136v14.246l20.023,5.012a96.08,96.08,0,0,0,7.672,18.5l-10.633,17.711,31.457,31.457,17.711-10.633a95.1,95.1,0,0,0,18.5,7.672L225.754,496h44.492l5.012-20.023a96.08,96.08,0,0,0,18.5-7.672l17.711,10.633,31.457-31.457L332.289,429.77a95.1,95.1,0,0,0,7.672-18.5L360,406.246V392H496ZM24,16H472a8.015,8.015,0,0,1,8,8V64H16V24A8.015,8.015,0,0,1,24,16ZM344,393.754l-17.168,4.293-1.137,4.715a79.37,79.37,0,0,1-9.5,22.895l-2.535,4.137,9.121,15.191-13.793,13.793L293.8,449.656l-4.137,2.535a79.481,79.481,0,0,1-22.895,9.5l-4.715,1.137L257.754,480H238.246l-4.293-17.168-4.715-1.137a79.371,79.371,0,0,1-22.895-9.5l-4.137-2.535-15.191,9.121-13.793-13.793,9.121-15.191-2.535-4.137a79.481,79.481,0,0,1-9.5-22.895l-1.137-4.715L152,393.754V374.246l17.168-4.293,1.137-4.715a79.37,79.37,0,0,1,9.5-22.895l2.535-4.137-9.121-15.191,13.793-13.793,15.191,9.121,4.137-2.535a79.481,79.481,0,0,1,22.895-9.5l4.715-1.137,4.3-17.176h19.508l4.293,17.168,4.715,1.137a79.37,79.37,0,0,1,22.895,9.5l4.137,2.535,15.191-9.121,13.793,13.793L313.656,338.2l2.535,4.137a79.481,79.481,0,0,1,9.5,22.895l1.137,4.715,17.176,4.3ZM360,376V361.754l-20.023-5.012a96.08,96.08,0,0,0-7.672-18.5l10.633-17.711-31.457-31.457L293.77,299.711a95.1,95.1,0,0,0-18.5-7.672L270.246,272H225.754l-5.012,20.023a96.08,96.08,0,0,0-18.5,7.672l-17.711-10.633L153.078,320.52l10.633,17.711a95.1,95.1,0,0,0-7.672,18.5L136,361.754V376H16V80H480V376Zm0,0" fill="#8ae1ff"/><path d="M32,32H48V48H32Zm0,0" fill="#8ae1ff"/><path d="M64,32H80V48H64Zm0,0" fill="#8ae1ff"/><path d="M96,32h16V48H96Zm0,0" fill="#8ae1ff"/></svg>