<svg xmlns="http://www.w3.org/2000/svg" width="512.001" height="503.98" viewBox="0 0 512.001 503.98"><g transform="translate(0 -4.01)"><path d="M217.982,201.586h-64.5a10.026,10.026,0,0,0,0,20.052H207.03A54.48,54.48,0,1,1,192,173.093a10.025,10.025,0,1,0,14.178-14.178,74.524,74.524,0,1,0,21.828,52.7A10.025,10.025,0,0,0,217.982,201.586Z" fill="#8ae1ff"/><path d="M470.331,92.24h-200.6L242.793,10.885a10.025,10.025,0,0,0-9.518-6.875H41.669A41.717,41.717,0,0,0,0,45.679V378.091A41.717,41.717,0,0,0,41.669,419.76H244.814l27.073,81.369a10.026,10.026,0,0,0,9.513,6.861H470.332A41.717,41.717,0,0,0,512,466.321V133.909A41.718,41.718,0,0,0,470.331,92.24ZM41.669,399.708a21.641,21.641,0,0,1-21.616-21.616V45.679A21.641,21.641,0,0,1,41.669,24.063H226.033l70.691,213.516a.364.364,0,0,0,.015.043L350.4,399.708Zm295.78-116.433c.8,1.11,10.824,14.877,26.355,34.066-4.377,5.756-9.015,11.474-13.91,17.036l-29.712-89.74h87.441a441.916,441.916,0,0,1-31.692,55.736c-13.553-16.921-22.069-28.622-22.249-28.87a10.026,10.026,0,0,0-16.233,11.772Zm-71.5,136.485h75.162l-55.5,59.084Zm226,46.561a21.641,21.641,0,0,1-21.616,21.616H304.575L371.59,416.6l0,0a9.809,9.809,0,0,0,.823-.991,10.025,10.025,0,0,0,1.39-9.022l-16.688-50.4c7.073-7.406,13.68-15.143,19.8-22.965,13.3,15.772,29.037,33.446,45.778,50.187a10.025,10.025,0,0,0,14.178-14.178c-17.461-17.461-34.013-36.244-47.687-52.632a447.5,447.5,0,0,0,40.535-71.954h21.454a10.026,10.026,0,0,0,0-20.052H385V206.539a10.026,10.026,0,1,0-20.052,0v18.046H313.543L276.365,112.293H470.33a21.641,21.641,0,0,1,21.616,21.616V466.321Z" fill="#8ae1ff"/></g></svg>