<?xml version="1.0"?>
<svg xmlns="http://www.w3.org/2000/svg" xmlns:xlink="http://www.w3.org/1999/xlink" version="1.1" id="Capa_1" x="0px" y="0px" width="512px" height="512px" viewBox="0 0 390.741 390.741" style="enable-background:new 0 0 390.741 390.741;" xml:space="preserve"><g><g>
	<g>
		<path d="M195.371,302.479c50.454,0,92.769-35.116,104.058-82.167H91.316C102.603,267.362,144.916,302.479,195.371,302.479z" data-original="#000000" class="active-path" data-old_color="#dbc92a" fill="#dbc92a"/>
		<path d="M195.371,88.262c-50.455,0-92.769,35.116-104.055,82.167h208.112C288.14,123.378,245.825,88.262,195.371,88.262z" data-original="#000000" class="active-path" data-old_color="#dbc92a" fill="#dbc92a"/>
		<path d="M356.594,161.226l17.378-45.057l-35.189-13.567V51.958h-49.584l-12.872-34.401l-46.132,17.266L195.371,0l-34.145,34.145    l-45.057-17.372l-13.567,35.186H51.959v49.584l-34.4,12.875l17.266,46.128L0,195.37l34.145,34.143l-17.373,45.059l35.186,13.567    v50.644h49.584l12.875,34.397l46.128-17.263l34.824,34.824l34.142-34.148l45.06,17.379l13.567-35.189h50.643v-49.584    l34.398-12.873l-17.264-46.131l34.824-34.824L356.594,161.226z M351.563,218.563c-1.029,6.973-2.533,13.786-4.438,20.424    c-4.306,15.003-10.772,29.1-19.053,41.911l-12.788,12.794l-22.371,22.371l-12.008,12.002    c-12.817,8.275-26.902,14.741-41.912,19.053c-7.143,2.052-14.492,3.611-22.012,4.646c-7.069,0.968-14.273,1.51-21.61,1.51    c-7.883,0-15.625-0.604-23.197-1.711c-6.969-1.029-13.78-2.533-20.426-4.439c-15.007-4.305-29.1-10.771-41.912-19.053    l-12.79-12.787l-22.372-22.372L62.67,280.904c-8.278-12.817-14.745-26.901-19.053-41.911c-2.052-7.143-3.611-14.492-4.646-22.013    c-0.959-7.069-1.504-14.278-1.504-21.61c0-7.882,0.6-15.625,1.711-23.193c1.029-6.972,2.53-13.783,4.439-20.423    c4.308-15.007,10.774-29.101,19.053-41.912l12.79-12.79L97.832,74.68l12.004-12.005c12.818-8.278,26.905-14.745,41.912-19.053    c7.146-2.052,14.492-3.61,22.013-4.646c7.069-0.965,14.279-1.51,21.61-1.51c7.886,0,15.625,0.6,23.193,1.711    c6.972,1.029,13.786,2.53,20.429,4.439c15.01,4.308,29.095,10.775,41.912,19.053l12.787,12.791l22.372,22.372l12.008,12.005    c8.28,12.817,14.747,26.905,19.053,41.912c2.052,7.146,3.61,14.492,4.646,22.012c0.963,7.069,1.511,14.273,1.511,21.61    C353.274,203.256,352.685,210.995,351.563,218.563z" data-original="#000000" class="active-path" data-old_color="#dbc92a" fill="#dbc92a"/>
		<rect x="39.769" y="215.16" width="0.006" height="0.006" data-original="#000000" class="active-path" data-old_color="#dbc92a" fill="#dbc92a"/>
		<rect x="215.167" y="350.966" width="0.006" height="0.007" data-original="#000000" class="active-path" data-old_color="#dbc92a" fill="#dbc92a"/>
		<rect x="175.575" y="39.768" width="0.006" height="0.006" data-original="#000000" class="active-path" data-old_color="#dbc92a" fill="#dbc92a"/>
		<rect x="350.967" y="175.568" width="0.007" height="0.006" data-original="#000000" class="active-path" data-old_color="#dbc92a" fill="#dbc92a"/>
		<path d="M350.974,175.574l0.279,0.621v0.006L350.974,175.574l-0.116,0.274L350.974,175.574l-5.408-11.947l5.401,11.941    l0.743-1.809c-1.029-7.52-2.68-14.867-4.725-22.012l-1.967-1.875l1.99,1.875c-4.311-15.007-10.717-29.1-18.998-41.912    l-12.093-12.005l0.024,0.052l-22.25-22.311l-12.793-12.845c-12.806-8.275-26.884-14.647-41.875-18.956l-0.037-0.042    c-6.637-1.909-13.457-3.474-20.423-4.497l-2.472,1.011l-0.037-0.013l2.509-0.992c-7.568-1.114-15.308-1.745-23.193-1.745    c-7.332,0-14.541,0.53-21.61,1.495l1.814,0.78l0.621-0.28h0.006l-0.621,0.28l0.274,0.119l-0.28-0.112l-11.941,5.4l11.941-5.4    l-1.809-0.743c-7.52,1.029-14.867,2.676-22.012,4.729l-1.882,1.963l1.875-1.988c-15.007,4.308-29.094,10.717-41.912,18.992    L97.884,74.763l-0.052,0.024L75.573,97.104L45.724,162.86l29.849-65.809l-12.845,12.79c-8.275,12.806-14.647,26.878-18.955,41.875    l-0.043,0.037c-1.909,6.64-3.474,13.451-4.497,20.423l1.011,2.466l-0.012,0.034l-0.999-2.5    c-1.111,7.568-1.739,15.311-1.739,23.193c0,7.332,0.53,14.541,1.495,21.61l0.779-1.814l-0.28-0.621v-0.006l0.28,0.621l0.119-0.274    l-0.112,0.28l5.401,11.94l-5.401-11.94l-0.743,1.809c1.029,7.521,2.676,14.863,4.729,22.013l1.963,1.881l-1.988-1.875    c4.308,15.01,10.717,29.1,18.998,41.911l12.035,11.953l0.024,0.055l22.317,22.256l65.75,29.85l-65.814-29.85l12.79,12.843    c12.806,8.281,26.877,14.65,41.875,18.961l0.036,0.037c6.641,1.912,13.457,3.477,20.426,4.5l2.469-1.012l0.033,0.013l-2.502,0.992    c7.572,1.114,15.314,1.741,23.197,1.741c7.331,0,14.541-0.535,21.61-1.497l-1.814-0.78l-0.621,0.287h-0.006l0.621-0.28    l-0.274-0.116l0.28,0.109l11.94-5.4l-11.94,5.4l1.809,0.737c7.52-1.029,14.863-2.673,22.012-4.731l1.882-1.954l-1.876,1.991    c15.01-4.312,29.101-10.717,41.912-18.998l11.953-12.039l0.055-0.023l22.256-22.317l29.85-65.751l-29.85,65.812l12.842-12.794    c8.281-12.806,14.65-26.878,18.962-41.875l0.036-0.036c1.912-6.638,3.478-13.451,4.5-20.424l-1.011-2.466l0.013-0.03l0.992,2.496    c1.12-7.568,1.741-15.308,1.741-23.193c0-7.331-0.536-14.541-1.497-21.61L350.974,175.574z M338.782,220.312h-13.798    c-11.703,60.922-65.33,107.108-129.613,107.108c-64.28,0-117.911-46.187-129.614-107.108H51.959v-49.883h13.798    C77.46,109.51,131.091,63.321,195.371,63.321c64.283,0,117.91,46.189,129.613,107.108h13.798V220.312z" data-original="#000000" class="active-path" data-old_color="#dbc92a" fill="#dbc92a"/>
	</g>
</g></g> </svg>
