<?xml version="1.0"?>
<svg xmlns="http://www.w3.org/2000/svg" xmlns:xlink="http://www.w3.org/1999/xlink" version="1.1" id="Layer_1_1_" x="0px" y="0px" viewBox="0 0 64 64" style="enable-background:new 0 0 64 64;" xml:space="preserve" width="512px" height="512px"><g><g>
	<path d="M58,13h-5V1H1v62h43.449L53,53.38V25h5c2.757,0,5-2.243,5-5v-2C63,15.243,60.757,13,58,13z M53,18h-7v2h7v3H31v-8h22V18z    M29,22.656l-8-2.4v-2.512l8-2.4V22.656z M49.773,54L45,59.37V54H49.773z M47,52h-4v5H25V43h22V52z M51,52h-2V41H23v18h20v2H3V3h48   v10H30l-10.136,3H16c-1.654,0-3,1.346-3,3s1.346,3,3,3h3.853l10.001,3H51V52z M19,20h-3c-0.552,0-1-0.448-1-1s0.448-1,1-1h3V20z    M61,20c0,1.654-1.346,3-3,3h-3v-8h3c1.654,0,3,1.346,3,3V20z" data-original="#000000" class="active-path" data-old_color="#dbc92a" fill="#dbc92a"/>
	<rect x="5" y="5" width="44" height="2" data-original="#000000" class="active-path" data-old_color="#dbc92a" fill="#dbc92a"/>
	<rect x="5" y="9" width="44" height="2" data-original="#000000" class="active-path" data-old_color="#dbc92a" fill="#dbc92a"/>
	<rect x="5" y="13" width="6" height="2" data-original="#000000" class="active-path" data-old_color="#dbc92a" fill="#dbc92a"/>
	<rect x="5" y="17" width="6" height="2" data-original="#000000" class="active-path" data-old_color="#dbc92a" fill="#dbc92a"/>
	<rect x="5" y="21" width="6" height="2" data-original="#000000" class="active-path" data-old_color="#dbc92a" fill="#dbc92a"/>
	<rect x="5" y="57" width="16" height="2" data-original="#000000" class="active-path" data-old_color="#dbc92a" fill="#dbc92a"/>
	<rect x="5" y="53" width="16" height="2" data-original="#000000" class="active-path" data-old_color="#dbc92a" fill="#dbc92a"/>
	<rect x="5" y="49" width="16" height="2" data-original="#000000" class="active-path" data-old_color="#dbc92a" fill="#dbc92a"/>
	<rect x="5" y="45" width="16" height="2" data-original="#000000" class="active-path" data-old_color="#dbc92a" fill="#dbc92a"/>
	<rect x="5" y="41" width="16" height="2" data-original="#000000" class="active-path" data-old_color="#dbc92a" fill="#dbc92a"/>
	<rect x="5" y="37" width="40" height="2" data-original="#000000" class="active-path" data-old_color="#dbc92a" fill="#dbc92a"/>
	<rect x="47" y="37" width="2" height="2" data-original="#000000" class="active-path" data-old_color="#dbc92a" fill="#dbc92a"/>
	<rect x="5" y="33" width="44" height="2" data-original="#000000" class="active-path" data-old_color="#dbc92a" fill="#dbc92a"/>
	<rect x="5" y="29" width="2" height="2" data-original="#000000" class="active-path" data-old_color="#dbc92a" fill="#dbc92a"/>
	<rect x="9" y="29" width="40" height="2" data-original="#000000" class="active-path" data-old_color="#dbc92a" fill="#dbc92a"/>
	<rect x="5" y="25" width="18" height="2" data-original="#000000" class="active-path" data-old_color="#dbc92a" fill="#dbc92a"/>
</g></g> </svg>
