<?xml version="1.0"?>
<svg xmlns="http://www.w3.org/2000/svg" xmlns:xlink="http://www.w3.org/1999/xlink" version="1.1" id="Capa_1" x="0px" y="0px" viewBox="0 0 512 512" style="enable-background:new 0 0 512 512;" xml:space="preserve" width="512px" height="512px"><g><g>
	<g>
		<path d="M509.082,474.996l-20-20.062c-3.9-3.909-10.23-3.921-14.143-0.021c-3.911,3.899-3.921,10.231-0.021,14.143l2.931,2.939    H460v-40h10c5.522,0,10-4.478,10-10v-340c0-5.522-4.478-10-10-10h-40c-5.522,0-10,4.478-10,10v340c0,5.522,4.478,10,10,10h10v40    h-20v-10c0-5.522-4.478-10-10-10c-5.522,0-10,4.478-10,10v10h-20v-40h10c5.522,0,10-4.478,10-10v-270c0-5.522-4.478-10-10-10h-40    c-5.522,0-10,4.478-10,10v270c0,5.522,4.478,10,10,10h10v40h-20v-10c0-5.522-4.478-10-10-10c-5.522,0-10,4.478-10,10v10h-20v-40    h10c5.522,0,10-4.478,10-10v-190c0-5.522-4.478-10-10-10h-40c-5.522,0-10,4.478-10,10v190c0,5.522,4.478,10,10,10h10v40h-20v-10    c0-5.522-4.478-10-10-10c-5.522,0-10,4.478-10,10v10h-20v-40h10c5.522,0,10-4.478,10-10v-140c0-5.522-4.478-10-10-10h-40    c-5.522,0-10,4.478-10,10v140c0,5.522,4.478,10,10,10h10v40h-20v-10c0-5.522-4.478-10-10-10c-5.522,0-10,4.478-10,10v10h-20v-40    h10c5.522,0,10-4.478,10-10v-100c0-5.522-4.478-10-10-10h-40c-5.522,0-10,4.478-10,10v100c0,5.522,4.478,10,10,10h10v40h-20v-10    c0-5.522-4.478-10-10-10c-5.522,0-10,4.478-10,10v10H60v-40h10c5.522,0,10-4.478,10-10v-80c0-5.522-4.478-10-10-10H30    c-5.522,0-10,4.478-10,10v80c0,5.522,4.478,10,10,10h10v40H20v-10c0-5.522-4.478-10-10-10s-10,4.478-10,10v40    c0,5.522,4.478,10,10,10s10-4.478,10-10v-10h20v10c0,5.522,4.478,10,10,10s10-4.478,10-10v-10h20v10c0,5.522,4.478,10,10,10    c5.522,0,10-4.478,10-10v-10h20v10c0,5.522,4.478,10,10,10c5.522,0,10-4.478,10-10v-10h20v10c0,5.522,4.478,10,10,10    c5.522,0,10-4.478,10-10v-10h20v10c0,5.522,4.478,10,10,10c5.522,0,10-4.478,10-10v-10h20v10c0,5.522,4.478,10,10,10    c5.522,0,10-4.478,10-10v-10h20v10c0,5.522,4.478,10,10,10c5.522,0,10-4.478,10-10v-10h20v10c0,5.522,4.478,10,10,10    c5.522,0,10-4.478,10-10v-10h20v10c0,5.522,4.478,10,10,10c5.522,0,10-4.478,10-10v-10h20v10c0,5.522,4.478,10,10,10    c5.522,0,10-4.478,10-10v-10h20v10c0,5.522,4.478,10,10,10c5.522,0,10-4.478,10-10v-10h17.972l-2.931,2.939    c-3.899,3.912-3.89,10.243,0.021,14.143c1.952,1.945,4.506,2.918,7.061,2.918c2.564,0,5.129-0.98,7.082-2.939l19.877-19.938    C512.973,485.213,512.973,478.899,509.082,474.996z M40,411.995v-60h20v60H40z M120,411.995v-80h20v80H120z M200,411.995v-120h20    v120H200z M280,411.995v-170h20v170H280z M360,411.995v-250h20v250H360z M440,411.995v-320h20v320H440z" data-original="#000000" class="active-path" data-old_color="#ffffff" fill="#ffffff"/>
	</g>
</g><g>
	<g>
		<path d="M442.459,41.136l-2.48-31.899c-0.189-2.53-1.33-4.87-3.189-6.58c-2.05-1.891-4.78-2.841-7.55-2.62l-31.91,2.479    c-5.49,0.431-9.62,5.25-9.19,10.75c0.19,2.521,1.33,4.86,3.19,6.57c2.05,1.89,4.779,2.84,7.55,2.62l8.434-0.657    C305.239,142.962,177.479,238.946,61.91,280.615c-5.181,1.87-7.88,7.62-6.011,12.8c1.431,3.96,5.21,6.61,9.411,6.61    c1.16,0,2.3-0.2,3.4-0.601c30.42-11.01,62.04-25.76,93.96-43.86c31.81-18.029,63.939-39.38,95.49-63.449    c31.87-24.311,63.17-51.431,93.04-80.58c24.653-24.072,48.363-49.613,70.755-76.13l0.564,7.28c0.2,2.521,1.33,4.86,3.19,6.58    c1.859,1.7,4.26,2.641,6.77,2.641c0.261,0,0.53-0.011,0.79-0.03C438.759,51.456,442.889,46.636,442.459,41.136z" data-original="#000000" class="active-path" data-old_color="#ffffff" fill="#ffffff"/>
	</g>
</g><g>
	<g>
		<path d="M36.82,299.425c-1.149-4.399-5.13-7.47-9.67-7.47c-0.85,0-1.71,0.109-2.54,0.33c-2.579,0.67-4.75,2.319-6.1,4.62    c-1.35,2.31-1.71,5-1.04,7.59c1.16,4.389,5.13,7.46,9.67,7.46c0.86,0,1.71-0.11,2.54-0.32    C35.02,310.236,38.22,304.755,36.82,299.425z" data-original="#000000" class="active-path" data-old_color="#ffffff" fill="#ffffff"/>
	</g>
</g></g> </svg>
