<?xml version="1.0"?>
<svg xmlns="http://www.w3.org/2000/svg" height="512px" viewBox="-13 0 512 512" width="512px"><g><path d="m203.902344 477.972656c4.144531 0 7.5-3.359375 7.5-7.5 0-4.144531-3.355469-7.5-7.5-7.5h-39.007813c-4.144531 0-7.5 3.355469-7.5 7.5 0 4.140625 3.355469 7.5 7.5 7.5zm0 0" data-original="#000000" class="active-path" data-old_color="#249a1d" fill="#249a1d"/><path d="m361.296875 275.046875c-4.144531 0-7.5 3.359375-7.5 7.5v200.28125c0 7.8125-6.359375 14.171875-14.171875 14.171875h-310.453125c-7.8125 0-14.171875-6.355469-14.171875-14.171875v-453.65625c0-7.816406 6.359375-14.171875 14.171875-14.171875h310.453125c7.8125 0 14.171875 6.355469 14.171875 14.171875v49.75c0 4.144531 3.355469 7.5 7.5 7.5 4.140625 0 7.5-3.355469 7.5-7.5v-49.75c0-16.085937-13.085937-29.171875-29.171875-29.171875h-310.453125c-16.085937 0-29.171875 13.085938-29.171875 29.171875v453.65625c0 16.085937 13.085938 29.171875 29.171875 29.171875h310.453125c16.085938 0 29.171875-13.085938 29.171875-29.171875v-200.28125c0-4.140625-3.359375-7.5-7.5-7.5zm0 0" data-original="#000000" class="active-path" data-old_color="#249a1d" fill="#249a1d"/><path d="m459.476562 106.328125h-128.691406v-54.976563c0-7.355468-5.984375-13.339843-13.339844-13.339843h-266.09375c-7.355468 0-13.339843 5.980469-13.339843 13.339843v382.769532c0 7.355468 5.984375 13.34375 13.339843 13.34375h266.09375c7.355469 0 13.339844-5.984375 13.339844-13.34375v-151.078125l46.023438-38.183594h82.667968c14.9375 0 27.09375-12.15625 27.09375-27.09375v-84.34375c0-14.941406-12.152343-27.09375-27.09375-27.09375zm-143.691406 326.136719h-262.773437v-54.769532c7.121093-11.273437 18.003906-19.507812 30.835937-23.285156.039063-.011718.074219-.023437.113282-.035156l58.707031-18.304688c.058593.039063.117187.074219.175781.113282l18.53125 11.910156c13.984375 8.988281 32.058594 8.988281 46.046875 0l18.507813-11.898438c.066406-.039062.132812-.082031.199218-.125l58.707032 18.304688c.039062.011719.074218.023438.113281.035156 12.832031 3.777344 23.714843 12.011719 30.835937 23.285156zm-107.996094-270.519532c-3.289062 0-6.195312 2.144532-7.167968 5.289063-.839844 2.726563-3.71875 9.769531-12.277344 16.285156-11.394531 8.675781-28.226562 13.140625-50.015625 13.269531-7.152344.042969-12.972656 5.890626-12.972656 13.039063v1.472656c-1.285157-.472656-2.53125-.835937-3.695313-1.113281v-31.433594c0-19.363281 15.753906-35.121094 35.121094-35.121094h55.230469c19.367187 0 35.121093 15.757813 35.121093 35.121094v31.433594c-1.160156.277344-2.40625.640625-3.691406 1.113281v-13.703125c0-19.660156-15.992187-35.652344-35.652344-35.652344zm-83.578124 65.867188c1.808593 1.792969 4.203124 2.742188 6.648437 2.742188 1.230469 0 2.472656-.242188 3.65625-.738282 3.546875-1.476562 5.839844-4.917968 5.839844-8.757812v-9.289063c48.671875-.835937 66.183593-22.015625 72.238281-34.257812 9.078125 2.171875 15.847656 10.351562 15.847656 20.085937v23.460938c0 3.839844 2.289063 7.277344 5.835938 8.757812 3.539062 1.476563 7.582031.691406 10.308594-2.003906 2.375-2.347656 6.058593-3.136719 7.953124-3.394531.347657.550781.542969 1.203125.542969 1.886719v12.230468c0 1.953125-1.585937 3.539063-3.539062 3.539063h-4.175781c-4.078126 0-7.410157 3.261719-7.496094 7.339843-.308594 14.285157-6.367188 27.550782-16.632813 36.386719-2.519531 2.167969-5.128906 4.09375-7.828125 5.765625-.296875.15625-.582031.328125-.851562.519532-8.570313 5.113281-18 7.761718-28.160156 7.890624-10.164063-.128906-19.597657-2.777343-28.164063-7.890624-.269531-.191407-.554687-.363282-.847656-.519532-2.699219-1.671875-5.3125-3.59375-7.832031-5.765625-10.261719-8.835937-16.324219-22.101562-16.632813-36.386719-.085937-4.078124-3.417969-7.339843-7.496094-7.339843h-4.175781c-1.949219 0-3.535156-1.585938-3.535156-3.539063v-12.230468c0-.683594.195312-1.335938.542968-1.886719 1.894532.257812 5.578126 1.046875 7.953126 3.394531zm88.492187 99.054688-13.390625 8.609374c-9.058594 5.820313-20.769531 5.820313-29.828125-.003906l-13.390625-8.605468c2.125-3.789063 3.335938-8.132813 3.335938-12.429688v-4.140625c7.820312 3.015625 16.132812 4.582031 24.886718 4.679687h.082032.082031c8.75-.097656 17.066406-1.664062 24.882812-4.679687v4.140625c.003907 4.292969 1.214844 8.640625 3.339844 12.429688zm103.082031 27.871093c-7.578125-6.730469-16.597656-11.765625-26.539062-14.703125l-59.722656-18.621094c-.9375-.292968-1.894532-.472656-2.847657-.542968-1.390625-1.816406-2.308593-4.265625-2.308593-6.433594v-12.113281c2.273437-1.574219 4.496093-3.292969 6.660156-5.15625 11.738281-10.105469 19.289062-24.515625 21.3125-40.304688 8.902344-1.351562 15.746094-9.054687 15.746094-18.328125v-12.230468c0-5.28125-2.222657-10.171876-5.949219-13.617188v-33.929688c0-27.640624-22.484375-50.121093-50.121094-50.121093h-55.230469c-27.636718 0-50.121094 22.480469-50.121094 50.121093v33.929688c-3.730468 3.445312-5.949218 8.335938-5.949218 13.617188v12.230468c0 9.273438 6.84375 16.976563 15.746094 18.328125 2.019531 15.789063 9.574218 30.199219 21.3125 40.304688 2.164062 1.863281 4.382812 3.582031 6.660156 5.15625v12.113281c0 2.167969-.921875 4.621094-2.308594 6.433594-.957031.074218-1.914062.253906-2.851562.546875l-59.71875 18.621093c-9.945313 2.9375-18.960938 7.972657-26.542969 14.699219v-257.257812h28.503906c4.144531 0 7.5-3.359375 7.5-7.5 0-4.144531-3.355469-7.5-7.5-7.5h-28.503906v-29.46875h262.773437v29.46875h-199.363281c-4.144531 0-7.5 3.355469-7.5 7.5 0 4.140625 3.355469 7.5 7.5 7.5h199.363281v8.847656h-3.726562c-14.941406 0-27.09375 12.152344-27.09375 27.09375v84.34375c0 11.667969 7.410156 21.632813 17.769531 25.441406l-13.335937 49.972657c-1.15625 4.332031.605468 8.867187 4.378906 11.285156 1.703125 1.089844 3.625 1.628906 5.539062 1.628906 2.332032 0 4.652344-.800781 6.546875-2.371094l9.921875-8.234375zm155.785156-136.972656c0 6.667969-5.421874 12.09375-12.09375 12.09375h-85.375c-1.75 0-3.441406.613281-4.789062 1.730469l-50.777344 42.128906c-.015625.011719-.035156.027344-.050781.039062l-10.761719 8.929688 11.582032-43.394531c.601562-2.25.121093-4.652344-1.296876-6.503907-1.417968-1.847656-3.617187-2.929687-5.949218-2.929687-6.667969 0-12.09375-5.425781-12.09375-12.09375v-84.34375c0-6.671875 5.425781-12.097656 12.09375-12.097656h147.421875c6.667969 0 12.09375 5.425781 12.09375 12.097656v84.34375zm0 0" data-original="#000000" class="active-path" data-old_color="#249a1d" fill="#249a1d"/><path d="m438.824219 146.800781c-2.582031-1.835937-5.902344-2.308593-8.898438-1.269531l-15.035156 5.242188c-.835937-5.511719-5.609375-9.75-11.351563-9.75h-63.46875c-6.332031 0-11.480468 5.152343-11.480468 11.484374v46.171876c0 6.332031 5.148437 11.480468 11.480468 11.480468h63.46875c5.742188 0 10.515626-4.238281 11.351563-9.75l15.035156 5.238282c1.046875.367187 2.136719.546874 3.222657.546874 2.007812 0 4-.617187 5.675781-1.808593 2.582031-1.832031 4.125-4.820313 4.125-7.984375v-41.621094c-.003907-3.164062-1.542969-6.148438-4.125-7.980469zm-38.804688 14.324219v.320312 28.308594.300782 5.109374h-56.429687v-39.140624h56.429687zm27.925781 27.953125-12.925781-4.507813v-17.953124l12.925781-4.507813zm0 0" data-original="#000000" class="active-path" data-old_color="#249a1d" fill="#249a1d"/></g> </svg>
