<?xml version="1.0" encoding="utf-8"?>
<!-- Generator: Adobe Illustrator 23.0.2, SVG Export Plug-In . SVG Version: 6.00 Build 0)  -->
<svg version="1.1" id="Layer_1" xmlns="http://www.w3.org/2000/svg" xmlns:xlink="http://www.w3.org/1999/xlink" x="0px" y="0px"
	 viewBox="0 0 100 100" style="enable-background:new 0 0 100 100;" xml:space="preserve">
<style type="text/css">
	.st0{fill:#F0BC5E;}
</style>
<path class="st0" d="M23.7,16.9c0,4.3-3.5,7.7-7.7,7.7s-7.7-3.5-7.7-7.7s3.5-7.7,7.7-7.7S23.7,12.7,23.7,16.9z"/>
<path d="M8.2,64.9h3.1v12.4H8.2V64.9z"/>
<path d="M8.2,58.7h3.1v3.1H8.2V58.7z"/>
<path d="M8.2,80.4h3.1v3.1H8.2V80.4z"/>
<path d="M48.5,21.6h3.1v15.5h-3.1V21.6z"/>
<path d="M59.5,39.3l12-12l2.2,2.2l-12,12L59.5,39.3z"/>
<path d="M40.5,39.3L26.8,25.6c2-2.5,3.1-5.5,3.1-8.7c0-4-1.7-7.7-4.6-10.4c-2.9-2.6-6.9-3.9-10.9-3.5C8.2,3.8,3.1,8.7,2.2,14.7
	C1.5,18.8,2.7,22.9,5.4,26c0.4,0.5,0.8,1,1.1,1.5c-0.9,0.8-1.4,2-1.4,3.3c0,2.1,1.4,3.8,3.2,4.4c0.6,3.6,3.8,6.4,7.6,6.4
	s7-2.8,7.6-6.4c1.9-0.6,3.2-2.3,3.2-4.4c0-0.4,0-0.7-0.1-1l11.7,11.7L40.5,39.3z M7.7,24c-2.1-2.4-3-5.6-2.5-8.8
	c0.7-4.7,4.7-8.5,9.5-9c3.1-0.4,6.1,0.6,8.5,2.7c2.3,2.1,3.6,5,3.6,8.1c0,2.6-0.9,5.1-2.7,7.1c-0.6,0.7-1.1,1.4-1.6,2.2
	c-0.1,0-0.3,0-0.4,0h-4.6v-4.9c1.8-0.6,3.1-2.3,3.1-4.4c0-2.6-2.1-4.6-4.6-4.6s-4.6,2.1-4.6,4.6c0,2,1.3,3.7,3.1,4.4v4.9H9.7
	c-0.1,0-0.3,0-0.4,0C8.8,25.5,8.3,24.7,7.7,24z M14.4,16.9c0-0.9,0.7-1.5,1.5-1.5c0.9,0,1.5,0.7,1.5,1.5s-0.7,1.5-1.5,1.5
	C15.1,18.5,14.4,17.8,14.4,16.9z M15.9,38.6c-2,0-3.7-1.3-4.4-3.1h8.7C19.7,37.3,18,38.6,15.9,38.6z M22.1,32.4H9.7
	c-0.9,0-1.5-0.7-1.5-1.5s0.7-1.5,1.5-1.5h12.4c0.9,0,1.5,0.7,1.5,1.5S23,32.4,22.1,32.4z"/>
<path d="M88.7,66.5h3.1v9.3h-3.1V66.5z"/>
<path d="M90.3,43.3H65.1v3.1h17.4v49.5h-65V46.4h17.4v-3.1H9.7C5.5,43.3,2,46.7,2,51v40.3C2,95.5,5.5,99,9.7,99h80.5
	c4.3,0,7.7-3.5,7.7-7.7V51C98,46.7,94.5,43.3,90.3,43.3z M5.1,91.3V51c0-2.6,2.1-4.6,4.6-4.6h4.6v49.5H9.7
	C7.2,95.9,5.1,93.8,5.1,91.3z M94.9,91.3c0,2.6-2.1,4.6-4.6,4.6h-4.6V46.4h4.6c2.6,0,4.6,2.1,4.6,4.6V91.3z"/>
<path d="M23.7,89.7V52.5h7.7v-3.1H20.6v43.4h58.8V49.5H68v3.1h8.4v37.2H23.7z"/>
<path class="st0" d="M50,75.8c-11.1,0-20.1-9-20.1-20.1s9-20.1,20.1-20.1s20.1,9,20.1,20.1S61.1,75.8,50,75.8z"/>
<path d="M42.3,65.9V45.4l20.5,10.2L42.3,65.9z M45.4,50.4v10.5l10.5-5.2L45.4,50.4z"/>
<path class="st0" d="M86.7,34h-8.4l-0.9-2.5c-0.2-0.1-0.4-0.1-0.5-0.2l-2.4,1.2l-5.9-5.9l1.2-2.4c-0.1-0.2-0.2-0.4-0.2-0.5L67,22.7
	v-8.4l2.5-0.9c0.1-0.2,0.1-0.4,0.2-0.5l-1.2-2.4l5.9-5.9l2.4,1.2c0.2-0.1,0.4-0.2,0.5-0.2L78.3,3h8.4l0.9,2.5
	c0.2,0.1,0.4,0.1,0.5,0.2l2.4-1.2l5.9,5.9l-1.2,2.4c0.1,0.2,0.2,0.4,0.2,0.5l2.5,0.9v8.4l-2.5,0.9c-0.1,0.2-0.1,0.4-0.2,0.5l1.2,2.4
	l-5.9,5.9l-2.4-1.2c-0.2,0.1-0.4,0.2-0.5,0.2L86.7,34z"/>
<path d="M82.5,26.2c-4.3,0-7.7-3.5-7.7-7.7s3.5-7.7,7.7-7.7s7.7,3.5,7.7,7.7S86.8,26.2,82.5,26.2z M82.5,13.8
	c-2.6,0-4.6,2.1-4.6,4.6s2.1,4.6,4.6,4.6s4.6-2.1,4.6-4.6S85.1,13.8,82.5,13.8z"/>
<path d="M50,18.5c-2.6,0-4.6-2.1-4.6-4.6s2.1-4.6,4.6-4.6s4.6,2.1,4.6,4.6S52.6,18.5,50,18.5z M50,12.3c-0.9,0-1.5,0.7-1.5,1.5
	s0.7,1.5,1.5,1.5s1.5-0.7,1.5-1.5S50.9,12.3,50,12.3z"/>
<path d="M60.8,13.8h-3.1c0-4.3-3.5-7.7-7.7-7.7s-7.7,3.5-7.7,7.7h-3.1C39.2,7.9,44,3,50,3S60.8,7.9,60.8,13.8z"/>
</svg>
