<?xml version="1.0" encoding="utf-8"?>
<!-- Generator: Adobe Illustrator 23.0.2, SVG Export Plug-In . SVG Version: 6.00 Build 0)  -->
<svg version="1.1" id="Layer_1" xmlns="http://www.w3.org/2000/svg" xmlns:xlink="http://www.w3.org/1999/xlink" x="0px" y="0px"
	 viewBox="0 0 100 100" style="enable-background:new 0 0 100 100;" xml:space="preserve">
<style type="text/css">
	.st0{fill:#333333;}
	.st1{fill:#ED0A0A;}
</style>
<g>
	<g>
		<path class="st0" d="M43.1,46.3L6.2,83.2l11.3,11.3l36.9-36.9l17-17L60,29.3L43.1,46.3z M17.4,91.1l-7.9-7.9L44.7,48l7.9,7.9
			L17.4,91.1z M60,32.7l7.9,7.9L54.3,54.2l-7.9-7.9L60,32.7z"/>
		<polygon class="st1" points="84.3,48.9 86.6,48.9 86.6,41.6 94,41.6 94,39.2 86.6,39.2 86.6,31.8 84.3,31.8 84.3,39.2 76.9,39.2 
			76.9,41.6 84.3,41.6 		"/>
		<polygon class="st1" points="86.9,57.2 86.9,54.9 79.5,54.9 79.5,47.5 77.2,47.5 77.2,54.9 69.8,54.9 69.8,57.2 77.2,57.2 
			77.2,64.6 79.5,64.6 79.5,57.2 		"/>
		<polygon class="st1" points="69,13 61.6,13 61.6,5.7 59.3,5.7 59.3,13 51.9,13 51.9,15.4 59.3,15.4 59.3,22.8 61.6,22.8 
			61.6,15.4 69,15.4 		"/>
		<polygon class="st1" points="53.3,20.2 46,20.2 46,12.8 43.6,12.8 43.6,20.2 36.2,20.2 36.2,22.5 43.6,22.5 43.6,29.9 46,29.9 
			46,22.5 53.3,22.5 		"/>
	</g>
</g>
</svg>
