<?xml version="1.0" encoding="utf-8"?>
<!-- Generator: Adobe Illustrator 23.0.2, SVG Export Plug-In . SVG Version: 6.00 Build 0)  -->
<svg version="1.1" xmlns="http://www.w3.org/2000/svg" xmlns:xlink="http://www.w3.org/1999/xlink" x="0px" y="0px"
	 viewBox="0 0 100 100" style="enable-background:new 0 0 100 100;" xml:space="preserve">
<style type="text/css">
	.st0{display:none;}
	.st1{display:inline;fill:#F0BC5E;}
	.st2{display:inline;}
	.st3{fill:#F0BC5E;}
</style>
<g id="Layer_1" class="st0">
	<path class="st1" d="M23.7,16.9c0,4.3-3.5,7.7-7.7,7.7s-7.7-3.5-7.7-7.7s3.5-7.7,7.7-7.7S23.7,12.7,23.7,16.9z"/>
	<path class="st2" d="M8.2,64.9h3.1v12.4H8.2V64.9z"/>
	<path class="st2" d="M8.2,58.7h3.1v3.1H8.2V58.7z"/>
	<path class="st2" d="M8.2,80.4h3.1v3.1H8.2V80.4z"/>
	<path class="st2" d="M48.5,21.6h3.1v15.5h-3.1V21.6z"/>
	<path class="st2" d="M59.5,39.3l12-12l2.2,2.2l-12,12L59.5,39.3z"/>
	<path class="st2" d="M40.5,39.3L26.8,25.6c2-2.5,3.1-5.5,3.1-8.7c0-4-1.7-7.7-4.6-10.4c-2.9-2.6-6.9-3.9-10.9-3.5
		C8.2,3.8,3.1,8.7,2.2,14.7C1.5,18.8,2.7,22.9,5.4,26c0.4,0.5,0.8,1,1.1,1.5c-0.9,0.8-1.4,2-1.4,3.3c0,2.1,1.4,3.8,3.2,4.4
		c0.6,3.6,3.8,6.4,7.6,6.4s7-2.8,7.6-6.4c1.9-0.6,3.2-2.3,3.2-4.4c0-0.4,0-0.7-0.1-1l11.7,11.7L40.5,39.3z M7.7,24
		c-2.1-2.4-3-5.6-2.5-8.8c0.7-4.7,4.7-8.5,9.5-9c3.1-0.4,6.1,0.6,8.5,2.7c2.3,2.1,3.6,5,3.6,8.1c0,2.6-0.9,5.1-2.7,7.1
		c-0.6,0.7-1.1,1.4-1.6,2.2c-0.1,0-0.3,0-0.4,0h-4.6v-4.9c1.8-0.6,3.1-2.3,3.1-4.4c0-2.6-2.1-4.6-4.6-4.6s-4.6,2.1-4.6,4.6
		c0,2,1.3,3.7,3.1,4.4v4.9H9.7c-0.1,0-0.3,0-0.4,0C8.8,25.5,8.3,24.7,7.7,24z M14.4,16.9c0-0.9,0.7-1.5,1.5-1.5
		c0.9,0,1.5,0.7,1.5,1.5s-0.7,1.5-1.5,1.5C15.1,18.5,14.4,17.8,14.4,16.9z M15.9,38.6c-2,0-3.7-1.3-4.4-3.1h8.7
		C19.7,37.3,18,38.6,15.9,38.6z M22.1,32.4H9.7c-0.9,0-1.5-0.7-1.5-1.5s0.7-1.5,1.5-1.5h12.4c0.9,0,1.5,0.7,1.5,1.5
		S23,32.4,22.1,32.4z"/>
	<path class="st2" d="M88.7,66.5h3.1v9.3h-3.1V66.5z"/>
	<path class="st2" d="M90.3,43.3H65.1v3.1h17.4v49.5h-65V46.4h17.4v-3.1H9.7C5.5,43.3,2,46.7,2,51v40.3C2,95.5,5.5,99,9.7,99h80.5
		c4.3,0,7.7-3.5,7.7-7.7V51C98,46.7,94.5,43.3,90.3,43.3z M5.1,91.3V51c0-2.6,2.1-4.6,4.6-4.6h4.6v49.5H9.7
		C7.2,95.9,5.1,93.8,5.1,91.3z M94.9,91.3c0,2.6-2.1,4.6-4.6,4.6h-4.6V46.4h4.6c2.6,0,4.6,2.1,4.6,4.6V91.3z"/>
	<path class="st2" d="M23.7,89.7V52.5h7.7v-3.1H20.6v43.4h58.8V49.5H68v3.1h8.4v37.2H23.7z"/>
	<path class="st1" d="M50,75.8c-11.1,0-20.1-9-20.1-20.1s9-20.1,20.1-20.1s20.1,9,20.1,20.1S61.1,75.8,50,75.8z"/>
	<path class="st2" d="M42.3,65.9V45.4l20.5,10.2L42.3,65.9z M45.4,50.4v10.5l10.5-5.2L45.4,50.4z"/>
	<path class="st1" d="M86.7,34h-8.4l-0.9-2.5c-0.2-0.1-0.4-0.1-0.5-0.2l-2.4,1.2l-5.9-5.9l1.2-2.4c-0.1-0.2-0.2-0.4-0.2-0.5L67,22.7
		v-8.4l2.5-0.9c0.1-0.2,0.1-0.4,0.2-0.5l-1.2-2.4l5.9-5.9l2.4,1.2c0.2-0.1,0.4-0.2,0.5-0.2L78.3,3h8.4l0.9,2.5
		c0.2,0.1,0.4,0.1,0.5,0.2l2.4-1.2l5.9,5.9l-1.2,2.4c0.1,0.2,0.2,0.4,0.2,0.5l2.5,0.9v8.4l-2.5,0.9c-0.1,0.2-0.1,0.4-0.2,0.5
		l1.2,2.4l-5.9,5.9l-2.4-1.2c-0.2,0.1-0.4,0.2-0.5,0.2L86.7,34z"/>
	<path class="st2" d="M82.5,26.2c-4.3,0-7.7-3.5-7.7-7.7s3.5-7.7,7.7-7.7s7.7,3.5,7.7,7.7S86.8,26.2,82.5,26.2z M82.5,13.8
		c-2.6,0-4.6,2.1-4.6,4.6s2.1,4.6,4.6,4.6s4.6-2.1,4.6-4.6S85.1,13.8,82.5,13.8z"/>
	<path class="st2" d="M50,18.5c-2.6,0-4.6-2.1-4.6-4.6s2.1-4.6,4.6-4.6s4.6,2.1,4.6,4.6S52.6,18.5,50,18.5z M50,12.3
		c-0.9,0-1.5,0.7-1.5,1.5s0.7,1.5,1.5,1.5s1.5-0.7,1.5-1.5S50.9,12.3,50,12.3z"/>
	<path class="st2" d="M60.8,13.8h-3.1c0-4.3-3.5-7.7-7.7-7.7s-7.7,3.5-7.7,7.7h-3.1C39.2,7.9,44,3,50,3S60.8,7.9,60.8,13.8z"/>
</g>
<g id="Layer_2">
	<path class="st3" d="M79.7,91.9h-5.3l-0.7-2c-0.9-0.3-1.9-0.6-2.7-1.1l-1.9,0.9L65.5,86l0.9-1.9c-0.5-0.9-0.9-1.8-1.1-2.7l-2-0.7
		v-5.3l2-0.7c0.3-0.9,0.6-1.9,1.1-2.7l-0.9-1.9l3.7-3.7l1.9,0.9c0.9-0.5,1.8-0.9,2.7-1.1l0.7-2h5.3l0.7,2c0.9,0.3,1.9,0.6,2.7,1.1
		l1.9-0.9l3.7,3.7l-0.9,1.9c0.5,0.9,0.9,1.8,1.1,2.7l2,0.7v5.3l-2,0.7c-0.3,0.9-0.6,1.9-1.1,2.7l0.9,1.9L85,89.7l-1.9-0.9
		c-0.9,0.5-1.8,0.9-2.7,1.1L79.7,91.9z"/>
	<path d="M77.1,84.2c-3.4,0-6.1-2.7-6.1-6.1c0-3.4,2.7-6.1,6.1-6.1c3.4,0,6.1,2.7,6.1,6.1C83.2,81.5,80.5,84.2,77.1,84.2z M77.1,75
		c-1.7,0-3.1,1.4-3.1,3.1c0,1.7,1.4,3.1,3.1,3.1c1.7,0,3.1-1.4,3.1-3.1C80.1,76.4,78.8,75,77.1,75z"/>
	<path d="M92.4,3c-2.5,0-4.6,2.1-4.6,4.6c0,0.1,0,0.2,0,0.2l-10.4,4.3c-0.8-0.9-2-1.5-3.4-1.5c-2.5,0-4.6,2.1-4.6,4.6
		c0,0.4,0.1,0.8,0.2,1.2l-10.1,7.1c-0.7-0.4-1.5-0.6-2.3-0.6c-2.5,0-4.6,2.1-4.6,4.6c0,1.2,0.5,2.4,1.3,3.2l-5.3,10.7
		c-0.2,0-0.4-0.1-0.6-0.1c-0.7,0-1.4,0.2-2,0.5l-6.9-6.9L36.9,37l6.9,6.9c-0.3,0.6-0.5,1.3-0.5,2c0,2.5,2.1,4.6,4.6,4.6
		s4.6-2.1,4.6-4.6c0-1.2-0.5-2.4-1.3-3.2l5.3-10.7c0.2,0,0.4,0.1,0.6,0.1c2.5,0,4.6-2.1,4.6-4.6c0-0.6-0.1-1.1-0.3-1.6l9.9-6.9
		c0.8,0.5,1.7,0.9,2.7,0.9c2.5,0,4.6-2.1,4.6-4.6c0-0.1,0-0.2,0-0.2L89,10.7c0.8,0.9,2,1.5,3.4,1.5c2.5,0,4.6-2.1,4.6-4.6
		S94.9,3,92.4,3z M48,47.4c-0.8,0-1.5-0.7-1.5-1.5c0-0.8,0.7-1.5,1.5-1.5c0.8,0,1.5,0.7,1.5,1.5C49.5,46.7,48.8,47.4,48,47.4z
		 M57.2,29c-0.8,0-1.5-0.7-1.5-1.5s0.7-1.5,1.5-1.5c0.8,0,1.5,0.7,1.5,1.5S58,29,57.2,29z M74,16.8c-0.8,0-1.5-0.7-1.5-1.5
		s0.7-1.5,1.5-1.5s1.5,0.7,1.5,1.5S74.9,16.8,74,16.8z M92.4,9.1c-0.8,0-1.5-0.7-1.5-1.5s0.7-1.5,1.5-1.5c0.8,0,1.5,0.7,1.5,1.5
		S93.2,9.1,92.4,9.1z"/>
	<path d="M92.4,45.9H67.9c-2.5,0-4.6,2.1-4.6,4.6c0,1.2,0.5,2.2,1.2,3.1c-0.7,0.8-1.2,1.9-1.2,3.1c0,0.7,0.2,1.4,0.5,2
		c-0.6-0.3-1.3-0.5-2-0.5H37.2c-2.5,0-4.6,2.1-4.6,4.6c0,0.7,0.2,1.4,0.5,2c-0.6-0.3-1.3-0.5-2-0.5H6.6c-2.5,0-4.6,2.1-4.6,4.6
		c0,1.2,0.5,2.2,1.2,3.1C2.5,72.8,2,73.8,2,75s0.5,2.2,1.2,3.1C2.5,78.9,2,80,2,81.1c0,1.2,0.5,2.2,1.2,3.1C2.5,85,2,86.1,2,87.3
		s0.5,2.2,1.2,3.1C2.5,91.2,2,92.2,2,93.4C2,95.9,4.1,98,6.6,98h24.5c1.2,0,2.2-0.5,3.1-1.2c0.8,0.7,1.9,1.2,3.1,1.2h24.5
		c2.1,0,3.8-1.4,4.4-3.3C69.3,96.8,73,98,77.1,98c11,0,19.9-8.9,19.9-19.9c0-4-1.2-7.8-3.3-10.9c1.9-0.6,3.3-2.3,3.3-4.4
		c0-1.2-0.5-2.2-1.2-3.1c0.7-0.8,1.2-1.9,1.2-3.1s-0.5-2.2-1.2-3.1c0.7-0.8,1.2-1.9,1.2-3.1C97,48,94.9,45.9,92.4,45.9z M67.9,49
		h24.5c0.8,0,1.5,0.7,1.5,1.5S93.2,52,92.4,52H67.9c-0.8,0-1.5-0.7-1.5-1.5S67,49,67.9,49z M93.9,56.6c0,0.8-0.7,1.5-1.5,1.5H67.9
		c-0.8,0-1.5-0.7-1.5-1.5s0.7-1.5,1.5-1.5h24.5C93.2,55.1,93.9,55.8,93.9,56.6z M5.1,87.3c0-0.8,0.7-1.5,1.5-1.5h24.5
		c0.8,0,1.5,0.7,1.5,1.5s-0.7,1.5-1.5,1.5H6.6C5.8,88.8,5.1,88.1,5.1,87.3z M5.1,81.1c0-0.8,0.7-1.5,1.5-1.5h24.5
		c0.8,0,1.5,0.7,1.5,1.5c0,0.8-0.7,1.5-1.5,1.5H6.6C5.8,82.7,5.1,82,5.1,81.1z M5.1,75c0-0.8,0.7-1.5,1.5-1.5h24.5
		c0.8,0,1.5,0.7,1.5,1.5s-0.7,1.5-1.5,1.5H6.6C5.8,76.5,5.1,75.9,5.1,75z M57.2,79.6c0.1,1,0.2,2.1,0.5,3.1H37.2
		c-0.8,0-1.5-0.7-1.5-1.5c0-0.8,0.7-1.5,1.5-1.5H57.2z M35.7,87.3c0-0.8,0.7-1.5,1.5-1.5h21.5c0.4,1.1,1,2.1,1.6,3.1H37.2
		C36.4,88.8,35.7,88.1,35.7,87.3z M57.2,76.5h-20c-0.8,0-1.5-0.7-1.5-1.5s0.7-1.5,1.5-1.5h20.5C57.5,74.5,57.3,75.5,57.2,76.5z
		 M58.7,70.4H37.2c-0.8,0-1.5-0.7-1.5-1.5c0-0.8,0.7-1.5,1.5-1.5h23.1C59.7,68.3,59.1,69.3,58.7,70.4z M66.1,61.5
		c-0.1-0.2-0.2-0.5-0.3-0.7c0.3,0.1,0.6,0.3,0.9,0.3C66.6,61.2,66.3,61.3,66.1,61.5z M37.2,61.2h24.5c0.8,0,1.5,0.7,1.5,1.5
		c0,0.8-0.7,1.5-1.5,1.5H37.2c-0.8,0-1.5-0.7-1.5-1.5C35.7,61.9,36.4,61.2,37.2,61.2z M6.6,67.4h24.5c0.8,0,1.5,0.7,1.5,1.5
		c0,0.8-0.7,1.5-1.5,1.5H6.6c-0.8,0-1.5-0.7-1.5-1.5C5.1,68,5.8,67.4,6.6,67.4z M31.1,94.9H6.6c-0.8,0-1.5-0.7-1.5-1.5
		c0-0.8,0.7-1.5,1.5-1.5h24.5c0.8,0,1.5,0.7,1.5,1.5C32.6,94.2,32,94.9,31.1,94.9z M61.8,94.9H37.2c-0.8,0-1.5-0.7-1.5-1.5
		c0-0.8,0.7-1.5,1.5-1.5h24.5c0.8,0,1.5,0.7,1.5,1.5C63.3,94.2,62.6,94.9,61.8,94.9z M77.1,94.9c-9.3,0-16.9-7.6-16.9-16.9
		s7.6-16.9,16.9-16.9s16.9,7.6,16.9,16.9S86.4,94.9,77.1,94.9z M92.4,64.3h-1c-1.1-1.2-2.4-2.2-3.8-3.1h4.8c0.8,0,1.5,0.7,1.5,1.5
		C93.9,63.6,93.2,64.3,92.4,64.3z"/>
	<path d="M86.3,42.8h3.1V29h6.3L84.7,15.9L73.8,29h6.3v13.8h3.1V26h-2.9l4.4-5.3l4.4,5.3h-2.9V42.8z"/>
	<path class="st3" d="M21.9,61.2c-1.5,0-2.9-0.8-3.6-2l-13.4-22C3,34.2,2,30.6,2,27.1C2,16.3,10.7,7.6,21.5,7.6h0.9
		c10.7,0,19.5,8.7,19.5,19.5c0,3.6-1,7.1-2.9,10.2l-13.4,22C24.8,60.4,23.4,61.2,21.9,61.2z"/>
	<path d="M26.5,27c1-1.1,1.6-2.5,1.6-4.1v-3.1c0-3.4-2.7-6.1-6.1-6.1s-6.1,2.7-6.1,6.1v3.1c0,1.6,0.6,3,1.6,4.1
		c-3.6,1.7-6.2,5.4-6.2,9.7v1.5h21.5v-1.5C32.6,32.4,30.1,28.7,26.5,27z M18.9,22.9v-3.1c0-1.7,1.4-3.1,3.1-3.1s3.1,1.4,3.1,3.1v3.1
		c0,1.7-1.4,3.1-3.1,3.1S18.9,24.6,18.9,22.9z M14.4,35.2c0.7-3.5,3.8-6.1,7.5-6.1s6.8,2.6,7.5,6.1H14.4z"/>
</g>
</svg>
