<?xml version="1.0" encoding="utf-8"?>
<!-- Generator: Adobe Illustrator 23.0.2, SVG Export Plug-In . SVG Version: 6.00 Build 0)  -->
<svg version="1.1" xmlns="http://www.w3.org/2000/svg" xmlns:xlink="http://www.w3.org/1999/xlink" x="0px" y="0px"
	 viewBox="0 0 100 100" style="enable-background:new 0 0 100 100;" xml:space="preserve">
<style type="text/css">
	.st0{display:none;}
	.st1{display:inline;}
	.st2{fill:#333333;}
	.st3{fill:#ED0A0A;}
	.st4{display:inline;fill:#ED0A0A;}
	.st5{display:inline;fill:#333333;}
</style>
<g id="Layer_1" class="st0">
	<g class="st1">
		<g>
			<path class="st2" d="M43.1,46.3L6.2,83.2l11.3,11.3l36.9-36.9l17-17L60,29.3L43.1,46.3z M17.4,91.1l-7.9-7.9L44.7,48l7.9,7.9
				L17.4,91.1z M60,32.7l7.9,7.9L54.3,54.2l-7.9-7.9L60,32.7z"/>
			<polygon class="st3" points="84.3,48.9 86.6,48.9 86.6,41.6 94,41.6 94,39.2 86.6,39.2 86.6,31.8 84.3,31.8 84.3,39.2 76.9,39.2 
				76.9,41.6 84.3,41.6 			"/>
			<polygon class="st3" points="86.9,57.2 86.9,54.9 79.5,54.9 79.5,47.5 77.2,47.5 77.2,54.9 69.8,54.9 69.8,57.2 77.2,57.2 
				77.2,64.6 79.5,64.6 79.5,57.2 			"/>
			<polygon class="st3" points="69,13 61.6,13 61.6,5.7 59.3,5.7 59.3,13 51.9,13 51.9,15.4 59.3,15.4 59.3,22.8 61.6,22.8 
				61.6,15.4 69,15.4 			"/>
			<polygon class="st3" points="53.3,20.2 46,20.2 46,12.8 43.6,12.8 43.6,20.2 36.2,20.2 36.2,22.5 43.6,22.5 43.6,29.9 46,29.9 
				46,22.5 53.3,22.5 			"/>
		</g>
	</g>
</g>
<g id="Layer_2" class="st0">
	<path class="st4" d="M79.6,52.1c1.1-1.2,1.1-3,0-4.1c-8.3-9.2-19-14.2-30.1-14.2c-11.1,0-21.8,5.1-30.1,14.2c-1.1,1.2-1.1,3,0,4.1
		c1.4,1.5,2.9,3,4.4,4.3c0.6,0.5,1.4,0.4,1.9-0.1c0.5-0.6,0.4-1.4-0.1-1.9c-1.5-1.3-2.9-2.6-4.2-4.1c-0.2-0.2-0.2-0.4,0-0.6
		c7.8-8.6,17.8-13.4,28.2-13.4c10.4,0,20.4,4.8,28.2,13.4c0.2,0.2,0.2,0.4,0,0.6c-7.8,8.6-17.8,13.4-28.2,13.4
		c-6.9,0-13.4-2-19.5-5.9c-0.6-0.4-1.4-0.2-1.8,0.4c-0.4,0.6-0.2,1.4,0.4,1.8c6.4,4.2,13.7,6.4,20.9,6.4
		C60.6,66.3,71.3,61.2,79.6,52.1z"/>
	<path class="st1" d="M88.8,72.2c-1.2-0.5-2.5-0.2-3.4,0.7l-4.3,4.3c-0.5,0.5-0.5,1.3,0,1.9c0.5,0.5,1.3,0.5,1.9,0l4.3-4.3
		c0.2-0.2,0.4-0.2,0.6-0.1c0.1,0,0.3,0.2,0.3,0.5v13c0,0.3-0.2,0.5-0.5,0.5h-13c-0.3,0-0.4-0.2-0.5-0.3s-0.1-0.3,0.1-0.6l4.6-4.6
		c0.5-0.5,0.5-1.3,0-1.9c-0.5-0.5-1.3-0.5-1.9,0l-4.6,4.6c-0.9,0.9-1.2,2.2-0.7,3.4c0.5,1.2,1.6,1.9,2.9,1.9h13
		c1.7,0,3.1-1.4,3.1-3.1v-13C90.8,73.9,90,72.7,88.8,72.2z"/>
	<path class="st5" d="M91.3,15.1c1.7,0,3.1-1.4,3.1-3.1V8.1C94.4,6.4,93,5,91.3,5h-3.8c-1.7,0-3.1,1.4-3.1,3.1v0.6H54.6V8.1
		c0-1.7-1.4-3.1-3.1-3.1h-3.8c-1.7,0-3.1,1.4-3.1,3.1v0.6H14.7V8.1c0-1.7-1.4-3.1-3.1-3.1H7.7C6,5,4.6,6.4,4.6,8.1v3.8
		c0,1.7,1.4,3.1,3.1,3.1h0.5V45H7.7c-1.7,0-3.1,1.4-3.1,3.1v3.8C4.6,53.6,6,55,7.7,55h0.5v29.9H7.7c-1.7,0-3.1,1.4-3.1,3.1v3.8
		C4.6,93.6,6,95,7.7,95h3.8c1.7,0,3.1-1.4,3.1-3.1v-0.6h29.8v0.6c0,1.7,1.4,3.1,3.1,3.1h3.8c1.7,0,3.1-1.4,3.1-3.1v-3.8
		c0-1.7-1.4-3.1-3.1-3.1h-3.8c-1.7,0-3.1,1.4-3.1,3.1v0.6H14.7v-0.6c0-1.7-1.4-3.1-3.1-3.1h-0.7V55h0.7c1.7,0,3.1-1.4,3.1-3.1v-3.8
		c0-1.7-1.4-3.1-3.1-3.1h-0.7V15.1h0.7c1.7,0,3.1-1.4,3.1-3.1v-0.6h29.8v0.6c0,1.7,1.4,3.1,3.1,3.1h3.8c1.7,0,3.1-1.4,3.1-3.1v-0.6
		h29.8v0.6c0,1.7,1.4,3.1,3.1,3.1h0.7V45h-0.7c-1.7,0-3.1,1.4-3.1,3.1v3.8c0,1.7,1.4,3.1,3.1,3.1h3.8c1.7,0,3.1-1.4,3.1-3.1v-3.8
		c0-1.7-1.4-3.1-3.1-3.1h-0.5V15.1H91.3z M47.1,88.1c0-0.3,0.2-0.5,0.5-0.5h3.8c0.3,0,0.5,0.2,0.5,0.5v3.8c0,0.3-0.2,0.5-0.5,0.5
		h-3.8c-0.3,0-0.5-0.2-0.5-0.5V88.1z M11.5,87.6c0.3,0,0.5,0.2,0.5,0.5v3.8c0,0.3-0.2,0.5-0.5,0.5H7.7c-0.3,0-0.5-0.2-0.5-0.5v-3.8
		c0-0.3,0.2-0.5,0.5-0.5H11.5z M11.5,47.6c0.3,0,0.5,0.2,0.5,0.5v3.8c0,0.3-0.2,0.5-0.5,0.5H7.7c-0.3,0-0.5-0.2-0.5-0.5v-3.8
		c0-0.3,0.2-0.5,0.5-0.5H11.5z M12,11.9c0,0.3-0.2,0.5-0.5,0.5H7.7c-0.3,0-0.5-0.2-0.5-0.5V8.1c0-0.3,0.2-0.5,0.5-0.5h3.8
		c0.3,0,0.5,0.2,0.5,0.5V11.9z M51.9,11.9c0,0.3-0.2,0.5-0.5,0.5h-3.8c-0.3,0-0.5-0.2-0.5-0.5V8.1c0-0.3,0.2-0.5,0.5-0.5h3.8
		c0.3,0,0.5,0.2,0.5,0.5V11.9z M91.3,47.6c0.3,0,0.5,0.2,0.5,0.5v3.8c0,0.3-0.2,0.5-0.5,0.5h-3.8c-0.3,0-0.5-0.2-0.5-0.5v-3.8
		c0-0.3,0.2-0.5,0.5-0.5H91.3z M87.5,12.4c-0.3,0-0.5-0.2-0.5-0.5V8.1c0-0.3,0.2-0.5,0.5-0.5h3.8c0.3,0,0.5,0.2,0.5,0.5v3.8
		c0,0.3-0.2,0.5-0.5,0.5H87.5z"/>
	<path class="st4" d="M58.8,48.1c0.1,0.7,0.8,1.2,1.6,1c0.7-0.1,1.2-0.8,1-1.6c-1.1-5.6-6.1-9.7-11.9-9.7c-6.7,0-12.1,5.4-12.1,12.1
		s5.4,12.1,12.1,12.1c5.1,0,9.7-3.2,11.4-8.1c0.2-0.7-0.1-1.4-0.8-1.7s-1.4,0.1-1.7,0.8c-1.3,3.8-4.9,6.3-8.9,6.3
		c-5.2,0-9.5-4.2-9.5-9.5c0-5.2,4.2-9.5,9.5-9.5C54,40.5,57.9,43.7,58.8,48.1z"/>
	<path class="st4" d="M51.8,43.3c-1.3,0-2.4,0.7-3.1,1.7c-2.4,0.4-4.3,2.5-4.3,5c0,2.8,2.3,5,5,5c2.8,0,5-2.3,5-5c0-0.2,0-0.5,0-0.7
		c0.6-0.6,0.9-1.5,0.9-2.4C55.4,44.9,53.8,43.3,51.8,43.3z M51.8,45.9c0.5,0,1,0.4,1,1s-0.4,1-1,1s-1-0.4-1-1S51.3,45.9,51.8,45.9z
		 M49.5,52.4c-1.3,0-2.4-1.1-2.4-2.4c0-0.9,0.5-1.7,1.2-2.1c0.4,1.5,1.8,2.6,3.5,2.6c0,0,0,0,0,0C51.6,51.6,50.7,52.4,49.5,52.4z"/>
	<path class="st1" d="M49.5,29.8L49.5,29.8c0.7,0,1.3-0.6,1.3-1.3l0-1.5c0-0.7-0.6-1.3-1.3-1.3c0,0,0,0,0,0c-0.7,0-1.3,0.6-1.3,1.3
		l0,1.5C48.2,29.3,48.8,29.8,49.5,29.8z"/>
	<path class="st1" d="M46,30.5c0.2,0,0.5-0.1,0.7-0.2c0.6-0.4,0.8-1.2,0.5-1.8l-0.7-1.3c-0.4-0.6-1.2-0.8-1.8-0.5s-0.8,1.2-0.5,1.8
		l0.7,1.3C45.1,30.3,45.6,30.5,46,30.5z"/>
	<path class="st1" d="M53,30.5c0.5,0,0.9-0.2,1.1-0.7l0.7-1.3c0.4-0.6,0.1-1.4-0.5-1.8c-0.6-0.4-1.4-0.1-1.8,0.5l-0.7,1.3
		c-0.4,0.6-0.1,1.4,0.5,1.8C52.5,30.4,52.8,30.5,53,30.5z"/>
	<path class="st1" d="M49.5,70.2C49.5,70.2,49.5,70.2,49.5,70.2c-0.7,0-1.3,0.6-1.3,1.3l0,1.5c0,0.7,0.6,1.3,1.3,1.3h0
		c0.7,0,1.3-0.6,1.3-1.3l0-1.5C50.8,70.7,50.2,70.2,49.5,70.2z"/>
	<path class="st1" d="M54.1,70.2c-0.4-0.6-1.2-0.8-1.8-0.5s-0.8,1.2-0.5,1.8l0.7,1.3c0.2,0.4,0.7,0.7,1.1,0.7c0.2,0,0.5-0.1,0.7-0.2
		c0.6-0.4,0.8-1.2,0.5-1.8L54.1,70.2z"/>
	<path class="st1" d="M44.9,70.2l-0.7,1.3c-0.4,0.6-0.1,1.4,0.5,1.8c0.2,0.1,0.4,0.2,0.7,0.2c0.5,0,0.9-0.2,1.1-0.7l0.7-1.3
		c0.4-0.6,0.1-1.4-0.5-1.8C46,69.3,45.2,69.6,44.9,70.2z"/>
</g>
<g id="Layer_3" class="st0">
	<g class="st1">
		<g>
			<path class="st2" d="M34.3,6c-12.2,0-22,9.8-22,22v16.1c0,5.7,4.6,10.3,10.3,10.3h1.5v-2.9h-1.5c-4,0-7.3-3.3-7.3-7.3V28
				c0-10.5,8.5-19.1,19.1-19.1S53.4,17.5,53.4,28v16.1c0,4-3.3,7.3-7.3,7.3h-1.5v2.9h1.5c5.7,0,10.3-4.6,10.3-10.3V28
				C56.3,15.8,46.5,6,34.3,6z"/>
		</g>
	</g>
	<g class="st1">
		<g>
			<path class="st2" d="M17.1,75.1l1.1-1.7l-2.5-1.6l-1.1,1.7c-3.2,5.1-3,11.7,0.6,16.5V94h2.9v-4.4c0-0.3-0.1-0.7-0.3-0.9
				C14.7,84.8,14.4,79.3,17.1,75.1z"/>
		</g>
	</g>
	<g class="st1">
		<g>
			<path class="st3" d="M85.7,6H66.6c-4,0-7.3,3.3-7.3,7.3V28c0,4,3.3,7.3,7.3,7.3h2.9v5.9c0,0.6,0.4,1.1,0.9,1.4
				c0.2,0.1,0.4,0.1,0.6,0.1c0.4,0,0.8-0.2,1-0.4l6.9-6.9h6.7c4,0,7.3-3.3,7.3-7.3V13.3C93,9.3,89.7,6,85.7,6z M90.1,28
				c0,2.4-2,4.4-4.4,4.4h-7.3c-0.4,0-0.8,0.2-1,0.4l-4.8,4.8v-3.8c0-0.8-0.7-1.5-1.5-1.5h-4.4c-2.4,0-4.4-2-4.4-4.4V13.3
				c0-2.4,2-4.4,4.4-4.4h19.1c2.4,0,4.4,2,4.4,4.4V28z"/>
		</g>
	</g>
	<g class="st1">
		<g>
			<rect x="66.6" y="13.3" class="st3" width="10.3" height="2.9"/>
		</g>
	</g>
	<g class="st1">
		<g>
			<rect x="79.8" y="13.3" class="st3" width="5.9" height="2.9"/>
		</g>
	</g>
	<g class="st1">
		<g>
			<rect x="66.6" y="19.2" class="st3" width="19.1" height="2.9"/>
		</g>
	</g>
	<g class="st1">
		<g>
			<rect x="66.6" y="25.1" class="st3" width="10.3" height="2.9"/>
		</g>
	</g>
	<g class="st1">
		<g>
			<path class="st2" d="M54.1,73.6L53,71.9l-2.5,1.6l1.1,1.7c2.7,4.2,2.4,9.7-0.7,13.6c-0.2,0.3-0.3,0.6-0.3,0.9V94h2.9v-3.9
				C57.1,85.2,57.3,78.7,54.1,73.6z"/>
		</g>
	</g>
	<g class="st1">
		<g>
			<path class="st2" d="M91.5,55.9H78.3c-5.5,0-10,4.4-10.2,9.8l-4.4,8v-6.1c0-5.7-4.6-10.3-10.3-10.3H48l0,0l0,0h-3.4
				c-1.6,0-2.9-1.3-2.9-2.9v-3.5c4.5-2.6,7.3-7.4,7.3-12.7V26.5c0-2.4-0.6-4.8-1.8-7c-0.4-0.7-1.2-1-1.9-0.6L20.5,30.6
				c-0.5,0.2-0.8,0.8-0.8,1.3v6.3c0,5.2,2.8,10.1,7.3,12.7v3.5c0,1.6-1.3,2.9-2.9,2.9h-8.8C9.6,57.3,5,61.9,5,67.6V94h2.9V67.6
				c0-4,3.3-7.3,7.3-7.3h4.7l13.2,18.5c0.3,0.4,0.7,0.6,1.2,0.6h0c0.5,0,0.9-0.2,1.2-0.6l13.9-18.5h4c4,0,7.3,3.3,7.3,7.3v11.7
				c0,0.8,0.7,1.5,1.5,1.5c0.5,0,1-0.3,1.3-0.8l6.9-12.4h8.4L64.5,94h3.3l14.3-26.4h0.6C88.4,67.6,93,63,93,57.3
				C93,56.5,92.3,55.9,91.5,55.9z M22.6,38.3v-5.4l22.6-10.7c0.5,1.4,0.8,2.8,0.8,4.3v11.7c0,6.5-5.3,11.7-11.7,11.7
				S22.6,44.7,22.6,38.3z M34.4,75.4l-4.5-6.3h9.3L34.4,75.4z M41.3,66.1H27.7l-4.2-5.9h0.5c3.2,0,5.9-2.6,5.9-5.9v-2.1
				c2.9,0.9,5.9,0.9,8.8,0v2.1c0,3.2,2.6,5.9,5.9,5.9h1.2L41.3,66.1z M82.7,64.7H71.1c0.7-3.4,3.7-5.9,7.2-5.9h11.6
				C89.2,62.2,86.2,64.7,82.7,64.7z"/>
		</g>
	</g>
</g>
<g id="Layer_4">
	<path class="st3" d="M27,44.2h47v2.9H27V44.2z"/>
	<path class="st2" d="M54.9,50H74V53H54.9V50z"/>
	<path class="st3" d="M27,50h19.1V53H27V50z"/>
	<path class="st3" d="M54.9,38.3H74v2.9H54.9V38.3z"/>
	<path class="st2" d="M27,38.3h19.1v2.9H27V38.3z"/>
	<path class="st3" d="M27,32.4h47v2.9H27V32.4z"/>
	<path class="st3" d="M82.8,40v-7.6c0-4.9-3.9-8.8-8.8-8.8v2.9c3.2,0,5.9,2.6,5.9,5.9V40c0,2.6,0.9,5.1,2.4,7.1
		c-1.6,2-2.4,4.5-2.4,7.1v7.6c0,3.2-2.6,5.9-5.9,5.9v2.9c4.9,0,8.8-3.9,8.8-8.8v-7.6c0-2.3,0.9-4.4,2.5-6.1l1-1l-1-1
		C83.7,44.4,82.8,42.3,82.8,40z"/>
	<path class="st3" d="M21.1,61.8v-7.6c0-2.6-0.9-5.1-2.4-7.1c1.6-2,2.4-4.5,2.4-7.1v-7.6c0-3.2,2.6-5.9,5.9-5.9v-2.9
		c-4.9,0-8.8,3.9-8.8,8.8V40c0,2.3-0.9,4.4-2.5,6.1l-1,1l1,1c1.6,1.6,2.5,3.8,2.5,6.1v7.6c0,4.9,3.9,8.8,8.8,8.8v-2.9
		C23.8,67.6,21.1,65,21.1,61.8z"/>
	<path class="st2" d="M50.5,70.6c-3.2,0-5.9,2.6-5.9,5.9c0,3.2,2.6,5.9,5.9,5.9s5.9-2.6,5.9-5.9C56.4,73.2,53.7,70.6,50.5,70.6z
		 M50.5,79.4c-1.6,0-2.9-1.3-2.9-2.9s1.3-2.9,2.9-2.9s2.9,1.3,2.9,2.9S52.1,79.4,50.5,79.4z"/>
	<path class="st2" d="M50.5,64.7c-1.9,0-3.9,0.5-5.6,1.4l1.4,2.6c1.3-0.7,2.7-1.1,4.2-1.1c4.9,0,8.8,3.9,8.8,8.8
		c0,1.5-0.4,2.9-1.1,4.2l2.6,1.4c0.9-1.7,1.4-3.6,1.4-5.6C62.2,70,57,64.7,50.5,64.7z"/>
	<path class="st2" d="M50.5,85.3c-4.9,0-8.8-3.9-8.8-8.8c0-1.5,0.4-2.9,1.1-4.2l-2.6-1.4c-0.9,1.7-1.4,3.6-1.4,5.6
		c0,6.5,5.3,11.7,11.7,11.7c1.9,0,3.9-0.5,5.6-1.4l-1.4-2.6C53.4,84.9,52,85.3,50.5,85.3z"/>
	<path class="st2" d="M96,10.4C96,8,94,6,91.6,6H9.4C7,6,5,8,5,10.4v67.5h25v2.6l3.7,0.9c0.3,1.2,0.8,2.3,1.4,3.4l-2,3.2l5.8,5.8
		l3.2-2c1.1,0.6,2.2,1.1,3.4,1.4l0.9,3.7h8.2l0.9-3.7c1.2-0.3,2.3-0.8,3.4-1.4l3.2,2l5.8-5.8l-2-3.2c0.6-1.1,1.1-2.2,1.4-3.4
		l3.7-0.9v-2.6h25V10.4z M9.4,8.9h82.2c0.8,0,1.5,0.7,1.5,1.5v7.3H7.9v-7.3C7.9,9.6,8.6,8.9,9.4,8.9z M68.1,78.2L65,79l-0.2,0.9
		c-0.4,1.5-0.9,2.9-1.7,4.2l-0.5,0.8l1.7,2.8l-2.5,2.5l-2.8-1.7L58.1,89c-1.3,0.8-2.7,1.4-4.2,1.7l-0.9,0.2l-0.8,3.2h-3.6l-0.8-3.1
		l-0.9-0.2c-1.5-0.4-2.9-0.9-4.2-1.7l-0.8-0.5l-2.8,1.7l-2.5-2.5l1.7-2.8L38,84.1c-0.8-1.3-1.4-2.7-1.7-4.2L36,79l-3.2-0.8v-3.6
		l3.1-0.8l0.2-0.9c0.4-1.5,0.9-2.9,1.7-4.2l0.5-0.8l-1.7-2.8l2.5-2.5l2.8,1.7l0.8-0.5c1.3-0.8,2.7-1.4,4.2-1.7l0.9-0.2l0.8-3.2h3.6
		l0.8,3.1l0.9,0.2c1.5,0.4,2.9,0.9,4.2,1.7l0.8,0.5l2.8-1.7l2.5,2.5L62.5,68l0.5,0.8c0.8,1.3,1.4,2.7,1.7,4.2l0.2,0.9l3.2,0.8V78.2z
		 M71,75v-2.6l-3.7-0.9c-0.3-1.2-0.8-2.3-1.4-3.4l2-3.2L62.1,59l-3.2,2c-1.1-0.6-2.2-1.1-3.4-1.4l-0.9-3.7h-8.2l-0.9,3.7
		c-1.2,0.3-2.3,0.8-3.4,1.4l-3.2-2l-5.8,5.8l2,3.2c-0.6,1.1-1.1,2.2-1.4,3.4L30,72.4V75h-22V20.7h85.1V75H71z"/>
	<path class="st2" d="M10.9,11.9h2.9v2.9h-2.9V11.9z"/>
	<path class="st2" d="M16.7,11.9h2.9v2.9h-2.9V11.9z"/>
	<path class="st2" d="M22.6,11.9h2.9v2.9h-2.9V11.9z"/>
</g>
</svg>
