<?xml version="1.0" encoding="utf-8"?>
<!-- Generator: Adobe Illustrator 23.0.2, SVG Export Plug-In . SVG Version: 6.00 Build 0)  -->
<svg version="1.1" xmlns="http://www.w3.org/2000/svg" xmlns:xlink="http://www.w3.org/1999/xlink" x="0px" y="0px"
	 viewBox="0 0 100 100" style="enable-background:new 0 0 100 100;" xml:space="preserve">
<style type="text/css">
	.st0{display:none;}
	.st1{display:inline;}
	.st2{fill:#333333;}
	.st3{fill:#ED0A0A;}
</style>
<g id="Layer_1" class="st0">
	<g class="st1">
		<g>
			<path class="st2" d="M43.1,46.3L6.2,83.2l11.3,11.3l36.9-36.9l17-17L60,29.3L43.1,46.3z M17.4,91.1l-7.9-7.9L44.7,48l7.9,7.9
				L17.4,91.1z M60,32.7l7.9,7.9L54.3,54.2l-7.9-7.9L60,32.7z"/>
			<polygon class="st3" points="84.3,48.9 86.6,48.9 86.6,41.6 94,41.6 94,39.2 86.6,39.2 86.6,31.8 84.3,31.8 84.3,39.2 76.9,39.2 
				76.9,41.6 84.3,41.6 			"/>
			<polygon class="st3" points="86.9,57.2 86.9,54.9 79.5,54.9 79.5,47.5 77.2,47.5 77.2,54.9 69.8,54.9 69.8,57.2 77.2,57.2 
				77.2,64.6 79.5,64.6 79.5,57.2 			"/>
			<polygon class="st3" points="69,13 61.6,13 61.6,5.7 59.3,5.7 59.3,13 51.9,13 51.9,15.4 59.3,15.4 59.3,22.8 61.6,22.8 
				61.6,15.4 69,15.4 			"/>
			<polygon class="st3" points="53.3,20.2 46,20.2 46,12.8 43.6,12.8 43.6,20.2 36.2,20.2 36.2,22.5 43.6,22.5 43.6,29.9 46,29.9 
				46,22.5 53.3,22.5 			"/>
		</g>
	</g>
</g>
<g id="Layer_2">
	<path class="st3" d="M79.6,52.1c1.1-1.2,1.1-3,0-4.1c-8.3-9.2-19-14.2-30.1-14.2c-11.1,0-21.8,5.1-30.1,14.2c-1.1,1.2-1.1,3,0,4.1
		c1.4,1.5,2.9,3,4.4,4.3c0.6,0.5,1.4,0.4,1.9-0.1c0.5-0.6,0.4-1.4-0.1-1.9c-1.5-1.3-2.9-2.6-4.2-4.1c-0.2-0.2-0.2-0.4,0-0.6
		c7.8-8.6,17.8-13.4,28.2-13.4c10.4,0,20.4,4.8,28.2,13.4c0.2,0.2,0.2,0.4,0,0.6c-7.8,8.6-17.8,13.4-28.2,13.4
		c-6.9,0-13.4-2-19.5-5.9c-0.6-0.4-1.4-0.2-1.8,0.4c-0.4,0.6-0.2,1.4,0.4,1.8c6.4,4.2,13.7,6.4,20.9,6.4
		C60.6,66.3,71.3,61.2,79.6,52.1z"/>
	<path d="M88.8,72.2c-1.2-0.5-2.5-0.2-3.4,0.7l-4.3,4.3c-0.5,0.5-0.5,1.3,0,1.9c0.5,0.5,1.3,0.5,1.9,0l4.3-4.3
		c0.2-0.2,0.4-0.2,0.6-0.1c0.1,0,0.3,0.2,0.3,0.5v13c0,0.3-0.2,0.5-0.5,0.5h-13c-0.3,0-0.4-0.2-0.5-0.3s-0.1-0.3,0.1-0.6l4.6-4.6
		c0.5-0.5,0.5-1.3,0-1.9c-0.5-0.5-1.3-0.5-1.9,0l-4.6,4.6c-0.9,0.9-1.2,2.2-0.7,3.4c0.5,1.2,1.6,1.9,2.9,1.9h13
		c1.7,0,3.1-1.4,3.1-3.1v-13C90.8,73.9,90,72.7,88.8,72.2z"/>
	<path class="st2" d="M91.3,15.1c1.7,0,3.1-1.4,3.1-3.1V8.1C94.4,6.4,93,5,91.3,5h-3.8c-1.7,0-3.1,1.4-3.1,3.1v0.6H54.6V8.1
		c0-1.7-1.4-3.1-3.1-3.1h-3.8c-1.7,0-3.1,1.4-3.1,3.1v0.6H14.7V8.1c0-1.7-1.4-3.1-3.1-3.1H7.7C6,5,4.6,6.4,4.6,8.1v3.8
		c0,1.7,1.4,3.1,3.1,3.1h0.5V45H7.7c-1.7,0-3.1,1.4-3.1,3.1v3.8C4.6,53.6,6,55,7.7,55h0.5v29.9H7.7c-1.7,0-3.1,1.4-3.1,3.1v3.8
		C4.6,93.6,6,95,7.7,95h3.8c1.7,0,3.1-1.4,3.1-3.1v-0.6h29.8v0.6c0,1.7,1.4,3.1,3.1,3.1h3.8c1.7,0,3.1-1.4,3.1-3.1v-3.8
		c0-1.7-1.4-3.1-3.1-3.1h-3.8c-1.7,0-3.1,1.4-3.1,3.1v0.6H14.7v-0.6c0-1.7-1.4-3.1-3.1-3.1h-0.7V55h0.7c1.7,0,3.1-1.4,3.1-3.1v-3.8
		c0-1.7-1.4-3.1-3.1-3.1h-0.7V15.1h0.7c1.7,0,3.1-1.4,3.1-3.1v-0.6h29.8v0.6c0,1.7,1.4,3.1,3.1,3.1h3.8c1.7,0,3.1-1.4,3.1-3.1v-0.6
		h29.8v0.6c0,1.7,1.4,3.1,3.1,3.1h0.7V45h-0.7c-1.7,0-3.1,1.4-3.1,3.1v3.8c0,1.7,1.4,3.1,3.1,3.1h3.8c1.7,0,3.1-1.4,3.1-3.1v-3.8
		c0-1.7-1.4-3.1-3.1-3.1h-0.5V15.1H91.3z M47.1,88.1c0-0.3,0.2-0.5,0.5-0.5h3.8c0.3,0,0.5,0.2,0.5,0.5v3.8c0,0.3-0.2,0.5-0.5,0.5
		h-3.8c-0.3,0-0.5-0.2-0.5-0.5V88.1z M11.5,87.6c0.3,0,0.5,0.2,0.5,0.5v3.8c0,0.3-0.2,0.5-0.5,0.5H7.7c-0.3,0-0.5-0.2-0.5-0.5v-3.8
		c0-0.3,0.2-0.5,0.5-0.5H11.5z M11.5,47.6c0.3,0,0.5,0.2,0.5,0.5v3.8c0,0.3-0.2,0.5-0.5,0.5H7.7c-0.3,0-0.5-0.2-0.5-0.5v-3.8
		c0-0.3,0.2-0.5,0.5-0.5H11.5z M12,11.9c0,0.3-0.2,0.5-0.5,0.5H7.7c-0.3,0-0.5-0.2-0.5-0.5V8.1c0-0.3,0.2-0.5,0.5-0.5h3.8
		c0.3,0,0.5,0.2,0.5,0.5V11.9z M51.9,11.9c0,0.3-0.2,0.5-0.5,0.5h-3.8c-0.3,0-0.5-0.2-0.5-0.5V8.1c0-0.3,0.2-0.5,0.5-0.5h3.8
		c0.3,0,0.5,0.2,0.5,0.5V11.9z M91.3,47.6c0.3,0,0.5,0.2,0.5,0.5v3.8c0,0.3-0.2,0.5-0.5,0.5h-3.8c-0.3,0-0.5-0.2-0.5-0.5v-3.8
		c0-0.3,0.2-0.5,0.5-0.5H91.3z M87.5,12.4c-0.3,0-0.5-0.2-0.5-0.5V8.1c0-0.3,0.2-0.5,0.5-0.5h3.8c0.3,0,0.5,0.2,0.5,0.5v3.8
		c0,0.3-0.2,0.5-0.5,0.5H87.5z"/>
	<path class="st3" d="M58.8,48.1c0.1,0.7,0.8,1.2,1.6,1c0.7-0.1,1.2-0.8,1-1.6c-1.1-5.6-6.1-9.7-11.9-9.7c-6.7,0-12.1,5.4-12.1,12.1
		s5.4,12.1,12.1,12.1c5.1,0,9.7-3.2,11.4-8.1c0.2-0.7-0.1-1.4-0.8-1.7s-1.4,0.1-1.7,0.8c-1.3,3.8-4.9,6.3-8.9,6.3
		c-5.2,0-9.5-4.2-9.5-9.5c0-5.2,4.2-9.5,9.5-9.5C54,40.5,57.9,43.7,58.8,48.1z"/>
	<path class="st3" d="M51.8,43.3c-1.3,0-2.4,0.7-3.1,1.7c-2.4,0.4-4.3,2.5-4.3,5c0,2.8,2.3,5,5,5c2.8,0,5-2.3,5-5c0-0.2,0-0.5,0-0.7
		c0.6-0.6,0.9-1.5,0.9-2.4C55.4,44.9,53.8,43.3,51.8,43.3z M51.8,45.9c0.5,0,1,0.4,1,1s-0.4,1-1,1s-1-0.4-1-1S51.3,45.9,51.8,45.9z
		 M49.5,52.4c-1.3,0-2.4-1.1-2.4-2.4c0-0.9,0.5-1.7,1.2-2.1c0.4,1.5,1.8,2.6,3.5,2.6c0,0,0,0,0,0C51.6,51.6,50.7,52.4,49.5,52.4z"/>
	<path d="M49.5,29.8L49.5,29.8c0.7,0,1.3-0.6,1.3-1.3l0-1.5c0-0.7-0.6-1.3-1.3-1.3c0,0,0,0,0,0c-0.7,0-1.3,0.6-1.3,1.3l0,1.5
		C48.2,29.3,48.8,29.8,49.5,29.8z"/>
	<path d="M46,30.5c0.2,0,0.5-0.1,0.7-0.2c0.6-0.4,0.8-1.2,0.5-1.8l-0.7-1.3c-0.4-0.6-1.2-0.8-1.8-0.5s-0.8,1.2-0.5,1.8l0.7,1.3
		C45.1,30.3,45.6,30.5,46,30.5z"/>
	<path d="M53,30.5c0.5,0,0.9-0.2,1.1-0.7l0.7-1.3c0.4-0.6,0.1-1.4-0.5-1.8c-0.6-0.4-1.4-0.1-1.8,0.5l-0.7,1.3
		c-0.4,0.6-0.1,1.4,0.5,1.8C52.5,30.4,52.8,30.5,53,30.5z"/>
	<path d="M49.5,70.2C49.5,70.2,49.5,70.2,49.5,70.2c-0.7,0-1.3,0.6-1.3,1.3l0,1.5c0,0.7,0.6,1.3,1.3,1.3h0c0.7,0,1.3-0.6,1.3-1.3
		l0-1.5C50.8,70.7,50.2,70.2,49.5,70.2z"/>
	<path d="M54.1,70.2c-0.4-0.6-1.2-0.8-1.8-0.5s-0.8,1.2-0.5,1.8l0.7,1.3c0.2,0.4,0.7,0.7,1.1,0.7c0.2,0,0.5-0.1,0.7-0.2
		c0.6-0.4,0.8-1.2,0.5-1.8L54.1,70.2z"/>
	<path d="M44.9,70.2l-0.7,1.3c-0.4,0.6-0.1,1.4,0.5,1.8c0.2,0.1,0.4,0.2,0.7,0.2c0.5,0,0.9-0.2,1.1-0.7l0.7-1.3
		c0.4-0.6,0.1-1.4-0.5-1.8C46,69.3,45.2,69.6,44.9,70.2z"/>
</g>
</svg>
